<svg width="20" height="20" viewBox="0 0 20 20" fill="none" xmlns="http://www.w3.org/2000/svg">
<path fill-rule="evenodd" clip-rule="evenodd" d="M1.35156 10.1802C1.35156 6.58504 1.35156 4.78747 2.20825 3.49273C2.59081 2.91456 3.08595 2.41942 3.66412 2.03687C4.95885 1.18018 6.75642 1.18018 10.3516 1.18018C13.9467 1.18018 15.7443 1.18018 17.039 2.03687C17.6172 2.41942 18.1123 2.91456 18.4949 3.49273C19.3516 4.78747 19.3516 6.58504 19.3516 10.1802C19.3516 13.7753 19.3516 15.5729 18.4949 16.8676C18.1123 17.4458 17.6172 17.9409 17.039 18.3235C15.7443 19.1802 13.9467 19.1802 10.3516 19.1802C6.75642 19.1802 4.95885 19.1802 3.66412 18.3235C3.08595 17.9409 2.59081 17.4458 2.20825 16.8676C1.35156 15.5729 1.35156 13.7753 1.35156 10.1802ZM15.0063 10.1794C15.0063 12.7527 12.9202 14.8388 10.3469 14.8388C7.77359 14.8388 5.6875 12.7527 5.6875 10.1794C5.6875 7.60611 7.77359 5.52002 10.3469 5.52002C12.9202 5.52002 15.0063 7.60611 15.0063 10.1794ZM10.3469 13.2624C12.0496 13.2624 13.4299 11.8821 13.4299 10.1794C13.4299 8.47673 12.0496 7.09643 10.3469 7.09643C8.64421 7.09643 7.26391 8.47673 7.26391 10.1794C7.26391 11.8821 8.64421 13.2624 10.3469 13.2624ZM15.1886 6.38154C15.7932 6.38154 16.2834 5.89137 16.2834 5.28672C16.2834 4.68206 15.7932 4.19189 15.1886 4.19189C14.5839 4.19189 14.0938 4.68206 14.0938 5.28672C14.0938 5.89137 14.5839 6.38154 15.1886 6.38154Z" fill="white" fill-opacity="0.6"/>
</svg>
