<svg width="20" height="19" viewBox="0 0 20 19" fill="none" xmlns="http://www.w3.org/2000/svg">
<path d="M1.35156 3.1012C1.35156 2.52399 1.55427 2.0478 1.95967 1.67263C2.36507 1.29745 2.89211 1.10986 3.54075 1.10986C4.17782 1.10986 4.69326 1.29456 5.08708 1.66398C5.49248 2.04493 5.69519 2.54131 5.69519 3.15315C5.69519 3.70726 5.49829 4.16901 5.10446 4.53843C4.69906 4.91939 4.16623 5.10986 3.506 5.10986H3.48863C2.85156 5.10986 2.33612 4.91939 1.9423 4.53843C1.54847 4.15748 1.35156 3.6784 1.35156 3.1012ZM1.57743 18.2527V6.68562H5.43457V18.2527H1.57743ZM7.57164 18.2527H11.4288V11.7938C11.4288 11.3898 11.4751 11.0781 11.5678 10.8588C11.7299 10.4663 11.9761 10.1344 12.3062 9.86311C12.6363 9.59182 13.0504 9.45618 13.5485 9.45618C14.8458 9.45618 15.4944 10.3277 15.4944 12.0709V18.2527H19.3516V11.6207C19.3516 9.91216 18.9462 8.61635 18.1353 7.73324C17.3245 6.85012 16.2531 6.40856 14.9211 6.40856C13.4269 6.40856 12.2628 7.04925 11.4288 8.33064V8.36527H11.4114L11.4288 8.33064V6.68562H7.57164C7.5948 7.05502 7.60639 8.20364 7.60639 10.1315C7.60639 12.0593 7.5948 14.7664 7.57164 18.2527Z" fill="white" fill-opacity="0.6"/>
</svg>
