<svg width="20" height="16" viewBox="0 0 20 16" fill="none" xmlns="http://www.w3.org/2000/svg">
<path d="M13.3708 0.882636V0.879395H14.2148L14.5232 0.940986C14.7288 0.980973 14.9154 1.03337 15.0832 1.09821C15.2509 1.16304 15.4132 1.23869 15.5701 1.32513C15.727 1.41157 15.8693 1.49964 15.997 1.58932C16.1236 1.67793 16.2372 1.77194 16.3378 1.87135C16.4373 1.97184 16.5926 1.99777 16.8036 1.94915C17.0146 1.90052 17.2419 1.83298 17.4853 1.74654C17.7288 1.6601 17.9695 1.56285 18.2076 1.45479C18.4456 1.34673 18.5907 1.27812 18.6426 1.24895C18.6934 1.2187 18.7205 1.20249 18.7237 1.20032L18.727 1.19546L18.7432 1.18735L18.7594 1.17925L18.7757 1.17115L18.7919 1.16304L18.7951 1.15818L18.8 1.15494L18.8049 1.1517L18.8081 1.14683L18.8244 1.14197L18.8406 1.13873L18.8374 1.16304L18.8325 1.18735L18.8244 1.21167L18.8162 1.23598L18.8081 1.25219L18.8 1.2684L18.7919 1.29271C18.7865 1.30892 18.7811 1.33052 18.7757 1.35754C18.7703 1.38456 18.7189 1.49261 18.6215 1.68171C18.5241 1.87081 18.4024 2.06261 18.2563 2.25711C18.1102 2.45161 17.9793 2.59856 17.8635 2.69798C17.7467 2.79847 17.6693 2.8687 17.6314 2.90869C17.5935 2.94974 17.5475 2.98756 17.4934 3.02215L17.4123 3.07563L17.396 3.08374L17.3798 3.09184L17.3766 3.0967L17.3717 3.09995L17.3668 3.10319L17.3636 3.10805L17.3474 3.11615L17.3311 3.12426L17.3279 3.12912L17.323 3.13236L17.3181 3.1356L17.3149 3.14047L17.3117 3.14533L17.3068 3.14857L17.3019 3.15181L17.2987 3.15668H17.3798L17.8343 3.05943C18.1373 2.99459 18.4267 2.91626 18.7026 2.8244L19.1409 2.67853L19.1896 2.66232L19.2139 2.65422L19.2301 2.64611L19.2464 2.63801L19.2626 2.6299L19.2788 2.6218L19.3113 2.61694L19.3438 2.61369V2.64611L19.3356 2.64935L19.3275 2.65422L19.3243 2.65908L19.3194 2.66232L19.3145 2.66556L19.3113 2.67042L19.3081 2.67529L19.3032 2.67853L19.2983 2.68177L19.2951 2.68663L19.2918 2.69149L19.2869 2.69474L19.2788 2.71094L19.2707 2.72715L19.2658 2.73039C19.2637 2.73364 19.195 2.82547 19.0597 3.00594C18.9245 3.18747 18.8514 3.27931 18.8406 3.28148C18.8298 3.28472 18.8146 3.30093 18.7951 3.33011C18.7768 3.36035 18.6621 3.48084 18.4511 3.69155C18.2401 3.90226 18.0334 4.08973 17.8311 4.25399C17.6276 4.41931 17.5248 4.62245 17.5227 4.86342C17.5194 5.10331 17.507 5.37454 17.4853 5.67708C17.4637 5.97965 17.4231 6.3065 17.3636 6.65769C17.3041 7.00888 17.2121 7.40599 17.0877 7.84901C16.9632 8.29203 16.8117 8.72426 16.6332 9.14568C16.4547 9.5671 16.268 9.94529 16.0732 10.2803C15.8785 10.6153 15.6999 10.8989 15.5376 11.1312C15.3753 11.3635 15.2103 11.5823 15.0426 11.7877C14.8749 11.993 14.6628 12.2242 14.4063 12.4814C14.1488 12.7375 14.0082 12.8779 13.9843 12.9028C13.9595 12.9266 13.8534 13.0152 13.6662 13.1686C13.4801 13.3231 13.2799 13.4776 13.0657 13.6322C12.8525 13.7856 12.6566 13.9137 12.4781 14.0163C12.2996 14.119 12.0842 14.2362 11.8321 14.368C11.5811 14.5009 11.3095 14.6241 11.0173 14.7376C10.7252 14.851 10.4168 14.9564 10.0922 15.0536C9.76756 15.1509 9.45376 15.2265 9.15078 15.2806C8.84782 15.3346 8.50426 15.3805 8.12012 15.4183L7.54393 15.4751V15.4832H6.48893V15.4751L6.35096 15.467C6.259 15.4616 6.18325 15.4562 6.12373 15.4508C6.06423 15.4454 5.83969 15.4156 5.45015 15.3616C5.06061 15.3076 4.75494 15.2535 4.53311 15.1995C4.3113 15.1455 3.98126 15.0428 3.54303 14.8916C3.1048 14.7403 2.72986 14.5874 2.41823 14.4329C2.10769 14.2794 1.91292 14.1822 1.83392 14.1411C1.75601 14.1011 1.66837 14.0514 1.57098 13.992L1.4249 13.9029L1.42167 13.898L1.41679 13.8947L1.41192 13.8915L1.40867 13.8866L1.39244 13.8785L1.37621 13.8704L1.37298 13.8656L1.3681 13.8623L1.36323 13.8591L1.35998 13.8542L1.35675 13.8494L1.35187 13.8461H1.34375V13.8137L1.35998 13.8169L1.37621 13.8218L1.44925 13.8299C1.49794 13.8353 1.6305 13.8434 1.84691 13.8542C2.06333 13.865 2.29325 13.865 2.53672 13.8542C2.78018 13.8434 3.02906 13.8191 3.28334 13.7813C3.53762 13.7435 3.83789 13.6786 4.18415 13.5868C4.53042 13.4949 4.84854 13.3858 5.13854 13.2594C5.42744 13.1319 5.63302 13.0368 5.75531 12.9741C5.87649 12.9125 6.06152 12.798 6.31039 12.6305L6.6837 12.3793L6.68694 12.3744L6.69181 12.3712L6.6967 12.3679L6.69993 12.3631L6.70317 12.3582L6.70804 12.3549L6.71293 12.3517L6.71616 12.3468L6.73239 12.342L6.74862 12.3387L6.75187 12.3225L6.75673 12.3063L6.76162 12.3031L6.76485 12.2982L6.635 12.2901C6.54844 12.2847 6.46458 12.2793 6.38343 12.2739C6.30227 12.2685 6.17514 12.2442 6.002 12.201C5.82888 12.1577 5.64223 12.0929 5.44204 12.0065C5.24186 11.92 5.04709 11.8174 4.85773 11.6985C4.66838 11.5797 4.53149 11.4808 4.44709 11.4019C4.36377 11.3241 4.25556 11.2139 4.12247 11.0712C3.99046 10.9275 3.87576 10.78 3.77838 10.6288C3.68099 10.4775 3.58794 10.3029 3.49922 10.1052L3.36449 9.81023L3.35637 9.78592L3.34826 9.7616L3.34339 9.74539L3.34014 9.72919L3.36449 9.73243L3.38884 9.73729L3.56737 9.7616C3.68641 9.77781 3.87307 9.78321 4.12734 9.77781C4.38163 9.77241 4.55746 9.7616 4.65484 9.74539C4.75223 9.72919 4.81174 9.71837 4.83338 9.71298L4.86584 9.70487L4.90642 9.69677L4.947 9.68866L4.95024 9.6838L4.95511 9.68056L4.96 9.67732L4.96323 9.67246L4.93077 9.66435L4.8983 9.65625L4.86584 9.64814L4.83338 9.64004L4.80092 9.63194C4.77928 9.62654 4.74142 9.61573 4.6873 9.59952C4.63321 9.58331 4.48713 9.52387 4.24907 9.42123C4.01103 9.31858 3.82166 9.21862 3.68099 9.12137C3.53997 9.02384 3.40551 8.91717 3.27847 8.80206C3.15187 8.68536 3.01283 8.53516 2.86133 8.35147C2.70985 8.16778 2.5746 7.95436 2.45556 7.71124C2.33654 7.46811 2.24727 7.2358 2.18775 7.01428C2.12847 6.79406 2.08936 6.56892 2.07091 6.34163L2.04168 6.00125L2.05791 6.00449L2.07414 6.00936L2.09037 6.01746L2.1066 6.02556L2.12283 6.03367L2.13906 6.04177L2.39064 6.15523C2.55837 6.23088 2.76666 6.29571 3.01553 6.34973C3.26441 6.40376 3.41318 6.43348 3.46187 6.43888L3.53491 6.44698H3.68099L3.67776 6.44212L3.67288 6.43888L3.66801 6.43564L3.66476 6.43077L3.66153 6.42591L3.65664 6.42267L3.65178 6.41943L3.64853 6.41457L3.6323 6.40646L3.61607 6.39836L3.61284 6.3935L3.60795 6.39025L3.60308 6.38701L3.59984 6.38215L3.58361 6.37404L3.56737 6.36594L3.56414 6.36108C3.5609 6.35891 3.51436 6.32433 3.42454 6.25734C3.33581 6.18927 3.24276 6.10121 3.14537 5.99315C3.04799 5.88509 2.9506 5.77163 2.85322 5.65277C2.75565 5.53364 2.66876 5.40619 2.59352 5.27187C2.51779 5.13681 2.43771 4.96498 2.35331 4.75645C2.27 4.54898 2.20669 4.33989 2.16341 4.12918C2.12014 3.91847 2.09579 3.71047 2.09037 3.50516C2.08496 3.29984 2.09037 3.12426 2.1066 2.97838C2.12283 2.83251 2.15529 2.66772 2.20398 2.48403C2.25268 2.30034 2.32302 2.10584 2.41499 1.90052L2.55295 1.59256L2.56106 1.56825L2.56918 1.54394L2.57406 1.5407L2.57729 1.53584L2.58054 1.53097L2.58541 1.52773L2.59029 1.53097L2.59352 1.53584L2.59677 1.5407L2.60164 1.54394L2.60653 1.54718L2.60976 1.55204L2.613 1.55691L2.61787 1.56015L2.62599 1.57636L2.6341 1.59256L2.63899 1.59581L2.64222 1.60067L2.86133 1.84379C3.00741 2.00588 3.18055 2.18688 3.38072 2.38678C3.58091 2.58667 3.69182 2.69041 3.71345 2.69798C3.7351 2.70662 3.76214 2.73146 3.79461 2.77254C3.82707 2.81252 3.93528 2.90815 4.11922 3.05943C4.30318 3.2107 4.54394 3.3863 4.8415 3.5862C5.13907 3.7861 5.46909 3.9833 5.83158 4.17781C6.19408 4.37231 6.58362 4.54789 7.0002 4.70458C7.41679 4.86127 7.70895 4.96391 7.87666 5.01254C8.04439 5.06116 8.33113 5.12329 8.7369 5.19894C9.14267 5.27458 9.44836 5.32321 9.65394 5.34481C9.85954 5.36642 10.0002 5.37885 10.0759 5.38209L10.1896 5.38533L10.1863 5.36102L10.1814 5.33671L10.149 5.1341C10.1273 4.99904 10.1165 4.80993 10.1165 4.56681C10.1165 4.32368 10.1355 4.09947 10.1733 3.89416C10.2112 3.68885 10.268 3.48084 10.3438 3.27013C10.4195 3.05943 10.4936 2.89031 10.5661 2.76281C10.6397 2.63639 10.736 2.49213 10.855 2.33005C10.9741 2.16796 11.1283 2.00048 11.3176 1.82759C11.507 1.65469 11.7234 1.50071 11.9668 1.36565C12.2103 1.23058 12.4348 1.12792 12.6404 1.05769C12.846 0.987456 13.0191 0.941521 13.1598 0.919916C13.3005 0.89831 13.3708 0.885878 13.3708 0.882636Z" fill="white" fill-opacity="0.6"/>
</svg>
