<svg width="22" height="16" viewBox="0 0 22 16" fill="none" xmlns="http://www.w3.org/2000/svg">
<path d="M11.7918 15.1603L7.72959 15.0844C6.41434 15.058 5.09582 15.1108 3.80636 14.8367C1.8448 14.4272 1.70583 12.4193 1.56042 10.735C1.36006 8.3672 1.43763 5.95638 1.81573 3.60831C2.02919 2.29079 2.86922 1.50462 4.1683 1.41907C8.55365 1.10859 12.9682 1.14539 17.3438 1.29023C17.8059 1.30351 18.2712 1.37609 18.7269 1.4587C20.9762 1.86162 21.0311 4.13702 21.1769 6.05247C21.3223 7.98769 21.2609 9.93285 20.9829 11.8549C20.76 13.4463 20.3334 14.7808 18.533 14.9097C16.2772 15.0781 14.0732 15.2138 11.8111 15.1706C11.8112 15.1603 11.7982 15.1603 11.7918 15.1603ZM9.4036 11.1314C11.1035 10.134 12.771 9.15317 14.4612 8.16245C12.7581 7.16503 11.0938 6.18424 9.4036 5.19352V11.1314Z" fill="white" fill-opacity="0.6"/>
</svg>
