<svg width="322" height="174" viewBox="0 0 322 174" fill="none" xmlns="http://www.w3.org/2000/svg">
<path fill-rule="evenodd" clip-rule="evenodd" d="M31.2738 100.806C31.2733 100.807 31.2729 100.807 31.2724 100.807L81.1409 169.448C84.2414 173.715 90.0739 175.047 94.6425 172.414C114.787 160.809 137.49 154.741 161.056 154.741C184.62 154.741 207.322 160.809 227.465 172.414C232.035 175.047 237.867 173.715 240.968 169.448L290.833 100.809C290.835 100.809 290.836 100.81 290.837 100.811L319.188 61.7716C322.689 56.9682 321.468 50.1669 316.475 46.9255C281.253 24.0826 242.953 9.61221 203.831 3.54085C173.402 -1.20435 142.466 -0.863388 112.105 4.56276C75.1328 11.1517 39.0058 25.2812 5.6393 46.9255C0.635811 50.1669 -0.585219 56.9682 2.91447 61.7716L31.2738 100.806Z" fill="#78ADF9"/>
</svg>
