<svg width="264" height="239" viewBox="0 0 264 239" fill="none" xmlns="http://www.w3.org/2000/svg">
<path fill-rule="evenodd" clip-rule="evenodd" d="M53.6296 27.1696L7.7794 42.0606C2.11845 43.9013 -0.887117 50.1187 1.24761 55.6755C42.2781 162.468 138.475 232.359 252.724 238.376C258.668 238.69 263.655 233.913 263.655 227.96V179.699C166.41 177.532 84.1895 114.496 53.6296 27.1696ZM133.734 1.12946L53.6294 27.1688C84.1894 114.496 166.41 177.532 263.653 179.698V94.8982C263.653 89.6344 259.737 85.123 254.503 84.5635C207.458 79.5386 166.742 50.0791 147.258 7.02522C144.937 1.89922 139.086 -0.612228 133.734 1.12946Z" fill="#EE7F82"/>
</svg>
