<svg width="202" height="307" viewBox="0 0 202 307" fill="none" xmlns="http://www.w3.org/2000/svg">
<path fill-rule="evenodd" clip-rule="evenodd" d="M178.477 305.732C184.138 307.577 190.222 304.311 191.76 298.556C202.377 258.87 204.446 218.844 198.62 180.509C193.968 149.986 184.313 120.529 169.985 93.1638C152.215 59.2103 127.235 28.486 95.6991 2.92947C91.0733 -0.817261 84.2373 0.121979 80.7377 4.93762L52.3512 43.9896C52.352 43.9902 52.3527 43.9908 52.3535 43.9914L2.47029 112.634C-0.623071 116.894 -0.0942085 122.833 3.80261 126.374C31.5234 151.55 47.7314 187.595 47.7314 225.348C47.7314 234.566 46.782 243.727 44.9014 252.713C43.8213 257.877 46.931 263.008 51.9498 264.638L132.618 290.844C132.618 290.843 132.619 290.842 132.619 290.842L178.477 305.732Z" fill="#A5D27C"/>
</svg>
