<svg width="264" height="239" viewBox="0 0 264 239" fill="none" xmlns="http://www.w3.org/2000/svg">
<path fill-rule="evenodd" clip-rule="evenodd" d="M0.0683594 179.699V227.96C0.0683594 233.913 5.05246 238.69 10.9982 238.376C125.245 232.359 221.442 162.468 262.474 55.6755C264.608 50.1197 261.603 43.9013 255.942 42.0606L210.09 27.1696C179.532 114.496 97.3102 177.532 0.0683594 179.699ZM0.0683594 94.8982V179.698C97.3102 177.532 179.532 114.496 210.09 27.1688L129.386 0.934448C124.378 -0.695953 118.873 1.63992 116.724 6.44841C97.3449 49.8168 56.4768 79.5151 9.22083 84.5635C3.98661 85.123 0.0683594 89.6344 0.0683594 94.8982Z" fill="#B892F9"/>
</svg>
