<svg width="1440" height="94" viewBox="0 0 1440 94" fill="none" xmlns="http://www.w3.org/2000/svg">
<path d="M1410.77 337.791C1401.28 343.882 1390.21 347.294 1378.08 346.806C1371.23 346.563 1364.9 345.101 1358.84 342.664C1352.51 358.746 1336.7 369.711 1318.51 369.223C1311.92 368.98 1306.12 367.274 1300.58 364.35C1296.89 384.574 1278.97 399.682 1258.14 398.951C1249.18 398.707 1241.01 395.539 1234.42 390.422C1222.82 419.662 1193.82 439.886 1160.87 438.668C1147.96 438.181 1135.57 434.526 1125.29 428.19C1107.62 454.019 1077.57 470.832 1043.83 469.613C1018.79 468.639 996.384 457.917 980.04 441.348C971.869 445.49 962.906 447.927 953.153 447.683C943.663 447.44 934.701 444.516 927.056 439.886C918.094 471.563 888.57 494.223 854.302 493.005C843.494 492.518 833.213 489.837 824.251 485.208C810.807 514.204 781.283 533.697 747.806 532.479C733.307 531.991 719.864 527.605 708.265 520.295C678.742 560.256 631.293 585.354 578.572 583.405C518.471 581.212 467.859 544.662 444.662 493.005C437.281 494.954 429.636 495.685 421.728 495.442C388.25 494.223 360.572 473.268 348.71 444.028C329.731 453.531 303.37 455.724 276.483 448.171C244.587 439.155 220.599 418.444 212.163 396.027C207.418 397.245 202.41 397.732 197.138 397.489C182.903 397.001 169.987 391.153 160.497 381.894C149.426 391.884 134.664 397.732 118.848 397.245C89.3241 396.27 65.5998 373.609 62.4366 345.101C52.6832 360.208 35.549 370.198 16.3059 369.467C7.07981 369.223 -1.6191 366.3 -9 361.914L3.65297 47.5864C4.70738 47.5864 5.49819 47.5864 6.55261 47.5864C20.26 48.0737 32.3858 53.9216 41.0847 63.1808C54.0012 44.175 75.8803 31.9918 100.395 32.9665C118.584 33.6975 134.664 41.2511 146.526 53.4343C156.279 34.6721 176.05 22.2452 198.456 22.9763C208.737 23.2199 217.963 26.3875 226.134 31.5045C233.252 28.0932 241.423 26.1439 249.859 26.3876C254.604 26.6312 259.085 27.3622 263.566 28.8242C269.102 26.8749 274.637 25.4129 280.437 24.6819C298.625 10.5494 321.822 2.50842 346.601 3.48309C379.288 4.70142 407.494 21.0269 425.419 45.637C444.134 30.2862 468.122 21.2706 493.955 22.2452C512.408 22.9763 529.278 28.3369 543.777 37.3525C556.693 29.3115 571.719 24.9256 588.062 25.4129C601.769 25.9002 614.422 30.0425 625.494 36.6215C646.318 13.2297 676.896 -1.14655 710.374 0.0717773C737.525 1.04645 762.04 12.0114 780.229 29.5552C789.982 23.2199 801.844 19.5649 814.497 20.0522C830.577 20.5396 844.812 27.6058 855.092 38.3271C870.909 20.2959 894.369 9.33099 919.939 10.062C949.199 11.0367 974.241 27.3622 987.948 51.2413C997.965 37.3525 1014.31 28.5805 1032.5 29.3115C1043.31 29.7988 1053.32 33.4539 1061.49 39.5455C1086.8 27.1185 1120.01 19.8086 1156.13 21.2706C1208.32 22.9763 1252.87 41.4948 1275.54 67.3232C1286.35 54.409 1302.69 46.6117 1320.62 47.0991C1342.5 47.83 1360.68 60.9879 1369.38 79.5064C1375.71 77.3134 1382.56 76.3387 1389.42 76.5824C1407.08 77.3134 1422.63 86.0853 1432.38 99.2432C1434.49 96.5629 1437.13 94.1263 1440.03 92.177L1429.48 353.385C1421.31 349.73 1414.99 344.613 1410.77 337.791Z" fill="#EFC071"/>
<path d="M1410.77 343.515C1401.28 349.607 1390.21 353.018 1378.08 352.531C1371.23 352.287 1364.9 350.825 1358.84 348.389C1352.51 364.471 1336.7 375.435 1318.51 374.948C1311.92 374.704 1306.12 372.999 1300.58 370.075C1296.89 390.299 1278.97 405.406 1258.14 404.675C1249.18 404.431 1241.01 401.264 1234.42 396.147C1222.82 425.387 1193.82 445.611 1160.87 444.392C1147.96 443.905 1135.57 440.25 1125.29 433.915C1107.62 459.743 1077.57 476.556 1043.83 475.338C1018.79 474.363 996.384 463.642 980.04 447.073C971.869 451.215 962.906 453.652 953.153 453.408C943.663 453.164 934.701 450.24 927.056 445.611C918.094 477.287 888.57 499.948 854.302 498.73C843.494 498.242 833.213 495.562 824.251 490.932C810.807 519.928 781.283 539.422 747.806 538.203C733.308 537.716 719.864 533.33 708.265 526.02C678.742 565.981 631.293 591.078 578.572 589.129C518.471 586.936 467.859 550.387 444.662 498.73C437.281 500.679 429.636 501.41 421.728 501.166C388.25 499.948 360.572 478.993 348.71 449.753C329.731 459.256 303.37 461.449 276.483 453.895C244.587 444.88 220.599 424.168 212.163 401.751C207.418 402.97 202.41 403.457 197.138 403.213C182.903 402.726 169.987 396.878 160.497 387.619C149.426 397.609 134.664 403.457 118.848 402.97C89.3241 401.995 65.5998 379.334 62.4366 350.825C52.6832 365.933 35.549 375.923 16.3059 375.192C7.07981 374.948 -1.6191 372.024 -9 367.638L3.65297 53.311C4.70738 53.311 5.49819 53.311 6.55261 53.311C20.26 53.7983 32.3858 59.6462 41.0847 68.9055C54.0012 49.8996 75.8803 37.7164 100.395 38.6911C118.584 39.4221 134.664 46.9757 146.526 59.1589C156.279 40.3967 176.05 27.9699 198.456 28.7009C208.737 28.9445 217.963 32.1122 226.134 37.2291C233.252 33.8178 241.423 31.8685 249.859 32.1122C254.604 32.3558 259.085 33.0868 263.566 34.5488C269.102 32.5995 274.637 31.1375 280.437 30.4065C298.625 16.274 321.822 8.23304 346.601 9.2077C379.288 10.426 407.494 26.7515 425.419 51.3616C444.134 36.0108 468.122 26.9952 493.955 27.9698C512.408 28.7008 529.278 34.0615 543.777 43.0771C556.693 35.0362 571.719 30.6502 588.062 31.1375C601.769 31.6248 614.422 35.7671 625.494 42.3461C646.318 18.9543 676.896 4.57806 710.374 5.79639C737.525 6.77104 762.04 17.7359 780.229 35.2798C789.982 28.9445 801.844 25.2895 814.497 25.7769C830.577 26.2642 844.812 33.3305 855.092 44.0517C870.909 26.0205 894.369 15.0556 919.939 15.7866C949.199 16.7613 974.241 33.0868 987.948 56.9659C997.965 43.0771 1014.31 34.3051 1032.5 35.0361C1043.31 35.5235 1053.32 39.1785 1061.49 45.2701C1086.8 32.8432 1120.01 25.5332 1156.13 26.9952C1208.32 28.7008 1252.87 47.2194 1275.54 73.0478C1286.35 60.1336 1302.69 52.3363 1320.62 52.8237C1342.5 53.5547 1360.68 66.7125 1369.38 85.231C1375.71 83.038 1382.56 82.0633 1389.42 82.307C1407.08 83.038 1422.63 91.8099 1432.38 104.968C1434.49 102.287 1437.13 99.8509 1440.03 97.9016L1434.76 228.506L1429.48 359.11C1421.31 355.455 1414.99 350.338 1410.77 343.515Z" fill="url(#paint0_linear_1200_15027)"/>
<defs>
<linearGradient id="paint0_linear_1200_15027" x1="715.514" y1="589.235" x2="715.514" y2="5.72461" gradientUnits="userSpaceOnUse">
<stop stop-color="#FAD59D"/>
<stop offset="1" stop-color="#FCF0DD"/>
</linearGradient>
</defs>
</svg>
