<svg width="1440" height="522" viewBox="0 0 1440 522" fill="none" xmlns="http://www.w3.org/2000/svg">
<path d="M1433.45 305.022C1423.43 310.402 1411.73 313.414 1398.92 312.984C1391.67 312.768 1384.99 311.477 1378.58 309.326C1371.9 323.527 1355.19 333.209 1335.97 332.779C1329.01 332.564 1322.88 331.058 1317.03 328.476C1313.13 346.334 1294.19 359.675 1272.19 359.029C1262.72 358.814 1254.08 356.017 1247.12 351.498C1234.87 377.318 1204.23 395.177 1169.41 394.101C1155.77 393.671 1142.68 390.444 1131.81 384.849C1113.15 407.657 1081.4 422.503 1045.75 421.428C1019.29 420.567 995.617 411.1 978.349 396.468C969.715 400.126 960.245 402.278 949.94 402.063C939.913 401.847 930.443 399.265 922.366 395.177C912.896 423.149 881.702 443.159 845.494 442.084C834.075 441.653 823.213 439.286 813.743 435.198C799.539 460.803 768.344 478.016 732.972 476.941C717.653 476.51 703.449 472.637 691.194 466.182C660 501.47 609.866 523.632 554.162 521.91C490.659 519.974 437.183 487.699 412.673 442.084C404.875 443.805 396.797 444.45 388.442 444.235C353.07 443.159 323.825 424.655 311.292 398.835C291.238 407.227 263.386 409.163 234.977 402.493C201.276 394.532 175.93 376.243 167.018 356.447C162.004 357.523 156.713 357.953 151.142 357.738C136.102 357.308 122.454 352.144 112.428 343.968C100.73 352.789 85.1327 357.953 68.4214 357.523C37.2271 356.662 12.1602 336.652 8.818 311.477C-1.48727 324.818 -19.5911 333.64 -39.9231 332.994C-49.6714 332.779 -58.8626 330.197 -66.6611 326.324L-53.2921 48.7589C-52.1781 48.7589 -51.3425 48.7589 -50.2284 48.7589C-35.7453 49.1892 -22.9334 54.3532 -13.7422 62.5295C-0.0946655 45.7465 23.0226 34.9882 48.925 35.8488C68.1429 36.4944 85.1327 43.1645 97.6661 53.9229C107.971 37.355 128.86 26.3815 152.535 27.027C163.397 27.2422 173.145 30.0393 181.779 34.5578C189.299 31.5455 197.934 29.8242 206.846 30.0393C211.86 30.2545 216.595 30.9 221.329 32.191C227.178 30.4697 233.027 29.1787 239.155 28.5332C258.373 16.0535 282.882 8.953 309.063 9.81366C343.6 10.8895 373.402 25.3057 392.341 47.0375C412.116 33.482 437.461 25.5208 464.756 26.3815C484.253 27.027 502.078 31.7607 517.397 39.7218C531.044 32.6213 546.92 28.7484 564.188 29.1787C578.672 29.609 592.04 33.2668 603.738 39.0764C625.742 18.4203 658.05 5.72552 693.422 6.80133C722.11 7.66205 748.012 17.3445 767.23 32.8365C777.535 27.2422 790.069 24.0147 803.438 24.445C820.427 24.8753 835.468 31.1152 846.33 40.5825C863.041 24.6602 887.83 14.9777 914.846 15.6232C945.762 16.4838 972.221 30.9 986.704 51.9864C997.288 39.7219 1014.56 31.9759 1033.77 32.6214C1045.19 33.0517 1055.78 36.2792 1064.41 41.6584C1091.15 30.6848 1126.24 24.2299 1164.4 25.5208C1219.55 27.027 1266.62 43.3797 1290.57 66.1873C1301.99 54.7835 1319.26 47.8982 1338.2 48.3285C1361.31 48.974 1380.53 60.593 1389.72 76.9457C1396.41 75.0092 1403.65 74.1485 1410.89 74.3637C1429.55 75.0092 1445.99 82.7552 1456.29 94.3742C1458.52 92.0074 1461.3 89.8557 1464.37 88.1343L1453.23 318.793C1444.59 315.566 1437.91 311.047 1433.45 305.022Z" fill="#EFC071"/>
<path d="M1434.08 295.038C1424.06 300.359 1412.36 303.338 1399.55 302.913C1392.31 302.7 1385.62 301.423 1379.22 299.295C1372.53 313.341 1355.82 322.918 1336.6 322.492C1329.64 322.28 1323.51 320.79 1317.66 318.236C1313.76 335.9 1294.82 349.095 1272.82 348.457C1263.35 348.244 1254.72 345.477 1247.75 341.008C1235.5 366.547 1204.86 384.211 1170.05 383.147C1156.4 382.721 1143.31 379.529 1132.45 373.996C1113.79 396.555 1082.03 411.24 1046.38 410.175C1019.92 409.324 996.249 399.96 978.981 385.488C970.347 389.106 960.877 391.234 950.572 391.021C940.545 390.809 931.075 388.255 922.998 384.211C913.529 411.878 882.334 431.671 846.127 430.606C834.707 430.181 823.845 427.84 814.375 423.796C800.171 449.122 768.976 466.148 733.604 465.084C718.286 464.658 704.081 460.827 691.826 454.443C660.632 489.346 610.498 511.266 554.794 509.564C491.291 507.648 437.815 475.725 413.305 430.606C405.507 432.309 397.43 432.947 389.074 432.735C353.702 431.671 324.457 413.368 311.924 387.829C291.87 396.129 264.018 398.045 235.609 391.447C201.908 383.573 176.563 365.483 167.65 345.903C162.637 346.967 157.345 347.393 151.774 347.18C136.734 346.754 123.087 341.647 113.06 333.559C101.362 342.285 85.765 347.393 69.0537 346.967C37.8594 346.116 12.7926 326.323 9.45032 301.423C-0.85495 314.618 -18.9588 323.344 -39.2908 322.705C-49.039 322.492 -58.2302 319.939 -66.0288 316.108L-52.6598 41.5663C-51.5457 41.5663 -50.7102 41.5663 -49.5961 41.5663C-35.113 41.992 -22.3011 47.0997 -13.1099 55.187C0.537651 38.5868 23.6549 27.9457 49.5573 28.797C68.7752 29.4355 85.765 36.0329 98.2984 46.6741C108.604 30.2867 129.493 19.4328 153.167 20.0712C164.029 20.2841 173.778 23.0508 182.412 27.52C189.932 24.5405 198.566 22.838 207.479 23.0508C212.492 23.2636 217.227 23.9021 221.962 25.179C227.811 23.4764 233.66 22.1995 239.787 21.561C259.005 9.21729 283.515 2.19412 309.696 3.04541C344.232 4.10953 374.034 18.3687 392.973 39.8638C412.748 26.4559 438.094 18.5815 465.389 19.4327C484.885 20.0712 502.711 24.7534 518.029 32.6278C531.677 25.6046 547.552 21.7738 564.821 22.1995C579.304 22.6251 592.673 26.2431 604.371 31.9893C626.374 11.5583 658.682 -0.99823 694.054 0.0658875C722.742 0.917175 748.644 10.4942 767.862 25.8174C778.168 20.2841 790.701 17.0917 804.07 17.5174C821.06 17.943 836.1 24.1149 846.962 33.4791C863.673 17.7302 888.462 8.15314 915.478 8.7916C946.394 9.64288 972.854 23.902 987.337 44.7587C997.92 32.6278 1015.19 24.9662 1034.41 25.6046C1045.83 26.0303 1056.41 29.2226 1065.04 34.5432C1091.78 23.6892 1126.88 17.3045 1165.03 18.5815C1220.18 20.0712 1267.25 36.2458 1291.2 58.805C1302.62 47.5254 1319.89 40.7151 1338.83 41.1407C1361.95 41.7792 1381.17 53.2716 1390.36 69.4461C1397.04 67.5307 1404.28 66.6794 1411.52 66.8922C1430.18 67.5307 1446.62 75.1923 1456.92 86.6848C1459.15 84.3437 1461.94 82.2155 1465 80.5129L1453.86 308.659C1445.22 305.467 1438.54 300.997 1434.08 295.038Z" fill="url(#paint0_linear_426_425)"/>
<defs>
<linearGradient id="paint0_linear_426_425" x1="699.486" y1="509.656" x2="699.486" y2="0.00317383" gradientUnits="userSpaceOnUse">
<stop stop-color="#FAD59D"/>
<stop offset="1" stop-color="#FCF0DD"/>
</linearGradient>
</defs>
</svg>
