<svg width="56" height="57" viewBox="0 0 56 57" fill="none" xmlns="http://www.w3.org/2000/svg">
              <path d="M9.33301 42.9284L9.33884 33.6452C9.33884 33.3358 9.46176 33.0391 9.68055 32.8203C9.89934 32.6015 10.1961 32.4786 10.5055 32.4786H22.1745C23.2502 32.4786 23.2443 31.5242 23.2443 29.2539C23.2443 26.9836 17.5253 25.0714 17.5253 17.0902C17.5253 9.10905 23.4497 6.76172 28.373 6.76172C33.2963 6.76172 38.6595 9.10905 38.6595 17.0902C38.6595 25.0714 32.9708 26.3407 32.9708 29.2539C32.9708 32.1671 32.9708 32.4786 33.8808 32.4786H45.5008C45.8103 32.4786 46.107 32.6015 46.3258 32.8203C46.5446 33.0391 46.6675 33.3358 46.6675 33.6452V42.9284H9.33301Z" stroke="#AE7E30" stroke-width="4.66667" stroke-linejoin="round"/>
              <path d="M9.33301 49.9297H46.6663" stroke="#AE7E30" stroke-width="4.66667" stroke-linecap="round" stroke-linejoin="round"/>
              </svg>