<svg width="56" height="57" viewBox="0 0 56 57" fill="none" xmlns="http://www.w3.org/2000/svg">
              <g clip-path="url(#clip0_1493_1626)">
              <path d="M5.69922 54.3652C5.71374 52.9722 6.08119 51.6056 6.76722 50.3932C7.48946 49.1317 8.53006 48.0817 9.78508 47.3482C11.0401 46.6147 12.4656 46.2233 13.9192 46.2132C15.3722 46.224 16.7968 46.6157 18.0511 47.3492C19.3054 48.0827 20.3453 49.1322 21.0672 50.3932C21.7552 51.6052 22.1192 52.9732 22.1352 54.3652M33.8792 54.3652C33.8937 52.9722 34.2612 51.6056 34.9472 50.3932C35.6691 49.1322 36.7091 48.0827 37.9633 47.3492C39.2176 46.6157 40.6423 46.224 42.0952 46.2132C44.2619 46.2162 46.3401 47.0734 47.8789 48.5987C49.4177 50.1241 50.2931 52.1946 50.3152 54.3612M20.0312 27.3212C20.0432 25.9732 20.3992 24.6492 21.0632 23.4732C21.7635 22.2497 22.7727 21.2316 23.9898 20.5205C25.207 19.8094 26.5896 19.4303 27.9992 19.4212C30.8392 19.4252 33.5312 20.9972 34.9312 23.4732C35.5952 24.6492 35.9512 25.9732 35.9672 27.3212M13.9192 42.5812C15.1302 42.5812 16.2916 42.1001 17.1479 41.2438C18.0042 40.3875 18.4852 39.2262 18.4852 38.0152C18.4852 36.8042 18.0042 35.6428 17.1479 34.7865C16.2916 33.9302 15.1302 33.4492 13.9192 33.4492C12.7082 33.4492 11.5469 33.9302 10.6906 34.7865C9.83428 35.6428 9.35322 36.8042 9.35322 38.0152C9.35322 39.2262 9.83428 40.3875 10.6906 41.2438C11.5469 42.1001 12.7082 42.5812 13.9192 42.5812ZM42.0992 42.5812C43.3102 42.5812 44.4716 42.1001 45.3279 41.2438C46.1842 40.3875 46.6652 39.2262 46.6652 38.0152C46.6652 36.8042 46.1842 35.6428 45.3279 34.7865C44.4716 33.9302 43.3102 33.4492 42.0992 33.4492C40.8882 33.4492 39.7269 33.9302 38.8706 34.7865C38.0143 35.6428 37.5332 36.8042 37.5332 38.0152C37.5332 39.2262 38.0143 40.3875 38.8706 41.2438C39.7269 42.1001 40.8882 42.5812 42.0992 42.5812ZM27.9952 16.6372C29.125 16.6372 30.2086 16.1884 31.0075 15.3895C31.8064 14.5906 32.2552 13.507 32.2552 12.3772C32.2552 11.2474 31.8064 10.1638 31.0075 9.36491C30.2086 8.56601 29.125 8.11719 27.9952 8.11719C26.8654 8.11719 25.7818 8.56601 24.9829 9.36491C24.184 10.1638 23.7352 11.2474 23.7352 12.3772C23.7352 13.507 24.184 14.5906 24.9829 15.3895C25.7818 16.1884 26.8654 16.6372 27.9952 16.6372Z" stroke="#5D8739" stroke-width="4" stroke-linecap="round" stroke-linejoin="round"/>
              <path d="M47.128 2.61719H8.872C8.1103 2.61719 7.37979 2.91977 6.84119 3.45838C6.30258 3.99698 6 4.72749 6 5.48919V24.4372C6 26.0252 7.288 27.3092 8.872 27.3092H47.128C47.8897 27.3092 48.6202 27.0066 49.1588 26.468C49.6974 25.9294 50 25.1989 50 24.4372V5.48919C50 4.72749 49.6974 3.99698 49.1588 3.45838C48.6202 2.91977 47.8897 2.61719 47.128 2.61719Z" stroke="#5D8739" stroke-width="4" stroke-linecap="round" stroke-linejoin="round"/>
              </g>
              <defs>
              <clipPath id="clip0_1493_1626">
              <rect width="56" height="56" fill="white" transform="translate(0 0.429688)"/>
              </clipPath>
              </defs>
              </svg>