<svg width="56" height="57" viewBox="0 0 56 57" fill="none" xmlns="http://www.w3.org/2000/svg">
              <path d="M53.6792 27.5351C53.737 27.3286 53.8052 27.1273 53.8542 26.9173C53.8647 26.8753 53.8682 26.8333 53.8787 26.7913C54.3786 24.7733 54.3767 22.6636 53.873 20.6465C53.3694 18.6295 52.3793 16.7664 50.9895 15.2203C49.7079 13.497 48.0381 12.1 46.1155 11.1429C44.1929 10.1857 42.0718 9.69525 39.9242 9.71132H39.8332C39.6582 9.71132 39.4622 9.72357 39.2767 9.72882H39.065C35.3665 9.93288 31.6902 10.4326 28.0715 11.2233L20.2367 9.97207H20.1755C16.4438 9.32737 12.6038 9.94306 9.26072 11.7221C7.37735 12.8571 5.75999 14.3838 4.51822 16.1986L4.44647 16.2948L4.40272 16.3561C2.75992 18.7931 1.8666 21.6577 1.83301 24.5965C1.79943 27.5353 2.62704 30.4197 4.21372 32.8936C4.18047 32.9531 4.16122 33.0196 4.12972 33.0808C3.97805 33.3842 3.84879 33.6983 3.74297 34.0206C3.68697 34.1956 3.64497 34.3811 3.60472 34.5631C3.57322 34.7118 3.54172 34.8588 3.52072 35.0076C3.49913 35.1929 3.48628 35.3792 3.48222 35.5658C3.48222 35.7163 3.46472 35.8633 3.47172 36.0121C3.48397 36.2081 3.50672 36.4023 3.53822 36.5966C3.55922 36.7348 3.56972 36.8731 3.60122 37.0096C3.65372 37.2248 3.72372 37.4366 3.80422 37.6431C3.84447 37.7533 3.87072 37.8671 3.91972 37.9756C4.06322 38.2958 4.23822 38.5986 4.44472 38.8821C5.23649 40.0158 6.40478 40.8318 7.74172 41.1851C7.69183 41.9313 7.81605 42.6789 8.10456 43.3689C8.39308 44.0589 8.838 44.6725 9.40422 45.1611C10.407 46.0397 11.637 46.6183 12.9532 46.8306C13.2245 47.7108 13.7005 48.5141 14.341 49.1756C15.2148 50.123 16.3958 50.7306 17.6747 50.8906C17.9792 51.9283 18.5567 52.8663 19.3477 53.6031C20.3225 54.5621 21.628 55.1081 22.9947 55.1256C23.9999 55.1208 24.9872 54.8594 25.863 54.3661C27.165 55.1116 28.691 55.3636 30.1645 55.0766C30.9379 54.935 31.6707 54.6251 32.3109 54.1687C32.9512 53.7124 33.4832 53.1208 33.8692 52.4358C33.906 52.3781 33.927 52.3273 33.9602 52.2696C35.4477 52.5741 36.9965 52.3063 38.2967 51.5206C39.4402 50.875 40.3107 49.8366 40.7467 48.5981C42.3112 48.6191 43.8267 48.0556 44.994 47.0143C45.6336 46.4553 46.1302 45.7514 46.4425 44.9615C46.7549 44.1715 46.8738 43.3183 46.7895 42.4731C46.7895 42.4241 46.7772 42.3856 46.7737 42.3383C47.6871 42.0646 48.5086 41.5474 49.1502 40.8421C49.9797 39.9674 50.5137 38.8544 50.677 37.6601C50.8402 36.4657 50.6245 35.2503 50.0602 34.1851C51.6335 32.3672 52.8239 30.2507 53.5602 27.9621C53.6022 27.8273 53.6372 27.6803 53.6792 27.5351ZM50.6832 24.5601C50.5959 25.44 50.4026 26.3061 50.1075 27.1396L50.0515 27.3146C49.47 28.8714 48.6311 30.3196 47.57 31.5986C42.0802 26.8071 34.095 19.8141 33.4387 19.1876C32.6807 18.462 31.674 18.0538 30.6247 18.0466C30.2993 18.0438 29.9754 18.0904 29.664 18.1848C28.5545 18.5348 25.828 19.4098 23.448 20.2936C22.538 20.6313 21.4985 19.7686 21.1817 19.0336C20.9717 18.5926 20.9367 18.0886 21.0802 17.6231C21.3655 17.1068 21.845 16.7236 22.412 16.5591C27.7953 14.6667 33.4198 13.5472 39.1175 13.2341H39.3292C39.5235 13.2341 39.716 13.2201 39.8945 13.2166C41.2015 13.1951 42.4992 13.441 43.7077 13.9393C45.4999 14.7562 47.0734 15.9855 48.2997 17.5268C49.3943 18.7657 50.1598 20.2599 50.5257 21.8721L50.5415 21.9526C50.6257 22.3834 50.6789 22.8197 50.7007 23.2581C50.706 23.3998 50.7147 23.5783 50.7147 23.7358C50.7147 23.9896 50.7147 24.2416 50.685 24.4918L50.6832 24.5601ZM7.01197 36.2133C6.99972 36.1381 6.99972 36.0558 6.99972 35.9771C6.98042 35.8085 6.98042 35.6382 6.99972 35.4696C7.01904 35.3702 7.04416 35.272 7.07497 35.1756C7.10997 35.0198 7.16247 34.8676 7.22547 34.7223C7.28322 34.6173 7.34972 34.5158 7.42322 34.4213C7.52738 34.2506 7.65392 34.0947 7.79947 33.9576L7.80997 33.9488L11.1017 31.1576C11.3204 30.9892 11.5702 30.8655 11.8367 30.7937C12.1033 30.7219 12.3813 30.7033 12.655 30.7391C12.9288 30.7748 13.1927 30.8642 13.4319 31.0021C13.671 31.14 13.8806 31.3236 14.0487 31.5426C14.1711 31.7218 14.2506 31.9268 14.2809 32.1416C14.3113 32.3565 14.2917 32.5755 14.2237 32.7816L9.06122 37.8111C8.70485 37.8175 8.3529 37.7313 8.03975 37.5611C7.72659 37.3909 7.46292 37.1424 7.27447 36.8398C7.14443 36.6515 7.05503 36.4381 7.01197 36.2133ZM11.415 40.4046L17.0797 34.8851L17.0535 34.8588C17.3722 34.7001 17.7323 34.6438 18.0842 34.6978C18.534 34.8203 18.94 35.0723 19.2497 35.4223C19.5577 35.6848 19.7642 36.0453 19.8342 36.4443C19.8603 36.8486 19.7717 37.2519 19.5787 37.6081C19.5609 37.6568 19.5457 37.7064 19.5332 37.7568L13.809 43.3341C13.4073 43.3516 13.0066 43.2825 12.634 43.1315C12.2614 42.9806 11.9256 42.7512 11.6495 42.4591C11.4222 42.1728 11.2798 41.8285 11.2383 41.4654C11.1969 41.1022 11.2581 40.7347 11.415 40.4046ZM16.2887 45.8033L22.2037 40.0476C22.58 40.1228 22.9247 40.3153 23.1872 40.5971C23.55 40.9147 23.8025 41.3394 23.9082 41.8098C23.9358 42.0122 23.927 42.2178 23.882 42.4171L18.7667 47.3958C18.4255 47.4592 18.0737 47.4346 17.7445 47.3244C17.4154 47.2141 17.1198 47.0219 16.8855 46.7658C16.6122 46.4975 16.4075 46.1674 16.2887 45.8033ZM21.7785 51.0743C21.462 50.7948 21.212 50.448 21.047 50.0593L25.8787 45.3571C26.2235 45.4708 26.5385 45.6581 26.8027 45.9048C27.0495 46.1019 27.2357 46.3645 27.34 46.6626C27.3993 46.8832 27.3993 47.1157 27.34 47.3363C27.1214 48.0422 26.7571 48.6945 26.2707 49.2508L24.9477 50.7908H24.9582C24.9145 50.8188 24.8655 50.8311 24.8252 50.8626C24.3318 51.3129 23.6969 51.5771 23.0297 51.6098C22.5586 51.6019 22.1094 51.4096 21.7785 51.0743ZM29.608 51.6116C29.349 51.6518 29.0882 51.6641 28.8275 51.6466L28.957 51.4961L28.999 51.4453L29.0007 51.4471C29.5311 50.7915 29.9801 50.074 30.3377 49.3103L31.1112 50.1293C31.0479 50.2942 30.9718 50.4539 30.8837 50.6071C30.759 50.8587 30.5798 51.0794 30.3591 51.2532C30.1384 51.4269 29.8819 51.5493 29.608 51.6116ZM40.808 45.0928L37.6947 41.6436C37.4274 41.3308 37.0583 41.1223 36.6524 41.0548C36.2465 40.9874 35.8298 41.0652 35.4757 41.2747C35.1215 41.4842 34.8526 41.8119 34.7163 42.2001C34.5799 42.5883 34.5849 43.0121 34.7302 43.3971C34.8112 43.6153 34.935 43.8152 35.0942 43.9851L37.6072 46.7851C37.5897 46.9636 37.553 47.1403 37.497 47.3101C37.3512 47.8058 37.0187 48.2255 36.5695 48.4808C36.0224 48.8397 35.3584 48.975 34.7145 48.8588L32.6145 46.6293C32.3878 46.3909 32.098 46.2217 31.7789 46.1415C31.4598 46.0612 31.1245 46.0732 30.812 46.1761C30.7849 46.0061 30.7481 45.8378 30.7017 45.6721C30.4128 44.7576 29.8754 43.9415 29.1495 43.3148C28.6409 42.8508 28.0583 42.4752 27.4257 42.2036C27.4379 41.878 27.4174 41.552 27.3645 41.2306C27.1388 40.0389 26.5401 38.9498 25.6547 38.1208C25.0112 37.4692 24.2155 36.988 23.3395 36.7208C23.3482 36.4863 23.3395 36.2536 23.3132 36.0208C23.1497 34.8422 22.5862 33.7555 21.7172 32.9426C20.9259 32.1142 19.9093 31.5356 18.793 31.2783C18.4132 31.205 18.0259 31.1786 17.6397 31.1996C17.5024 30.5495 17.2246 29.9373 16.826 29.4058C16.3767 28.8224 15.8168 28.3333 15.1782 27.9665C14.5397 27.5997 13.8351 27.3625 13.1048 27.2684C12.3744 27.1743 11.6327 27.2251 10.922 27.418C10.2114 27.6109 9.54573 27.9421 8.96322 28.3926L8.90197 28.4416L6.74072 30.2616C5.72732 28.4161 5.24243 26.327 5.33938 24.2238C5.43632 22.1207 6.11134 20.085 7.29022 18.3406L7.32697 18.2881C8.28516 16.8594 9.542 15.6557 11.0107 14.7601C13.6899 13.3647 16.7578 12.9023 19.7292 13.4458L20.5412 13.5753C19.3416 14.1159 18.3833 15.0798 17.8497 16.2826C17.5918 16.9425 17.4691 17.6475 17.489 18.3558C17.5088 19.0641 17.6708 19.7611 17.9652 20.4056C18.4894 21.6735 19.4671 22.7007 20.7075 23.287C21.948 23.8732 23.3623 23.9765 24.6747 23.5766C26.9847 22.7208 29.6342 21.8616 30.6247 21.5483C30.7035 21.5457 30.7818 21.5609 30.8539 21.5927C30.926 21.6245 30.99 21.6721 31.0412 21.7321C31.897 22.5371 42.2272 31.5793 46.5427 35.3401L46.8927 35.6393C47.1645 36.0795 47.2806 36.5981 47.2226 37.1122C47.1645 37.6262 46.9356 38.1059 46.5725 38.4743C46.3231 38.7431 45.9956 38.9267 45.6362 38.9993L42.6035 35.9246C42.2734 35.6104 41.8342 35.4367 41.3785 35.4402C40.9228 35.4438 40.4863 35.6242 40.1611 35.9435C39.8359 36.2627 39.6475 36.6959 39.6357 37.1514C39.6238 37.607 39.7894 38.0493 40.0975 38.3851L42.9955 41.3216C43.0077 41.3741 43.0217 41.4266 43.0375 41.4773L43.0585 41.5316C43.1898 41.9051 43.2693 42.2949 43.2947 42.6901C43.3433 42.9901 43.3175 43.2975 43.2196 43.5852C43.1216 43.873 42.9545 44.1322 42.733 44.3403C42.2097 44.8303 41.5185 45.0998 40.8027 45.0928H40.808Z" fill="#B892F9"/>
              </svg>