<svg width="56" height="57" viewBox="0 0 56 57" fill="none" xmlns="http://www.w3.org/2000/svg">
              <path d="M28 2.67969C13.5026 2.67969 1.75 14.4322 1.75 28.9297C1.75 43.4271 13.5026 55.1797 28 55.1797C42.4974 55.1797 54.25 43.4271 54.25 28.9297C54.25 14.4322 42.4974 2.67969 28 2.67969ZM44.0867 45.0163C40.0978 48.9933 34.7712 51.3427 29.1447 51.6069C23.5182 51.871 17.9949 50.0309 13.651 46.4451C9.30714 42.8593 6.45385 37.7847 5.64712 32.2101C4.8404 26.6355 6.13803 20.9602 9.28716 16.2901C12.4363 11.6199 17.2113 8.28952 22.6819 6.94775C28.1524 5.60598 33.9266 6.34897 38.8792 9.03197C43.8319 11.715 47.6082 16.1457 49.4725 21.461C51.3367 26.7762 51.1553 32.5951 48.9636 37.7839C47.8213 40.4876 46.165 42.9439 44.0867 45.0163Z" fill="#B892F9"/>
              <path d="M27.9992 42.9303C31.0161 42.9303 33.9093 41.7319 36.0426 39.5986C38.1758 37.4654 39.3742 34.5721 39.3742 31.5553H16.6242C16.6242 34.5721 17.8227 37.4654 19.9559 39.5986C22.0891 41.7319 24.9824 42.9303 27.9992 42.9303ZM22.5039 25.8997L24.7446 23.2109L18.3742 17.9023L12.0039 23.2109L14.2446 25.8997L18.3742 22.4582L22.5039 25.8997ZM31.2539 23.2109L33.4946 25.8997L37.6242 22.4582L41.7539 25.8997L43.9946 23.2109L37.6242 17.9023L31.2539 23.2109Z" fill="#B892F9"/>
              </svg>