<svg width="100%" height="100%" viewBox="0 0 102 218" fill="none" xmlns="http://www.w3.org/2000/svg">
  <path fill-rule="evenodd" clip-rule="evenodd" d="M20.9327 99.0392C17.0165 99.0392 13.8418 102.214 13.8418 106.13V124.645H28.0236V106.13C28.0236 102.214 24.8489 99.0392 20.9327 99.0392ZM20.9323 112.039C23.3255 112.039 25.2656 110.099 25.2656 107.706C25.2656 105.313 23.3255 103.373 20.9323 103.373C18.5391 103.373 16.599 105.313 16.599 107.706C16.599 110.099 18.5391 112.039 20.9323 112.039Z" fill="#A97B33"/>
  <path fill-rule="evenodd" clip-rule="evenodd" d="M80.634 102.107C77.187 102.107 74.3926 104.901 74.3926 108.348V124.645H86.8755V108.348C86.8755 104.901 84.0811 102.107 80.634 102.107ZM80.6338 113.549C82.7403 113.549 84.448 111.842 84.448 109.735C84.448 107.629 82.7403 105.921 80.6338 105.921C78.5273 105.921 76.8196 107.629 76.8196 109.735C76.8196 111.842 78.5273 113.549 80.6338 113.549Z" fill="#A97B33"/>
  <rect x="79.95" y="0.95" width="1.1" height="104.1" fill="#A97837" stroke="#3C2415" stroke-width="0.1"/>
  <path d="M90.8024 126.288C90.8024 123.623 89.7436 121.067 87.8591 119.182C85.9745 117.297 83.4184 116.239 80.7532 116.239C78.0881 116.239 75.532 117.297 73.6474 119.182C71.7628 121.067 70.7041 123.623 70.7041 126.288L80.7532 126.288L90.8024 126.288Z" fill="#F6BD60"/>
  <path d="M70.7038 126.288C70.7038 123.623 69.645 121.067 67.7604 119.182C65.8759 117.297 63.3198 116.239 60.6546 116.239C57.9894 116.239 55.4334 117.297 53.5488 119.182C51.6642 121.067 50.6055 123.623 50.6055 126.288L60.6546 126.288L70.7038 126.288Z" fill="#F6BD60"/>
  <path d="M50.6051 126.288C50.6051 123.623 49.5464 121.067 47.6618 119.182C45.7772 117.297 43.2212 116.239 40.556 116.239C37.8908 116.239 35.3347 117.297 33.4502 119.182C31.5656 121.067 30.5068 123.623 30.5068 126.288L40.556 126.288L50.6051 126.288Z" fill="#F6BD60"/>
  <path d="M30.5065 126.288C30.5065 123.623 29.4478 121.067 27.5632 119.182C25.6786 117.297 23.1226 116.239 20.4574 116.239C17.7922 116.239 15.2361 117.297 13.3515 119.182C11.4669 121.067 10.4082 123.623 10.4082 126.288L20.4573 126.288L30.5065 126.288Z" fill="#F6BD60"/>
  <path d="M10.4095 206.629C10.4095 209.294 11.4683 211.85 13.3528 213.734C15.2374 215.619 17.7935 216.678 20.4587 216.678C23.1239 216.678 25.6799 215.619 27.5645 213.734C29.4491 211.85 30.5078 209.294 30.5078 206.629L20.4587 206.629L10.4095 206.629Z" fill="#F6BD60"/>
  <path d="M30.5072 206.629C30.5072 209.294 31.5659 211.85 33.4505 213.734C35.3351 215.619 37.8911 216.678 40.5563 216.678C43.2215 216.678 45.7776 215.619 47.6621 213.734C49.5467 211.85 50.6055 209.294 50.6055 206.629L40.5563 206.629L30.5072 206.629Z" fill="#F6BD60"/>
  <path d="M50.6058 206.629C50.6058 209.294 51.6646 211.85 53.5491 213.734C55.4337 215.619 57.9898 216.678 60.655 216.678C63.3202 216.678 65.8762 215.619 67.7608 213.734C69.6454 211.85 70.7041 209.294 70.7041 206.629L60.655 206.629L50.6058 206.629Z" fill="#F6BD60"/>
  <path d="M70.7044 206.629C70.7044 209.294 71.7632 211.85 73.6478 213.734C75.5323 215.619 78.0884 216.678 80.7536 216.678C83.4188 216.678 85.9748 215.619 87.8594 213.734C89.744 211.85 90.8027 209.294 90.8027 206.629L80.7536 206.629L70.7044 206.629Z" fill="#F6BD60"/>
  <path d="M90.8483 206.676C93.5135 206.676 96.0696 205.618 97.9541 203.733C99.8387 201.848 100.897 199.292 100.897 196.627C100.897 193.962 99.8387 191.406 97.9541 189.521C96.0696 187.637 93.5135 186.578 90.8483 186.578L90.8483 196.627L90.8483 206.676Z" fill="#F6BD60"/>
  <path d="M90.8483 186.578C93.5135 186.578 96.0696 185.519 97.9541 183.635C99.8387 181.75 100.897 179.194 100.897 176.529C100.897 173.864 99.8387 171.308 97.9541 169.423C96.0696 167.539 93.5135 166.48 90.8483 166.48L90.8483 176.529L90.8483 186.578Z" fill="#F6BD60"/>
  <path d="M90.8483 166.48C93.5135 166.48 96.0696 165.421 97.9541 163.536C99.8387 161.652 100.897 159.096 100.897 156.431C100.897 153.765 99.8387 151.209 97.9541 149.325C96.0696 147.44 93.5135 146.381 90.8483 146.381L90.8483 156.431L90.8483 166.48Z" fill="#F6BD60"/>
  <path d="M90.8483 146.381C93.5135 146.381 96.0696 145.323 97.9541 143.438C99.8387 141.553 100.897 138.997 100.897 136.332C100.897 133.667 99.8387 131.111 97.9541 129.226C96.0696 127.342 93.5135 126.283 90.8483 126.283L90.8483 136.332L90.8483 146.381Z" fill="#F6BD60"/>
  <path d="M10.5687 126.2C7.90348 126.2 5.34744 127.259 3.46286 129.143C1.57828 131.028 0.519533 133.584 0.519533 136.249C0.519532 138.914 1.57828 141.47 3.46286 143.355C5.34744 145.24 7.90348 146.298 10.5687 146.298L10.5687 136.249L10.5687 126.2Z" fill="#F6BD60"/>
  <path d="M10.5687 146.298C7.90348 146.298 5.34744 147.357 3.46286 149.242C1.57828 151.126 0.519533 153.682 0.519533 156.348C0.519532 159.013 1.57828 161.569 3.46286 163.453C5.34744 165.338 7.90348 166.397 10.5687 166.397L10.5687 156.348L10.5687 146.298Z" fill="#F6BD60"/>
  <path d="M10.5687 166.397C7.90348 166.397 5.34744 167.455 3.46286 169.34C1.57828 171.225 0.519533 173.781 0.519533 176.446C0.519532 179.111 1.57828 181.667 3.46286 183.552C5.34744 185.436 7.90348 186.495 10.5687 186.495L10.5687 176.446L10.5687 166.397Z" fill="#F6BD60"/>
  <path d="M10.5687 186.495C7.90348 186.495 5.34744 187.554 3.46286 189.438C1.57828 191.323 0.519533 193.879 0.519533 196.544C0.519532 199.209 1.57828 201.765 3.46286 203.65C5.34744 205.534 7.90348 206.593 10.5687 206.593L10.5687 196.544L10.5687 186.495Z" fill="#F6BD60"/>
  <rect x="10.4922" y="126.2" width="80.3617" height="80.4455" fill="#F6BD60"/>
  <rect x="20.4617" y="0.619632" width="1.1" height="102.1" fill="#A97837" stroke="#3C2415" stroke-width="0.1"/>
</svg>
