<svg xmlns="http://www.w3.org/2000/svg" width="465" height="339" viewBox="0 0 465 339" fill="none">
<path d="M-334.542 333.9C-313.786 341.407 -292.39 339.943 -276.394 327.851C-272.129 324.627 -268.56 320.798 -265.399 316.428C-249.621 326.85 -231.152 328.164 -218.203 318.376C-208.758 311.236 -204.174 299.567 -204.781 286.73C-189.249 293.659 -172.445 293.404 -160.258 284.192C-158.43 282.81 -156.89 281.363 -155.487 279.736C-152.487 286.238 -148.606 292.639 -143.979 298.76C-116.217 335.485 -70.3197 347.749 -41.6801 326.099C-26.7509 314.814 -19.4527 296.284 -19.8057 276.183C2.42704 291.343 29.157 293.768 47.5899 279.834C63.2808 267.973 69.2507 247.052 65.3493 225.107C78.9823 232.058 94.159 232.184 104.975 224.008C108.022 221.705 110.508 218.976 112.434 215.823C131.52 227.138 153.652 228.231 169.342 216.37C184.576 204.854 189.801 184.214 184.969 163.255C185.578 162.794 186.171 162.629 186.781 162.168C197.902 153.761 201.8 138.65 198.422 123.099C216.576 127.48 234.664 125.123 248.679 114.528C264.065 102.897 271.396 83.7771 270.651 62.8405C293.446 65.1282 315.631 59.9569 333.454 46.4834C357.981 27.943 369.591 -2.61649 367.918 -35.8646C376.445 -36.9353 384.357 -40.0869 391.212 -45.269C417.566 -65.1913 418.209 -108.677 392.761 -142.341C391.809 -143.601 390.704 -144.746 389.751 -146.006C392.869 -146.948 395.731 -148.546 398.473 -150.619C410.203 -159.486 414.014 -175.663 409.515 -192.064C418.755 -192.825 427.531 -195.782 434.844 -201.31C454.495 -216.165 459.141 -244.854 448.665 -272.014C450.02 -272.755 451.527 -273.611 452.745 -274.533C464.018 -283.054 466.812 -299.31 461.247 -314.906L383.951 -417.158C383.798 -417.043 383.63 -416.633 383.477 -416.517C369.779 -422.288 355.299 -421.809 344.636 -413.748C339.304 -409.717 335.501 -404.297 333.245 -397.782C324.031 -400.152 314.759 -398.801 307.599 -393.389C300.287 -387.861 296.594 -379.129 296.362 -369.618C277.914 -376.606 258.585 -375.574 244.113 -364.634C232.231 -355.652 225.769 -341.715 224.908 -326.07C213.206 -333.633 199.401 -334.795 189.803 -327.54C181.272 -321.091 178.01 -309.573 180.565 -297.642C169.627 -297.861 159.24 -294.818 150.557 -288.254C139.893 -280.193 133.682 -268.142 131.764 -254.528C122.719 -257.309 113.48 -256.548 106.472 -251.251C99.6167 -246.069 96.381 -237.682 96.4539 -228.402C79.9692 -236.592 61.7234 -236.661 48.6223 -226.757C38.2632 -218.927 33.0531 -206.501 32.866 -192.498C11.1368 -195.592 -12.9792 -189.809 -33.2402 -174.493C-58.0714 -155.722 -70.8742 -127.373 -69.268 -100.864C-87.859 -110.574 -108.565 -111.046 -123.494 -99.7609C-128.369 -96.0759 -132.138 -91.2458 -135.059 -85.926C-149.253 -93.3017 -164.718 -93.4926 -175.991 -84.9709C-187.112 -76.5644 -191.146 -61.6334 -188.057 -46.1464C-209.106 -48.34 -229.222 -43.6001 -245.523 -31.2783C-271.115 -11.9318 -280.989 21.5584 -275.343 56.8953C-291.871 52.1325 -308.467 53.9285 -321.264 63.6017C-334.517 73.6204 -340.836 90.2788 -340.065 108.084C-344.048 108.831 -347.792 110.53 -351.143 113.063C-354.951 115.942 -357.791 119.786 -359.629 124.004C-371.051 127.263 -382.618 133.179 -393.586 141.47C-418.113 160.01 -431.94 185.738 -431.211 206.97L-334.999 334.245L-334.542 333.9Z" fill="url(#paint0_linear_426_502)"/>
<defs>
<linearGradient id="paint0_linear_426_502" x1="159.914" y1="137.711" x2="-69.3543" y2="-165.581" gradientUnits="userSpaceOnUse">
<stop stop-color="#FFEEEE"/>
<stop offset="1" stop-color="#FFAEAF"/>
</linearGradient>
</defs>
</svg>