<svg width="21" height="21" viewBox="0 0 21 21" fill="none" xmlns="http://www.w3.org/2000/svg">
<path d="M18.8334 6.72559V15.0589C18.8334 15.6115 18.6139 16.1414 18.2232 16.5321C17.8325 16.9228 17.3026 17.1423 16.7501 17.1423H4.25008C3.69755 17.1423 3.16764 16.9228 2.77694 16.5321C2.38624 16.1414 2.16675 15.6115 2.16675 15.0589V6.72559" stroke="#EE7F82" stroke-width="1.4" stroke-linecap="round" stroke-linejoin="round"/>
<path d="M18.8334 6.72542C18.8334 6.17289 18.6139 5.64298 18.2232 5.25228C17.8325 4.86158 17.3026 4.64209 16.7501 4.64209H4.25008C3.69755 4.64209 3.16764 4.86158 2.77694 5.25228C2.38624 5.64298 2.16675 6.17289 2.16675 6.72542L9.39591 11.2393C9.72702 11.4463 10.1096 11.556 10.5001 11.556C10.8905 11.556 11.2731 11.4463 11.6042 11.2393L18.8334 6.72542Z" stroke="#EE7F82" stroke-width="1.4" stroke-linecap="round" stroke-linejoin="round"/>
</svg>
