<svg width="21" height="21" viewBox="0 0 21 21" fill="none" xmlns="http://www.w3.org/2000/svg">
<path d="M17.3609 9.43165C17.3609 14.8105 11.8517 18.1242 10.7068 18.7554C10.6434 18.7904 10.5722 18.8088 10.4997 18.8088C10.4273 18.8088 10.3561 18.7904 10.2926 18.7554C9.14688 18.1242 3.6394 14.8105 3.6394 9.43165C3.6394 5.14367 6.21219 2.14209 10.5002 2.14209C14.7881 2.14209 17.3609 5.14367 17.3609 9.43165Z" stroke="#EE7F82" stroke-width="1.4" stroke-linecap="round" stroke-linejoin="round"/>
<path d="M7.06982 9.00265C7.06982 9.91244 7.43124 10.785 8.07456 11.4283C8.71788 12.0716 9.59041 12.433 10.5002 12.433C11.41 12.433 12.2825 12.0716 12.9258 11.4283C13.5692 10.785 13.9306 9.91244 13.9306 9.00265C13.9306 8.09285 13.5692 7.22032 12.9258 6.577C12.2825 5.93368 11.41 5.57227 10.5002 5.57227C9.59041 5.57227 8.71788 5.93368 8.07456 6.577C7.43124 7.22032 7.06982 8.09285 7.06982 9.00265V9.00265Z" stroke="#EE7F82" stroke-width="1.4" stroke-linecap="round" stroke-linejoin="round"/>
</svg>
