<svg width="21" height="21" viewBox="0 0 21 21" fill="none" xmlns="http://www.w3.org/2000/svg">
<path d="M12.7517 18.161L12.7608 18.1674C13.5478 18.6685 14.4823 18.8861 15.4097 18.7843C16.3372 18.6824 17.2022 18.2672 17.8617 17.6072L18.4346 17.0342C18.5616 16.9073 18.6623 16.7567 18.731 16.5909C18.7998 16.425 18.8351 16.2473 18.8351 16.0678C18.8351 15.8883 18.7998 15.7105 18.731 15.5447C18.6623 15.3789 18.5616 15.2282 18.4346 15.1013L16.0181 12.6866C15.8912 12.5596 15.7405 12.4589 15.5747 12.3902C15.4089 12.3215 15.2311 12.2861 15.0516 12.2861C14.8721 12.2861 14.6944 12.3215 14.5286 12.3902C14.3627 12.4589 14.2121 12.5596 14.0852 12.6866C13.829 12.9427 13.4815 13.0866 13.1192 13.0866C12.7569 13.0866 12.4094 12.9427 12.1532 12.6866L8.28926 8.82174C8.03311 8.56551 7.88922 8.21805 7.88922 7.85575C7.88922 7.49345 8.03311 7.14598 8.28926 6.88976C8.41623 6.76287 8.51695 6.61221 8.58566 6.44639C8.65438 6.28056 8.68975 6.10282 8.68975 5.92332C8.68975 5.74381 8.65438 5.56607 8.58566 5.40025C8.51695 5.23442 8.41623 5.08376 8.28926 4.95687L5.8736 2.54213C5.61738 2.28598 5.26991 2.14209 4.90762 2.14209C4.54532 2.14209 4.19785 2.28598 3.94163 2.54213L3.36777 3.11507C2.70792 3.77471 2.29286 4.63973 2.19117 5.56719C2.08948 6.49465 2.30725 7.42906 2.80849 8.216L2.81396 8.22511C5.46114 12.1417 8.83458 15.5145 12.7517 18.161V18.161Z" stroke="#EE7F82" stroke-width="1.4" stroke-linecap="round" stroke-linejoin="round"/>
</svg>
