<svg width="152" height="25" viewBox="0 0 152 25" fill="none" xmlns="http://www.w3.org/2000/svg">
<path opacity="0.3" fill-rule="evenodd" clip-rule="evenodd" d="M67.586 15.2329C75.2098 16.5204 85.1813 17.3002 96.0939 17.3002C96.3922 17.3002 96.6898 17.2997 96.9867 17.2985C98.2227 21.6582 110.009 24.857 124.29 24.5556C139.329 24.2382 151.44 20.1598 151.34 15.4462C151.279 12.5372 146.581 10.0661 139.459 8.67497C138.831 4.14376 119.656 0.507812 96.0939 0.507812C77.6377 0.507812 61.8734 2.7386 55.6062 5.88306C54.6511 5.84605 53.6743 5.8237 52.6798 5.81692C51.9857 2.85953 40.6756 0.507812 26.8252 0.507812C12.5275 0.507812 0.936905 3.01389 0.936905 6.10529C0.936905 9.19669 12.5275 11.7028 26.8252 11.7028C26.9646 11.7028 27.1037 11.7025 27.2425 11.7021C27.2315 11.781 27.2271 11.8603 27.2292 11.9399C27.3146 15.1025 37.8437 17.4937 50.7467 17.2807C57.387 17.1712 63.3619 16.3932 67.586 15.2329Z" fill="#0B583A"/>
</svg>
