<svg width="290" height="140" viewBox="0 0 290 140" fill="none" xmlns="http://www.w3.org/2000/svg">
<g filter="url(#filter0_d_1955_20972)">
<path d="M53.8476 54.9117C54.1846 53.917 54.1018 53.0589 53.6174 52.5262C53.133 51.9935 52.2866 51.8297 51.2645 52.071C50.2424 52.3123 49.1282 52.9388 48.1671 53.8127C47.2061 54.6867 46.4768 55.7364 46.1398 56.7311L49.9937 55.8214L53.8476 54.9117Z" fill="#B892F9"/>
<path d="M46.1395 56.731C46.4766 55.7363 46.3938 54.8782 45.9093 54.3455C45.4249 53.8128 44.5785 53.6491 43.5564 53.8903C42.5343 54.1316 41.4201 54.7581 40.4591 55.6321C39.498 56.506 38.7687 57.5558 38.4317 58.5504L42.2856 57.6407L46.1395 56.731Z" fill="#B892F9"/>
<path d="M38.4318 58.5506C38.7688 57.5559 38.686 56.6978 38.2016 56.1651C37.7171 55.6324 36.8708 55.4686 35.8486 55.7099C34.8265 55.9512 33.7124 56.5777 32.7513 57.4516C31.7902 58.3256 31.061 59.3754 30.7239 60.37L34.5779 59.4603L38.4318 58.5506Z" fill="#B892F9"/>
<path d="M30.7239 60.3702C31.061 59.3755 30.9782 58.5174 30.4937 57.9847C30.0093 57.452 29.1629 57.2882 28.1408 57.5295C27.1187 57.7708 26.0045 58.3973 25.0435 59.2712C24.0824 60.1452 23.3531 61.1949 23.0161 62.1896L26.87 61.2799L30.7239 60.3702Z" fill="#B892F9"/>
<path d="M12.911 92.4668C12.574 93.4614 12.6568 94.3195 13.1413 94.8522C13.6257 95.385 14.4721 95.5487 15.4942 95.3074C16.5163 95.0662 17.6305 94.4396 18.5915 93.5657C19.5526 92.6918 20.2819 91.642 20.6189 90.6473L16.765 91.557L12.911 92.4668Z" fill="#B892F9"/>
<path d="M20.6189 90.6474C20.2819 91.6421 20.3647 92.5002 20.8491 93.0329C21.3336 93.5656 22.18 93.7294 23.2021 93.4881C24.2242 93.2468 25.3383 92.6203 26.2994 91.7464C27.2605 90.8724 27.9897 89.8226 28.3268 88.828L24.4729 89.7377L20.6189 90.6474Z" fill="#B892F9"/>
<path d="M28.3268 88.8278C27.9897 89.8225 28.0725 90.6806 28.557 91.2133C29.0414 91.746 29.8878 91.9098 30.9099 91.6685C31.932 91.4272 33.0462 90.8007 34.0072 89.9268C34.9683 89.0528 35.6976 88.0031 36.0346 87.0084L32.1807 87.9181L28.3268 88.8278Z" fill="#B892F9"/>
<path d="M36.0346 87.0085C35.6976 88.0032 35.7804 88.8613 36.2648 89.394C36.7493 89.9267 37.5956 90.0904 38.6178 89.8492C39.6399 89.6079 40.754 88.9814 41.7151 88.1074C42.6762 87.2335 43.4054 86.1837 43.7425 85.1891L39.8885 86.0988L36.0346 87.0085Z" fill="#B892F9"/>
<path d="M43.5883 85.2931C44.6105 85.0518 45.7246 84.4253 46.6857 83.5513C47.6468 82.6774 48.376 81.6276 48.713 80.633C49.0501 79.6383 48.9673 78.7802 48.4828 78.2475C47.9984 77.7148 47.152 77.551 46.1299 77.7923L44.8591 81.5427L43.5883 85.2931Z" fill="#B892F9"/>
<path d="M46.1299 77.7923C47.152 77.5511 48.2662 76.9245 49.2272 76.0506C50.1883 75.1767 50.9176 74.1269 51.2546 73.1322C51.5916 72.1376 51.5088 71.2795 51.0244 70.7468C50.54 70.214 49.6936 70.0503 48.6715 70.2916L47.4007 74.0419L46.1299 77.7923Z" fill="#B892F9"/>
<path d="M48.6714 70.2916C49.6935 70.0503 50.8077 69.4238 51.7688 68.5499C52.7298 67.6759 53.4591 66.6262 53.7961 65.6315C54.1331 64.6368 54.0503 63.7787 53.5659 63.246C53.0815 62.7133 52.2351 62.5496 51.213 62.7908L49.9422 66.5412L48.6714 70.2916Z" fill="#B892F9"/>
<path d="M51.213 62.7909C52.2351 62.5496 53.3493 61.9231 54.3103 61.0491C55.2714 60.1752 56.0007 59.1254 56.3377 58.1308C56.6747 57.1361 56.5919 56.278 56.1075 55.7453C55.6231 55.2126 54.7767 55.0488 53.7546 55.2901L52.4838 59.0405L51.213 62.7909Z" fill="#B892F9"/>
<path d="M23.2544 62.0514C22.2323 62.2927 21.1181 62.9192 20.1571 63.7931C19.196 64.6671 18.4667 65.7169 18.1297 66.7115C17.7927 67.7062 17.8755 68.5643 18.3599 69.097C18.8443 69.6297 19.6907 69.7935 20.7128 69.5522L21.9836 65.8018L23.2544 62.0514Z" fill="#B892F9"/>
<path d="M20.7129 69.5521C19.6907 69.7934 18.5766 70.4199 17.6155 71.2939C16.6545 72.1678 15.9252 73.2176 15.5882 74.2123C15.2511 75.2069 15.3339 76.065 15.8184 76.5977C16.3028 77.1305 17.1492 77.2942 18.1713 77.0529L19.4421 73.3025L20.7129 69.5521Z" fill="#B892F9"/>
<path d="M18.1713 77.0529C17.1492 77.2941 16.0351 77.9207 15.074 78.7946C14.1129 79.6686 13.3837 80.7183 13.0466 81.713C12.7096 82.7077 12.7924 83.5657 13.2768 84.0985C13.7613 84.6312 14.6076 84.7949 15.6298 84.5537L16.9005 80.8033L18.1713 77.0529Z" fill="#B892F9"/>
<path d="M15.6297 84.5536C14.6076 84.7949 13.4935 85.4214 12.5324 86.2953C11.5713 87.1693 10.8421 88.2191 10.505 89.2137C10.168 90.2084 10.2508 91.0665 10.7352 91.5992C11.2197 92.1319 12.0661 92.2957 13.0882 92.0544L14.359 88.304L15.6297 84.5536Z" fill="#B892F9"/>
<rect width="31.4943" height="32.1695" transform="matrix(0.973253 -0.229738 -0.320917 0.947107 23.2456 62.0532)" fill="#B892F9"/>
<path opacity="0.8" d="M25.1815 83.1099C25.2606 82.7632 25.3947 82.2433 25.5835 81.5502C25.7752 80.849 26.008 80.0375 26.2821 79.1156C26.5589 78.1856 26.8509 77.211 27.1579 76.1919C27.476 75.1627 27.7927 74.1487 28.1082 73.1499C28.4319 72.1492 28.738 71.2235 29.0262 70.3728C29.2184 69.8056 29.3955 69.2942 29.5576 68.8385C29.7307 68.3728 29.8819 67.983 30.0112 67.6692C30.0972 67.6415 30.3011 67.5822 30.623 67.4913C30.9559 67.3903 31.3375 67.2816 31.7676 67.1652C32.1977 67.0488 32.6139 66.9393 33.0163 66.8369C33.4297 66.7244 33.7614 66.6387 34.0111 66.5797C33.849 67.013 33.6759 67.5011 33.492 68.044C33.3081 68.5868 33.1337 69.1013 32.969 69.5874C32.7631 70.1951 32.5587 70.821 32.3557 71.4652C32.1555 72.1014 32.0184 72.5512 31.9445 72.8146C32.1331 72.7552 32.3426 72.6908 32.5729 72.6215C32.8142 72.5422 33.0612 72.469 33.3137 72.4019C33.5689 72.3268 33.8187 72.2567 34.0629 72.1916C34.3071 72.1265 34.5346 72.0653 34.7455 72.0081C34.9647 71.9489 35.1492 71.9016 35.2991 71.8662C35.3953 71.605 35.5368 71.2212 35.7236 70.715C35.9133 70.2006 36.1207 69.6336 36.346 69.0139C36.574 68.3861 36.7966 67.7745 37.0136 67.1791C37.2334 66.5757 37.4272 66.0603 37.5949 65.6331C37.7919 65.5717 38.0278 65.5086 38.3025 65.4437C38.58 65.3708 38.8478 65.3038 39.1059 65.2429C39.6304 65.1191 40.1231 65.0103 40.5838 64.9164C41.0529 64.8206 41.4027 64.7604 41.6331 64.7358C41.523 64.9705 41.3688 65.3237 41.1707 65.7953C40.9809 66.265 40.7595 66.8167 40.5065 67.4504C40.2618 68.0821 39.9979 68.7705 39.7148 69.5157C39.4344 70.2527 39.1458 71.0141 38.8489 71.7997C38.5632 72.5753 38.2801 73.3428 37.9998 74.1022C37.6728 74.977 37.3554 75.8346 37.0477 76.675C36.751 77.5053 36.4804 78.2587 36.2359 78.9351C35.9997 79.6095 35.8088 80.1503 35.6632 80.5574C35.4746 80.6168 35.1777 80.7018 34.7726 80.8123C34.3758 80.9209 33.9332 81.0403 33.4448 81.1705C32.9591 81.2926 32.4832 81.4086 32.017 81.5187C32.2064 80.9597 32.3903 80.4056 32.5686 79.8567C32.7553 79.3057 32.9379 78.7669 33.1163 78.2403C33.2975 77.7056 33.4718 77.1911 33.6393 76.6969C33.8095 76.1945 33.9715 75.7165 34.1252 75.2628C33.956 75.3102 33.7617 75.3635 33.5425 75.4227C33.326 75.4738 33.0999 75.5309 32.864 75.5941C32.6392 75.6471 32.4089 75.7052 32.173 75.7683C31.9399 75.8234 31.7179 75.8795 31.507 75.9367C31.3072 75.9839 31.1323 76.0252 30.9825 76.0606C30.862 76.4841 30.7099 77.0008 30.5262 77.6106C30.3453 78.2124 30.163 78.8182 29.9793 79.428C29.7957 80.0379 29.6312 80.5799 29.4858 81.054C29.3516 81.518 29.257 81.831 29.2021 81.9931C28.9996 82.0707 28.7153 82.1639 28.349 82.2727C27.9939 82.3714 27.6096 82.4771 27.1961 82.5896C26.791 82.7001 26.4039 82.8027 26.0348 82.8972C25.6741 82.9899 25.3896 83.0607 25.1815 83.1099Z" fill="#823AFD"/>
</g>
<g filter="url(#filter1_d_1955_20972)">
<path d="M107.851 42.1425C108.196 41.1246 108.111 40.2465 107.615 39.7014C107.12 39.1562 106.254 38.9886 105.208 39.2356C104.162 39.4825 103.021 40.1236 102.038 41.0179C101.054 41.9123 100.308 42.9865 99.9633 44.0044L103.907 43.0735L107.851 42.1425Z" fill="#A5D27C"/>
<path d="M99.9633 44.0046C100.308 42.9867 100.223 42.1086 99.7277 41.5634C99.232 41.0183 98.3659 40.8507 97.3199 41.0976C96.2739 41.3445 95.1338 41.9857 94.1503 42.88C93.1668 43.7743 92.4205 44.8486 92.0756 45.8665L96.0195 44.9355L99.9633 44.0046Z" fill="#A5D27C"/>
<path d="M92.0755 45.8664C92.4204 44.8485 92.3357 43.9704 91.8399 43.4252C91.3442 42.8801 90.4781 42.7125 89.4321 42.9594C88.3861 43.2063 87.246 43.8475 86.2625 44.7418C85.279 45.6361 84.5327 46.7104 84.1878 47.7283L88.1316 46.7973L92.0755 45.8664Z" fill="#A5D27C"/>
<path d="M84.1878 47.7282C84.5327 46.7103 84.448 45.8322 83.9522 45.2871C83.4565 44.7419 82.5904 44.5743 81.5444 44.8212C80.4984 45.0681 79.3583 45.7093 78.3748 46.6036C77.3913 47.498 76.645 48.5722 76.3001 49.5901L80.244 48.6592L84.1878 47.7282Z" fill="#A5D27C"/>
<path d="M65.9035 80.2737C65.5586 81.2916 65.6433 82.1697 66.1391 82.7149C66.6348 83.2601 67.5009 83.4276 68.5469 83.1807C69.5929 82.9338 70.733 82.2927 71.7165 81.3983C72.7 80.504 73.4463 79.4297 73.7912 78.4118L69.8474 79.3428L65.9035 80.2737Z" fill="#A5D27C"/>
<path d="M73.7912 78.4117C73.4463 79.4296 73.5311 80.3077 74.0268 80.8528C74.5226 81.398 75.3887 81.5656 76.4347 81.3186C77.4807 81.0717 78.6208 80.4306 79.6043 79.5363C80.5878 78.6419 81.3341 77.5677 81.679 76.5498L77.7351 77.4807L73.7912 78.4117Z" fill="#A5D27C"/>
<path d="M81.6789 76.5496C81.334 77.5675 81.4188 78.4456 81.9145 78.9908C82.4103 79.5359 83.2764 79.7035 84.3224 79.4566C85.3683 79.2097 86.5085 78.5685 87.492 77.6742C88.4755 76.7799 89.2218 75.7056 89.5667 74.6877L85.6228 75.6187L81.6789 76.5496Z" fill="#A5D27C"/>
<path d="M89.5667 74.6876C89.2218 75.7054 89.3065 76.5836 89.8023 77.1287C90.298 77.6739 91.1641 77.8414 92.2101 77.5945C93.2561 77.3476 94.3963 76.7065 95.3797 75.8121C96.3632 74.9178 97.1095 73.8435 97.4544 72.8257L93.5106 73.7566L89.5667 74.6876Z" fill="#A5D27C"/>
<path d="M97.4663 72.8399C98.5122 72.593 99.6524 71.9519 100.636 71.0576C101.619 70.1632 102.366 69.089 102.711 68.0711C103.055 67.0532 102.971 66.1751 102.475 65.6299C101.979 65.0848 101.113 64.9172 100.067 65.1641L98.7667 69.002L97.4663 72.8399Z" fill="#A5D27C"/>
<path d="M100.067 65.1642C101.113 64.9173 102.253 64.2761 103.237 63.3818C104.22 62.4874 104.967 61.4132 105.311 60.3953C105.656 59.3774 105.572 58.4993 105.076 57.9541C104.58 57.409 103.714 57.2414 102.668 57.4883L101.368 61.3262L100.067 65.1642Z" fill="#A5D27C"/>
<path d="M102.668 57.4884C103.714 57.2415 104.854 56.6003 105.838 55.706C106.821 54.8117 107.567 53.7374 107.912 52.7195C108.257 51.7016 108.172 50.8235 107.677 50.2784C107.181 49.7332 106.315 49.5656 105.269 49.8125L103.968 53.6505L102.668 57.4884Z" fill="#A5D27C"/>
<path d="M105.269 49.8126C106.315 49.5657 107.455 48.9246 108.438 48.0302C109.422 47.1359 110.168 46.0616 110.513 45.0437C110.858 44.0259 110.773 43.1477 110.278 42.6026C109.782 42.0574 108.916 41.8899 107.87 42.1368L106.569 45.9747L105.269 49.8126Z" fill="#A5D27C"/>
<path d="M76.3748 49.5419C75.3288 49.7888 74.1887 50.4299 73.2052 51.3243C72.2217 52.2186 71.4754 53.2929 71.1305 54.3108C70.7856 55.3286 70.8703 56.2067 71.3661 56.7519C71.8618 57.2971 72.7279 57.4646 73.7739 57.2177L75.0743 53.3798L76.3748 49.5419Z" fill="#A5D27C"/>
<path d="M73.7739 57.2177C72.7279 57.4646 71.5877 58.1057 70.6042 59.0001C69.6207 59.8944 68.8745 60.9687 68.5296 61.9865C68.1847 63.0044 68.2694 63.8825 68.7651 64.4277C69.2609 64.9729 70.127 65.1404 71.173 64.8935L72.4734 61.0556L73.7739 57.2177Z" fill="#A5D27C"/>
<path d="M71.173 64.8935C70.127 65.1404 68.9869 65.7815 68.0034 66.6758C67.0199 67.5702 66.2736 68.6444 65.9287 69.6623C65.5838 70.6802 65.6685 71.5583 66.1643 72.1035C66.66 72.6486 67.5262 72.8162 68.5721 72.5693L69.8726 68.7314L71.173 64.8935Z" fill="#A5D27C"/>
<path d="M68.5721 72.5692C67.5261 72.8161 66.386 73.4573 65.4025 74.3516C64.419 75.246 63.6727 76.3202 63.3278 77.3381C62.9829 78.356 63.0677 79.2341 63.5634 79.7793C64.0591 80.3244 64.9253 80.492 65.9712 80.2451L67.2717 76.4072L68.5721 72.5692Z" fill="#A5D27C"/>
<rect width="32.4053" height="32.4391" transform="matrix(0.973253 -0.229738 -0.320917 0.947107 76.3445 49.5491)" fill="#A5D27C"/>
<path opacity="0.8" d="M81.1913 70.1796C80.9783 70.2299 80.6872 70.291 80.3179 70.3629C79.9459 70.4431 79.5454 70.5262 79.1165 70.6122C78.6933 70.7044 78.28 70.7905 77.8767 70.8705C77.4819 70.9484 77.1552 71.0103 76.8967 71.0561C77.1646 70.5199 77.5143 69.8347 77.9459 69.0006C78.386 68.1644 78.8812 67.2351 79.4314 66.2128C79.9816 65.1904 80.5586 64.1236 81.1625 63.0123C81.7692 61.8927 82.3816 60.7794 82.9997 59.6724C83.6178 58.5653 84.2091 57.5142 84.7736 56.519C85.3382 55.5238 85.8506 54.6362 86.3108 53.8563C87.2078 53.5454 88.0851 53.2582 88.9425 52.9948C89.8113 52.7211 90.6418 52.4907 91.4342 52.3037C91.8858 52.1971 92.3331 52.1029 92.7762 52.0212C93.2194 51.9395 93.6526 51.8753 94.076 51.8288C93.9907 52.5202 93.873 53.3184 93.7232 54.2234C93.5733 55.1283 93.3659 56.2033 93.1008 57.4482C92.8471 58.6828 92.5118 60.1464 92.0951 61.839C91.6897 63.5213 91.1873 65.4897 90.588 67.7441C90.2956 67.8436 89.8826 67.9755 89.3488 68.1396C88.815 68.3037 88.2599 68.4615 87.6835 68.6128C87.1127 68.7704 86.6058 68.9015 86.1628 69.0061C86.2272 68.7697 86.3029 68.5001 86.3898 68.1973C86.4852 67.8926 86.5834 67.5681 86.6843 67.2239C86.7853 66.8797 86.8877 66.5313 86.9914 66.1788C87.1037 65.8243 87.2118 65.4823 87.3156 65.1526C87.4195 64.823 87.5149 64.5182 87.6019 64.2383C87.3265 64.311 87.0283 64.3928 86.7074 64.4838C86.3894 64.5665 86.0643 64.6585 85.7321 64.7598C85.4112 64.8508 85.106 64.9419 84.8164 65.0332C84.5296 65.1161 84.2755 65.1952 84.0541 65.2703C83.8327 65.3455 83.6723 65.4024 83.5729 65.4411C83.2541 66.0351 82.9424 66.6312 82.6378 67.2294C82.3332 67.8276 82.054 68.3855 81.8002 68.9031C81.5493 69.4124 81.3463 69.8379 81.1913 70.1796ZM85.2642 61.8724C85.4714 61.793 85.7908 61.6833 86.2223 61.5433C86.6538 61.4033 87.0996 61.2676 87.5596 61.1361C88.0196 61.0046 88.3915 60.9016 88.6755 60.8269C88.7175 60.6568 88.8071 60.3344 88.9445 59.8595C89.0932 59.3744 89.2475 58.8498 89.4072 58.2857C89.5698 57.7134 89.7155 57.1908 89.8444 56.7179C89.9846 56.2348 90.0728 55.905 90.1091 55.7287C89.9727 55.7609 89.7654 55.8174 89.4872 55.8983C89.2089 55.9793 88.9392 56.0582 88.678 56.1351C88.4167 56.2121 88.2322 56.2709 88.1244 56.3116C87.9918 56.5641 87.8056 56.917 87.5658 57.3702C87.3373 57.8132 87.0834 58.3079 86.8042 58.8544C86.525 59.4009 86.2485 59.9391 85.9749 60.4689C85.7126 60.9885 85.4757 61.4564 85.2642 61.8724Z" fill="#5C8F2E"/>
</g>
<g filter="url(#filter2_d_1955_20972)">
<path d="M160.728 29.5817C161.065 28.5866 160.982 27.7281 160.497 27.1952C160.013 26.6622 159.166 26.4984 158.143 26.7398C157.121 26.9812 156.006 27.608 155.045 28.4823C154.083 29.3566 153.353 30.4069 153.016 31.402L156.872 30.4918L160.728 29.5817Z" fill="#F6BD60"/>
<path d="M153.016 31.4018C153.353 30.4067 153.271 29.5482 152.786 29.0152C152.301 28.4823 151.454 28.3185 150.432 28.5598C149.409 28.8012 148.295 29.428 147.333 30.3024C146.372 31.1767 145.642 32.2269 145.305 33.222L149.161 32.3119L153.016 31.4018Z" fill="#F6BD60"/>
<path d="M145.305 33.2221C145.642 32.227 145.559 31.3685 145.075 30.8356C144.59 30.3026 143.743 30.1388 142.721 30.3802C141.698 30.6215 140.583 31.2483 139.622 32.1227C138.66 32.997 137.931 34.0472 137.594 35.0424L141.449 34.1322L145.305 33.2221Z" fill="#F6BD60"/>
<path d="M137.594 35.0424C137.931 34.0473 137.848 33.1888 137.363 32.6559C136.879 32.1229 136.032 31.9591 135.009 32.2005C133.987 32.4418 132.872 33.0686 131.91 33.943C130.949 34.8173 130.219 35.8676 129.882 36.8627L133.738 35.9525L137.594 35.0424Z" fill="#F6BD60"/>
<path d="M119.718 66.8595C119.381 67.8546 119.464 68.713 119.949 69.246C120.433 69.779 121.28 69.9428 122.303 69.7014C123.325 69.46 124.44 68.8332 125.401 67.9589C126.363 67.0845 127.092 66.0343 127.43 65.0392L123.574 65.9493L119.718 66.8595Z" fill="#F6BD60"/>
<path d="M127.43 65.0391C127.092 66.0342 127.175 66.8927 127.66 67.4257C128.145 67.9586 128.991 68.1225 130.014 67.8811C131.036 67.6397 132.151 67.0129 133.113 66.1386C134.074 65.2642 134.804 64.214 135.141 63.2189L131.285 64.129L127.43 65.0391Z" fill="#F6BD60"/>
<path d="M135.141 63.2191C134.804 64.2142 134.887 65.0726 135.371 65.6056C135.856 66.1386 136.703 66.3024 137.725 66.061C138.748 65.8196 139.862 65.1928 140.824 64.3185C141.785 63.4442 142.515 62.3939 142.852 61.3988L138.997 62.3089L135.141 63.2191Z" fill="#F6BD60"/>
<path d="M142.852 61.3988C142.515 62.3939 142.598 63.2523 143.082 63.7853C143.567 64.3183 144.414 64.4821 145.436 64.2407C146.459 63.9993 147.574 63.3725 148.535 62.4982C149.497 61.6239 150.226 60.5736 150.563 59.5785L146.708 60.4886L142.852 61.3988Z" fill="#F6BD60"/>
<path d="M150.575 59.5922C151.598 59.3509 152.712 58.7241 153.674 57.8497C154.635 56.9754 155.365 55.9252 155.702 54.93C156.039 53.9349 155.956 53.0765 155.472 52.5435C154.987 52.0105 154.14 51.8467 153.118 52.0881L151.846 55.8402L150.575 59.5922Z" fill="#F6BD60"/>
<path d="M153.118 52.0881C154.14 51.8467 155.255 51.2199 156.216 50.3456C157.178 49.4713 157.907 48.421 158.245 47.4259C158.582 46.4308 158.499 45.5723 158.014 45.0394C157.53 44.5064 156.683 44.3426 155.66 44.584L154.389 48.336L153.118 52.0881Z" fill="#F6BD60"/>
<path d="M155.66 44.5842C156.683 44.3428 157.798 43.716 158.759 42.8417C159.721 41.9673 160.45 40.9171 160.787 39.922C161.124 38.9269 161.042 38.0684 160.557 37.5354C160.072 37.0025 159.226 36.8387 158.203 37.0801L156.932 40.8321L155.66 44.5842Z" fill="#F6BD60"/>
<path d="M158.203 37.0798C159.226 36.8384 160.34 36.2116 161.302 35.3373C162.263 34.4629 162.993 33.4127 163.33 32.4176C163.667 31.4225 163.584 30.564 163.1 30.0311C162.615 29.4981 161.768 29.3343 160.746 29.5757L159.474 33.3277L158.203 37.0798Z" fill="#F6BD60"/>
<path d="M129.955 36.8152C128.933 37.0566 127.818 37.6834 126.856 38.5577C125.895 39.4321 125.165 40.4823 124.828 41.4774C124.491 42.4725 124.574 43.331 125.058 43.864C125.543 44.3969 126.39 44.5607 127.412 44.3194L128.684 40.5673L129.955 36.8152Z" fill="#F6BD60"/>
<path d="M127.412 44.3191C126.39 44.5605 125.275 45.1873 124.314 46.0616C123.352 46.936 122.623 47.9862 122.285 48.9813C121.948 49.9764 122.031 50.8349 122.516 51.3679C123 51.9008 123.847 52.0647 124.87 51.8233L126.141 48.0712L127.412 44.3191Z" fill="#F6BD60"/>
<path d="M124.87 51.8233C123.847 52.0647 122.732 52.6915 121.771 53.5658C120.809 54.4401 120.08 55.4904 119.743 56.4855C119.406 57.4806 119.488 58.3391 119.973 58.872C120.458 59.405 121.304 59.5688 122.327 59.3274L123.598 55.5753L124.87 51.8233Z" fill="#F6BD60"/>
<path d="M122.327 59.3274C121.304 59.5688 120.19 60.1956 119.228 61.0699C118.267 61.9443 117.537 62.9945 117.2 63.9896C116.863 64.9847 116.946 65.8432 117.43 66.3762C117.915 66.9091 118.762 67.073 119.784 66.8316L121.056 63.0795L122.327 59.3274Z" fill="#F6BD60"/>
<rect width="31.6805" height="31.7135" transform="matrix(0.973253 -0.229738 -0.320917 0.947107 129.926 36.8223)" fill="#F6BD60"/>
<path opacity="0.8" d="M132.352 57.5509C132.421 57.3483 132.556 56.9623 132.756 56.3929C132.957 55.8235 133.203 55.1316 133.494 54.3171C133.786 53.5026 134.103 52.6223 134.447 51.6761C134.798 50.728 135.15 49.7687 135.502 48.7982C135.862 47.8258 136.207 46.8979 136.537 46.0146C136.87 45.1233 137.171 44.3363 137.441 43.6537C137.713 42.963 137.926 42.4353 138.081 42.0708C138.88 41.748 139.7 41.4537 140.541 41.1881C141.39 40.9205 142.264 40.6805 143.164 40.4682C144.264 40.2086 145.175 40.1315 145.898 40.2368C146.629 40.34 147.115 40.6578 147.356 41.19C147.606 41.7202 147.559 42.492 147.216 43.5052C146.867 44.5346 146.373 45.4715 145.735 46.3157C145.104 47.158 144.333 47.8733 143.421 48.4614C142.518 49.0476 141.483 49.4783 140.317 49.7535C140.083 49.8086 139.81 49.8583 139.496 49.9025C139.193 49.9367 138.963 49.9501 138.804 49.9428C138.722 50.1636 138.577 50.5556 138.371 51.1188C138.173 51.6801 137.945 52.3082 137.687 53.003C137.437 53.696 137.191 54.3767 136.949 55.0453C136.707 55.7139 136.513 56.263 136.368 56.6926C136.168 56.7398 135.889 56.8057 135.531 56.8902C135.172 56.9748 134.788 57.0581 134.377 57.1402C133.971 57.2284 133.588 57.3077 133.227 57.378C132.863 57.4564 132.572 57.514 132.352 57.5509ZM139.8 46.7993C139.964 46.7904 140.155 46.7716 140.371 46.7428C140.599 46.704 140.821 46.659 141.038 46.6079C141.437 46.5135 141.829 46.3652 142.211 46.163C142.597 45.9527 142.938 45.6933 143.234 45.3847C143.533 45.0681 143.752 44.7031 143.892 44.2897C144.095 43.6899 144.054 43.3269 143.767 43.2007C143.483 43.0663 143.041 43.07 142.441 43.2115C142.208 43.2666 141.958 43.3368 141.692 43.422C141.428 43.4992 141.149 43.5874 140.855 43.6867C140.839 43.7353 140.797 43.8569 140.731 44.0514C140.666 44.246 140.586 44.481 140.492 44.7566C140.402 45.0241 140.31 45.2957 140.216 45.5712C140.123 45.8468 140.038 46.0981 139.961 46.3251C139.884 46.552 139.831 46.7101 139.8 46.7993Z" fill="#AA7A2B"/>
</g>
<g filter="url(#filter3_d_1955_20972)">
<path d="M213.573 17.4977C213.91 16.5026 213.828 15.6442 213.343 15.1112C212.858 14.5782 212.012 14.4144 210.989 14.6558C209.966 14.8972 208.852 15.524 207.89 16.3983C206.929 17.2726 206.199 18.3229 205.862 19.318L209.718 18.4079L213.573 17.4977Z" fill="#C3DCFF"/>
<path d="M205.862 19.318C206.199 18.3229 206.116 17.4645 205.632 16.9315C205.147 16.3985 204.3 16.2347 203.278 16.4761C202.255 16.7175 201.14 17.3443 200.179 18.2186C199.217 19.0929 198.488 20.1432 198.151 21.1383L202.006 20.2282L205.862 19.318Z" fill="#C3DCFF"/>
<path d="M198.151 21.1384C198.488 20.1432 198.405 19.2848 197.92 18.7518C197.436 18.2188 196.589 18.055 195.566 18.2964C194.544 18.5378 193.429 19.1646 192.468 20.0389C191.506 20.9133 190.777 21.9635 190.439 22.9586L194.295 22.0485L198.151 21.1384Z" fill="#C3DCFF"/>
<path d="M190.439 22.9584C190.777 21.9633 190.694 21.1048 190.209 20.5719C189.724 20.0389 188.878 19.8751 187.855 20.1165C186.832 20.3579 185.718 20.9847 184.756 21.859C183.795 22.7333 183.065 23.7836 182.728 24.7787L186.584 23.8686L190.439 22.9584Z" fill="#C3DCFF"/>
<path d="M172.564 54.776C172.227 55.7711 172.31 56.6295 172.794 57.1625C173.279 57.6955 174.126 57.8593 175.148 57.6179C176.171 57.3765 177.285 56.7497 178.247 55.8754C179.208 55.001 179.938 53.9508 180.275 52.9557L176.419 53.8658L172.564 54.776Z" fill="#C3DCFF"/>
<path d="M180.275 52.9556C179.938 53.9508 180.021 54.8092 180.505 55.3422C180.99 55.8752 181.837 56.039 182.859 55.7976C183.882 55.5562 184.997 54.9294 185.958 54.0551C186.92 53.1807 187.649 52.1305 187.986 51.1354L184.131 52.0455L180.275 52.9556Z" fill="#C3DCFF"/>
<path d="M187.986 51.1353C187.649 52.1304 187.732 52.9889 188.217 53.5219C188.701 54.0548 189.548 54.2187 190.571 53.9773C191.593 53.7359 192.708 53.1091 193.669 52.2348C194.631 51.3604 195.36 50.3102 195.698 49.3151L191.842 50.2252L187.986 51.1353Z" fill="#C3DCFF"/>
<path d="M195.698 49.315C195.361 50.3101 195.443 51.1686 195.928 51.7016C196.413 52.2345 197.259 52.3983 198.282 52.157C199.305 51.9156 200.419 51.2888 201.381 50.4144C202.342 49.5401 203.072 48.4899 203.409 47.4948L199.553 48.4049L195.698 49.315Z" fill="#C3DCFF"/>
<path d="M203.42 47.508C204.443 47.2666 205.558 46.6398 206.519 45.7655C207.481 44.8912 208.21 43.8409 208.547 42.8458C208.885 41.8507 208.802 40.9922 208.317 40.4593C207.832 39.9263 206.986 39.7625 205.963 40.0039L204.692 43.7559L203.42 47.508Z" fill="#C3DCFF"/>
<path d="M205.963 40.0041C206.986 39.7627 208.1 39.1359 209.062 38.2616C210.023 37.3873 210.753 36.337 211.09 35.3419C211.427 34.3468 211.345 33.4883 210.86 32.9554C210.375 32.4224 209.528 32.2586 208.506 32.5L207.235 36.252L205.963 40.0041Z" fill="#C3DCFF"/>
<path d="M208.506 32.5C209.528 32.2586 210.643 31.6318 211.604 30.7574C212.566 29.8831 213.296 28.8329 213.633 27.8378C213.97 26.8427 213.887 25.9842 213.402 25.4512C212.918 24.9183 212.071 24.7544 211.048 24.9958L209.777 28.7479L208.506 32.5Z" fill="#C3DCFF"/>
<path d="M211.048 24.9958C212.071 24.7544 213.186 24.1276 214.147 23.2533C215.109 22.379 215.838 21.3287 216.175 20.3336C216.513 19.3385 216.43 18.48 215.945 17.9471C215.461 17.4141 214.614 17.2503 213.591 17.4917L212.32 21.2437L211.048 24.9958Z" fill="#C3DCFF"/>
<path d="M182.801 24.7317C181.778 24.9731 180.664 25.5999 179.702 26.4742C178.741 27.3486 178.011 28.3988 177.674 29.3939C177.337 30.389 177.42 31.2475 177.904 31.7805C178.389 32.3134 179.236 32.4772 180.258 32.2359L181.53 28.4838L182.801 24.7317Z" fill="#C3DCFF"/>
<path d="M180.258 32.2359C179.236 32.4773 178.121 33.1041 177.159 33.9784C176.198 34.8527 175.468 35.903 175.131 36.8981C174.794 37.8932 174.877 38.7517 175.361 39.2846C175.846 39.8176 176.693 39.9814 177.715 39.74L178.987 35.9879L180.258 32.2359Z" fill="#C3DCFF"/>
<path d="M177.715 39.74C176.693 39.9814 175.578 40.6082 174.617 41.4825C173.655 42.3569 172.926 43.4071 172.588 44.4022C172.251 45.3973 172.334 46.2558 172.819 46.7888C173.303 47.3217 174.15 47.4855 175.173 47.2442L176.444 43.4921L177.715 39.74Z" fill="#C3DCFF"/>
<path d="M175.173 47.2439C174.15 47.4853 173.036 48.1121 172.074 48.9864C171.113 49.8608 170.383 50.911 170.046 51.9061C169.709 52.9012 169.791 53.7597 170.276 54.2927C170.761 54.8256 171.607 54.9895 172.63 54.7481L173.901 50.996L175.173 47.2439Z" fill="#C3DCFF"/>
<rect width="31.6805" height="31.7135" transform="matrix(0.973253 -0.229738 -0.320917 0.947107 182.771 24.7383)" fill="#C3DCFF"/>
<path opacity="0.8" d="M184.805 45.8107C184.874 45.608 185.009 45.222 185.209 44.6527C185.41 44.0833 185.656 43.3914 185.947 42.5769C186.238 41.7624 186.556 40.882 186.899 39.9359C187.251 38.9878 187.603 38.0285 187.955 37.058C188.315 36.0855 188.66 35.1577 188.99 34.2744C189.323 33.383 189.624 32.596 189.894 31.9134C190.166 31.2227 190.379 30.6951 190.533 30.3306C191.332 30.0077 192.152 29.7135 192.993 29.4479C193.843 29.1803 194.717 28.9403 195.617 28.7279C196.716 28.4684 197.628 28.3913 198.351 28.4965C199.082 28.5998 199.568 28.9176 199.809 29.4498C200.059 29.98 200.012 30.7517 199.669 31.7649C199.32 32.7944 198.826 33.7312 198.187 34.5755C197.557 35.4178 196.786 36.133 195.874 36.7212C194.97 37.3073 193.936 37.738 192.769 38.0133C192.536 38.0684 192.263 38.118 191.949 38.1623C191.646 38.1965 191.415 38.2099 191.257 38.2025C191.175 38.4234 191.03 38.8154 190.824 39.3786C190.626 39.9399 190.398 40.5679 190.14 41.2628C189.889 41.9557 189.643 42.6365 189.402 43.3051C189.16 43.9737 188.966 44.5228 188.82 44.9524C188.621 44.9996 188.342 45.0654 187.983 45.15C187.625 45.2345 187.241 45.3178 186.83 45.3999C186.424 45.4882 186.041 45.5674 185.68 45.6377C185.316 45.7162 185.025 45.7738 184.805 45.8107ZM192.253 35.059C192.417 35.0502 192.607 35.0313 192.824 35.0026C193.052 34.9637 193.274 34.9187 193.491 34.8676C193.89 34.7732 194.282 34.625 194.664 34.4228C195.05 34.2125 195.391 33.953 195.687 33.6445C195.986 33.3279 196.205 32.9628 196.345 32.5495C196.548 31.9496 196.507 31.5866 196.22 31.4604C195.936 31.3261 195.494 31.3297 194.894 31.4713C194.661 31.5264 194.411 31.5965 194.145 31.6818C193.881 31.7589 193.602 31.8472 193.308 31.9464C193.291 31.9951 193.25 32.1167 193.184 32.3112C193.118 32.5057 193.039 32.7408 192.945 33.0164C192.855 33.2839 192.763 33.5554 192.669 33.831C192.576 34.1066 192.491 34.3579 192.414 34.5848C192.337 34.8118 192.283 34.9699 192.253 35.059Z" fill="#6DA2EE"/>
</g>
<g filter="url(#filter4_d_1955_20972)">
<path d="M266.27 4.78313C266.607 3.78802 266.524 2.92955 266.04 2.39659C265.555 1.86362 264.708 1.69981 263.686 1.94119C262.663 2.18257 261.548 2.80937 260.587 3.6837C259.625 4.55803 258.896 5.60828 258.559 6.60339L262.414 5.69326L266.27 4.78313Z" fill="#FBD1D2"/>
<path d="M258.559 6.60344C258.896 5.60833 258.813 4.74987 258.328 4.2169C257.844 3.68393 256.997 3.52012 255.974 3.7615C254.952 4.00288 253.837 4.62968 252.876 5.50402C251.914 6.37835 251.185 7.42859 250.847 8.4237L254.703 7.51357L258.559 6.60344Z" fill="#FBD1D2"/>
<path d="M250.847 8.42375C251.185 7.42864 251.102 6.57018 250.617 6.03721C250.132 5.50424 249.286 5.34043 248.263 5.58181C247.241 5.82319 246.126 6.45 245.164 7.32433C244.203 8.19866 243.473 9.2489 243.136 10.244L246.992 9.33388L250.847 8.42375Z" fill="#FBD1D2"/>
<path d="M243.136 10.2441C243.473 9.24896 243.391 8.39049 242.906 7.85752C242.421 7.32456 241.574 7.16074 240.552 7.40213C239.529 7.64351 238.415 8.27031 237.453 9.14464C236.492 10.019 235.762 11.0692 235.425 12.0643L239.281 11.1542L243.136 10.2441Z" fill="#FBD1D2"/>
<path d="M225.261 42.0611C224.923 43.0562 225.006 43.9147 225.491 44.4477C225.976 44.9806 226.822 45.1444 227.845 44.903C228.868 44.6617 229.982 44.0349 230.944 43.1605C231.905 42.2862 232.635 41.236 232.972 40.2409L229.116 41.151L225.261 42.0611Z" fill="#FBD1D2"/>
<path d="M232.972 40.2408C232.635 41.2359 232.718 42.0944 233.202 42.6273C233.687 43.1603 234.534 43.3241 235.556 43.0827C236.579 42.8414 237.693 42.2146 238.655 41.3402C239.616 40.4659 240.346 39.4156 240.683 38.4205L236.828 39.3307L232.972 40.2408Z" fill="#FBD1D2"/>
<path d="M240.683 38.4205C240.346 39.4156 240.429 40.2741 240.914 40.807C241.398 41.34 242.245 41.5038 243.268 41.2624C244.29 41.021 245.405 40.3942 246.366 39.5199C247.328 38.6456 248.057 37.5953 248.395 36.6002L244.539 37.5104L240.683 38.4205Z" fill="#FBD1D2"/>
<path d="M248.395 36.6004C248.057 37.5955 248.14 38.454 248.625 38.987C249.11 39.5199 249.956 39.6837 250.979 39.4424C252.001 39.201 253.116 38.5742 254.078 37.6998C255.039 36.8255 255.769 35.7753 256.106 34.7802L252.25 35.6903L248.395 36.6004Z" fill="#FBD1D2"/>
<path d="M256.117 34.7942C257.14 34.5528 258.255 33.926 259.216 33.0516C260.178 32.1773 260.907 31.1271 261.244 30.132C261.581 29.1368 261.499 28.2784 261.014 27.7454C260.529 27.2124 259.683 27.0486 258.66 27.29L257.389 31.0421L256.117 34.7942Z" fill="#FBD1D2"/>
<path d="M258.66 27.29C259.683 27.0486 260.797 26.4218 261.759 25.5475C262.72 24.6732 263.45 23.6229 263.787 22.6278C264.124 21.6327 264.041 20.7742 263.557 20.2413C263.072 19.7083 262.225 19.5445 261.203 19.7859L259.931 23.5379L258.66 27.29Z" fill="#FBD1D2"/>
<path d="M261.203 19.7861C262.225 19.5447 263.34 18.9179 264.301 18.0436C265.263 17.1692 265.992 16.119 266.33 15.1239C266.667 14.1288 266.584 13.2703 266.099 12.7374C265.615 12.2044 264.768 12.0406 263.745 12.282L262.474 16.034L261.203 19.7861Z" fill="#FBD1D2"/>
<path d="M263.745 12.2817C264.768 12.0403 265.883 11.4135 266.844 10.5392C267.806 9.66485 268.535 8.61461 268.872 7.6195C269.21 6.62439 269.127 5.76593 268.642 5.23296C268.157 4.69999 267.311 4.53618 266.288 4.77756L265.017 8.52963L263.745 12.2817Z" fill="#FBD1D2"/>
<path d="M235.498 12.0171C234.475 12.2585 233.36 12.8853 232.399 13.7596C231.437 14.634 230.708 15.6842 230.371 16.6793C230.033 17.6744 230.116 18.5329 230.601 19.0659C231.086 19.5988 231.932 19.7626 232.955 19.5213L234.226 15.7692L235.498 12.0171Z" fill="#FBD1D2"/>
<path d="M232.955 19.5213C231.932 19.7627 230.818 20.3895 229.856 21.2638C228.895 22.1381 228.165 23.1884 227.828 24.1835C227.491 25.1786 227.574 26.0371 228.058 26.57C228.543 27.103 229.39 27.2668 230.412 27.0254L231.684 23.2733L232.955 19.5213Z" fill="#FBD1D2"/>
<path d="M230.412 27.0254C229.39 27.2668 228.275 27.8936 227.313 28.7679C226.352 29.6423 225.622 30.6925 225.285 31.6876C224.948 32.6827 225.031 33.5412 225.516 34.0742C226 34.6071 226.847 34.7709 227.869 34.5296L229.141 30.7775L230.412 27.0254Z" fill="#FBD1D2"/>
<path d="M227.87 34.5296C226.847 34.771 225.732 35.3978 224.771 36.2721C223.809 37.1464 223.08 38.1967 222.743 39.1918C222.405 40.1869 222.488 41.0454 222.973 41.5783C223.458 42.1113 224.304 42.2751 225.327 42.0337L226.598 38.2816L227.87 34.5296Z" fill="#FBD1D2"/>
<rect width="31.6805" height="31.7135" transform="matrix(0.973253 -0.229738 -0.320917 0.947107 235.468 12.0242)" fill="#FBD1D2"/>
<path opacity="0.8" d="M244.061 25.1829C243.932 24.9299 243.803 24.6323 243.674 24.2899C243.556 23.9375 243.43 23.5606 243.298 23.1593C243.166 22.758 243.042 22.3323 242.926 21.8824C242.819 21.4305 242.713 20.9745 242.608 20.5145C242.503 20.0545 242.414 19.5946 242.34 19.1348C242.269 18.6669 242.21 18.2184 242.164 17.7894C243.026 17.3248 243.829 16.9562 244.573 16.6837C245.317 16.4112 245.915 16.2178 246.367 16.1036C246.382 16.2418 246.399 16.4614 246.42 16.7623C246.449 17.0612 246.484 17.3998 246.524 17.778C246.564 18.1563 246.609 18.5447 246.658 18.9433C246.707 19.3419 246.756 19.7182 246.804 20.0721C246.861 20.4241 246.915 20.7171 246.966 20.9512C247.11 20.7532 247.323 20.4643 247.605 20.0845C247.895 19.7028 248.214 19.2807 248.563 18.8181C248.922 18.3455 249.287 17.8679 249.657 17.3852C250.028 16.9025 250.369 16.4602 250.682 16.0583C251.005 15.6464 251.271 15.3153 251.478 15.0649C251.925 14.9892 252.359 14.9652 252.778 14.9929C253.198 15.0206 253.582 15.0754 253.93 15.1574C254.286 15.2374 254.575 15.3332 254.798 15.4447C254.269 16.0094 253.627 16.7388 252.872 17.633C252.12 18.519 251.3 19.5143 250.412 20.6187C249.527 21.715 248.619 22.869 247.687 24.0808C247.561 24.5207 247.412 25.0072 247.239 25.5402C247.077 26.0631 246.919 26.5627 246.766 27.039C246.62 27.5133 246.497 27.9004 246.395 28.2003C246.274 28.5569 246.142 28.9348 245.999 29.334C245.865 29.7312 245.745 30.0838 245.641 30.3918C245.539 30.6917 245.471 30.8832 245.435 30.9662C245.321 31.0303 245.101 31.1159 244.773 31.2231C244.448 31.3221 244.094 31.4168 243.711 31.5073C243.303 31.6036 242.9 31.6838 242.503 31.7477C242.114 31.8096 241.791 31.8487 241.532 31.865C241.67 31.4597 241.844 30.9673 242.056 30.3879C242.276 29.8065 242.505 29.1967 242.745 28.5586C242.984 27.9204 243.219 27.3056 243.45 26.7142C243.681 26.1227 243.885 25.6123 244.061 25.1829Z" fill="#EE7F82"/>
</g>
<g filter="url(#filter5_d_1955_20972)">
<path d="M79.171 110.481C78.6485 111.062 78.0415 111.634 77.3499 112.198C76.6663 112.76 75.9229 113.26 75.1198 113.698C74.3187 114.128 73.4846 114.434 72.6176 114.617C71.512 114.85 70.5822 114.863 69.8282 114.655C69.0762 114.441 68.5 114.036 68.0996 113.44C67.6992 112.845 67.4698 112.095 67.4112 111.189C67.3625 110.273 67.4838 109.236 67.7751 108.077C68.1534 106.571 68.7537 105.172 69.5758 103.879C70.398 102.586 71.3953 101.495 72.5679 100.606C73.7405 99.7166 75.0506 99.1196 76.4982 98.8147C77.6754 98.5668 78.7027 98.5856 79.5801 98.8712C80.4675 99.1472 81.0737 99.7176 81.3987 100.582C81.1245 100.864 80.7718 101.189 80.3406 101.556C79.9193 101.913 79.492 102.264 79.0588 102.61C78.6355 102.945 78.2718 103.223 77.9677 103.444C77.9577 103.364 77.9148 103.235 77.839 103.057C77.7712 102.877 77.6587 102.695 77.5014 102.512C77.344 102.329 77.1221 102.192 76.8356 102.103C76.5511 102.007 76.1901 102.004 75.7527 102.096C75.3391 102.183 74.9395 102.365 74.5539 102.64C74.1703 102.907 73.8116 103.256 73.4779 103.684C73.1442 104.113 72.8483 104.601 72.5903 105.148C72.3323 105.695 72.1231 106.288 71.9626 106.926C71.8101 107.533 71.7221 108.093 71.6987 108.606C71.6754 109.118 71.7186 109.561 71.8284 109.934C71.9401 110.298 72.1343 110.56 72.4109 110.718C72.6955 110.875 73.0605 110.906 73.5059 110.812C73.9434 110.72 74.3728 110.555 74.7942 110.317C75.2176 110.071 75.63 109.779 76.0315 109.44C76.4329 109.102 76.8114 108.75 77.1671 108.384C77.4039 108.52 77.6587 108.706 77.9314 108.939C78.2041 109.173 78.453 109.427 78.678 109.701C78.911 109.972 79.0753 110.233 79.171 110.481ZM88.3307 111.52C86.9149 111.818 85.8806 111.737 85.2278 111.278C84.5829 110.816 84.2082 110.044 84.1037 108.961C84.0013 107.989 84.0906 106.765 84.3715 105.287C84.6624 103.8 85.0456 102.11 85.5211 100.218C85.5944 99.9264 85.6746 99.6221 85.7618 99.3051C85.849 98.9881 85.9372 98.6671 86.0264 98.3422C86.1175 98.0094 86.2057 97.6885 86.2909 97.3793C86.3841 97.0685 86.4673 96.7822 86.5407 96.5204C86.8767 96.4123 87.2137 96.3152 87.5518 96.229C87.8918 96.135 88.2129 96.0562 88.5152 95.9925C88.9208 95.9071 89.3195 95.8343 89.7113 95.7742C90.103 95.7141 90.4501 95.6671 90.7523 95.6333C90.556 96.2346 90.3508 96.8863 90.1367 97.5885C89.9226 98.2906 89.7125 99.0068 89.5064 99.7371C89.3102 100.458 89.1269 101.157 88.9565 101.835C88.7584 102.624 88.606 103.32 88.4992 103.925C88.3944 104.522 88.3392 105.026 88.3336 105.438C88.3223 106.053 88.4291 106.482 88.6541 106.726C88.8791 106.97 89.2302 107.041 89.7075 106.941C90.2324 106.83 90.6867 106.566 91.0701 106.15C91.4615 105.731 91.7981 105.186 92.0798 104.515C92.3616 103.843 92.6105 103.078 92.8264 102.218C92.9056 101.903 92.9997 101.499 93.1086 101.005C93.2274 100.503 93.3522 99.9612 93.4829 99.3811C93.6156 98.7932 93.7423 98.214 93.863 97.6436C93.9838 97.0731 94.0867 96.5587 94.1718 96.1002C94.2588 95.6339 94.3191 95.274 94.3527 95.0206C94.6709 94.9536 95.0328 94.8923 95.4385 94.8367C95.8541 94.7716 96.2608 94.712 96.6585 94.6581C97.0642 94.6026 97.4132 94.5626 97.7056 94.5384C97.9979 94.5142 98.1849 94.5046 98.2664 94.5099C98.233 94.9126 98.1738 95.3581 98.0887 95.8464C98.0057 96.3268 97.9097 96.8286 97.8008 97.3518C97.692 97.8749 97.5712 98.4006 97.4384 98.9288C97.0442 100.498 96.5922 101.982 96.0824 103.381C95.5806 104.778 94.9773 106.04 94.2723 107.166C93.5693 108.285 92.7309 109.223 91.7571 109.981C90.7853 110.731 89.6431 111.244 88.3307 111.52ZM99.6818 109.062C99.8559 108.189 100.068 107.122 100.317 105.86C100.576 104.588 100.849 103.231 101.136 101.79C101.433 100.338 101.727 98.899 102.018 97.4714C102.311 96.0359 102.581 94.721 102.829 93.5265C103.147 93.4297 103.552 93.3144 104.046 93.1806C104.539 93.0469 105.072 92.9048 105.644 92.7543C106.217 92.6039 106.777 92.4598 107.323 92.3223C107.87 92.1847 108.355 92.0715 108.776 91.9827C109.389 91.8537 109.986 91.7839 110.569 91.7731C111.162 91.7528 111.677 91.8309 112.115 92.0075C112.56 92.1824 112.872 92.5013 113.049 92.9642C113.229 93.4191 113.214 94.0605 113.006 94.8883C112.802 95.7003 112.399 96.5094 111.798 97.3156C111.204 98.1201 110.52 98.7568 109.747 99.2258C109.845 99.5262 109.944 99.8935 110.046 100.327C110.148 100.761 110.241 101.231 110.325 101.736C110.417 102.239 110.498 102.741 110.568 103.241C110.64 103.734 110.7 104.188 110.746 104.604C110.8 105.018 110.831 105.359 110.839 105.626C110.573 105.816 110.229 106.016 109.808 106.224C109.394 106.43 108.972 106.628 108.54 106.815C108.111 106.996 107.737 107.149 107.419 107.276C107.109 107.401 106.922 107.47 106.858 107.483C106.874 107.181 106.878 106.788 106.872 106.304C106.866 105.821 106.85 105.297 106.826 104.735C106.801 104.173 106.77 103.623 106.732 103.086C106.703 102.54 106.671 102.054 106.635 101.628C106.598 101.203 106.564 100.889 106.532 100.687C106.339 100.765 106.144 100.84 105.945 100.911C105.754 100.981 105.573 101.042 105.402 101.093C105.239 101.142 105.089 101.185 104.952 101.221C104.938 101.396 104.894 101.689 104.821 102.1C104.758 102.501 104.678 102.97 104.581 103.506C104.484 104.041 104.379 104.593 104.266 105.162C104.163 105.721 104.061 106.251 103.958 106.75C103.863 107.248 103.779 107.658 103.705 107.979C103.369 108.117 102.967 108.251 102.497 108.379C102.034 108.514 101.555 108.638 101.06 108.749C100.571 108.867 100.111 108.972 99.6818 109.062ZM105.343 98.4511C105.589 98.3992 105.842 98.3385 106.1 98.2691C106.369 98.1902 106.69 98.0815 107.064 97.9431C107.602 97.7474 108.046 97.5421 108.394 97.327C108.743 97.104 109.016 96.86 109.21 96.595C109.415 96.3204 109.558 96.0216 109.639 95.6983C109.748 95.2647 109.727 94.9743 109.575 94.827C109.426 94.6718 109.183 94.6034 108.847 94.622C108.519 94.6388 108.124 94.6958 107.663 94.793C107.536 94.8198 107.383 94.8595 107.204 94.9121C107.027 94.9569 106.849 95.0055 106.67 95.0582C106.491 95.1108 106.328 95.1601 106.181 95.206C106.036 95.244 105.93 95.2737 105.865 95.295C105.839 95.4273 105.81 95.6013 105.779 95.8171C105.747 96.0328 105.709 96.2721 105.666 96.5351C105.624 96.7903 105.579 97.0462 105.529 97.303C105.49 97.5503 105.451 97.7787 105.414 97.9882C105.386 98.1881 105.362 98.3424 105.343 98.4511ZM114.652 105.909C114.826 105.036 115.037 103.969 115.287 102.707C115.546 101.435 115.819 100.078 116.106 98.6367C116.403 97.1855 116.697 95.7461 116.988 94.3185C117.281 92.883 117.551 91.568 117.798 90.3736C118.117 90.2767 118.522 90.1614 119.015 90.0277C119.509 89.894 120.041 89.7519 120.614 89.6014C121.187 89.4509 121.746 89.3069 122.293 89.1693C122.84 89.0317 123.324 88.9186 123.746 88.8298C124.358 88.7008 124.956 88.6309 125.539 88.6202C126.131 88.5998 126.647 88.678 127.084 88.8546C127.53 89.0295 127.842 89.3484 128.019 89.8112C128.199 90.2662 128.184 90.9076 127.976 91.7353C127.772 92.5473 127.369 93.3564 126.767 94.1626C126.173 94.9671 125.49 95.6038 124.717 96.0728C124.814 96.3733 124.914 96.7405 125.016 97.1745C125.118 97.6085 125.211 98.0779 125.295 98.5829C125.387 99.0861 125.468 99.5879 125.538 100.088C125.61 100.581 125.669 101.035 125.716 101.451C125.77 101.865 125.801 102.206 125.809 102.473C125.543 102.663 125.199 102.863 124.777 103.071C124.364 103.277 123.941 103.475 123.51 103.663C123.081 103.843 122.707 103.996 122.389 104.123C122.079 104.248 121.892 104.317 121.828 104.33C121.844 104.028 121.848 103.635 121.842 103.152C121.835 102.668 121.82 102.144 121.795 101.582C121.771 101.02 121.74 100.47 121.701 99.9333C121.673 99.3868 121.641 98.9008 121.604 98.4754C121.568 98.05 121.534 97.7362 121.502 97.5338C121.309 97.6118 121.113 97.6866 120.915 97.7584C120.724 97.8284 120.543 97.889 120.372 97.9399C120.209 97.9892 120.059 98.032 119.921 98.0684C119.908 98.243 119.864 98.5358 119.791 98.947C119.728 99.3485 119.648 99.8171 119.551 100.353C119.454 100.888 119.349 101.44 119.236 102.009C119.133 102.568 119.03 103.098 118.927 103.597C118.832 104.095 118.748 104.505 118.675 104.826C118.339 104.964 117.936 105.098 117.467 105.226C117.004 105.361 116.525 105.485 116.03 105.596C115.54 105.714 115.081 105.819 114.652 105.909ZM120.312 95.2982C120.559 95.2462 120.812 95.1856 121.07 95.1162C121.338 95.0373 121.66 94.9286 122.033 94.7901C122.572 94.5945 123.015 94.3891 123.363 94.174C123.713 93.951 123.985 93.707 124.18 93.442C124.385 93.1675 124.528 92.8686 124.609 92.5454C124.718 92.1118 124.697 91.8213 124.545 91.674C124.396 91.5188 124.153 91.4505 123.817 91.469C123.489 91.4858 123.094 91.5429 122.633 91.64C122.506 91.6668 122.352 91.7065 122.174 91.7592C121.997 91.8039 121.819 91.8526 121.64 91.9052C121.461 91.9578 121.298 92.0071 121.151 92.053C121.005 92.0911 120.9 92.1207 120.834 92.142C120.809 92.2744 120.78 92.4484 120.748 92.6641C120.717 92.8798 120.679 93.1192 120.636 93.3822C120.594 93.6373 120.549 93.8933 120.499 94.1501C120.46 94.3973 120.421 94.6257 120.384 94.8352C120.356 95.0351 120.332 95.1895 120.312 95.2982ZM133.699 101.819C133.389 101.884 133.02 101.958 132.593 102.041C132.173 102.122 131.748 102.196 131.316 102.265C130.893 102.332 130.511 102.382 130.171 102.416C130.284 101.907 130.432 101.256 130.616 100.463C130.802 99.6627 131.001 98.8107 131.213 97.9075C131.433 97.0026 131.646 96.1402 131.852 95.3203C132.169 94.0589 132.516 92.7092 132.892 91.271C133.277 89.8312 133.678 88.3393 134.096 86.7953C134.233 86.759 134.449 86.7098 134.743 86.6478C135.04 86.578 135.372 86.5005 135.74 86.4156C136.117 86.3211 136.477 86.2378 136.819 86.1658C137.171 86.0842 137.467 86.0183 137.705 85.968C137.541 86.8015 137.345 87.7312 137.117 88.7573C136.892 89.7754 136.652 90.8189 136.399 91.8877C136.145 92.9565 135.894 93.9836 135.647 94.969C135.524 95.4578 135.392 95.9671 135.252 96.497C135.119 97.0252 134.983 97.5503 134.844 98.0723C134.706 98.5942 134.565 99.0943 134.422 99.5723C134.279 100.05 134.148 100.485 134.027 100.876C133.908 101.26 133.799 101.574 133.699 101.819ZM151.666 95.2123C151.144 95.7928 150.537 96.3649 149.845 96.9286C149.162 97.4907 148.418 97.9907 147.615 98.4287C146.814 98.8587 145.98 99.165 145.113 99.3477C144.007 99.5805 143.078 99.5934 142.324 99.3864C141.571 99.1715 140.995 98.7665 140.595 98.1714C140.195 97.5763 139.965 96.8257 139.907 95.9197C139.858 95.0042 139.979 93.967 140.27 92.8081C140.649 91.3023 141.249 89.9029 142.071 88.6098C142.893 87.3168 143.891 86.2257 145.063 85.3366C146.236 84.4475 147.546 83.8506 148.994 83.5457C150.171 83.2977 151.198 83.3165 152.075 83.6021C152.963 83.8781 153.569 84.4485 153.894 85.3133C153.62 85.5951 153.267 85.9195 152.836 86.2866C152.415 86.6441 151.987 86.9954 151.554 87.3405C151.131 87.676 150.767 87.9542 150.463 88.175C150.453 88.095 150.41 87.9659 150.334 87.7878C150.267 87.6079 150.154 87.4263 149.997 87.2429C149.839 87.0595 149.617 86.9234 149.331 86.8344C149.046 86.7375 148.685 86.7352 148.248 86.8273C147.834 86.9144 147.435 87.0956 147.049 87.371C146.666 87.6384 146.307 87.9865 145.973 88.4151C145.64 88.8438 145.344 89.3317 145.086 89.8788C144.828 90.4259 144.618 91.0188 144.458 91.6573C144.305 92.2643 144.217 92.8242 144.194 93.3368C144.171 93.8494 144.214 94.292 144.324 94.6646C144.435 95.0293 144.63 95.2908 144.906 95.449C145.191 95.6056 145.556 95.637 146.001 95.5432C146.439 95.4511 146.868 95.2859 147.29 95.0479C147.713 94.8019 148.125 94.5097 148.527 94.1713C148.928 93.8329 149.307 93.4807 149.662 93.1146C149.899 93.2514 150.154 93.4366 150.427 93.6704C150.699 93.9041 150.948 94.1578 151.173 94.4314C151.406 94.7034 151.571 94.9637 151.666 95.2123ZM160.826 96.2509C159.41 96.5491 158.376 96.4683 157.723 96.0085C157.078 95.5471 156.704 94.7748 156.599 93.6919C156.497 92.7204 156.586 91.4958 156.867 90.0181C157.158 88.5308 157.541 86.8411 158.016 84.9491C158.09 84.6574 158.17 84.353 158.257 84.036C158.344 83.719 158.432 83.398 158.522 83.0731C158.613 82.7404 158.701 82.4194 158.786 82.1103C158.879 81.7995 158.963 81.5131 159.036 81.2513C159.372 81.1432 159.709 81.0461 160.047 80.96C160.387 80.866 160.708 80.7871 161.01 80.7235C161.416 80.638 161.815 80.5652 162.207 80.5051C162.598 80.445 162.945 80.398 163.248 80.3642C163.051 80.9656 162.846 81.6173 162.632 82.3194C162.418 83.0215 162.208 83.7377 162.002 84.468C161.806 85.1888 161.622 85.8881 161.452 86.5661C161.254 87.3545 161.101 88.0511 160.995 88.6559C160.89 89.2529 160.834 89.7573 160.829 90.1691C160.818 90.7837 160.924 91.2129 161.149 91.4567C161.374 91.7005 161.726 91.7721 162.203 91.6716C162.728 91.5611 163.182 91.2974 163.565 90.8807C163.957 90.4622 164.293 89.9172 164.575 89.2457C164.857 88.5741 165.106 87.8087 165.322 86.9494C165.401 86.634 165.495 86.2297 165.604 85.7364C165.723 85.2335 165.848 84.6921 165.978 84.1121C166.111 83.5242 166.238 82.945 166.358 82.3745C166.479 81.804 166.582 81.2896 166.667 80.8312C166.754 80.3649 166.814 80.005 166.848 79.7515C167.166 79.6845 167.528 79.6232 167.934 79.5676C168.349 79.5025 168.756 79.443 169.154 79.3891C169.56 79.3335 169.909 79.2936 170.201 79.2693C170.493 79.2451 170.68 79.2356 170.762 79.2408C170.728 79.6435 170.669 80.0891 170.584 80.5773C170.501 81.0577 170.405 81.5595 170.296 82.0827C170.187 82.6058 170.066 83.1315 169.934 83.6597C169.54 85.2285 169.088 86.7124 168.578 88.1115C168.076 89.5088 167.473 90.7708 166.768 91.8973C166.065 93.016 165.226 93.9541 164.252 94.7117C163.281 95.4614 162.138 95.9745 160.826 96.2509ZM171.929 93.2965C172.062 92.8578 172.233 92.2655 172.443 91.5194C172.655 90.7655 172.886 89.9217 173.136 88.9881C173.388 88.0466 173.638 87.0792 173.888 86.0859C174.137 85.0926 174.376 84.1128 174.604 83.1464C174.834 82.1723 175.041 81.2738 175.225 80.451C175.409 79.6283 175.559 78.9396 175.676 78.3849C175.915 78.3048 176.286 78.1931 176.789 78.0498C177.292 77.9065 177.81 77.7787 178.343 77.6665C178.597 77.6129 178.893 77.5579 179.232 77.5017C179.57 77.4454 179.795 77.4165 179.909 77.415C179.822 77.8216 179.695 78.3411 179.528 78.9735C179.37 79.6041 179.181 80.3122 178.961 81.0977C178.749 81.8815 178.517 82.7143 178.265 83.5961C178.015 84.47 177.761 85.3486 177.501 86.2321C177.36 86.7022 177.218 87.1614 177.076 87.6095C176.943 88.0482 176.822 88.4245 176.713 88.7387C177.351 88.5669 177.979 88.4047 178.598 88.2521C179.216 88.0994 179.834 87.9507 180.45 87.806C181.074 87.6595 181.697 87.521 182.317 87.3903C182.298 87.5886 182.244 87.9059 182.157 88.3424C182.07 88.7788 181.971 89.2476 181.86 89.7488C181.751 90.2421 181.65 90.674 181.557 91.0446C180.571 91.3717 179.581 91.6699 178.587 91.939C177.602 92.1986 176.672 92.4245 175.795 92.6166C175.069 92.777 174.371 92.9165 173.701 93.0353C173.041 93.1444 172.45 93.2315 171.929 93.2965ZM191.535 89.783C190.119 90.0813 189.084 90.0005 188.432 89.5407C187.787 89.0792 187.412 88.307 187.308 87.224C187.205 86.2525 187.294 85.0279 187.575 83.5502C187.866 82.0629 188.249 80.3732 188.725 78.4812C188.798 78.1895 188.878 77.8851 188.966 77.5681C189.053 77.2511 189.141 76.9301 189.23 76.6053C189.321 76.2725 189.41 75.9515 189.495 75.6424C189.588 75.3316 189.671 75.0453 189.745 74.7834C190.081 74.6753 190.418 74.5782 190.756 74.4921C191.096 74.3981 191.417 74.3192 191.719 74.2556C192.125 74.1701 192.523 74.0974 192.915 74.0372C193.307 73.9771 193.654 73.9302 193.956 73.8964C193.76 74.4977 193.555 75.1494 193.341 75.8515C193.127 76.5536 192.916 77.2698 192.71 78.0001C192.514 78.7209 192.331 79.4203 192.16 80.0982C191.962 80.8866 191.81 81.5832 191.703 82.188C191.598 82.785 191.543 83.2894 191.538 83.7012C191.526 84.3158 191.633 84.745 191.858 84.9888C192.083 85.2326 192.434 85.3043 192.911 85.2037C193.436 85.0932 193.891 84.8295 194.274 84.4128C194.665 83.9944 195.002 83.4494 195.284 82.7778C195.565 82.1062 195.814 81.3408 196.03 80.4815C196.11 80.1661 196.204 79.7618 196.312 79.2685C196.431 78.7657 196.556 78.2242 196.687 77.6442C196.819 77.0563 196.946 76.4771 197.067 75.9066C197.188 75.3362 197.291 74.8217 197.376 74.3633C197.463 73.897 197.523 73.5371 197.557 73.2836C197.875 73.2166 198.237 73.1553 198.642 73.0998C199.058 73.0346 199.465 72.9751 199.862 72.9212C200.268 72.8656 200.617 72.8257 200.909 72.8014C201.202 72.7772 201.389 72.7677 201.47 72.7729C201.437 73.1757 201.378 73.6212 201.293 74.1095C201.21 74.5899 201.114 75.0916 201.005 75.6148C200.896 76.138 200.775 76.6636 200.642 77.1918C200.248 78.7606 199.796 80.2446 199.286 81.6436C198.785 83.0409 198.181 84.3029 197.476 85.4294C196.773 86.5481 195.935 87.4862 194.961 88.2438C193.989 88.9936 192.847 89.5066 191.535 89.783ZM202.65 87.0948C202.802 86.4878 202.997 85.7262 203.235 84.81C203.473 83.8939 203.735 82.8941 204.023 81.8107C204.312 80.7194 204.611 79.6037 204.92 78.4634C205.23 77.3232 205.533 76.2215 205.83 75.1584C206.127 74.0954 206.406 73.137 206.666 72.2834C207.057 72.1636 207.515 72.0374 208.038 71.9049C208.568 71.7707 209.085 71.6468 209.589 71.5334C210.102 71.4104 210.533 71.3121 210.883 71.2384C211.235 71.1568 211.431 71.1118 211.471 71.1034C211.479 71.1316 211.487 71.3091 211.495 71.6358C211.511 71.9609 211.526 72.3835 211.538 72.9035C211.558 73.4218 211.577 73.9928 211.593 74.6165C211.61 75.2402 211.624 75.8757 211.634 76.523C211.653 77.1687 211.668 77.7814 211.681 78.3611C211.695 78.9329 211.699 79.4287 211.691 79.8484C211.692 80.2664 211.687 80.5549 211.677 80.7137L211.221 80.8658C211.356 80.6283 211.566 80.2406 211.852 79.7025C212.138 79.1645 212.464 78.5434 212.829 77.8393C213.204 77.1256 213.587 76.3805 213.978 75.6037C214.379 74.8175 214.766 74.0565 215.139 73.3209C215.513 72.5853 215.839 71.9304 216.119 71.3563C216.409 70.7726 216.621 70.3322 216.756 70.035C217.09 69.9646 217.514 69.8828 218.027 69.7897C218.548 69.6949 219.071 69.6072 219.596 69.5264C220.121 69.4457 220.55 69.4001 220.885 69.3894C220.865 70.0654 220.746 70.9604 220.526 72.0743C220.309 73.1804 220.042 74.3601 219.727 75.6136C219.474 76.6227 219.2 77.6509 218.907 78.6982C218.623 79.736 218.344 80.7132 218.068 81.6298C217.793 82.5465 217.549 83.322 217.337 83.9566C216.947 84.0387 216.528 84.1196 216.078 84.1993C215.629 84.279 215.2 84.3506 214.792 84.4141C214.395 84.468 214.079 84.5122 213.844 84.5467C214.012 84.0259 214.214 83.3601 214.448 82.5492C214.689 81.7368 214.93 80.8984 215.17 80.034C215.327 79.5008 215.476 78.9653 215.619 78.4276C215.77 77.8882 215.904 77.3969 216.023 76.9537C216.15 76.5089 216.248 76.1634 216.317 75.9174C216.153 76.2433 215.928 76.6713 215.645 77.2015C215.371 77.7221 215.06 78.2989 214.712 78.9321C214.373 79.5635 214.02 80.2054 213.652 80.8577C213.295 81.5004 212.948 82.1146 212.613 82.7005C212.285 83.2846 211.996 83.7897 211.746 84.2157C211.504 84.6401 211.323 84.9394 211.204 85.1139C211.091 85.1452 210.918 85.1891 210.685 85.2456C210.462 85.2925 210.291 85.3285 210.172 85.3536C209.957 85.3989 209.737 85.4379 209.51 85.4707C209.293 85.494 209.054 85.5183 208.791 85.5437C208.793 85.4463 208.795 85.2443 208.796 84.9378C208.806 84.6297 208.811 84.2517 208.81 83.8038C208.81 83.3559 208.808 82.8672 208.806 82.3376C208.813 81.7985 208.819 81.2523 208.822 80.6991C208.827 80.138 208.828 79.5966 208.823 79.0749C208.819 78.5532 208.813 78.0803 208.807 77.656C208.809 77.2301 208.804 76.8876 208.794 76.6284C208.614 77.3757 208.418 78.1711 208.206 79.0146C208.002 79.8565 207.798 80.6834 207.594 81.4954C207.39 82.3074 207.201 83.0563 207.029 83.7422C206.867 84.4185 206.729 84.9813 206.616 85.4307C206.503 85.88 206.435 86.152 206.411 86.2466C206.131 86.3131 205.774 86.3995 205.34 86.5057C204.909 86.6041 204.457 86.7066 203.986 86.8133C203.517 86.9122 203.071 87.006 202.65 87.0948Z" fill="#FAFFDF"/>
</g>
<defs>
<filter id="filter0_d_1955_20972" x="9.11456" y="51.0422" width="52.2362" height="51.0924" filterUnits="userSpaceOnUse" color-interpolation-filters="sRGB">
<feFlood flood-opacity="0" result="BackgroundImageFix"/>
<feColorMatrix in="SourceAlpha" type="matrix" values="0 0 0 0 0 0 0 0 0 0 0 0 0 0 0 0 0 0 127 0" result="hardAlpha"/>
<feOffset dx="3.62258" dy="5.79821"/>
<feComposite in2="hardAlpha" operator="out"/>
<feColorMatrix type="matrix" values="0 0 0 0 0 0 0 0 0 0 0 0 0 0 0 0 0 0 0.2 0"/>
<feBlend mode="multiply" in2="BackgroundImageFix" result="effect1_dropShadow_1955_20972"/>
<feBlend mode="normal" in="SourceGraphic" in2="effect1_dropShadow_1955_20972" result="shape"/>
</filter>
<filter id="filter1_d_1955_20972" x="62.0165" y="38.2966" width="53.4305" height="51.621" filterUnits="userSpaceOnUse" color-interpolation-filters="sRGB">
<feFlood flood-opacity="0" result="BackgroundImageFix"/>
<feColorMatrix in="SourceAlpha" type="matrix" values="0 0 0 0 0 0 0 0 0 0 0 0 0 0 0 0 0 0 127 0" result="hardAlpha"/>
<feOffset dx="3.62258" dy="5.79821"/>
<feComposite in2="hardAlpha" operator="out"/>
<feColorMatrix type="matrix" values="0 0 0 0 0 0 0 0 0 0 0 0 0 0 0 0 0 0 0.2 0"/>
<feBlend mode="multiply" in2="BackgroundImageFix" result="effect1_dropShadow_1955_20972"/>
<feBlend mode="normal" in="SourceGraphic" in2="effect1_dropShadow_1955_20972" result="shape"/>
</filter>
<filter id="filter2_d_1955_20972" x="115.918" y="25.8218" width="52.3164" height="50.5958" filterUnits="userSpaceOnUse" color-interpolation-filters="sRGB">
<feFlood flood-opacity="0" result="BackgroundImageFix"/>
<feColorMatrix in="SourceAlpha" type="matrix" values="0 0 0 0 0 0 0 0 0 0 0 0 0 0 0 0 0 0 127 0" result="hardAlpha"/>
<feOffset dx="3.62258" dy="5.79821"/>
<feComposite in2="hardAlpha" operator="out"/>
<feColorMatrix type="matrix" values="0 0 0 0 0 0 0 0 0 0 0 0 0 0 0 0 0 0 0.2 0"/>
<feBlend mode="multiply" in2="BackgroundImageFix" result="effect1_dropShadow_1955_20972"/>
<feBlend mode="normal" in="SourceGraphic" in2="effect1_dropShadow_1955_20972" result="shape"/>
</filter>
<filter id="filter3_d_1955_20972" x="168.764" y="13.7378" width="52.3162" height="50.5961" filterUnits="userSpaceOnUse" color-interpolation-filters="sRGB">
<feFlood flood-opacity="0" result="BackgroundImageFix"/>
<feColorMatrix in="SourceAlpha" type="matrix" values="0 0 0 0 0 0 0 0 0 0 0 0 0 0 0 0 0 0 127 0" result="hardAlpha"/>
<feOffset dx="3.62258" dy="5.79821"/>
<feComposite in2="hardAlpha" operator="out"/>
<feColorMatrix type="matrix" values="0 0 0 0 0 0 0 0 0 0 0 0 0 0 0 0 0 0 0.2 0"/>
<feBlend mode="multiply" in2="BackgroundImageFix" result="effect1_dropShadow_1955_20972"/>
<feBlend mode="normal" in="SourceGraphic" in2="effect1_dropShadow_1955_20972" result="shape"/>
</filter>
<filter id="filter4_d_1955_20972" x="221.461" y="1.02319" width="52.3162" height="50.5961" filterUnits="userSpaceOnUse" color-interpolation-filters="sRGB">
<feFlood flood-opacity="0" result="BackgroundImageFix"/>
<feColorMatrix in="SourceAlpha" type="matrix" values="0 0 0 0 0 0 0 0 0 0 0 0 0 0 0 0 0 0 127 0" result="hardAlpha"/>
<feOffset dx="3.62258" dy="5.79821"/>
<feComposite in2="hardAlpha" operator="out"/>
<feColorMatrix type="matrix" values="0 0 0 0 0 0 0 0 0 0 0 0 0 0 0 0 0 0 0.2 0"/>
<feBlend mode="multiply" in2="BackgroundImageFix" result="effect1_dropShadow_1955_20972"/>
<feBlend mode="normal" in="SourceGraphic" in2="effect1_dropShadow_1955_20972" result="shape"/>
</filter>
<filter id="filter5_d_1955_20972" x="65.7127" y="67.9509" width="155.94" height="51.0559" filterUnits="userSpaceOnUse" color-interpolation-filters="sRGB">
<feFlood flood-opacity="0" result="BackgroundImageFix"/>
<feColorMatrix in="SourceAlpha" type="matrix" values="0 0 0 0 0 0 0 0 0 0 0 0 0 0 0 0 0 0 127 0" result="hardAlpha"/>
<feOffset dy="2.72292"/>
<feComposite in2="hardAlpha" operator="out"/>
<feColorMatrix type="matrix" values="0 0 0 0 0 0 0 0 0 0 0 0 0 0 0 0 0 0 0.25 0"/>
<feBlend mode="normal" in2="BackgroundImageFix" result="effect1_dropShadow_1955_20972"/>
<feBlend mode="normal" in="SourceGraphic" in2="effect1_dropShadow_1955_20972" result="shape"/>
</filter>
</defs>
</svg>
