<svg xmlns="http://www.w3.org/2000/svg" width="94" height="94" viewBox="0 0 79 48" fill="none">
<path d="M78.6127 2.93104C78.2174 1.9791 77.4609 1.22262 76.5089 0.827291C76.0406 0.627665 75.5376 0.52178 75.0285 0.515625H55.5494C54.5161 0.515625 53.5252 0.926078 52.7946 1.65669C52.064 2.3873 51.6535 3.37822 51.6535 4.41146C51.6535 5.4447 52.064 6.43562 52.7946 7.16623C53.5252 7.89684 54.5161 8.30729 55.5494 8.30729H65.6396L43.8619 30.085L31.0446 17.2288C30.6824 16.8636 30.2515 16.5738 29.7768 16.376C29.302 16.1782 28.7928 16.0764 28.2785 16.0764C27.7642 16.0764 27.255 16.1782 26.7803 16.376C26.3055 16.5738 25.8747 16.8636 25.5125 17.2288L2.13749 40.6038C1.77234 40.9659 1.48251 41.3968 1.28472 41.8715C1.08694 42.3463 0.985107 42.8555 0.985107 43.3698C0.985107 43.8841 1.08694 44.3933 1.28472 44.868C1.48251 45.3428 1.77234 45.7737 2.13749 46.1358C2.49966 46.501 2.93054 46.7908 3.40528 46.9886C3.88003 47.1864 4.38923 47.2882 4.90353 47.2882C5.41783 47.2882 5.92703 47.1864 6.40178 46.9886C6.87652 46.7908 7.3074 46.501 7.66957 46.1358L28.2785 25.4879L41.0958 38.3442C41.458 38.7093 41.8889 38.9991 42.3636 39.1969C42.8384 39.3947 43.3476 39.4965 43.8619 39.4965C44.3762 39.4965 44.8854 39.3947 45.3601 39.1969C45.8349 38.9991 46.2657 38.7093 46.6279 38.3442L71.1327 13.8004V23.8906C71.1327 24.9239 71.5431 25.9148 72.2738 26.6454C73.0044 27.376 73.9953 27.7865 75.0285 27.7865C76.0618 27.7865 77.0527 27.376 77.7833 26.6454C78.5139 25.9148 78.9244 24.9239 78.9244 23.8906V4.41146C78.9182 3.90236 78.8123 3.39941 78.6127 2.93104Z" fill="#EE7F82"></path>
</svg>