<svg width="94" height="94" viewBox="0 0 94 94" fill="none" xmlns="http://www.w3.org/2000/svg">
<path d="M47.0339 11.8268C42.4294 11.8268 37.87 12.7337 33.616 14.4958C29.362 16.2579 25.4968 18.8405 22.2409 22.0964C18.9851 25.3522 16.4024 29.2175 14.6403 33.4715C12.8783 37.7255 11.9714 42.2849 11.9714 46.8893C11.9714 51.4938 12.8783 56.0532 14.6403 60.3072C16.4024 64.5611 18.9851 68.4264 22.2409 71.6823C25.4968 74.9381 29.362 77.5208 33.616 79.2829C37.87 81.0449 42.4294 81.9518 47.0339 81.9518C56.333 81.9518 65.2513 78.2577 71.8268 71.6823C78.4023 65.1068 82.0964 56.1885 82.0964 46.8893C82.0964 37.5902 78.4023 28.6719 71.8268 22.0964C65.2513 15.5209 56.333 11.8268 47.0339 11.8268ZM4.17969 46.8893C4.17969 23.2221 23.3667 4.03516 47.0339 4.03516C70.701 4.03516 89.888 23.2221 89.888 46.8893C89.888 70.5565 70.701 89.7435 47.0339 89.7435C23.3667 89.7435 4.17969 70.5565 4.17969 46.8893ZM35.3464 31.306V46.8893H27.5547V31.306H35.3464ZM66.513 31.306V46.8893H58.7214V31.306H66.513ZM27.5547 50.7852H66.513V54.681C66.513 59.8472 64.4608 64.8018 60.8077 68.4548C57.1547 72.1079 52.2001 74.1602 47.0339 74.1602C41.8677 74.1602 36.9131 72.1079 33.26 68.4548C29.607 64.8018 27.5547 59.8472 27.5547 54.681V50.7852ZM36.0086 58.5768C36.8135 60.858 38.3062 62.8333 40.2808 64.2305C42.2555 65.6277 44.6149 66.378 47.0339 66.378C49.4528 66.378 51.8123 65.6277 53.7869 64.2305C55.7615 62.8333 57.2542 60.858 58.0591 58.5768H36.0086Z" fill="#A5D27C"/>
</svg>