<svg width="56" height="57" viewBox="0 0 56 57" fill="none" xmlns="http://www.w3.org/2000/svg">
              <path fill-rule="evenodd" clip-rule="evenodd" d="M27.0726 44.4116C27.3521 44.5824 27.6738 44.6713 28.0013 44.6683C28.3288 44.6713 28.6505 44.5824 28.93 44.4116L31.5783 42.8226C34.141 41.2848 37.0245 40.3604 40.0036 40.1216C42.9827 39.8828 45.9767 40.3361 48.7516 41.4459C50.8283 42.2766 53.0846 40.7459 53.0846 38.5129V11.3109C53.0846 9.96226 52.2633 8.75126 51.0103 8.2496C47.4361 6.82004 43.5797 6.23626 39.7425 6.54389C35.9053 6.85151 32.1911 8.0422 28.8903 10.0229L28.0013 10.5503L27.11 10.0159C23.8091 8.0352 20.095 6.84451 16.2578 6.53689C12.4206 6.22926 8.56422 6.81304 4.98998 8.2426C4.37714 8.48785 3.85203 8.91142 3.48262 9.45846C3.11321 10.0055 2.9165 10.6508 2.91798 11.3109V38.5176C2.91798 40.7506 5.17431 42.2789 7.25098 41.4483C10.0259 40.3384 13.0199 39.8852 15.999 40.124C18.9781 40.3628 21.8616 41.2872 24.4243 42.8249L27.0726 44.4116ZM6.41798 11.4463V38.0159C9.64275 36.8074 13.0987 36.3421 16.5282 36.6548C19.9578 36.9675 23.2726 38.0501 26.2256 39.8219L26.2513 39.8359V13.5859L25.311 13.0213C22.4925 11.33 19.3234 10.3084 16.0477 10.0353C12.7721 9.76228 9.47757 10.245 6.41798 11.4463ZM29.777 39.8196L29.7513 39.8359V13.5859L30.6916 13.0213C33.5101 11.33 36.6793 10.3084 39.9549 10.0353C43.2305 9.76228 46.5251 10.245 49.5846 11.4463V38.0159C46.3599 36.8074 42.9039 36.3421 39.4744 36.6548C36.0448 36.9675 32.73 38.0501 29.777 39.8219" fill="#AE7E30"/>
              <path d="M21.6441 45.3549C19.3246 44.0019 16.6876 43.2891 14.0024 43.2891C11.3172 43.2891 8.68018 44.0019 6.36073 45.3549L6.1204 45.4949C5.92184 45.6107 5.74804 45.7645 5.60892 45.9475C5.4698 46.1305 5.36809 46.3391 5.30959 46.5614C5.25109 46.7837 5.23694 47.0153 5.26797 47.2431C5.29899 47.4709 5.37458 47.6903 5.4904 47.8889C5.60623 48.0874 5.76003 48.2612 5.94302 48.4003C6.12602 48.5395 6.33462 48.6412 6.55692 48.6997C6.77923 48.7582 7.01088 48.7723 7.23865 48.7413C7.46641 48.7103 7.68584 48.6347 7.8844 48.5189L8.12473 48.3789C9.90879 47.3384 11.9371 46.7901 14.0024 46.7901C16.0677 46.7901 18.096 47.3384 19.8801 48.3789L22.4187 49.8582C24.1136 50.8466 26.0404 51.3675 28.0024 51.3675C29.9644 51.3675 31.8912 50.8466 33.5861 49.8582L36.1247 48.3789C37.9088 47.3384 39.9371 46.7901 42.0024 46.7901C44.0677 46.7901 46.096 47.3384 47.8801 48.3789L48.1204 48.5189C48.5214 48.7528 48.9989 48.8178 49.4479 48.6997C49.8968 48.5815 50.2805 48.2899 50.5144 47.8889C50.7483 47.4879 50.8134 47.0104 50.6952 46.5614C50.5771 46.1124 50.2854 45.7288 49.8844 45.4949L49.6441 45.3549C47.3246 44.0019 44.6876 43.2891 42.0024 43.2891C39.3172 43.2891 36.6802 44.0019 34.3607 45.3549L31.8244 46.8342C30.6644 47.5111 29.3454 47.8678 28.0024 47.8678C26.6594 47.8678 25.3404 47.5111 24.1804 46.8342L21.6441 45.3549Z" fill="#AE7E30"/>
              </svg>