<svg width="56" height="57" viewBox="0 0 56 57" fill="none" xmlns="http://www.w3.org/2000/svg">
              <path d="M43.6813 35.3706C44.498 33.3873 44.9413 31.264 44.9413 28.9306C44.9413 27.2506 44.6846 25.6406 44.2413 24.1473C42.7246 24.4973 41.138 24.684 39.4813 24.684C36.0886 24.6876 32.7447 23.8755 29.7315 22.3161C26.7184 20.7568 24.1243 18.4958 22.168 15.724C20.0752 20.7877 16.1273 24.8608 11.1313 27.1106C11.038 27.694 11.038 28.324 11.038 28.9306C11.038 31.1583 11.4767 33.3641 12.3292 35.4222C13.1817 37.4803 14.4312 39.3503 16.0064 40.9255C19.1877 44.1068 23.5023 45.894 28.0013 45.894C30.4513 45.894 32.808 45.3573 34.9313 44.4006C36.2613 46.944 36.868 48.204 36.8213 48.204C32.9946 49.4873 30.0313 50.1173 28.0013 50.1173C22.3546 50.1173 16.9646 47.9006 12.998 43.9106C10.5853 41.5054 8.79183 38.551 7.7713 35.3006H4.66797V24.684H7.2113C7.98187 20.9332 9.75345 17.4609 12.3381 14.6357C14.9227 11.8104 18.224 9.73757 21.8915 8.63706C25.5591 7.53654 29.4562 7.44942 33.1693 8.38494C36.8824 9.32045 40.273 11.2437 42.9813 13.9506C45.9218 16.8795 47.9275 20.6149 48.7446 24.684H51.3346V35.3006H51.1946L42.888 42.9306L30.5213 41.5306V37.634H41.7913L43.6813 35.3706ZM21.6313 28.394C22.3313 28.394 23.008 28.674 23.498 29.1873C23.9904 29.6837 24.2667 30.3547 24.2667 31.054C24.2667 31.7532 23.9904 32.4242 23.498 32.9206C23.008 33.4106 22.3313 33.6906 21.6313 33.6906C20.1613 33.6906 18.9713 32.524 18.9713 31.054C18.9713 29.584 20.1613 28.394 21.6313 28.394ZM34.348 28.394C35.818 28.394 36.9846 29.584 36.9846 31.054C36.9846 32.524 35.818 33.6906 34.348 33.6906C32.878 33.6906 31.688 32.524 31.688 31.054C31.688 30.3485 31.9682 29.6719 32.4671 29.173C32.9659 28.6742 33.6425 28.394 34.348 28.394Z" fill="#AE7E30"/>
              </svg>