<svg width="56" height="57" viewBox="0 0 56 57" fill="none" xmlns="http://www.w3.org/2000/svg">
              <g clip-path="url(#clip0_1493_1614)">
              <path d="M36.351 35.3479C35.4425 33.9095 34.9731 32.2375 35 30.5365C35.027 28.8355 35.5493 27.1792 36.5029 25.7704C37.4566 24.3616 38.8002 23.2614 40.3694 22.6043C41.9386 21.9472 43.6654 21.7618 45.3383 22.0709C47.0112 22.3799 48.5578 23.1699 49.7887 24.3442C51.0197 25.5184 51.8816 27.0261 52.269 28.6826C52.6564 30.3392 52.5526 32.0727 51.9701 33.6711C51.3876 35.2695 50.3519 36.6635 48.9895 37.6824C53.242 40.0274 56 44.5319 56 49.9219V55.1719C56 55.636 55.8156 56.0811 55.4874 56.4093C55.1592 56.7375 54.7141 56.9219 54.25 56.9219C53.7859 56.9219 53.3408 56.7375 53.0126 56.4093C52.6844 56.0811 52.5 55.636 52.5 55.1719V49.9219C52.5 43.8879 48.034 39.4219 42 39.4219C38.815 39.4219 37.457 39.3519 35.6825 38.9949C31.3075 38.1059 27.517 35.4949 23.135 30.0139C22.9785 29.8362 22.8598 29.6286 22.7859 29.4036C22.712 29.1787 22.6845 28.9411 22.7051 28.7053C22.7257 28.4694 22.7939 28.2402 22.9057 28.0314C23.0174 27.8227 23.1703 27.6388 23.3552 27.4909C23.5401 27.343 23.7531 27.2342 23.9812 27.1709C24.2094 27.1077 24.448 27.0915 24.6827 27.1232C24.9173 27.1549 25.1431 27.2338 25.3463 27.3553C25.5495 27.4768 25.726 27.6382 25.865 27.8299C29.015 31.7639 31.6505 33.9199 34.384 34.9804C34.9265 35.1624 35.5915 35.2709 36.351 35.3479ZM42.5985 35.7959C42.889 35.8309 43.183 35.8694 43.477 35.9149L43.75 35.9219C45.092 35.9189 46.382 35.4021 47.3548 34.4776C48.3276 33.5532 48.9095 32.2913 48.9809 30.9512C49.0523 29.611 48.6078 28.2945 47.7387 27.2719C46.8695 26.2493 45.6418 25.5984 44.3077 25.4529C42.9736 25.3073 41.6344 25.6782 40.5652 26.4893C39.4961 27.3005 38.7781 28.4902 38.5589 29.8142C38.3396 31.1382 38.6358 32.4959 39.3864 33.6084C40.137 34.7208 41.2887 35.5036 42.5985 35.7959ZM34.23 42.8169C34.6941 42.8169 35.1392 43.0012 35.4674 43.3294C35.7956 43.6576 35.98 44.1027 35.98 44.5669C35.9541 44.8424 35.8953 45.1138 35.805 45.3754C35.1785 46.7054 35 48.0844 35 49.9324V55.1824C35 55.6465 34.8156 56.0916 34.4874 56.4198C34.1592 56.748 33.7141 56.9324 33.25 56.9324C32.7859 56.9324 32.3408 56.748 32.0126 56.4198C31.6844 56.0916 31.5 55.6465 31.5 55.1824V49.9324C31.5 47.6329 31.752 45.7814 32.5745 43.9964C32.6933 43.6519 32.9167 43.3531 33.2134 43.1416C33.5102 42.9302 33.8656 42.8166 34.23 42.8169ZM20.853 21.1239C21.1261 21.4874 21.247 21.9429 21.1901 22.394C21.1332 22.8451 20.9029 23.2563 20.5481 23.5406C20.1933 23.825 19.7418 23.96 19.2891 23.9172C18.8365 23.8744 18.4182 23.6571 18.123 23.3114L10.885 14.2639C10.7285 14.0862 10.6098 13.8786 10.5359 13.6536C10.462 13.4287 10.4345 13.1911 10.4551 12.9553C10.4757 12.7194 10.5439 12.4902 10.6557 12.2814C10.7674 12.0727 10.9203 11.8888 11.1052 11.7409C11.2901 11.593 11.5031 11.4842 11.7312 11.4209C11.9594 11.3577 12.198 11.3415 12.4327 11.3732C12.6673 11.4049 12.8931 11.4838 13.0963 11.6053C13.2995 11.7268 13.476 11.8882 13.615 12.0799L20.853 21.1239ZM3.5 39.4219H22.75C23.2141 39.4219 23.6592 39.6062 23.9874 39.9344C24.3156 40.2626 24.5 40.7077 24.5 41.1719C24.5 41.636 24.3156 42.0811 23.9874 42.4093C23.6592 42.7375 23.2141 42.9219 22.75 42.9219H1.75C1.28587 42.9219 0.840752 42.7375 0.512563 42.4093C0.184374 42.0811 0 41.636 0 41.1719V2.67188C0 2.20775 0.184374 1.76263 0.512563 1.43444C0.840752 1.10625 1.28587 0.921875 1.75 0.921875L43.75 0.921875C44.2141 0.921875 44.6592 1.10625 44.9874 1.43444C45.3156 1.76263 45.5 2.20775 45.5 2.67188V13.1719C45.5 13.636 45.3156 14.0811 44.9874 14.4093C44.6592 14.7375 44.2141 14.9219 43.75 14.9219C43.2859 14.9219 42.8408 14.7375 42.5126 14.4093C42.1844 14.0811 42 13.636 42 13.1719V4.42188H3.5V39.4219Z" fill="#5D8739"/>
              </g>
              <defs>
              <clipPath id="clip0_1493_1614">
              <rect width="56" height="56" fill="white" transform="translate(0 0.929688)"/>
              </clipPath>
              </defs>
              </svg>