 <svg width="56" height="57" viewBox="0 0 56 57" fill="none" xmlns="http://www.w3.org/2000/svg">
              <path d="M49 28.9219L28 7.92188L7 28.9219H11.6667V45.2552C11.6667 46.4929 12.1583 47.6799 13.0335 48.555C13.9087 49.4302 15.0957 49.9219 16.3333 49.9219H27.3" stroke="#5D8739" stroke-width="4.66667" stroke-linecap="round" stroke-linejoin="round"/>
              <path d="M21 49.9245V35.9245C21 34.6868 21.4917 33.4998 22.3668 32.6246C23.242 31.7495 24.429 31.2578 25.6667 31.2578H30.3333M47.1333 48.0578L51.3333 52.2578M35 42.9245C35 44.781 35.7375 46.5615 37.0503 47.8742C38.363 49.187 40.1435 49.9245 42 49.9245C43.8565 49.9245 45.637 49.187 46.9498 47.8742C48.2625 46.5615 49 44.781 49 42.9245C49 41.068 48.2625 39.2875 46.9498 37.9747C45.637 36.662 43.8565 35.9245 42 35.9245C40.1435 35.9245 38.363 36.662 37.0503 37.9747C35.7375 39.2875 35 41.068 35 42.9245Z" stroke="#5D8739" stroke-width="4.66667" stroke-linecap="round" stroke-linejoin="round"/>
              </svg>