<svg xmlns="http://www.w3.org/2000/svg" width="58" height="58" viewBox="0 0 58 58" fill="none">
  <g clip-path="url(#clip0_702_1420)">
    <path d="M53.2872 30.0194L42.3639 24.9912V10.5844C42.3589 10.2822 42.267 9.98773 42.0993 9.73621C41.9317 9.48468 41.6952 9.28668 41.4181 9.16581L29.5964 3.72779C29.3889 3.63177 29.163 3.58203 28.9343 3.58203C28.7057 3.58203 28.4798 3.63177 28.2723 3.72779L16.4506 9.16581C16.177 9.29243 15.9454 9.49486 15.7834 9.74909C15.6213 10.0033 15.5356 10.2987 15.5363 10.6002V25.007L4.66032 30.0194C4.38671 30.146 4.15516 30.3484 3.99312 30.6027C3.83108 30.8569 3.74535 31.1523 3.7461 31.4538V46.8694C3.74535 47.1708 3.83108 47.4662 3.99312 47.7204C4.15516 47.9747 4.38671 48.1771 4.66032 48.3037L16.4821 53.7417C16.6896 53.8378 16.9155 53.8875 17.1441 53.8875C17.3727 53.8875 17.5986 53.8378 17.8061 53.7417L28.9659 48.6032L40.1256 53.7417C40.3331 53.8378 40.559 53.8875 40.7876 53.8875C41.0163 53.8875 41.2422 53.8378 41.4496 53.7417L53.2714 48.3037C53.545 48.1771 53.7766 47.9747 53.9386 47.7204C54.1006 47.4662 54.1864 47.1708 54.1856 46.8694V31.4538C54.1878 31.154 54.1044 30.8598 53.9453 30.6058C53.7861 30.3517 53.5578 30.1483 53.2872 30.0194ZM40.8034 35.1264L32.7488 31.4538L40.8034 27.7496L48.8579 31.4538L40.8034 35.1264ZM39.2272 24.9754L29.0762 29.7041V17.5829C29.2662 17.5745 29.4531 17.5318 29.6279 17.4568L39.2114 13.0591V25.007L39.2272 24.9754ZM28.9659 6.88026L37.0204 10.5844L28.9659 14.2886L20.9271 10.5844L28.9659 6.88026ZM17.1441 27.7339L25.1987 31.438L17.1441 35.1264L9.08954 31.4538L17.1441 27.7339ZM27.3896 45.8448L17.1441 50.5735V38.4523C17.3641 38.4392 17.5789 38.3801 17.7746 38.2789L27.3581 33.8654L27.3896 45.8448ZM51.0332 45.8448L40.8507 50.5735V38.4523C41.0491 38.4309 41.2417 38.3721 41.4181 38.2789L51.0016 33.8654L51.0332 45.8448Z" fill="white"/>
  </g>
  <defs>
    <clipPath id="clip0_702_1420">
      <rect width="56.7445" height="56.7445" fill="white" transform="translate(0.435547 0.457031)"/>
    </clipPath>
  </defs>
</svg>