<svg xmlns="http://www.w3.org/2000/svg" width="67" height="68" viewBox="0 0 67 68" fill="none">
<path d="M6.44116 57.2946L33.1638 30.5719L29.2668 26.6192L27.2626 28.5956C27.0051 28.8536 26.6992 29.0583 26.3624 29.198C26.0257 29.3377 25.6647 29.4096 25.3001 29.4096C24.9356 29.4096 24.5746 29.3377 24.2378 29.198C23.9011 29.0583 23.5952 28.8536 23.3377 28.5956L21.3613 26.6192C21.1033 26.3617 20.8985 26.0558 20.7589 25.719C20.6192 25.3823 20.5473 25.0213 20.5473 24.6567C20.5473 24.2922 20.6192 23.9312 20.7589 23.5945C20.8985 23.2577 21.1033 22.9518 21.3613 22.6943L37.1166 6.93905C37.3741 6.681 37.68 6.47627 38.0167 6.33659C38.3535 6.1969 38.7145 6.125 39.079 6.125C39.4436 6.125 39.8046 6.1969 40.1413 6.33659C40.4781 6.47627 40.784 6.681 41.0415 6.93905L43.0178 8.91542C44.1034 10.001 44.1034 11.7547 43.0178 12.8403L41.0415 14.761L44.9942 18.7416C45.2517 18.4835 45.5576 18.2788 45.8944 18.1391C46.2311 17.9994 46.5921 17.9275 46.9566 17.9275C47.3212 17.9275 47.6822 17.9994 48.0189 18.1391C48.3557 18.2788 48.6616 18.4835 48.9191 18.7416C50.0047 19.8272 50.0047 21.6087 48.9191 22.6943L52.844 26.6192L54.8204 24.6428C55.906 23.5572 57.6875 23.5572 58.7731 24.6428L60.7216 26.6192C61.8072 27.7048 61.8072 29.4863 60.7216 30.5719L44.9942 46.2993C43.9086 47.3849 42.1271 47.3849 41.0415 46.2993L39.0929 44.3508C38.8286 44.094 38.6185 43.7867 38.4751 43.4473C38.3316 43.1078 38.2577 42.743 38.2577 42.3744C38.2577 42.0059 38.3316 41.6411 38.4751 41.3016C38.6185 40.9622 38.8286 40.6549 39.0929 40.3981L41.0415 38.4217L37.1166 34.4968L10.3661 61.2473C10.1085 61.5054 9.80265 61.7101 9.4659 61.8498C9.12916 61.9895 8.76817 62.0614 8.40361 62.0614C8.03904 62.0614 7.67806 61.9895 7.34131 61.8498C7.00457 61.7101 6.69868 61.5054 6.44116 61.2473C5.35555 60.1617 5.35555 58.3802 6.44116 57.2946ZM55.7111 53.7316C57.1876 53.7316 58.6037 54.3181 59.6477 55.3622C60.6918 56.4062 61.2783 57.8223 61.2783 59.2988V62.0824H33.4422V59.2988C33.4422 57.8223 34.0288 56.4062 35.0728 55.3622C36.1169 54.3181 37.5329 53.7316 39.0094 53.7316H55.7111Z" fill="white"/>
</svg>