<svg xmlns="http://www.w3.org/2000/svg" width="57" height="56" viewBox="0 0 57 56" fill="none">
  <path d="M5.08594 25.5828L16.6966 4.68359L28.3073 25.5828H5.08594ZM16.6966 48.8041C14.1423 48.8041 11.9556 47.8946 10.1366 46.0756C8.31757 44.2566 7.40807 42.0699 7.40807 39.5156C7.40807 36.9612 8.31757 34.7746 10.1366 32.9556C11.9556 31.1366 14.1423 30.227 16.6966 30.227C19.2509 30.227 21.4376 31.1366 23.2566 32.9556C25.0756 34.7746 25.9851 36.9612 25.9851 39.5156C25.9851 42.0699 25.0756 44.2566 23.2566 46.0756C21.4376 47.8946 19.2509 48.8041 16.6966 48.8041ZM30.6294 48.8041V30.227H49.2064V48.8041H30.6294ZM39.9179 25.5828C37.7119 23.7251 35.8643 22.1576 34.375 20.8805C32.8857 19.6033 31.6952 18.4809 30.8036 17.5134C29.9134 16.5458 29.2748 15.6363 28.8878 14.7849C28.5008 13.9334 28.3073 13.0239 28.3073 12.0564C28.3073 10.3148 28.9172 8.84408 30.1371 7.64431C31.357 6.44454 32.8757 5.84466 34.6931 5.84466C35.7381 5.84466 36.7157 6.08694 37.626 6.57149C38.5363 7.05604 39.3002 7.72326 39.9179 8.57317C40.5372 7.72172 41.3019 7.05449 42.2122 6.57149C43.1225 6.08848 44.0993 5.84621 45.1427 5.84466C46.9617 5.84466 48.4812 6.44454 49.7011 7.64431C50.921 8.84408 51.5301 10.3148 51.5286 12.0564C51.5286 13.0239 51.3351 13.9334 50.948 14.7849C50.561 15.6363 49.9224 16.5458 49.0323 17.5134C48.1421 18.4809 46.9524 19.6033 45.4632 20.8805C43.9739 22.1576 42.1255 23.7251 39.9179 25.5828Z" fill="white"/>
</svg>