<svg xmlns="http://www.w3.org/2000/svg" width="57" height="57" viewBox="0 0 57 57" fill="none">
  <g clip-path="url(#clip0_702_1454)">
    <path d="M42.2996 35.3242L39.8439 37.7798L46.0788 44.0322H17.9172C16.0696 44.0322 14.2976 43.2982 12.9912 41.9918C11.6847 40.6853 10.9508 38.9134 10.9508 37.0658C10.9508 35.2182 11.6847 33.4462 12.9912 32.1398C14.2976 30.8333 16.0696 30.0994 17.9172 30.0994H38.8164C41.5878 30.0994 44.2457 28.9984 46.2053 27.0388C48.165 25.0791 49.266 22.4212 49.266 19.6498C49.266 16.8784 48.165 14.2205 46.2053 12.2608C44.2457 10.3011 41.5878 9.20018 38.8164 9.20018H10.6547L16.8896 2.94784L14.434 0.492188L3.98438 10.9418L14.434 21.3914L16.8896 18.9357L10.6547 12.6834H38.8164C40.664 12.6834 42.4359 13.4173 43.7423 14.7238C45.0488 16.0302 45.7828 17.8022 45.7828 19.6498C45.7828 21.4974 45.0488 23.2693 43.7423 24.5758C42.4359 25.8822 40.664 26.6162 38.8164 26.6162H17.9172C15.1458 26.6162 12.4879 27.7171 10.5282 29.6768C8.56851 31.6365 7.46757 34.2944 7.46757 37.0658C7.46757 39.8372 8.56851 42.4951 10.5282 44.4548C12.4879 46.4144 15.1458 47.5154 17.9172 47.5154H46.0788L39.8439 53.7677L42.2996 56.2234L52.7491 45.7738L42.2996 35.3242Z" fill="white"/>
  </g>
  <defs>
    <clipPath id="clip0_702_1454">
      <rect width="55.7312" height="55.7312" fill="white" transform="translate(0.498047 0.494141)"/>
    </clipPath>
  </defs>
</svg>