<svg xmlns="http://www.w3.org/2000/svg" width="46" height="45" viewBox="0 0 46 45" fill="none">
  <path d="M39.8807 5.60156V28.9349C39.8807 30.6676 39.1924 32.3294 37.9672 33.5547C36.7419 34.7799 35.0801 35.4682 33.3474 35.4682C31.6146 35.4682 29.9529 34.7799 28.7276 33.5547C27.5024 32.3294 26.8141 30.6676 26.8141 28.9349C26.8141 27.2021 27.5024 25.5404 28.7276 24.3151C29.9529 23.0899 31.6146 22.4016 33.3474 22.4016C34.3554 22.4016 35.3074 22.6256 36.1474 23.0362V12.0789L17.4807 16.0549V32.6682C17.4807 34.401 16.7924 36.0628 15.5672 37.288C14.3419 38.5132 12.6801 39.2016 10.9474 39.2016C9.21465 39.2016 7.55287 38.5132 6.32763 37.288C5.10239 36.0628 4.41406 34.401 4.41406 32.6682C4.41406 30.9355 5.10239 29.2737 6.32763 28.0485C7.55287 26.8232 9.21465 26.1349 10.9474 26.1349C11.9554 26.1349 12.9074 26.3589 13.7474 26.7696V11.2016L39.8807 5.60156Z" fill="white"/>
</svg>