<svg width="57" height="57" viewBox="0 0 57 57" fill="none" xmlns="http://www.w3.org/2000/svg">
              <path d="M49.498 28.9219H35.498H37.8314C39.6879 28.9219 41.4684 29.6594 42.7811 30.9721C44.0939 32.2849 44.8314 34.0654 44.8314 35.9219C44.8314 37.7784 44.0939 39.5589 42.7811 40.8716C41.4684 42.1844 39.6879 42.9219 37.8314 42.9219H35.498L42.498 49.9219M35.498 35.9219H49.498M16.8314 12.5885C16.8314 13.8262 16.3397 15.0132 15.4645 15.8884C14.5894 16.7635 13.4024 17.2552 12.1647 17.2552C10.927 17.2552 9.74005 16.7635 8.86488 15.8884C7.98971 15.0132 7.49805 13.8262 7.49805 12.5885C7.49805 11.3509 7.98971 10.1639 8.86488 9.28871C9.74005 8.41354 10.927 7.92188 12.1647 7.92188C13.4024 7.92188 14.5894 8.41354 15.4645 9.28871C16.3397 10.1639 16.8314 11.3509 16.8314 12.5885ZM16.8314 12.5885H35.498M16.8314 12.5885V31.2552C16.8314 33.1117 17.5689 34.8922 18.8816 36.205C20.1944 37.5177 21.9749 38.2552 23.8314 38.2552H26.1647M35.498 12.5885C35.498 13.8262 35.9897 15.0132 36.8649 15.8884C37.7401 16.7635 38.927 17.2552 40.1647 17.2552C41.4024 17.2552 42.5894 16.7635 43.4645 15.8884C44.3397 15.0132 44.8314 13.8262 44.8314 12.5885C44.8314 11.3509 44.3397 10.1639 43.4645 9.28871C42.5894 8.41354 41.4024 7.92188 40.1647 7.92188C38.927 7.92188 37.7401 8.41354 36.8649 9.28871C35.9897 10.1639 35.498 11.3509 35.498 12.5885Z" stroke="#B892F9" stroke-width="4.66667" stroke-linecap="round" stroke-linejoin="round"/>
              </svg>