<svg xmlns="http://www.w3.org/2000/svg" width="46" height="45" viewBox="0 0 46 45" fill="none">
  <g clip-path="url(#clip0_702_1590)">
    <path d="M20.2797 39.2016C20.2797 39.2016 17.4797 39.2016 17.4797 36.4016C17.4797 33.6016 20.2797 25.2016 31.4797 25.2016C42.6797 25.2016 45.4797 33.6016 45.4797 36.4016C45.4797 39.2016 42.6797 39.2016 42.6797 39.2016H20.2797ZM31.4797 22.4016C33.7075 22.4016 35.8441 21.5166 37.4194 19.9413C38.9947 18.366 39.8797 16.2294 39.8797 14.0016C39.8797 11.7737 38.9947 9.63717 37.4194 8.06187C35.8441 6.48656 33.7075 5.60156 31.4797 5.60156C29.2519 5.60156 27.1153 6.48656 25.54 8.06187C23.9647 9.63717 23.0797 11.7737 23.0797 14.0016C23.0797 16.2294 23.9647 18.366 25.54 19.9413C27.1153 21.5166 29.2519 22.4016 31.4797 22.4016ZM15.2845 39.2016C14.8696 38.3274 14.6626 37.3691 14.6797 36.4016C14.6797 32.6076 16.5837 28.7016 20.1005 25.9856C18.3454 25.4436 16.5164 25.1791 14.6797 25.2016C3.47969 25.2016 0.679688 33.6016 0.679688 36.4016C0.679688 39.2016 3.47969 39.2016 3.47969 39.2016H15.2845ZM13.2797 22.4016C15.1362 22.4016 16.9167 21.6641 18.2294 20.3513C19.5422 19.0386 20.2797 17.2581 20.2797 15.4016C20.2797 13.545 19.5422 11.7646 18.2294 10.4518C16.9167 9.13906 15.1362 8.40156 13.2797 8.40156C11.4232 8.40156 9.64269 9.13906 8.32994 10.4518C7.01719 11.7646 6.27969 13.545 6.27969 15.4016C6.27969 17.2581 7.01719 19.0386 8.32994 20.3513C9.64269 21.6641 11.4232 22.4016 13.2797 22.4016Z" fill="white"/>
  </g>
  <defs>
    <clipPath id="clip0_702_1590">
      <rect width="44.8" height="44.8" fill="white" transform="translate(0.679688)"/>
    </clipPath>
  </defs>
</svg>