<svg xmlns="http://www.w3.org/2000/svg" width="57" height="46" viewBox="0 0 57 46" fill="none">
  <g clip-path="url(#clip0_702_1429)">
    <path d="M19.0327 31.3109C18.8246 31.3109 18.6165 31.3416 18.4179 31.4064C17.2894 31.775 16.1025 32.0113 14.8529 32.0113C13.6033 32.0113 12.4164 31.775 11.2869 31.4064C11.0884 31.3416 10.8811 31.3109 10.673 31.3109C5.26884 31.3109 0.891326 35.7306 0.920063 41.1712C0.932254 43.4703 2.81231 45.3194 5.0999 45.3194H24.6058C26.8934 45.3194 28.7735 43.4703 28.7856 41.1712C28.8144 35.7306 24.4369 31.3109 19.0327 31.3109ZM14.8529 28.5092C19.4698 28.5092 23.2125 24.7462 23.2125 20.1041C23.2125 15.462 19.4698 11.699 14.8529 11.699C10.2359 11.699 6.49318 15.462 6.49318 20.1041C6.49318 24.7462 10.2359 28.5092 14.8529 28.5092ZM52.4714 0.492188H19.0327C16.7277 0.492188 14.8529 2.44025 14.8529 4.83395V8.8973C16.8923 8.8973 18.7802 9.49091 20.426 10.4557V6.09559H51.0781V31.3109H45.505V25.7075H34.3588V31.3109H27.7198C29.383 32.7722 30.6039 34.7019 31.176 36.9143H52.4714C54.7764 36.9143 56.6512 34.9663 56.6512 32.5726V4.83395C56.6512 2.44025 54.7764 0.492188 52.4714 0.492188Z" fill="white"/>
  </g>
  <defs>
    <clipPath id="clip0_702_1429">
      <rect width="55.7312" height="44.8272" fill="white" transform="translate(0.919922 0.494141)"/>
    </clipPath>
  </defs>
</svg>