<svg xmlns="http://www.w3.org/2000/svg" width="46" height="45" viewBox="0 0 46 45" fill="none">
  <path fill-rule="evenodd" clip-rule="evenodd" d="M39.4128 31.2631C39.4126 31.3527 39.4038 31.4421 39.3866 31.5301C39.426 31.7327 39.42 31.9416 39.3692 32.1417C39.3184 32.3417 39.224 32.5281 39.0927 32.6874C38.9614 32.8467 38.7965 32.975 38.6098 33.0631C38.4231 33.1512 38.2192 33.1969 38.0128 33.197H11.8794C11.573 33.197 11.2696 33.2574 10.9865 33.3746C10.7034 33.4919 10.4462 33.6638 10.2295 33.8804C10.0128 34.0971 9.84097 34.3543 9.72371 34.6374C9.60645 34.9205 9.54609 35.2239 9.54609 35.5303C9.54609 35.8368 9.60645 36.1402 9.72371 36.4233C9.84097 36.7064 10.0128 36.9636 10.2295 37.1803C10.4462 37.3969 10.7034 37.5688 10.9865 37.6861C11.2696 37.8033 11.573 37.8637 11.8794 37.8637H38.0128C38.3841 37.8637 38.7402 38.0112 39.0027 38.2737C39.2653 38.5363 39.4128 38.8924 39.4128 39.2637C39.4128 39.635 39.2653 39.9911 39.0027 40.2536C38.7402 40.5162 38.3841 40.6637 38.0128 40.6637H11.8794C10.518 40.6637 9.2123 40.1228 8.24961 39.1602C7.28693 38.1975 6.74609 36.8918 6.74609 35.5303V9.39701C6.74609 8.03556 7.28693 6.72988 8.24961 5.76719C9.2123 4.8045 10.518 4.26367 11.8794 4.26367H36.8928C38.2853 4.26367 39.4128 5.39114 39.4128 6.78367V31.2631ZM17.4794 11.7303C17.1081 11.7303 16.752 11.8778 16.4895 12.1404C16.2269 12.4029 16.0794 12.759 16.0794 13.1303C16.0794 13.5016 16.2269 13.8577 16.4895 14.1203C16.752 14.3828 17.1081 14.5303 17.4794 14.5303H28.6794C29.0507 14.5303 29.4068 14.3828 29.6694 14.1203C29.9319 13.8577 30.0794 13.5016 30.0794 13.1303C30.0794 12.759 29.9319 12.4029 29.6694 12.1404C29.4068 11.8778 29.0507 11.7303 28.6794 11.7303H17.4794Z" fill="white"/>
</svg>