<svg width="94" height="94" viewBox="0 0 94 94" fill="none" xmlns="http://www.w3.org/2000/svg">
<path d="M79.1437 64.8398V28.9475C81.1376 28.4366 82.9607 27.4071 84.4281 25.9637C85.8954 24.5202 86.9547 22.7142 87.4983 20.729C88.0418 18.7438 88.0504 16.6501 87.5232 14.6604C86.9959 12.6708 85.9515 10.8562 84.496 9.40072C83.0406 7.94528 81.2259 6.90089 79.2363 6.3736C77.2467 5.84632 75.153 5.85491 73.1678 6.39851C71.1825 6.94211 69.3765 8.00135 67.9331 9.46869C66.4896 10.936 65.4602 12.7592 64.9492 14.7531H29.0569C28.546 12.7592 27.5165 10.936 26.0731 9.46869C24.6296 8.00135 22.8236 6.94211 20.8384 6.39851C18.8531 5.85491 16.7594 5.84632 14.7698 6.3736C12.7802 6.90089 10.9655 7.94528 9.51009 9.40072C8.05465 10.8562 7.01027 12.6708 6.48298 14.6604C5.95569 16.6501 5.96428 18.7438 6.50788 20.729C7.05148 22.7142 8.11072 24.5202 9.57806 25.9637C11.0454 27.4071 12.8686 28.4366 14.8624 28.9475V64.8398C12.8686 65.3508 11.0454 66.3802 9.57806 67.8237C8.11072 69.2671 7.05148 71.0732 6.50788 73.0584C5.96428 75.0436 5.95569 77.1373 6.48298 79.127C7.01027 81.1166 8.05465 82.9312 9.51009 84.3867C10.9655 85.8421 12.7802 86.8865 14.7698 87.4138C16.7594 87.9411 18.8531 87.9325 20.8384 87.3889C22.8236 86.8453 24.6296 85.786 26.0731 84.3187C27.5165 82.8514 28.546 81.0282 29.0569 79.0343H64.9492C65.4602 81.0282 66.4896 82.8514 67.9331 84.3187C69.3765 85.786 71.1825 86.8453 73.1678 87.3889C75.153 87.9325 77.2467 87.9411 79.2363 87.4138C81.2259 86.8865 83.0406 85.8421 84.496 84.3867C85.9515 82.9312 86.9959 81.1166 87.5232 79.127C88.0504 77.1373 88.0418 75.0436 87.4983 73.0584C86.9547 71.0732 85.8954 69.2671 84.4281 67.8237C82.9607 66.3802 81.1376 65.3508 79.1437 64.8398ZM76.2218 11.8312C77.3776 11.8312 78.5074 12.1739 79.4684 12.816C80.4294 13.4582 81.1784 14.3708 81.6207 15.4386C82.063 16.5064 82.1788 17.6814 81.9533 18.815C81.7278 19.9486 81.1712 20.9898 80.354 21.8071C79.5367 22.6244 78.4955 23.1809 77.3619 23.4064C76.2283 23.6319 75.0533 23.5162 73.9855 23.0739C72.9177 22.6316 72.005 21.8826 71.3629 20.9216C70.7208 19.9606 70.3781 18.8307 70.3781 17.6749C70.3796 16.1256 70.9958 14.6401 72.0914 13.5445C73.187 12.4489 74.6724 11.8327 76.2218 11.8312ZM11.9406 17.6749C11.9406 16.5192 12.2833 15.3893 12.9254 14.4283C13.5675 13.4673 14.4802 12.7183 15.548 12.276C16.6158 11.8337 17.7908 11.718 18.9244 11.9435C20.058 12.169 21.0992 12.7255 21.9165 13.5428C22.7337 14.3601 23.2903 15.4013 23.5158 16.5349C23.7413 17.6685 23.6255 18.8434 23.1832 19.9113C22.7409 20.9791 21.9919 21.8917 21.0309 22.5338C20.0699 23.176 18.9401 23.5187 17.7843 23.5187C16.2349 23.5171 14.7495 22.901 13.6539 21.8054C12.5583 20.7098 11.9421 19.2243 11.9406 17.6749ZM17.7843 81.9562C16.6285 81.9562 15.4987 81.6135 14.5377 80.9713C13.5767 80.3292 12.8277 79.4166 12.3854 78.3487C11.9431 77.2809 11.8274 76.106 12.0529 74.9724C12.2783 73.8388 12.8349 72.7975 13.6522 71.9803C14.4694 71.163 15.5107 70.6065 16.6443 70.381C17.7778 70.1555 18.9528 70.2712 20.0206 70.7135C21.0884 71.1558 22.0011 71.9048 22.6432 72.8658C23.2853 73.8268 23.6281 74.9567 23.6281 76.1124C23.6265 77.6618 23.0103 79.1473 21.9148 80.2429C20.8192 81.3385 19.3337 81.9546 17.7843 81.9562ZM64.9492 73.1906H29.0569C28.5335 71.1817 27.4838 69.3488 26.0159 67.8809C24.548 66.413 22.7151 65.3632 20.7062 64.8398V28.9475C22.7149 28.4239 24.5477 27.374 26.0155 25.9061C27.4834 24.4383 28.5332 22.6055 29.0569 20.5968H64.9492C65.4726 22.6057 66.5224 24.4386 67.9903 25.9065C69.4582 27.3744 71.2911 28.4242 73.2999 28.9475V64.8398C71.2909 65.363 69.4579 66.4126 67.99 67.8806C66.522 69.3485 65.4723 71.1816 64.9492 73.1906ZM76.2218 81.9562C75.066 81.9562 73.9362 81.6135 72.9752 80.9713C72.0142 80.3292 71.2652 79.4166 70.8229 78.3487C70.3806 77.2809 70.2649 76.106 70.4903 74.9724C70.7158 73.8388 71.2724 72.7975 72.0897 71.9803C72.9069 71.163 73.9482 70.6065 75.0818 70.381C76.2153 70.1555 77.3903 70.2712 78.4581 70.7135C79.5259 71.1558 80.4386 71.9048 81.0807 72.8658C81.7228 73.8268 82.0656 74.9567 82.0656 76.1124C82.0632 77.6616 81.4468 79.1466 80.3514 80.242C79.256 81.3374 77.771 81.9539 76.2218 81.9562Z" fill="#78ADF9"/>
</svg>