<svg xmlns="http://www.w3.org/2000/svg" width="57" height="57" viewBox="0 0 57 57" fill="none">
  <path d="M33.3986 17.9082H45.5898V21.3914H33.3986V17.9082ZM33.3986 26.6162H45.5898V30.0994H33.3986V26.6162ZM33.3986 35.3242H45.5898V38.8074H33.3986V35.3242ZM10.7578 17.9082H22.949V21.3914H10.7578V17.9082ZM10.7578 26.6162H22.949V30.0994H10.7578V26.6162ZM10.7578 35.3242H22.949V38.8074H10.7578V35.3242Z" fill="white"/>
  <path d="M49.0726 9.19922H7.27421C6.3507 9.20014 5.46527 9.56742 4.81224 10.2204C4.15921 10.8735 3.79194 11.7589 3.79102 12.6824V44.0312C3.79194 44.9547 4.15921 45.8402 4.81224 46.4932C5.46527 47.1462 6.3507 47.5135 7.27421 47.5144H49.0726C49.9961 47.5135 50.8815 47.1462 51.5346 46.4932C52.1876 45.8402 52.5549 44.9547 52.5558 44.0312V12.6824C52.5549 11.7589 52.1876 10.8735 51.5346 10.2204C50.8815 9.56742 49.9961 9.20014 49.0726 9.19922ZM7.27421 12.6824H26.4318V44.0312H7.27421V12.6824ZM29.915 44.0312V12.6824H49.0726V44.0312H29.915Z" fill="white"/>
</svg>