<svg xmlns="http://www.w3.org/2000/svg" width="57" height="45" viewBox="0 0 57 45" fill="none">
  <g clip-path="url(#clip0_702_1462)">
    <path d="M14.6222 0.0664062C16.1003 0.0664063 17.5178 0.653572 18.563 1.69873C19.6081 2.7439 20.1953 4.16144 20.1953 5.63952C20.1953 7.11761 19.6081 8.53515 18.563 9.58031C17.5178 10.6255 16.1003 11.2126 14.6222 11.2126C13.1441 11.2126 11.7266 10.6255 10.6814 9.58031C9.63624 8.53515 9.04907 7.11761 9.04907 5.63952C9.04907 4.16144 9.63624 2.7439 10.6814 1.69873C11.7266 0.653572 13.1441 0.0664063 14.6222 0.0664062ZM8.35243 41.8648V34.8984H6.80241C5.85323 34.8984 5.18272 33.9666 5.47879 33.061L8.18698 24.9277L5.69649 28.2194C4.76474 29.4472 3.01443 29.6823 1.79531 28.7593C0.576189 27.8362 0.332366 26.0859 1.25541 24.8581L6.38442 18.092C8.33501 15.5144 11.3915 13.9992 14.6222 13.9992C17.8529 13.9992 20.9094 15.5144 22.86 18.092L27.989 24.8581C28.9207 26.0859 28.6769 27.8362 27.4491 28.7593C26.2212 29.6823 24.4709 29.4472 23.5479 28.2194L21.0574 24.9277L23.7656 33.061C24.0704 33.9666 23.3911 34.8984 22.442 34.8984H20.8919V41.8648C20.8919 43.4061 19.6467 44.6513 18.1054 44.6513C16.5641 44.6513 15.3188 43.4061 15.3188 41.8648V34.8984H13.9255V41.8648C13.9255 43.4061 12.6803 44.6513 11.139 44.6513C9.59767 44.6513 8.35243 43.4061 8.35243 41.8648ZM42.4878 0.0664062C43.9659 0.0664063 45.3834 0.653572 46.4286 1.69873C47.4737 2.7439 48.0609 4.16144 48.0609 5.63952C48.0609 7.11761 47.4737 8.53515 46.4286 9.58031C45.3834 10.6255 43.9659 11.2126 42.4878 11.2126C41.0097 11.2126 39.5921 10.6255 38.547 9.58031C37.5018 8.53515 36.9147 7.11761 36.9147 5.63952C36.9147 4.16144 37.5018 2.7439 38.547 1.69873C39.5921 0.653572 41.0097 0.0664063 42.4878 0.0664062ZM41.7911 33.5051V41.8648C41.7911 43.4061 40.5459 44.6513 39.0046 44.6513C37.4633 44.6513 36.218 43.4061 36.218 41.8648V26.2339L35.0947 28.0191C34.2761 29.3253 32.552 29.7084 31.2545 28.8899C29.957 28.0713 29.5651 26.3471 30.3837 25.0496L34.8857 17.9004C36.4183 15.4709 39.0917 13.9905 41.9566 13.9905H43.0277C45.9013 13.9905 48.5747 15.4621 50.0986 17.9004L54.6006 25.0584C55.4191 26.3646 55.0273 28.08 53.7298 28.8986C52.4323 29.7171 50.7081 29.3253 49.8896 28.0278L48.7575 26.2339V41.8648C48.7575 43.4061 47.5123 44.6513 45.971 44.6513C44.4297 44.6513 43.1844 43.4061 43.1844 41.8648V33.5051H41.7911Z" fill="white"/>
  </g>
  <defs>
    <clipPath id="clip0_702_1462">
      <rect width="55.7312" height="44.5849" fill="white" transform="translate(0.6875 0.0683594)"/>
    </clipPath>
  </defs>
</svg>