<svg width="422" height="151" viewBox="0 0 422 151" fill="none" xmlns="http://www.w3.org/2000/svg">
<path d="M-366.562 -25.0395C-357.325 -10.8324 -343.543 -1.82296 -328.149 -1.82296C-324.043 -1.82296 -320.085 -2.51598 -316.126 -3.72879C-311.288 9.95859 -300.585 19.3145 -288.123 19.3145C-279.033 19.3145 -270.822 14.29 -265.251 6.14691C-258.946 17.5819 -248.537 25.2053 -236.807 25.2053C-235.048 25.2053 -233.435 25.032 -231.823 24.6855C-232.995 30.0565 -233.582 35.774 -233.582 41.6648C-233.582 77.0095 -211.15 105.77 -183.586 105.77C-169.218 105.77 -156.169 97.8004 -147.079 85.3258C-140.481 104.904 -125.233 118.765 -107.493 118.765C-92.3917 118.765 -79.0497 108.716 -71.2791 93.469C-66.1476 104.038 -56.9109 111.141 -46.5012 111.141C-43.5689 111.141 -40.7832 110.622 -38.1441 109.582C-31.5464 125.522 -18.3511 136.437 -3.39636 136.437C11.2651 136.437 24.0207 126.215 30.765 111.141C31.3514 111.141 31.7913 111.315 32.3777 111.315C43.0806 111.315 52.464 103.864 57.5955 92.776C66.6856 103.864 78.8547 110.795 92.3433 110.795C107.151 110.795 120.493 102.478 129.73 89.3108C142.632 101.266 158.613 108.369 175.767 108.369C199.372 108.369 220.631 95.0283 235 73.8909C240.718 77.1828 247.022 78.9153 253.62 78.9153C278.984 78.9153 299.51 52.5801 299.51 20.1809C299.51 18.9681 299.364 17.7553 299.364 16.5424C301.71 17.4087 304.202 17.7553 306.841 17.7553C318.13 17.7553 327.954 9.61213 332.792 -2.51594C338.803 1.29574 345.547 3.5481 352.585 3.5481C371.498 3.54811 387.626 -11.8719 393.784 -33.3559C394.957 -33.1826 396.276 -33.0093 397.449 -33.0093C408.299 -33.0093 417.535 -41.6722 421.347 -53.8003L421.347 -152.211C421.201 -152.211 420.908 -152.038 420.761 -152.038C415.043 -161.913 405.953 -168.324 395.69 -168.324C390.558 -168.324 385.72 -166.765 381.322 -163.819C376.776 -169.537 370.472 -173.002 363.581 -173.002C356.544 -173.002 350.239 -169.363 345.694 -163.646C337.63 -176.467 325.315 -184.783 311.386 -184.783C299.95 -184.783 289.541 -179.239 281.77 -170.056C278.105 -180.105 270.187 -187.209 260.951 -187.209C252.74 -187.209 245.409 -181.665 241.451 -173.175C234.853 -178.373 227.083 -181.318 218.725 -181.318C208.462 -181.318 199.079 -176.813 191.602 -169.363C187.35 -175.254 181.339 -179.066 174.594 -179.066C167.997 -179.066 162.132 -175.427 157.88 -169.71C151.576 -182.358 140.433 -190.847 127.824 -190.847C117.854 -190.847 108.911 -185.65 102.313 -177.16C90.4373 -189.115 72.9901 -196.738 53.4903 -196.738C29.5921 -196.738 8.6261 -185.303 -2.66327 -168.324C-9.55417 -182.878 -22.0165 -192.753 -36.3847 -192.753C-41.0764 -192.753 -45.6215 -191.54 -49.8733 -189.635C-55.1514 -200.723 -64.5348 -208 -75.3843 -208C-86.0872 -208 -95.4706 -200.723 -100.749 -189.808C-112.625 -200.896 -127.139 -207.307 -142.827 -207.307C-167.459 -207.307 -189.011 -191.367 -201.913 -167.111C-209.83 -177.68 -220.826 -184.264 -233.142 -184.264C-245.898 -184.264 -257.48 -176.987 -265.251 -165.725C-268.036 -167.111 -271.115 -167.804 -274.341 -167.804C-278.006 -167.804 -281.525 -166.765 -284.604 -165.032C-293.108 -168.324 -302.931 -170.056 -313.487 -170.056C-337.092 -170.056 -357.472 -160.701 -366.855 -147.36L-366.855 -25.0395L-366.562 -25.0395Z" fill="#FF989C"/>
<path d="M-366.56 -17.7617C-357.323 -3.55454 -343.542 5.45487 -328.147 5.45488C-324.042 5.45488 -320.083 4.76185 -316.124 3.54904C-311.286 17.2364 -300.583 26.5924 -288.121 26.5924C-279.031 26.5924 -270.82 21.5679 -265.249 13.4248C-258.945 24.8598 -248.535 32.4831 -236.806 32.4831C-235.046 32.4831 -233.434 32.3099 -231.821 31.9634C-232.994 37.3344 -233.58 43.0519 -233.58 48.9426C-233.58 84.2873 -211.148 113.048 -183.585 113.048C-169.216 113.048 -156.168 105.078 -147.077 92.6037C-140.48 112.182 -125.232 126.042 -107.491 126.042C-92.39 126.042 -79.048 115.994 -71.2774 100.747C-66.1459 111.316 -56.9092 118.419 -46.4995 118.419C-43.5672 118.419 -40.7815 117.899 -38.1424 116.86C-31.6914 132.8 -18.6426 143.715 -3.54129 143.715C11.1202 143.715 23.8757 133.493 30.62 118.419C31.2065 118.419 31.6463 118.592 32.2328 118.592C42.9357 118.592 52.319 111.142 57.4506 100.054C66.5407 110.969 78.7097 117.726 92.1983 117.726C107.006 117.726 120.348 109.41 129.585 96.2421C142.487 108.197 158.468 115.301 175.622 115.301C199.227 115.301 220.486 101.96 234.855 80.8222C240.573 84.1141 246.877 85.8466 253.475 85.8466C278.839 85.8467 299.365 59.5114 299.365 27.1122C299.365 25.8994 299.219 24.6866 299.219 23.4738C301.565 24.3401 304.057 24.6866 306.696 24.6866C317.985 24.6866 327.809 16.5434 332.647 4.41538C338.658 8.22706 345.402 10.4794 352.44 10.4794C371.353 10.4794 387.481 -4.94054 393.639 -26.4245C394.812 -26.2513 396.131 -26.078 397.304 -26.078C408.154 -26.078 417.39 -34.7409 421.202 -46.869L421.202 -145.28C421.056 -145.28 420.763 -145.106 420.616 -145.106C414.898 -154.982 405.808 -161.393 395.545 -161.393C390.413 -161.393 385.575 -159.833 381.177 -156.888C376.631 -162.605 370.327 -166.071 363.436 -166.071C356.399 -166.071 350.094 -162.432 345.549 -156.715C337.485 -169.536 325.17 -177.852 311.241 -177.852C299.805 -177.852 289.396 -172.308 281.625 -163.125C277.96 -173.174 270.042 -180.278 260.806 -180.278C252.595 -180.278 245.264 -174.733 241.306 -166.244C234.708 -171.441 226.938 -174.387 218.58 -174.387C208.317 -174.387 198.934 -169.882 191.457 -162.432C187.205 -168.323 181.194 -172.135 174.449 -172.135C167.852 -172.135 161.987 -168.496 157.735 -162.779C151.431 -175.426 140.288 -183.916 127.679 -183.916C117.709 -183.916 108.766 -178.718 102.168 -170.229C90.2924 -182.184 72.8452 -189.807 53.3454 -189.807C29.4471 -189.807 8.48117 -178.372 -2.80817 -161.393C-9.6991 -175.946 -22.1613 -185.822 -36.5296 -185.822C-41.2213 -185.822 -45.7664 -184.609 -50.0182 -182.703C-55.2964 -193.792 -64.6797 -201.069 -75.5292 -201.069C-86.2321 -201.069 -95.6155 -193.792 -100.894 -182.877C-112.77 -193.965 -127.284 -200.376 -142.972 -200.376C-167.603 -200.376 -189.156 -184.436 -202.058 -160.18C-209.975 -170.748 -220.971 -177.332 -233.287 -177.332C-246.043 -177.332 -257.625 -170.056 -265.396 -158.794C-268.181 -160.18 -271.26 -160.873 -274.486 -160.873C-278.151 -160.873 -281.67 -159.833 -284.749 -158.101C-293.253 -161.393 -303.076 -163.125 -313.632 -163.125C-337.237 -163.125 -357.617 -153.769 -367 -140.428L-367 -17.7617L-366.56 -17.7617Z" fill="#FFA3A7"/>
<path d="M-366.559 -10.6587C-357.322 3.54841 -343.54 12.5578 -328.146 12.5578C-324.041 12.5578 -320.082 11.8648 -316.123 10.652C-311.285 24.3394 -300.582 33.6953 -288.12 33.6953C-279.03 33.6953 -270.819 28.6708 -265.248 20.5277C-258.943 31.9627 -248.534 39.5861 -236.805 39.5861C-235.045 39.5861 -233.432 39.4128 -231.82 39.0663C-232.993 44.4373 -233.579 50.1548 -233.579 56.0456C-233.579 91.3902 -211.147 120.151 -183.583 120.151C-169.215 120.151 -156.166 112.181 -147.076 99.7066C-140.479 119.285 -125.231 133.145 -107.49 133.145C-92.3888 133.145 -79.0468 123.096 -71.2762 107.85C-66.1447 118.418 -56.908 125.522 -46.4983 125.522C-43.566 125.522 -40.7803 125.002 -38.1412 123.963C-31.6902 139.729 -18.6414 150.644 -3.54007 150.644C11.1214 150.644 23.8769 140.422 30.6212 125.349C31.2077 125.349 31.6475 125.522 32.234 125.522C42.9369 125.522 52.3203 118.072 57.4518 106.983C66.5419 118.072 78.7109 125.002 92.1995 125.002C107.008 125.002 120.35 116.686 129.586 103.518C142.488 115.473 158.47 122.577 175.623 122.577C199.228 122.577 220.488 109.236 234.856 88.0984C240.574 91.3903 246.878 93.1229 253.476 93.1229C278.84 93.1229 299.367 66.7876 299.367 34.3884C299.367 33.1756 299.22 31.9628 299.22 30.75C301.566 31.6163 304.058 31.9628 306.697 31.9628C317.987 31.9628 327.81 23.8197 332.648 11.6916C338.659 15.5033 345.404 17.7556 352.441 17.7556C371.355 17.7556 387.482 2.33566 393.64 -19.1483C394.813 -18.9751 396.132 -18.8018 397.305 -18.8018C408.155 -18.8018 417.392 -27.4647 421.204 -39.5928L421.204 -138.003C421.057 -138.003 420.764 -137.83 420.617 -137.83C414.899 -147.706 405.809 -154.116 395.546 -154.116C390.414 -154.116 385.576 -152.557 381.178 -149.612C376.633 -155.329 370.328 -158.794 363.437 -158.794C356.4 -158.794 350.095 -155.156 345.55 -149.438C337.486 -162.259 325.171 -170.576 311.242 -170.576C299.806 -170.576 289.397 -165.032 281.626 -155.849C277.961 -165.898 270.044 -173.001 260.807 -173.001C252.596 -173.001 245.266 -167.457 241.307 -158.968C234.709 -164.165 226.939 -167.111 218.582 -167.111C208.319 -167.111 198.935 -162.606 191.458 -155.156C187.206 -161.047 181.195 -164.858 174.451 -164.858C167.853 -164.858 161.988 -161.22 157.736 -155.502C151.432 -168.15 140.289 -176.64 127.68 -176.64C117.711 -176.64 108.767 -171.442 102.169 -162.953C90.2936 -174.907 72.8464 -182.531 53.3466 -182.531C29.4483 -182.531 8.48239 -171.096 -2.80695 -154.116C-9.69788 -168.67 -22.1601 -178.546 -36.5284 -178.546C-41.2201 -178.546 -45.7652 -177.333 -50.017 -175.427C-55.2951 -186.516 -64.6785 -193.792 -75.528 -193.792C-86.2309 -193.792 -95.6143 -186.516 -100.892 -175.6C-112.768 -186.689 -127.283 -193.099 -142.971 -193.099C-167.602 -193.099 -189.155 -177.16 -202.057 -152.904C-209.974 -163.472 -220.97 -170.056 -233.286 -170.056C-246.041 -170.056 -257.624 -162.779 -265.394 -151.518C-268.18 -152.904 -271.259 -153.597 -274.485 -153.597C-278.15 -153.597 -281.669 -152.557 -284.748 -150.824C-293.251 -154.116 -303.074 -155.849 -313.631 -155.849C-337.236 -155.849 -357.615 -146.493 -366.999 -133.152L-366.999 -10.6587L-366.559 -10.6587Z" fill="url(#paint0_linear_2085_2628)"/>
<defs>
<linearGradient id="paint0_linear_2085_2628" x1="318" y1="36.5" x2="-124" y2="-22" gradientUnits="userSpaceOnUse">
<stop offset="0.476419" stop-color="#FFEEEE"/>
<stop offset="1" stop-color="#FFAEAF"/>
</linearGradient>
</defs>
</svg>
