<svg width="178" height="328" viewBox="0 0 178 328" fill="none" xmlns="http://www.w3.org/2000/svg">
<path d="M315.999 327.335C302.815 326.645 291.366 320.863 285.363 310.48C283.762 307.711 282.686 304.771 281.961 301.629C270.843 303.702 260.36 300.132 255.501 291.727C251.957 285.596 252.144 278.1 255.464 271.167C245.293 271.374 236.093 267.326 231.52 259.415C230.834 258.228 230.322 257.073 229.927 255.85C226.762 258.736 223.134 261.36 219.161 263.657C195.324 277.438 167.18 273.524 156.433 254.934C150.83 245.243 151.118 233.335 155.987 222.341C140.21 225.525 124.917 220.645 118 208.681C112.111 198.496 113.687 185.579 120.94 174.394C111.811 175.054 103.419 171.594 99.3598 164.573C98.2164 162.596 97.4808 160.514 97.1529 158.329C84.0042 160.126 71.5548 155.581 65.6667 145.396C59.95 135.508 61.8708 122.919 69.4072 112.494C69.1785 112.098 68.8901 111.869 68.6615 111.474C64.4883 104.255 65.8543 95.0218 71.3319 87.2374C60.3092 85.4303 50.8903 79.9252 45.631 70.8281C39.8572 60.841 40.2639 48.6001 45.5431 37.2364C32.4498 33.196 21.4278 25.1876 14.7393 13.6184C5.53554 -2.3016 6.24395 -21.8412 14.8975 -39.7733C10.4478 -42.3462 6.82116 -45.9225 4.24868 -50.3722C-5.64109 -67.4788 4.11699 -91.5906 25.9681 -104.223C26.7861 -104.696 27.6612 -105.07 28.4792 -105.543C26.9803 -106.787 25.7747 -108.333 24.7457 -110.113C20.3439 -117.727 22.0058 -127.527 28.2989 -135.519C23.3843 -138.087 19.2356 -141.758 16.4916 -146.504C9.11717 -159.26 13.2286 -176.149 25.3172 -188.679C24.743 -189.402 24.1116 -190.225 23.6543 -191.016C19.424 -198.333 21.6651 -207.94 28.3583 -215.24L94.7297 -253.611C94.7869 -253.512 94.7843 -253.247 94.8415 -253.148C103.732 -253.142 111.599 -249.511 115.601 -242.589C117.602 -239.129 118.437 -235.257 118.165 -231.143C123.793 -230.306 128.589 -227.406 131.275 -222.758C134.019 -218.012 134.024 -212.341 131.94 -207.047C143.731 -206.607 154.142 -201.544 159.572 -192.15C164.031 -184.437 164.351 -175.255 161.188 -166.434C169.394 -167.88 177.272 -165.31 180.874 -159.08C184.075 -153.543 183.194 -146.437 179.012 -140.457C185.09 -138.034 190.106 -133.942 193.364 -128.305C197.366 -121.384 197.987 -113.299 195.878 -105.351C201.508 -104.78 206.423 -102.212 209.052 -97.6636C211.625 -93.2139 211.458 -87.84 209.259 -82.7431C220.248 -83.4227 230.318 -79.2178 235.234 -70.714C239.122 -63.99 239.103 -55.9315 235.95 -48.1717C248.643 -44.8235 260.588 -36.0289 268.191 -22.8776C277.509 -6.75984 277.971 11.8389 270.922 26.0732C283.424 25.046 294.944 29.6004 300.546 39.2908C302.375 42.4551 303.33 45.9933 303.702 49.604C313.238 48.8402 321.805 52.3314 326.035 59.6487C330.208 66.8671 328.959 76.0328 323.656 83.8485C335.764 87.5345 345.747 94.8243 351.864 105.405C361.468 122.017 359.121 142.768 347.793 160.927C358.008 162.146 366.735 166.995 371.537 175.301C376.511 183.903 376.119 194.552 371.554 204.184C373.575 205.523 375.243 207.329 376.5 209.504C377.93 211.976 378.6 214.755 378.632 217.507C384.168 221.959 389.167 227.908 393.283 235.028C402.487 250.948 404.123 268.34 398.784 279.87L316.17 327.631L315.999 327.335Z" fill="url(#paint0_linear_2085_2627)"/>
<defs>
<linearGradient id="paint0_linear_2085_2627" x1="3.95264" y1="-52.2909" x2="286.019" y2="-9.56875" gradientUnits="userSpaceOnUse">
<stop stop-color="#FFEEEE"/>
<stop offset="1" stop-color="#FFAEAF"/>
</linearGradient>
</defs>
</svg>
