<svg xmlns="http://www.w3.org/2000/svg" width="68" height="42" viewBox="0 0 68 42" fill="none"><path d="M0.433555 21.12C0.433555 25.1333 1.32022 28.7267 3.09355 31.9C4.91356 35.0267 7.41022 37.5 10.5836 39.32C13.7569 41.0933 17.3502 41.98 21.3636 41.98C25.4236 41.98 29.0169 41.07 32.1436 39.25C35.3169 37.43 37.7902 34.9333 39.5636 31.76C41.3836 28.5867 42.2936 24.97 42.2936 20.91C42.2936 16.99 41.4069 13.49 39.6336 10.41C37.8602 7.33 35.3869 4.90333 32.2136 3.13C29.0869 1.35666 25.4936 0.469996 21.4336 0.469996C17.3736 0.469996 13.7569 1.35666 10.5836 3.13C7.45689 4.90333 4.98355 7.35333 3.16355 10.48C1.34355 13.56 0.433555 17.1067 0.433555 21.12ZM11.2836 20.91C11.2836 18.67 11.7036 16.71 12.5436 15.03C13.4302 13.35 14.6436 12.02 16.1836 11.04C17.7236 10.0133 19.4502 9.5 21.3636 9.5C23.3702 9.5 25.1436 10.0133 26.6836 11.04C28.2236 12.02 29.4136 13.3967 30.2536 15.17C31.1402 16.9433 31.5836 18.95 31.5836 21.19C31.5836 23.43 31.1402 25.4367 30.2536 27.21C29.4136 28.9367 28.2236 30.3133 26.6836 31.34C25.1436 32.32 23.3936 32.81 21.4336 32.81C19.4736 32.81 17.7236 32.2967 16.1836 31.27C14.6436 30.2433 13.4302 28.8433 12.5436 27.07C11.7036 25.2967 11.2836 23.2433 11.2836 20.91ZM67.6757 41V1.38H60.3957L44.5057 8.31L48.7057 16.85L56.7557 13.56V41H67.6757Z" fill="white"></path></svg>