<svg xmlns="http://www.w3.org/2000/svg" width="78" height="42" viewBox="0 0 78 42" fill="none"><path d="M0.857383 21.12C0.857383 25.1333 1.74405 28.7267 3.51738 31.9C5.33738 35.0267 7.83405 37.5 11.0074 39.32C14.1807 41.0933 17.7741 41.98 21.7874 41.98C25.8474 41.98 29.4407 41.07 32.5674 39.25C35.7407 37.43 38.2141 34.9333 39.9874 31.76C41.8074 28.5867 42.7174 24.97 42.7174 20.91C42.7174 16.99 41.8307 13.49 40.0574 10.41C38.2841 7.33 35.8107 4.90333 32.6374 3.13C29.5107 1.35666 25.9174 0.469996 21.8574 0.469996C17.7974 0.469996 14.1807 1.35666 11.0074 3.13C7.88072 4.90333 5.40738 7.35333 3.58738 10.48C1.76738 13.56 0.857383 17.1067 0.857383 21.12ZM11.7074 20.91C11.7074 18.67 12.1274 16.71 12.9674 15.03C13.8541 13.35 15.0674 12.02 16.6074 11.04C18.1474 10.0133 19.874 9.5 21.7874 9.5C23.7941 9.5 25.5674 10.0133 27.1074 11.04C28.6474 12.02 29.8374 13.3967 30.6774 15.17C31.5641 16.9433 32.0074 18.95 32.0074 21.19C32.0074 23.43 31.5641 25.4367 30.6774 27.21C29.8374 28.9367 28.6474 30.3133 27.1074 31.34C25.5674 32.32 23.8174 32.81 21.8574 32.81C19.8974 32.81 18.1474 32.2967 16.6074 31.27C15.0674 30.2433 13.8541 28.8433 12.9674 27.07C12.1274 25.2967 11.7074 23.2433 11.7074 20.91ZM60.3995 0.469996C57.2728 0.469996 54.5662 0.889996 52.2795 1.73C49.9928 2.52333 48.1962 3.31667 46.8895 4.11L48.4995 12.93C49.3395 12.4633 50.3662 11.95 51.5795 11.39C52.7928 10.83 54.0995 10.3633 55.4995 9.99C56.8995 9.57 58.2995 9.36 59.6995 9.36C61.7528 9.36 63.3862 9.73333 64.5995 10.48C65.8128 11.18 66.4195 12.2533 66.4195 13.7C66.4195 14.5867 66.1162 15.4967 65.5095 16.43C64.9495 17.3633 64.1562 18.32 63.1295 19.3C62.1028 20.28 60.9362 21.33 59.6295 22.45L45.9795 34.21V41H77.2695L76.4295 32.53H61.2395L65.9995 28.54C68.1928 26.6733 70.0128 24.9467 71.4595 23.36C72.9528 21.7267 74.0728 20.07 74.8195 18.39C75.5662 16.6633 75.9395 14.7967 75.9395 12.79C75.9395 10.13 75.2862 7.89 73.9795 6.07C72.7195 4.20333 70.9228 2.80333 68.5895 1.87C66.3028 0.936664 63.5728 0.469996 60.3995 0.469996Z" fill="white"></path></svg>