<svg xmlns="http://www.w3.org/2000/svg" width="78" height="47" viewBox="0 0 78 47" fill="none"><path d="M0.707969 21.12C0.707969 25.1333 1.59464 28.7267 3.36797 31.9C5.18797 35.0267 7.68464 37.5 10.858 39.32C14.0313 41.0933 17.6246 41.98 21.638 41.98C25.698 41.98 29.2913 41.07 32.418 39.25C35.5913 37.43 38.0646 34.9333 39.838 31.76C41.658 28.5867 42.568 24.97 42.568 20.91C42.568 16.99 41.6813 13.49 39.908 10.41C38.1346 7.33 35.6613 4.90333 32.488 3.13C29.3613 1.35666 25.768 0.469996 21.708 0.469996C17.648 0.469996 14.0313 1.35666 10.858 3.13C7.7313 4.90333 5.25797 7.35333 3.43797 10.48C1.61797 13.56 0.707969 17.1067 0.707969 21.12ZM11.558 20.91C11.558 18.67 11.978 16.71 12.818 15.03C13.7046 13.35 14.918 12.02 16.458 11.04C17.998 10.0133 19.7246 9.5 21.638 9.5C23.6446 9.5 25.418 10.0133 26.958 11.04C28.498 12.02 29.688 13.3967 30.528 15.17C31.4146 16.9433 31.858 18.95 31.858 21.19C31.858 23.43 31.4146 25.4367 30.528 27.21C29.688 28.9367 28.498 30.3133 26.958 31.34C25.418 32.32 23.668 32.81 21.708 32.81C19.748 32.81 17.998 32.2967 16.458 31.27C14.918 30.2433 13.7046 28.8433 12.818 27.07C11.978 25.2967 11.558 23.2433 11.558 20.91ZM61.1601 0.469996C58.3601 0.469996 55.6301 0.889996 52.9701 1.73C50.3567 2.52333 47.8601 3.78333 45.4801 5.51L50.6601 12.86C52.1067 11.88 53.6701 11.0633 55.3501 10.41C57.0301 9.71 58.7101 9.36 60.3901 9.36C61.6967 9.36 62.7701 9.54666 63.6101 9.92C64.4967 10.2467 65.1501 10.7133 65.5701 11.32C66.0367 11.9267 66.2701 12.6267 66.2701 13.42C66.2701 14.8667 65.5701 16.0333 64.1701 16.92C62.7701 17.8067 60.8567 18.25 58.4301 18.25H53.2501L54.3701 26.79H59.4801C62.0001 26.79 63.8901 27.3033 65.1501 28.33C66.4567 29.31 67.1101 30.6633 67.1101 32.39C67.1101 33.4633 66.7834 34.3967 66.1301 35.19C65.5234 35.9367 64.7067 36.52 63.6801 36.94C62.7001 37.36 61.5801 37.57 60.3201 37.57C58.5001 37.57 56.7734 37.3133 55.1401 36.8C53.5067 36.24 51.7334 35.3767 49.8201 34.21L44.0801 41.49C46.4601 42.9367 49.0967 44.1033 51.9901 44.99C54.9301 45.9233 57.6834 46.39 60.2501 46.39C63.7967 46.39 66.9001 45.7833 69.5601 44.57C72.2201 43.3567 74.2734 41.7 75.7201 39.6C77.1667 37.5 77.8901 35.1433 77.8901 32.53C77.8901 30.85 77.5634 29.31 76.9101 27.91C76.3034 26.4633 75.5101 25.2033 74.5301 24.13C73.5967 23.0567 72.6401 22.31 71.6601 21.89C72.5467 21.47 73.4101 20.7933 74.2501 19.86C75.0901 18.88 75.7667 17.76 76.2801 16.5C76.8401 15.24 77.1201 13.98 77.1201 12.72C77.1201 10.4333 76.4667 8.35667 75.1601 6.49C73.9001 4.62333 72.0801 3.15333 69.7001 2.08C67.3667 1.00666 64.5201 0.469996 61.1601 0.469996Z" fill="white"></path></svg>