<svg xmlns="http://www.w3.org/2000/svg" width="84" height="46" viewBox="0 0 84 46" fill="none"><path d="M0.576133 21.12C0.576133 25.1333 1.4628 28.7267 3.23613 31.9C5.05613 35.0267 7.5528 37.5 10.7261 39.32C13.8995 41.0933 17.4928 41.98 21.5061 41.98C25.5661 41.98 29.1595 41.07 32.2861 39.25C35.4595 37.43 37.9328 34.9333 39.7061 31.76C41.5261 28.5867 42.4361 24.97 42.4361 20.91C42.4361 16.99 41.5495 13.49 39.7761 10.41C38.0028 7.33 35.5295 4.90333 32.3561 3.13C29.2295 1.35666 25.6361 0.469996 21.5761 0.469996C17.5161 0.469996 13.8995 1.35666 10.7261 3.13C7.59947 4.90333 5.12613 7.35333 3.30613 10.48C1.48613 13.56 0.576133 17.1067 0.576133 21.12ZM11.4261 20.91C11.4261 18.67 11.8461 16.71 12.6861 15.03C13.5728 13.35 14.7861 12.02 16.3261 11.04C17.8661 10.0133 19.5928 9.5 21.5061 9.5C23.5128 9.5 25.2861 10.0133 26.8261 11.04C28.3661 12.02 29.5561 13.3967 30.3961 15.17C31.2828 16.9433 31.7261 18.95 31.7261 21.19C31.7261 23.43 31.2828 25.4367 30.3961 27.21C29.5561 28.9367 28.3661 30.3133 26.8261 31.34C25.2861 32.32 23.5361 32.81 21.5761 32.81C19.6161 32.81 17.8661 32.2967 16.3261 31.27C14.7861 30.2433 13.5728 28.8433 12.6861 27.07C11.8461 25.2967 11.4261 23.2433 11.4261 20.91ZM83.5682 28.26H76.4282V1.03H68.2382L44.6482 28.61L45.9782 37.08H65.4382V45.62H76.4282V37.08H82.7982L83.5682 28.26ZM65.4382 17.9V28.26H57.1082L65.4382 17.9Z" fill="white"></path></svg>