<svg xmlns="http://www.w3.org/2000/svg" width="79" height="47" viewBox="0 0 79 47" fill="none"><path d="M0.263633 21.12C0.263633 25.1333 1.1503 28.7267 2.92363 31.9C4.74363 35.0267 7.2403 37.5 10.4136 39.32C13.587 41.0933 17.1803 41.98 21.1936 41.98C25.2536 41.98 28.847 41.07 31.9736 39.25C35.147 37.43 37.6203 34.9333 39.3936 31.76C41.2136 28.5867 42.1236 24.97 42.1236 20.91C42.1236 16.99 41.237 13.49 39.4636 10.41C37.6903 7.33 35.217 4.90333 32.0436 3.13C28.917 1.35666 25.3236 0.469996 21.2636 0.469996C17.2036 0.469996 13.587 1.35666 10.4136 3.13C7.28697 4.90333 4.81363 7.35333 2.99363 10.48C1.17363 13.56 0.263633 17.1067 0.263633 21.12ZM11.1136 20.91C11.1136 18.67 11.5336 16.71 12.3736 15.03C13.2603 13.35 14.4736 12.02 16.0136 11.04C17.5536 10.0133 19.2803 9.5 21.1936 9.5C23.2003 9.5 24.9736 10.0133 26.5136 11.04C28.0536 12.02 29.2436 13.3967 30.0836 15.17C30.9703 16.9433 31.4136 18.95 31.4136 21.19C31.4136 23.43 30.9703 25.4367 30.0836 27.21C29.2436 28.9367 28.0536 30.3133 26.5136 31.34C24.9736 32.32 23.2236 32.81 21.2636 32.81C19.3036 32.81 17.5536 32.2967 16.0136 31.27C14.4736 30.2433 13.2603 28.8433 12.3736 27.07C11.5336 25.2967 11.1136 23.2433 11.1136 20.91ZM57.9157 27.49C58.1957 26.79 58.7791 26.09 59.6657 25.39C60.5524 24.69 61.6724 24.34 63.0257 24.34C64.6591 24.34 66.0124 24.9 67.0857 26.02C68.2057 27.0933 68.7657 28.5633 68.7657 30.43C68.7657 32.53 68.0424 34.1867 66.5957 35.4C65.1957 36.5667 63.4457 37.15 61.3457 37.15C59.4324 37.15 57.6591 36.8933 56.0257 36.38C54.4391 35.82 52.6424 34.98 50.6357 33.86L45.1757 41.56C46.6691 42.4933 48.3257 43.3333 50.1457 44.08C51.9657 44.8267 53.8324 45.41 55.7457 45.83C57.6591 46.25 59.4557 46.46 61.1357 46.46C64.7757 46.46 67.8791 45.76 70.4457 44.36C73.0591 43.0067 75.0657 41.14 76.4657 38.76C77.9124 36.3333 78.6357 33.5567 78.6357 30.43C78.6357 27.77 78.0524 25.2967 76.8857 23.01C75.7657 20.7233 74.0857 18.88 71.8457 17.48C69.6524 16.08 66.8991 15.38 63.5857 15.38C62.6057 15.38 61.7191 15.4733 60.9257 15.66C60.1791 15.8467 59.4791 16.1267 58.8257 16.5L59.0357 10.06H75.2757L76.3957 1.38H49.7957L48.4657 27.49H57.9157Z" fill="white"></path></svg>