<svg xmlns="http://www.w3.org/2000/svg" width="81" height="46" viewBox="0 0 81 46" fill="none"><path d="M0.135703 25.12C0.135703 29.1333 1.02237 32.7267 2.7957 35.9C4.6157 39.0267 7.11237 41.5 10.2857 43.32C13.459 45.0933 17.0524 45.98 21.0657 45.98C25.1257 45.98 28.719 45.07 31.8457 43.25C35.019 41.43 37.4924 38.9333 39.2657 35.76C41.0857 32.5867 41.9957 28.97 41.9957 24.91C41.9957 20.99 41.109 17.49 39.3357 14.41C37.5624 11.33 35.089 8.90333 31.9157 7.13C28.789 5.35666 25.1957 4.47 21.1357 4.47C17.0757 4.47 13.459 5.35666 10.2857 7.13C7.15904 8.90333 4.6857 11.3533 2.8657 14.48C1.0457 17.56 0.135703 21.1067 0.135703 25.12ZM10.9857 24.91C10.9857 22.67 11.4057 20.71 12.2457 19.03C13.1324 17.35 14.3457 16.02 15.8857 15.04C17.4257 14.0133 19.1524 13.5 21.0657 13.5C23.0724 13.5 24.8457 14.0133 26.3857 15.04C27.9257 16.02 29.1157 17.3967 29.9557 19.17C30.8424 20.9433 31.2857 22.95 31.2857 25.19C31.2857 27.43 30.8424 29.4367 29.9557 31.21C29.1157 32.9367 27.9257 34.3133 26.3857 35.34C24.8457 36.32 23.0957 36.81 21.1357 36.81C19.1757 36.81 17.4257 36.2967 15.8857 35.27C14.3457 34.2433 13.1324 32.8433 12.2457 31.07C11.4057 29.2967 10.9857 27.2433 10.9857 24.91ZM50.2978 24.21L52.0478 31.07C53.1678 29.81 54.3345 28.7133 55.5478 27.78C56.7611 26.8 58.0445 26.0533 59.3978 25.54C60.7511 24.98 62.1511 24.7 63.5978 24.7C64.8578 24.7 65.9778 24.98 66.9578 25.54C67.9378 26.0533 68.7078 26.8 69.2678 27.78C69.8278 28.7133 70.1078 29.7867 70.1078 31C70.1078 32.12 69.8278 33.1467 69.2678 34.08C68.7545 34.9667 68.0311 35.69 67.0978 36.25C66.1645 36.7633 65.1611 37.02 64.0878 37.02C62.4545 37.02 61.0311 36.6233 59.8178 35.83C58.6511 34.99 57.7178 33.8233 57.0178 32.33C56.3645 30.79 56.0378 28.9233 56.0378 26.73C56.0378 24.2567 56.4578 22.1567 57.2978 20.43C58.1845 18.7033 59.3511 17.28 60.7978 16.16C62.2445 14.9933 63.8311 14.0367 65.5578 13.29C67.3311 12.5433 69.1278 11.9367 70.9478 11.47C72.8145 11.0033 74.5411 10.6067 76.1278 10.28L74.8678 0.62C72.6278 0.806664 70.1545 1.27333 67.4478 2.02C64.7878 2.72 62.1278 3.74666 59.4678 5.1C56.8545 6.40666 54.4511 8.08666 52.2578 10.14C50.0645 12.1467 48.3145 14.5733 47.0078 17.42C45.7011 20.22 45.0478 23.5333 45.0478 27.36C45.0478 31.1867 45.8645 34.5 47.4978 37.3C49.1778 40.0533 51.4645 42.1767 54.3578 43.67C57.2511 45.1633 60.5878 45.91 64.3678 45.91C67.6811 45.91 70.5745 45.28 73.0478 44.02C75.5211 42.76 77.4345 41.0567 78.7878 38.91C80.1411 36.7167 80.8178 34.1967 80.8178 31.35C80.8178 28.6433 80.1178 26.2167 78.7178 24.07C77.3178 21.8767 75.3811 20.15 72.9078 18.89C70.4811 17.63 67.6811 17 64.5078 17C62.6878 17 60.9378 17.35 59.2578 18.05C57.6245 18.7033 56.0611 19.5667 54.5678 20.64C53.0745 21.7133 51.6511 22.9033 50.2978 24.21Z" fill="white"></path></svg>