<svg xmlns="http://www.w3.org/2000/svg" width="77" height="47" viewBox="0 0 77 47" fill="none"><path d="M0.220664 21.12C0.220664 25.1333 1.10733 28.7267 2.88066 31.9C4.70066 35.0267 7.19733 37.5 10.3707 39.32C13.544 41.0933 17.1373 41.98 21.1507 41.98C25.2107 41.98 28.804 41.07 31.9307 39.25C35.104 37.43 37.5773 34.9333 39.3507 31.76C41.1707 28.5867 42.0807 24.97 42.0807 20.91C42.0807 16.99 41.194 13.49 39.4207 10.41C37.6473 7.33 35.174 4.90333 32.0007 3.13C28.874 1.35666 25.2807 0.469996 21.2207 0.469996C17.1607 0.469996 13.544 1.35666 10.3707 3.13C7.244 4.90333 4.77066 7.35333 2.95066 10.48C1.13066 13.56 0.220664 17.1067 0.220664 21.12ZM11.0707 20.91C11.0707 18.67 11.4907 16.71 12.3307 15.03C13.2173 13.35 14.4307 12.02 15.9707 11.04C17.5107 10.0133 19.2373 9.5 21.1507 9.5C23.1573 9.5 24.9307 10.0133 26.4707 11.04C28.0107 12.02 29.2007 13.3967 30.0407 15.17C30.9273 16.9433 31.3707 18.95 31.3707 21.19C31.3707 23.43 30.9273 25.4367 30.0407 27.21C29.2007 28.9367 28.0107 30.3133 26.4707 31.34C24.9307 32.32 23.1807 32.81 21.2207 32.81C19.2607 32.81 17.5107 32.2967 15.9707 31.27C14.4307 30.2433 13.2173 28.8433 12.3307 27.07C11.4907 25.2967 11.0707 23.2433 11.0707 20.91ZM62.7728 46.11L76.9128 5.72L74.3928 1.38H44.2928L45.4828 10.06H64.9428L52.1328 43.24L62.7728 46.11Z" fill="white"></path></svg>