<svg xmlns="http://www.w3.org/2000/svg" width="81" height="47" viewBox="0 0 81 47" fill="none"><path d="M0.545859 26.12C0.545859 30.1333 1.43253 33.7267 3.20586 36.9C5.02586 40.0267 7.52253 42.5 10.6959 44.32C13.8692 46.0933 17.4625 46.98 21.4759 46.98C25.5359 46.98 29.1292 46.07 32.2559 44.25C35.4292 42.43 37.9025 39.9333 39.6759 36.76C41.4959 33.5867 42.4059 29.97 42.4059 25.91C42.4059 21.99 41.5192 18.49 39.7459 15.41C37.9725 12.33 35.4992 9.90333 32.3259 8.13C29.1992 6.35666 25.6059 5.47 21.5459 5.47C17.4859 5.47 13.8692 6.35666 10.6959 8.13C7.56919 9.90333 5.09586 12.3533 3.27586 15.48C1.45586 18.56 0.545859 22.1067 0.545859 26.12ZM11.3959 25.91C11.3959 23.67 11.8159 21.71 12.6559 20.03C13.5425 18.35 14.7559 17.02 16.2959 16.04C17.8359 15.0133 19.5625 14.5 21.4759 14.5C23.4825 14.5 25.2559 15.0133 26.7959 16.04C28.3359 17.02 29.5259 18.3967 30.3659 20.17C31.2525 21.9433 31.6959 23.95 31.6959 26.19C31.6959 28.43 31.2525 30.4367 30.3659 32.21C29.5259 33.9367 28.3359 35.3133 26.7959 36.34C25.2559 37.32 23.5059 37.81 21.5459 37.81C19.5859 37.81 17.8359 37.2967 16.2959 36.27C14.7559 35.2433 13.5425 33.8433 12.6559 32.07C11.8159 30.2967 11.3959 28.2433 11.3959 25.91ZM63.028 0.99C59.948 0.99 57.218 1.55 54.838 2.67C52.458 3.74333 50.5913 5.23667 49.238 7.15C47.8846 9.01666 47.208 11.1867 47.208 13.66C47.208 15.3867 47.698 17.02 48.678 18.56C49.658 20.0533 50.8713 21.2433 52.318 22.13C51.1513 22.7367 50.0313 23.6 48.958 24.72C47.9313 25.7933 47.0913 27.0067 46.438 28.36C45.7846 29.7133 45.458 31.1367 45.458 32.63C45.458 35.43 46.158 37.9033 47.558 40.05C49.0046 42.1967 51.0346 43.8767 53.648 45.09C56.308 46.3033 59.4346 46.91 63.028 46.91C66.668 46.91 69.7713 46.3033 72.338 45.09C74.9513 43.83 76.9346 42.1267 78.288 39.98C79.688 37.7867 80.388 35.3367 80.388 32.63C80.388 31.1367 80.0613 29.7133 79.408 28.36C78.8013 27.0067 77.9846 25.7933 76.958 24.72C75.9313 23.6467 74.8113 22.8067 73.598 22.2C74.6246 21.5933 75.5113 20.8467 76.258 19.96C77.0513 19.0733 77.658 18.0933 78.078 17.02C78.5446 15.9 78.778 14.78 78.778 13.66C78.778 11.1867 78.078 9.01666 76.678 7.15C75.3246 5.23667 73.458 3.74333 71.078 2.67C68.7446 1.55 66.0613 0.99 63.028 0.99ZM62.888 9.95C64.4746 9.95 65.7113 10.3933 66.598 11.28C67.5313 12.12 67.998 13.0067 67.998 13.94C67.998 14.7333 67.8113 15.48 67.438 16.18C67.0646 16.88 66.5046 17.4633 65.758 17.93C65.0113 18.3967 64.1013 18.7233 63.028 18.91C61.348 18.6767 60.0646 18.1167 59.178 17.23C58.2913 16.2967 57.8713 15.2233 57.918 14.01C57.918 13.3567 58.1046 12.7267 58.478 12.12C58.898 11.4667 59.4813 10.9533 60.228 10.58C61.0213 10.16 61.908 9.95 62.888 9.95ZM63.028 25.98C65.1746 26.3533 66.8313 27.1933 67.998 28.5C69.1646 29.76 69.748 31.0667 69.748 32.42C69.748 33.4933 69.398 34.45 68.698 35.29C68.0446 36.13 67.2046 36.8067 66.178 37.32C65.1513 37.7867 64.078 38.02 62.958 38.02C61.7913 38.02 60.6946 37.7867 59.668 37.32C58.6413 36.8067 57.8013 36.13 57.148 35.29C56.4946 34.45 56.168 33.4933 56.168 32.42C56.168 31.0667 56.728 29.76 57.848 28.5C59.0146 27.1933 60.7413 26.3533 63.028 25.98Z" fill="white"></path></svg>