<svg xmlns="http://www.w3.org/2000/svg" width="81" height="46" viewBox="0 0 81 46" fill="none"><path d="M0.135703 21.12C0.135703 25.1333 1.02237 28.7267 2.7957 31.9C4.6157 35.0267 7.11237 37.5 10.2857 39.32C13.459 41.0933 17.0524 41.98 21.0657 41.98C25.1257 41.98 28.719 41.07 31.8457 39.25C35.019 37.43 37.4924 34.9333 39.2657 31.76C41.0857 28.5867 41.9957 24.97 41.9957 20.91C41.9957 16.99 41.109 13.49 39.3357 10.41C37.5624 7.33 35.089 4.90333 31.9157 3.13C28.789 1.35666 25.1957 0.469996 21.1357 0.469996C17.0757 0.469996 13.459 1.35666 10.2857 3.13C7.15904 4.90333 4.6857 7.35333 2.8657 10.48C1.0457 13.56 0.135703 17.1067 0.135703 21.12ZM10.9857 20.91C10.9857 18.67 11.4057 16.71 12.2457 15.03C13.1324 13.35 14.3457 12.02 15.8857 11.04C17.4257 10.0133 19.1524 9.5 21.0657 9.5C23.0724 9.5 24.8457 10.0133 26.3857 11.04C27.9257 12.02 29.1157 13.3967 29.9557 15.17C30.8424 16.9433 31.2857 18.95 31.2857 21.19C31.2857 23.43 30.8424 25.4367 29.9557 27.21C29.1157 28.9367 27.9257 30.3133 26.3857 31.34C24.8457 32.32 23.0957 32.81 21.1357 32.81C19.1757 32.81 17.4257 32.2967 15.8857 31.27C14.3457 30.2433 13.1324 28.8433 12.2457 27.07C11.4057 25.2967 10.9857 23.2433 10.9857 20.91ZM75.6378 22.17L73.8878 15.31C72.8145 16.57 71.6478 17.69 70.3878 18.67C69.1745 19.6033 67.8911 20.35 66.5378 20.91C65.1845 21.4233 63.7845 21.68 62.3378 21.68C61.0778 21.68 59.9345 21.4 58.9078 20.84C57.9278 20.28 57.1578 19.5333 56.5978 18.6C56.0378 17.62 55.7578 16.5467 55.7578 15.38C55.7578 14.2133 56.0145 13.1867 56.5278 12.3C57.0878 11.4133 57.8345 10.7133 58.7678 10.2C59.7011 9.68666 60.7278 9.43 61.8478 9.43C63.4345 9.43 64.8345 9.82666 66.0478 10.62C67.2611 11.3667 68.1945 12.51 68.8478 14.05C69.5011 15.5433 69.8278 17.41 69.8278 19.65C69.8278 22.1233 69.3845 24.2233 68.4978 25.95C67.6578 27.63 66.5145 29.0767 65.0678 30.29C63.6678 31.4567 62.0811 32.4133 60.3078 33.16C58.5345 33.86 56.7378 34.4433 54.9178 34.91C53.0978 35.33 51.3711 35.7267 49.7378 36.1L50.9978 45.76C53.2378 45.5733 55.7111 45.1067 58.4178 44.36C61.1245 43.66 63.7845 42.6333 66.3978 41.28C69.0111 39.9733 71.4145 38.3167 73.6078 36.31C75.8011 34.2567 77.5511 31.8067 78.8578 28.96C80.1645 26.1133 80.8178 22.8 80.8178 19.02C80.8178 15.1933 80.0011 11.9033 78.3678 9.15C76.7345 6.35 74.4478 4.20333 71.5078 2.71C68.6145 1.21666 65.2778 0.469996 61.4978 0.469996C58.2311 0.469996 55.3611 1.1 52.8878 2.36C50.4145 3.57333 48.4778 5.27666 47.0778 7.47C45.7245 9.66333 45.0478 12.1833 45.0478 15.03C45.0478 17.7833 45.7478 20.2333 47.1478 22.38C48.5945 24.5267 50.5311 26.23 52.9578 27.49C55.3845 28.75 58.1845 29.38 61.3578 29.38C63.2711 29.38 65.0445 29.0533 66.6778 28.4C68.3111 27.7467 69.8511 26.8833 71.2978 25.81C72.7911 24.69 74.2378 23.4767 75.6378 22.17Z" fill="white"></path></svg>