<svg xmlns="http://www.w3.org/2000/svg" width="72" height="42" viewBox="0 0 72 42" fill="none"><path d="M23.7636 41V1.38H16.4836L0.593555 8.31L4.79355 16.85L12.8436 13.56V41H23.7636ZM29.7343 21.12C29.7343 25.1333 30.621 28.7267 32.3943 31.9C34.2143 35.0267 36.711 37.5 39.8843 39.32C43.0577 41.0933 46.651 41.98 50.6643 41.98C54.7243 41.98 58.3177 41.07 61.4443 39.25C64.6177 37.43 67.091 34.9333 68.8643 31.76C70.6843 28.5867 71.5943 24.97 71.5943 20.91C71.5943 16.99 70.7077 13.49 68.9343 10.41C67.161 7.33 64.6877 4.90333 61.5143 3.13C58.3877 1.35666 54.7943 0.469996 50.7343 0.469996C46.6743 0.469996 43.0577 1.35666 39.8843 3.13C36.7577 4.90333 34.2843 7.35333 32.4643 10.48C30.6443 13.56 29.7343 17.1067 29.7343 21.12ZM40.5843 20.91C40.5843 18.67 41.0043 16.71 41.8443 15.03C42.731 13.35 43.9443 12.02 45.4843 11.04C47.0243 10.0133 48.751 9.5 50.6643 9.5C52.671 9.5 54.4443 10.0133 55.9843 11.04C57.5243 12.02 58.7143 13.3967 59.5543 15.17C60.441 16.9433 60.8843 18.95 60.8843 21.19C60.8843 23.43 60.441 25.4367 59.5543 27.21C58.7143 28.9367 57.5243 30.3133 55.9843 31.34C54.4443 32.32 52.6943 32.81 50.7343 32.81C48.7743 32.81 47.0243 32.2967 45.4843 31.27C43.9443 30.2433 42.731 28.8433 41.8443 27.07C41.0043 25.2967 40.5843 23.2433 40.5843 20.91Z" fill="white"></path></svg>