<svg xmlns="http://www.w3.org/2000/svg" width="36" height="36" viewBox="0 0 36 36" fill="none"><path d="M18.6751 24.75C19.3951 24.39 20.0251 23.85 20.5201 23.22C20.9251 22.635 21.1951 21.96 21.3301 21.24H23.4451C23.4451 21.24 23.8501 20.7 24.5701 19.62C24.5701 19.62 24.5701 19.575 24.5251 19.575H21.2851C21.1501 18.9 20.8801 18.315 20.4301 17.775H23.4451C23.8501 17.235 24.2551 16.695 24.5701 16.11H13.2301C13.1851 16.11 12.8251 16.65 12.1051 17.73V17.775H15.0751C15.6601 17.775 16.2001 17.91 16.7401 18.09C17.5051 18.315 18.1351 18.855 18.5401 19.53H13.2301C13.2301 19.53 12.8251 20.07 12.1051 21.15C12.1051 21.15 12.1051 21.195 12.1501 21.195H18.9001C18.9001 21.465 18.8551 21.69 18.7651 21.915C18.1801 23.535 16.6051 24.345 14.1301 24.345C13.6801 24.345 13.1851 24.345 12.7351 24.255V24.3V25.875C12.7351 25.92 14.9401 28.4851 19.3951 33.6601H21.8251C21.8701 33.6601 21.8701 33.6601 21.8701 33.6151V33.3001L16.2901 26.55C16.0201 26.28 15.7501 25.92 15.5251 25.56C16.6051 25.56 17.7301 25.29 18.6751 24.75Z" fill="white"></path><path d="M2.43005 2.34003V33.435H15.2551V32.085H3.78005V3.69003H32.2201V32.085H24.4351V33.435H33.5701V2.34003H2.43005Z" fill="white"></path></svg>