<svg xmlns="http://www.w3.org/2000/svg" width="34" height="34" viewBox="0 0 34 34" fill="none"><path d="M32.5833 7.08333C32.9591 7.08333 33.3194 6.93408 33.5851 6.6684C33.8507 6.40272 34 6.04239 34 5.66667V1.41667C34 1.04094 33.8507 0.680609 33.5851 0.414932C33.3194 0.149256 32.9591 0 32.5833 0L28.3333 0C27.9576 0 27.5973 0.149256 27.3316 0.414932C27.0659 0.680609 26.9167 1.04094 26.9167 1.41667V2.83333H7.08333V1.41667C7.08333 1.04094 6.93408 0.680609 6.6684 0.414932C6.40272 0.149256 6.04239 0 5.66667 0L1.41667 0C1.04094 0 0.680609 0.149256 0.414932 0.414932C0.149256 0.680609 0 1.04094 0 1.41667L0 5.66667C0 6.04239 0.149256 6.40272 0.414932 6.6684C0.680609 6.93408 1.04094 7.08333 1.41667 7.08333H2.83333V26.9167H1.41667C1.04094 26.9167 0.680609 27.0659 0.414932 27.3316C0.149256 27.5973 0 27.9576 0 28.3333L0 32.5833C0 32.9591 0.149256 33.3194 0.414932 33.5851C0.680609 33.8507 1.04094 34 1.41667 34H5.66667C6.04239 34 6.40272 33.8507 6.6684 33.5851C6.93408 33.3194 7.08333 32.9591 7.08333 32.5833V31.1667H26.9167V32.5833C26.9167 32.9591 27.0659 33.3194 27.3316 33.5851C27.5973 33.8507 27.9576 34 28.3333 34H32.5833C32.9591 34 33.3194 33.8507 33.5851 33.5851C33.8507 33.3194 34 32.9591 34 32.5833V28.3333C34 27.9576 33.8507 27.5973 33.5851 27.3316C33.3194 27.0659 32.9591 26.9167 32.5833 26.9167H31.1667V7.08333H32.5833ZM1.41667 5.66667V1.41667H5.66667V5.66667H1.41667ZM5.66667 32.5833H1.41667V28.3333H5.66667V32.5833ZM26.9167 28.3333V29.75H7.08333V28.3333C7.08333 27.9576 6.93408 27.5973 6.6684 27.3316C6.40272 27.0659 6.04239 26.9167 5.66667 26.9167H4.25V7.08333H5.66667C6.04239 7.08333 6.40272 6.93408 6.6684 6.6684C6.93408 6.40272 7.08333 6.04239 7.08333 5.66667V4.25H26.9167V5.66667C26.9167 6.04239 27.0659 6.40272 27.3316 6.6684C27.5973 6.93408 27.9576 7.08333 28.3333 7.08333H29.75V26.9167H28.3333C27.9576 26.9167 27.5973 27.0659 27.3316 27.3316C27.0659 27.5973 26.9167 27.9576 26.9167 28.3333ZM32.5833 28.3333V32.5833H28.3333V28.3333H32.5833ZM28.3333 5.66667V1.41667H32.5833V5.66667H28.3333Z" fill="black"></path></svg>