<svg xmlns="http://www.w3.org/2000/svg" width="34" height="34" viewBox="0 0 34 34" fill="none"><path d="M32.5833 7.08333C32.9591 7.08333 33.3194 6.93408 33.5851 6.6684C33.8507 6.40272 34 6.04239 34 5.66667V1.41667C34 1.04094 33.8507 0.680609 33.5851 0.414932C33.3194 0.149256 32.9591 0 32.5833 0L28.3333 0C27.9576 0 27.5973 0.149256 27.3316 0.414932C27.0659 0.680609 26.9167 1.04094 26.9167 1.41667V2.83333H20.5417V1.41667C20.5417 1.04094 20.3924 0.680609 20.1267 0.414932C19.8611 0.149256 19.5007 0 19.125 0L14.875 0C14.4993 0 14.1389 0.149256 13.8733 0.414932C13.6076 0.680609 13.4583 1.04094 13.4583 1.41667V2.83333H7.08333V1.41667C7.08333 1.04094 6.93408 0.680609 6.6684 0.414932C6.40272 0.149256 6.04239 0 5.66667 0L1.41667 0C1.04094 0 0.680609 0.149256 0.414932 0.414932C0.149256 0.680609 0 1.04094 0 1.41667L0 5.66667C0 6.04239 0.149256 6.40272 0.414932 6.6684C0.680609 6.93408 1.04094 7.08333 1.41667 7.08333H2.83333V13.4583H1.41667C1.04094 13.4583 0.680609 13.6076 0.414932 13.8733C0.149256 14.1389 0 14.4993 0 14.875L0 19.125C0 19.5007 0.149256 19.8611 0.414932 20.1267C0.680609 20.3924 1.04094 20.5417 1.41667 20.5417H2.83333V26.9167H1.41667C1.04094 26.9167 0.680609 27.0659 0.414932 27.3316C0.149256 27.5973 0 27.9576 0 28.3333L0 32.5833C0 32.9591 0.149256 33.3194 0.414932 33.5851C0.680609 33.8507 1.04094 34 1.41667 34H5.66667C6.04239 34 6.40272 33.8507 6.6684 33.5851C6.93408 33.3194 7.08333 32.9591 7.08333 32.5833V31.1667H13.4583V32.5833C13.4583 32.9591 13.6076 33.3194 13.8733 33.5851C14.1389 33.8507 14.4993 34 14.875 34H19.125C19.5007 34 19.8611 33.8507 20.1267 33.5851C20.3924 33.3194 20.5417 32.9591 20.5417 32.5833V31.1667H26.9167V32.5833C26.9167 32.9591 27.0659 33.3194 27.3316 33.5851C27.5973 33.8507 27.9576 34 28.3333 34H32.5833C32.9591 34 33.3194 33.8507 33.5851 33.5851C33.8507 33.3194 34 32.9591 34 32.5833V28.3333C34 27.9576 33.8507 27.5973 33.5851 27.3316C33.3194 27.0659 32.9591 26.9167 32.5833 26.9167H31.1667V20.5417H32.5833C32.9591 20.5417 33.3194 20.3924 33.5851 20.1267C33.8507 19.8611 34 19.5007 34 19.125V14.875C34 14.4993 33.8507 14.1389 33.5851 13.8733C33.3194 13.6076 32.9591 13.4583 32.5833 13.4583H31.1667V7.08333H32.5833ZM14.875 1.41667H19.125V5.66667H14.875V1.41667ZM1.41667 5.66667V1.41667H5.66667V5.66667H1.41667ZM1.41667 19.125V14.875H5.66667V19.125H1.41667ZM5.66667 32.5833H1.41667V28.3333H5.66667V32.5833ZM19.125 32.5833H14.875V28.3333H19.125V32.5833ZM26.9167 28.3333V29.75H20.5417V28.3333C20.5417 27.9576 20.3924 27.5973 20.1267 27.3316C19.8611 27.0659 19.5007 26.9167 19.125 26.9167H14.875C14.4993 26.9167 14.1389 27.0659 13.8733 27.3316C13.6076 27.5973 13.4583 27.9576 13.4583 28.3333V29.75H7.08333V28.3333C7.08333 27.9576 6.93408 27.5973 6.6684 27.3316C6.40272 27.0659 6.04239 26.9167 5.66667 26.9167H4.25V20.5417H5.66667C6.04239 20.5417 6.40272 20.3924 6.6684 20.1267C6.93408 19.8611 7.08333 19.5007 7.08333 19.125V14.875C7.08333 14.4993 6.93408 14.1389 6.6684 13.8733C6.40272 13.6076 6.04239 13.4583 5.66667 13.4583H4.25V7.08333H5.66667C6.04239 7.08333 6.40272 6.93408 6.6684 6.6684C6.93408 6.40272 7.08333 6.04239 7.08333 5.66667V4.25H13.4583V5.66667C13.4583 6.04239 13.6076 6.40272 13.8733 6.6684C14.1389 6.93408 14.4993 7.08333 14.875 7.08333H19.125C19.5007 7.08333 19.8611 6.93408 20.1267 6.6684C20.3924 6.40272 20.5417 6.04239 20.5417 5.66667V4.25H26.9167V5.66667C26.9167 6.04239 27.0659 6.40272 27.3316 6.6684C27.5973 6.93408 27.9576 7.08333 28.3333 7.08333H29.75V13.4583H28.3333C27.9576 13.4583 27.5973 13.6076 27.3316 13.8733C27.0659 14.1389 26.9167 14.4993 26.9167 14.875V19.125C26.9167 19.5007 27.0659 19.8611 27.3316 20.1267C27.5973 20.3924 27.9576 20.5417 28.3333 20.5417H29.75V26.9167H28.3333C27.9576 26.9167 27.5973 27.0659 27.3316 27.3316C27.0659 27.5973 26.9167 27.9576 26.9167 28.3333ZM32.5833 28.3333V32.5833H28.3333V28.3333H32.5833ZM32.5833 14.875V19.125H28.3333V14.875H32.5833ZM28.3333 5.66667V1.41667H32.5833V5.66667H28.3333Z" fill="#0D0D0D"></path></svg>