<svg xmlns="http://www.w3.org/2000/svg" width="54" height="54" viewBox="0 0 54 54" fill="none"><path d="M40.0253 11.6202H13.2911C12.3721 11.6202 11.6202 12.6292 11.6202 13.8623V21.9896C12.0797 21.8215 12.6228 21.7094 13.124 21.7094C13.4582 21.7094 13.1674 21.6533 13.5016 21.7094V13.8623H26.4457H39.3038V37.0701H24.9228L22.6481 39.6456H40.0253C40.9443 39.6456 41.6962 38.6366 41.6962 37.4035V13.8623C41.6962 12.6292 40.9443 11.6202 40.0253 11.6202Z" fill="white"></path><path d="M12.6459 32.1266C14.3465 32.1266 15.7215 30.7514 15.7215 29.0506C15.7215 27.3498 14.3465 25.9747 12.6459 25.9747C10.9452 25.9747 9.57026 27.3498 9.57026 29.0506C9.53408 30.7514 10.9452 32.1266 12.6459 32.1266Z" fill="white"></path><path d="M23.7231 29.3121C23.318 28.6916 22.5078 28.5365 21.8846 28.9088C21.76 28.9708 21.6976 29.0949 21.6353 29.157L17.0857 33.8729C16.6494 33.6557 16.182 33.4695 15.7146 33.3144C14.9979 33.1903 14.25 33.0352 13.5333 33.0352C12.8165 33.0352 12.0687 33.1593 11.3519 33.3765C10.2924 33.6557 9.35759 34.1831 8.57854 34.8347C8.39157 35.0208 8.23576 35.3 8.17344 35.5482L7.51904 38.2785H16.8364V38.2475L19.4852 35.1759L23.5673 30.8944C23.9413 30.5221 24.0659 29.8085 23.7231 29.3121Z" fill="white"></path></svg>