<svg xmlns="http://www.w3.org/2000/svg" width="33" height="33" viewBox="0 0 33 33" fill="none"><path d="M13.7902 10.2574H5.36084L0.94004 24.6336C0.162712 26.4291 0.202365 28.1873 1.05142 29.5869C2.03518 31.2086 4.0132 32.2343 6.47872 32.4011C6.63675 32.4116 6.79653 32.4174 6.95806 32.4174H12.5836C12.7446 32.4174 12.9044 32.4116 13.0636 32.4011C15.5198 32.2349 17.5001 31.2249 18.4967 29.63C19.3702 28.2322 19.4396 26.5283 18.709 24.7339L13.7902 10.2574ZM17.5071 29.0119C16.7111 30.286 15.0626 31.0972 12.9848 31.2377C12.8519 31.2465 12.7178 31.2511 12.5831 31.2511H6.95748C6.82278 31.2511 6.68865 31.2465 6.55628 31.2377C4.47563 31.0966 2.83234 30.275 2.04801 28.9821C1.38731 27.8922 1.37798 26.5399 2.02177 25.0704L6.22214 11.4237H12.9545L17.6167 25.1404C18.2121 26.6058 18.1742 27.9441 17.5071 29.0119Z" fill="black"></path><path d="M5.03539 5.02724C5.27273 5.71418 5.91244 6.17603 6.62737 6.17603H11.9532C12.6681 6.17603 13.3078 5.71418 13.5452 5.02724C13.7277 4.49833 14.0706 3.76182 14.6677 3.25624C15.1517 2.84687 15.378 2.21183 15.2596 1.59953C15.143 0.997147 14.7225 0.521303 14.1347 0.326533C12.3841 -0.25311 10.8318 -0.0583403 9.6463 0.890432C9.43345 1.06071 9.14771 1.06071 8.93428 0.890432C7.74875 -0.0577572 6.19701 -0.25311 4.44525 0.326533C3.85803 0.52072 3.43758 0.996563 3.32095 1.59895C3.20199 2.21183 3.42884 2.84629 3.91284 3.25624C4.50998 3.76182 4.85287 4.49833 5.03539 5.02724ZM4.46566 1.82113C4.48724 1.71208 4.56013 1.51673 4.81205 1.43334C5.35437 1.25373 5.85996 1.16451 6.32763 1.16451C7.04723 1.16451 7.67586 1.37677 8.20594 1.80072C8.84389 2.31097 9.7361 2.31097 10.3746 1.80072C11.2494 1.10095 12.3917 0.97732 13.7685 1.43334C14.0204 1.51673 14.0939 1.71208 14.1149 1.82113C14.154 2.02289 14.0788 2.22699 13.9149 2.36636C13.1154 3.04339 12.6734 3.9805 12.443 4.64703C12.3678 4.86338 12.1707 5.00916 11.9532 5.00916H6.62737C6.40927 5.00916 6.21276 4.86338 6.13811 4.64645C5.90777 3.97933 5.46575 3.04281 4.66626 2.36578C4.50182 2.22641 4.42718 2.02289 4.46566 1.82113Z" fill="black"></path><path d="M13.9551 8.81885V7.34175C13.9551 7.01985 13.6939 6.75861 13.372 6.75861H5.79115C5.46926 6.75861 5.20801 7.01985 5.20801 7.34175C5.20801 7.66364 5.46926 7.92489 5.79115 7.92489H12.7889V8.50803H5.79115C5.46926 8.50803 5.20801 8.76928 5.20801 9.09117C5.20801 9.41307 5.46926 9.67432 5.79115 9.67432H13.1691C13.7067 10.1198 14.3604 10.356 15.0217 10.356C15.7681 10.356 16.5151 10.0714 17.0831 9.50346C17.3111 9.27545 17.3111 8.9069 17.0831 8.67889C16.8551 8.45088 16.4866 8.45088 16.2585 8.67889C15.6288 9.3081 14.6409 9.34951 13.9551 8.81885Z" fill="black"></path><path d="M5.7912 28.3348C4.82668 28.3348 4.04177 27.2887 4.04177 26.0023C4.04177 25.6804 3.78052 25.4191 3.45863 25.4191C3.13674 25.4191 2.87549 25.6804 2.87549 26.0023C2.87549 27.9319 4.18348 29.5011 5.7912 29.5011C6.11309 29.5011 6.37434 29.2399 6.37434 28.918C6.37434 28.5961 6.11367 28.3348 5.7912 28.3348Z" fill="black"></path><path d="M26.7843 25.4191C24.6185 25.4191 20.9529 25.8489 20.9529 27.4601V30.6674C20.9529 32.1083 23.98 33 26.7843 33C29.5886 33 32.6157 32.1083 32.6157 30.6674V27.4601C32.6157 25.8495 28.9507 25.4191 26.7843 25.4191ZM31.4057 27.4555C31.3935 27.4677 31.3835 27.48 31.3666 27.4934C31.3439 27.5114 31.3165 27.5307 31.2856 27.5505C31.2471 27.575 31.2004 27.6007 31.1497 27.6263C31.1083 27.6473 31.0651 27.6689 31.0156 27.6905C30.9543 27.7179 30.882 27.7453 30.808 27.7733C30.7485 27.7954 30.6884 27.8176 30.6208 27.8403C30.5356 27.8683 30.4377 27.8963 30.3391 27.9237C30.2622 27.9453 30.1863 27.9675 30.1012 27.9885C29.9904 28.0159 29.8656 28.0409 29.7414 28.066C29.6475 28.0853 29.5583 28.1051 29.4568 28.1232C29.3169 28.1477 29.1606 28.1686 29.0061 28.1896C28.9005 28.2042 28.802 28.2205 28.6894 28.2334C28.5057 28.2544 28.3034 28.2689 28.1016 28.2835C27.999 28.2911 27.9057 28.3016 27.7984 28.308C27.48 28.3255 27.1429 28.336 26.7831 28.336C26.4233 28.336 26.0863 28.3255 25.7679 28.308C25.6606 28.3022 25.5673 28.2917 25.4646 28.2835C25.2629 28.2684 25.0605 28.2538 24.8768 28.2334C24.7643 28.2205 24.6657 28.2042 24.5602 28.1896C24.4057 28.1686 24.2494 28.1477 24.1094 28.1232C24.008 28.1051 23.9187 28.0853 23.8249 28.066C23.7006 28.0404 23.5759 28.0153 23.4651 27.9885C23.3799 27.9675 23.3047 27.9459 23.2271 27.9237C23.1286 27.8963 23.0312 27.8683 22.9455 27.8403C22.8778 27.8182 22.8178 27.7954 22.7583 27.7733C22.6842 27.7453 22.6119 27.7179 22.5507 27.6905C22.5011 27.6689 22.458 27.6473 22.4166 27.6263C22.3658 27.6001 22.3192 27.5744 22.2807 27.5505C22.2498 27.5307 22.2224 27.512 22.1996 27.4934C22.1827 27.48 22.1728 27.4683 22.1606 27.4555C22.4871 27.1546 24.0284 26.586 26.7814 26.586C29.5344 26.586 31.0791 27.154 31.4057 27.4555ZM26.7843 31.8337C24.0319 31.8337 22.2626 30.987 22.1192 30.6674V28.7681C22.1349 28.7751 22.1542 28.7804 22.1705 28.7874C22.3099 28.8468 22.4556 28.9028 22.6108 28.9541C22.6189 28.9571 22.6271 28.96 22.6358 28.9623C22.7944 29.0136 22.9618 29.0597 23.1327 29.1023C23.1886 29.1162 23.2464 29.1291 23.3035 29.1419C23.4283 29.1705 23.5543 29.1979 23.6832 29.2224C23.7455 29.2346 23.8074 29.2463 23.8703 29.2574C24.012 29.2824 24.1543 29.3046 24.2984 29.3256C24.3439 29.332 24.3888 29.3396 24.4342 29.346C24.6226 29.3711 24.8109 29.3932 24.9981 29.4113C25.0454 29.416 25.0914 29.4195 25.1387 29.4236C25.2827 29.4364 25.425 29.4481 25.5661 29.4574C25.6273 29.4615 25.6868 29.465 25.7469 29.4685C25.8775 29.476 26.0046 29.4819 26.1306 29.4865C26.1837 29.4883 26.2367 29.4906 26.2886 29.4924C26.4595 29.497 26.6263 29.5 26.7837 29.5C26.9406 29.5 27.1074 29.497 27.2782 29.4924C27.3313 29.4906 27.3849 29.4883 27.4386 29.4865C27.5634 29.4819 27.6899 29.476 27.82 29.4685C27.8812 29.465 27.9413 29.4615 28.0031 29.4574C28.1442 29.4481 28.2871 29.4364 28.4311 29.423C28.4777 29.4189 28.5232 29.4154 28.5699 29.4107C28.7577 29.3921 28.946 29.3705 29.1344 29.3448C29.1804 29.3384 29.2259 29.3308 29.272 29.3244C29.4154 29.304 29.5577 29.2813 29.6988 29.2562C29.7624 29.2451 29.8242 29.2329 29.8866 29.2212C30.0155 29.1961 30.142 29.1693 30.2674 29.1402C30.3246 29.1267 30.3817 29.1145 30.4377 29.1005C30.612 29.0568 30.7823 29.0101 30.9438 28.9576C30.952 28.9547 30.959 28.9518 30.9672 28.9495C31.1194 28.8993 31.2634 28.8439 31.4004 28.7856C31.4168 28.7786 31.436 28.7728 31.4523 28.7658L31.4558 30.6248C31.3066 30.9875 29.5367 31.8337 26.7843 31.8337Z" fill="black"></path></svg>