<svg xmlns="http://www.w3.org/2000/svg" width="38" height="38" viewBox="0 0 38 38" fill="none"><path d="M28.9601 25.1305L25.3085 28.5891L23.8093 27.0305C23.5272 26.7336 23.0522 26.7188 22.7554 27.0156C22.4585 27.2977 22.4436 27.7727 22.7405 28.0695L24.7444 30.1625C24.8929 30.3109 25.0858 30.3852 25.2788 30.3852C25.4569 30.3852 25.6499 30.3109 25.7983 30.1773L29.9843 26.1992C30.2811 25.9172 30.296 25.4422 30.014 25.1453C29.7319 24.8484 29.2569 24.8336 28.9601 25.1305Z" fill="white"></path><path d="M35.6547 26.125L35.5508 25.5016H34.5563C34.3633 25.5016 34.1703 25.5016 33.9773 25.5016C33.8141 24.9079 33.5766 24.3438 33.2648 23.8094C33.4875 23.5868 33.6953 23.3641 33.918 23.1563L34.3781 22.711L34.007 22.1914C33.3984 21.3602 32.6711 20.6328 31.8398 20.0243L31.3203 19.6532L30.875 20.1133C30.7414 20.2469 30.593 20.3953 30.4594 20.5289C30.3852 20.6032 30.2961 20.6922 30.2219 20.7664C29.6875 20.4696 29.1086 20.2321 28.5148 20.0688V19.6086C28.5148 19.4602 28.5148 19.3118 28.5148 19.1336V18.4953L27.8914 18.3914C26.9117 18.2282 25.8727 18.2282 24.893 18.3914L24.2398 18.5102L24.2695 19.1782C24.2695 19.3266 24.2695 19.475 24.2695 19.6235V19.8313V20.0688C23.6758 20.2321 23.1117 20.4696 22.5625 20.7664C22.4734 20.6774 22.3992 20.6032 22.3102 20.5141C22.1766 20.3805 22.0281 20.2469 21.8945 20.0985L21.4492 19.6383L20.9297 20.0094C20.0836 20.6032 19.3563 21.3305 18.7625 22.1766L18.3914 22.6961L18.8516 23.1414C19.0742 23.3641 19.2969 23.5719 19.5047 23.7946C19.2078 24.3289 18.9703 24.9078 18.7922 25.4868C18.5992 25.4868 18.4062 25.4868 18.2133 25.4868H17.2188L17.1148 26.1102C17.0258 26.6149 16.9961 27.1344 16.9961 27.6391C16.9961 28.1438 17.0406 28.6633 17.1148 29.168L17.2039 29.7321L17.8719 29.7914H17.9164C18.05 29.7914 18.1984 29.7914 18.332 29.7914C18.4805 29.7914 18.6437 29.7914 18.7922 29.7914C18.9555 30.4 19.2078 30.9641 19.5047 31.5133C19.4008 31.6172 19.2969 31.7211 19.2078 31.8102L18.9406 32.0774C18.8961 32.1219 18.8516 32.1664 18.8219 32.1961L18.4062 32.6414L18.7625 33.1313C19.3563 33.9625 20.0836 34.675 20.9148 35.2688L21.3898 35.6102L21.8352 35.2243L21.9094 35.15C22.0727 34.9719 22.2359 34.8086 22.4141 34.6453C22.4586 34.6008 22.5031 34.5563 22.5477 34.5118C23.0969 34.8086 23.6609 35.0461 24.2547 35.2094C24.2547 35.3133 24.2547 35.4172 24.2547 35.536C24.2547 35.7289 24.2547 35.9219 24.2547 36.1297L24.2992 36.7977L24.893 36.8868C25.3828 36.961 25.8875 37.0055 26.3922 37.0055C26.8969 37.0055 27.4016 36.961 27.8914 36.8868L28.5297 36.7532L28.5148 36.1C28.5148 35.9071 28.5148 35.7289 28.5148 35.536C28.5148 35.4321 28.5148 35.3133 28.5148 35.2094C29.1086 35.0461 29.6875 34.8086 30.2219 34.5118C30.2664 34.5563 30.3109 34.6008 30.3406 34.6305C30.5039 34.7938 30.682 34.9719 30.8453 35.1352L31.35 35.6102L31.8398 35.2539C32.6711 34.6602 33.3984 33.9329 33.9922 33.1164L34.3484 32.6118L33.9328 32.1664C33.9031 32.1368 33.8586 32.0922 33.8141 32.0477L33.5469 31.7805C33.443 31.6766 33.3539 31.5875 33.25 31.4836C33.5617 30.9344 33.7992 30.3555 33.9625 29.7618C34.007 29.7618 34.0516 29.7618 34.0961 29.7618C34.3336 29.7618 34.5859 29.7618 34.8234 29.7618L35.5508 29.7024L35.6398 29.1383C35.7289 28.6336 35.7586 28.1289 35.7586 27.6094C35.7734 27.1493 35.7437 26.6297 35.6547 26.125ZM34.2594 28.3071C34.2148 28.3071 34.1555 28.3071 34.1109 28.3071C33.8883 28.3071 33.6656 28.3071 33.443 28.3071L32.7602 28.3813L32.6562 28.9157C32.493 29.7469 32.1664 30.5188 31.6914 31.2164L31.4094 31.6469L31.7063 32.0625C31.7508 32.1219 31.8102 32.1961 31.8695 32.2555C32.0477 32.4336 32.2258 32.6118 32.4039 32.7899C32.1219 33.1164 31.8102 33.4282 31.4836 33.7102C31.4539 33.6805 31.4242 33.6508 31.4094 33.636C31.2609 33.4875 31.0977 33.3243 30.9492 33.1758C30.8898 33.1164 30.8156 33.0571 30.7414 33.0125L30.3258 32.7454L29.9102 33.0125C29.2125 33.4727 28.4406 33.7993 27.6094 33.9625L27.1492 34.0516L27.0305 34.5118C27.0008 34.6157 27.0008 34.7196 27.0008 34.8383C27.0008 35.0758 27.0008 35.3282 27.0008 35.5657C26.5852 35.5954 26.1547 35.5954 25.7391 35.5657C25.7391 35.3282 25.7391 35.0758 25.7391 34.8383C25.7391 34.7196 25.7242 34.6157 25.7094 34.5118L25.5906 34.0516L25.1305 33.9625C24.3141 33.7993 23.5422 33.4875 22.8297 33.0125L22.4141 32.7454L21.9984 33.0125C21.9242 33.0571 21.8648 33.1164 21.8055 33.1758C21.657 33.3391 21.4938 33.4875 21.3453 33.6508C21.3156 33.6805 21.3008 33.6953 21.2711 33.725C20.9445 33.443 20.6328 33.1461 20.3508 32.8047C20.5289 32.6266 20.707 32.4485 20.8852 32.2703C20.9594 32.211 21.0039 32.1368 21.0484 32.0774L21.3305 31.6618L21.0484 31.2461C20.5734 30.5485 20.2469 29.7618 20.0836 28.9453L19.9797 28.411L19.3414 28.3368H19.2969C19.1781 28.3368 19.0594 28.3368 18.9406 28.3368C18.7773 28.3368 18.6289 28.3368 18.4805 28.3368C18.4656 28.1141 18.4508 27.9063 18.4508 27.6836C18.4508 27.461 18.4656 27.2383 18.4805 27.0157C18.718 27.0157 18.9555 27.0157 19.1781 27.0305C19.2969 27.0305 19.4156 27.0157 19.5344 27.0008L19.9797 26.8821L20.0687 26.4219C20.232 25.6055 20.5438 24.8485 21.0188 24.1508L21.2859 23.75L21.0336 23.3344C20.9594 23.2157 20.8703 23.1118 20.7812 23.0375L20.5883 22.8446C20.4992 22.7555 20.4102 22.6664 20.3211 22.5774C20.6031 22.236 20.9148 21.9243 21.2562 21.6422C21.4195 21.8055 21.5977 21.9688 21.7609 22.1469C21.8797 22.2657 21.9984 22.3547 22.1172 22.4141L22.4883 22.5774L22.8297 22.3547C23.5273 21.8946 24.2992 21.5828 25.1156 21.4196L25.5758 21.3305L25.6945 20.8852C25.7242 20.7813 25.7242 20.6774 25.7242 20.5735C25.7242 20.4102 25.7242 20.2469 25.7242 20.0836V19.8313C26.1398 19.8016 26.5703 19.8016 26.9859 19.8313V20.0836C26.9859 20.2469 26.9859 20.4102 26.9859 20.5735C26.9859 20.6922 27.0008 20.7813 27.0156 20.8852L27.1344 21.3305L27.5945 21.4196C28.4109 21.5828 29.1828 21.8946 29.8805 22.3547L30.2219 22.5774L30.593 22.4141C30.7563 22.3399 30.875 22.236 30.9492 22.1618C31.1125 21.9985 31.2758 21.8203 31.4539 21.6571C31.7953 21.9391 32.107 22.2508 32.3891 22.5922C32.2852 22.6961 32.1961 22.7852 32.0922 22.8891L31.9289 23.0524C31.825 23.1563 31.7508 23.2453 31.6766 23.3493L31.4094 23.7649L31.6766 24.1657C32.1367 24.8633 32.4633 25.6204 32.6266 26.4368L32.7156 26.8969L33.1758 27.0157C33.2797 27.0453 33.3984 27.0602 33.532 27.0453C33.7695 27.0305 34.007 27.0305 34.2297 27.0305C34.2445 27.2532 34.2594 27.4758 34.2594 27.6985C34.2891 27.8766 34.2742 28.0993 34.2594 28.3071Z" fill="white"></path><path d="M9.39609 9.48517C11.7562 9.48517 13.6711 7.57032 13.6711 5.21017C13.6711 2.85001 11.7562 0.950012 9.39609 0.950012C7.03594 0.950012 5.12109 2.86486 5.12109 5.21017C5.12109 7.55548 7.05078 9.48517 9.39609 9.48517ZM9.39609 2.43439C10.925 2.43439 12.1719 3.68126 12.1719 5.21017C12.1719 6.73907 10.925 7.98595 9.39609 7.98595C7.86719 7.98595 6.62031 6.73907 6.62031 5.21017C6.62031 3.68126 7.86719 2.43439 9.39609 2.43439Z" fill="white"></path><path d="M14.532 15.2297C14.1164 15.2 13.7601 15.5117 13.7304 15.9274L13.0773 25.4867C13.0773 25.5164 13.0625 25.5461 13.0625 25.5609L12.4539 34.8531C12.4242 35.2539 12.0976 35.5508 11.7117 35.5508H7.09526C6.69448 35.5508 6.36792 35.2391 6.35308 34.8531L5.74448 25.5609C5.72964 25.2492 5.50698 24.982 5.21011 24.893C4.34917 24.6258 4.34917 24.6258 4.27495 23.6758L3.72573 13.8195V13.7453C4.54214 13.5078 5.90776 13.0625 6.59058 12.8547L8.89136 15.007C9.17339 15.2742 9.63355 15.2742 9.91558 15.007L12.246 12.825L19.0742 14.3688C19.1781 14.3984 19.282 14.3984 19.3859 14.3688L25.8281 13.0477C26.2289 12.9586 26.496 12.5727 26.407 12.1719C26.3179 11.7711 25.932 11.5039 25.5312 11.593L19.2523 12.8844L12.1867 11.2813C11.9492 11.2219 11.6968 11.2961 11.5039 11.4594L9.39605 13.4336L7.28823 11.4594C7.09526 11.2664 6.81323 11.207 6.54604 11.2961C6.54604 11.2961 4.36401 11.9938 3.25073 12.3203C2.58276 12.5281 2.21167 13.0328 2.21167 13.7156C2.21167 13.775 2.21167 13.8789 2.21167 13.8938L2.76089 23.6164L2.77573 23.7797C2.87964 25.2641 3.13198 25.7391 4.27495 26.1547L4.85386 34.9422C4.92808 36.1148 5.92261 37.05 7.09526 37.05H11.7117C12.8843 37.05 13.8789 36.1297 13.9531 34.9422L14.5617 25.7242C14.5617 25.6945 14.5617 25.6797 14.5765 25.65L15.2445 16.0164C15.2593 15.6156 14.9476 15.2594 14.532 15.2297Z" fill="white"></path></svg>