<svg xmlns="http://www.w3.org/2000/svg" width="49" height="49" viewBox="0 0 49 49" fill="none"><path d="M45.7986 18.4403L36.2681 8.90982C35.8102 8.46092 35.1944 8.20947 34.5531 8.20947C33.9119 8.20947 33.2961 8.46092 32.8381 8.90982L31.507 10.241C31.079 10.6792 30.8308 11.2619 30.8111 11.8741C30.7915 12.4863 31.0018 13.0837 31.4008 13.5485C30.8128 14.0423 30.1293 14.4095 29.393 14.6273C28.6568 14.8451 27.8835 14.9088 27.1215 14.8143C25.6954 14.6434 24.2508 14.9021 22.9728 15.5575H22.9156L19.649 15.141C19.2836 15.0962 18.944 14.9293 18.6853 14.6673L17.5992 13.5812C18.0049 13.1174 18.2211 12.5177 18.2044 11.9017C18.1878 11.2856 17.9396 10.6985 17.5093 10.2573L16.1782 8.92616C15.7202 8.47725 15.1044 8.22581 14.4632 8.22581C13.8219 8.22581 13.2061 8.47725 12.7482 8.92616L3.20133 18.4403C2.75242 18.8983 2.50098 19.514 2.50098 20.1553C2.50098 20.7966 2.75242 21.4123 3.20133 21.8703L4.53249 23.2015C4.97368 23.6317 5.56081 23.8799 6.17684 23.8966C6.79286 23.9132 7.39254 23.6971 7.85632 23.2913L9.94699 25.3738C10.2651 25.7004 10.4955 26.1021 10.6167 26.5417C11.0476 28.1401 11.8927 29.5965 13.0667 30.7638V30.7638C12.8468 31.1769 12.7375 31.6399 12.7496 32.1077C12.7617 32.5755 12.8946 33.0323 13.1355 33.4335C13.3764 33.8347 13.717 34.1667 14.1243 34.3973C14.5315 34.6278 14.9915 34.7491 15.4595 34.7491V34.7491C15.4573 35.1069 15.5262 35.4615 15.6621 35.7924C15.798 36.1233 15.9982 36.424 16.2512 36.677C16.5041 36.9299 16.8048 37.1302 17.1357 37.2661C17.4666 37.402 17.8213 37.4708 18.179 37.4686V37.4686C18.1867 38.1936 18.4802 38.8862 18.9957 39.396C19.4064 39.8077 19.9393 40.0756 20.5149 40.1595C21.0904 40.2434 21.6776 40.1388 22.1888 39.8615L22.3358 40.0085C22.6566 40.3317 23.0539 40.5687 23.4908 40.6974C23.9277 40.8261 24.39 40.8423 24.8348 40.7445C25.2796 40.6468 25.6925 40.4382 26.0352 40.1382C26.3778 39.8382 26.6391 39.4565 26.7948 39.0285L27.1297 39.3633C27.3816 39.6169 27.6813 39.8182 28.0114 39.9555C28.3414 40.0928 28.6954 40.1635 29.0529 40.1635C29.4104 40.1635 29.7644 40.0928 30.0944 39.9555C30.4245 39.8182 30.7242 39.6169 30.9761 39.3633C31.2461 39.0857 31.4499 38.7507 31.5723 38.3833L31.9725 38.7835C32.4826 39.2936 33.1744 39.5801 33.8957 39.5801C34.6171 39.5801 35.3089 39.2936 35.819 38.7835C36.3291 38.2734 36.6156 37.5816 36.6156 36.8602C36.6156 36.1389 36.3291 35.4471 35.819 34.937L35.4188 34.5368C35.7855 34.4061 36.1178 34.1939 36.3906 33.9161C36.6475 33.6666 36.8519 33.3683 36.9922 33.0388C37.1324 32.7093 37.2055 32.3551 37.2073 31.997C37.2053 31.5669 37.0988 31.1437 36.897 30.7638L37.0521 30.6005C38.1133 29.5497 38.8334 28.2036 39.1183 26.7377C39.3418 25.578 39.9112 24.5131 40.7516 23.6833L41.1681 23.2668C41.6319 23.6726 42.2316 23.8887 42.8476 23.8721C43.4637 23.8554 44.0508 23.6072 44.492 23.177L45.8231 21.8458C46.2615 21.3858 46.5039 20.7735 46.4993 20.1381C46.4948 19.5027 46.2435 18.894 45.7986 18.4403V18.4403ZM5.65949 22.05L4.32833 20.7515C4.17622 20.5985 4.09085 20.3915 4.09085 20.1757C4.09085 19.96 4.17622 19.753 4.32833 19.6L13.8833 10.0368C13.9596 9.95651 14.0514 9.89257 14.1532 9.84887C14.255 9.80517 14.3646 9.78263 14.4754 9.78263C14.5862 9.78263 14.6958 9.80517 14.7976 9.84887C14.8994 9.89257 14.9912 9.95651 15.0675 10.0368L16.3333 11.368C16.4136 11.4443 16.4776 11.5361 16.5213 11.6379C16.565 11.7397 16.5875 11.8493 16.5875 11.9601C16.5875 12.0708 16.565 12.1805 16.5213 12.2822C16.4776 12.384 16.4136 12.4759 16.3333 12.5522L6.84366 22.05C6.76737 22.1303 6.67553 22.1942 6.57374 22.2379C6.47196 22.2816 6.36235 22.3042 6.25158 22.3042C6.1408 22.3042 6.03119 22.2816 5.92941 22.2379C5.82762 22.1942 5.73578 22.1303 5.65949 22.05V22.05ZM14.7 32.8463C14.5903 32.7404 14.5031 32.6136 14.4435 32.4733C14.384 32.333 14.3533 32.1821 14.3533 32.0297C14.3533 31.8772 14.384 31.7264 14.4435 31.586C14.5031 31.4457 14.5903 31.3189 14.7 31.213C14.9123 31.004 15.1983 30.8869 15.4962 30.8869C15.7942 30.8869 16.0801 31.004 16.2925 31.213C16.3997 31.3175 16.4853 31.4422 16.5444 31.5799C16.6035 31.7175 16.6348 31.8654 16.6367 32.0152C16.6386 32.165 16.611 32.3137 16.5555 32.4528C16.4999 32.5919 16.4175 32.7187 16.3129 32.8259C16.2083 32.9331 16.0837 33.0187 15.946 33.0778C15.8084 33.1369 15.6604 33.1683 15.5107 33.1702C15.3609 33.172 15.2122 33.1444 15.0731 33.0889C14.934 33.0333 14.8072 32.9509 14.7 32.8463ZM17.4195 35.5658C17.2594 35.4072 17.1506 35.2043 17.107 34.9832C17.0634 34.7621 17.0871 34.533 17.175 34.3255C17.2629 34.1181 17.411 33.9417 17.6002 33.8192C17.7893 33.6968 18.0109 33.6338 18.2362 33.6385C18.3874 33.634 18.538 33.6606 18.6785 33.7168C18.819 33.773 18.9464 33.8576 19.0528 33.9651C19.1615 34.0716 19.2478 34.1987 19.3067 34.3389C19.3656 34.4791 19.396 34.6297 19.396 34.7818C19.396 34.9339 19.3656 35.0845 19.3067 35.2247C19.2478 35.365 19.1615 35.492 19.0528 35.5985V35.5985C18.943 35.7104 18.8115 35.7986 18.6663 35.8579C18.5212 35.9171 18.3654 35.9461 18.2087 35.943C18.0519 35.94 17.8975 35.9049 17.7548 35.8401C17.612 35.7752 17.484 35.6819 17.3787 35.5658H17.4195ZM20.139 38.2853C20.0283 38.18 19.9401 38.0534 19.8799 37.913C19.8197 37.7726 19.7886 37.6214 19.7886 37.4686C19.7886 37.3159 19.8197 37.1647 19.8799 37.0243C19.9401 36.8839 20.0283 36.7573 20.139 36.652V36.652C20.3573 36.4393 20.6509 36.3218 20.9557 36.3253C21.1397 36.3291 21.3201 36.378 21.4809 36.4677C21.6417 36.5573 21.7782 36.685 21.8782 36.8395C21.9783 36.9941 22.039 37.1708 22.055 37.3543C22.0709 37.5377 22.0417 37.7222 21.9699 37.8918C21.8981 38.0613 21.7858 38.2107 21.6429 38.3268C21.5 38.4429 21.3308 38.5222 21.1502 38.5578C20.9695 38.5934 20.7829 38.5842 20.6066 38.531C20.4303 38.4778 20.2698 38.3822 20.139 38.2526V38.2853ZM35.3126 32.8218C35.0944 33.0353 34.8013 33.1549 34.496 33.1549C34.1907 33.1549 33.8975 33.0353 33.6793 32.8218V32.8218L25.3902 24.5C25.3246 24.3966 25.2367 24.3093 25.1328 24.2444C25.029 24.1796 24.9119 24.139 24.7902 24.1255C24.6685 24.1121 24.5454 24.1261 24.4299 24.1667C24.3144 24.2072 24.2095 24.2732 24.1229 24.3598C24.0364 24.4463 23.9704 24.5512 23.9298 24.6667C23.8893 24.7822 23.8752 24.9054 23.8887 25.0271C23.9021 25.1487 23.9428 25.2658 24.0076 25.3697C24.0724 25.4735 24.1598 25.5614 24.2632 25.627L34.692 36.0885C34.7995 36.1954 34.8845 36.3227 34.942 36.4629C34.9995 36.6032 35.0284 36.7536 35.0268 36.9051C35.0298 37.0569 35.0016 37.2077 34.944 37.3482C34.8864 37.4886 34.8006 37.6158 34.692 37.7218C34.4796 37.9308 34.1937 38.0479 33.8957 38.0479C33.5978 38.0479 33.3118 37.9308 33.0995 37.7218L22.6707 27.2522C22.5139 27.1528 22.328 27.1098 22.1436 27.1302C21.9591 27.1506 21.7872 27.2332 21.6559 27.3644C21.5247 27.4956 21.4421 27.6676 21.4217 27.8521C21.4013 28.0365 21.4443 28.2224 21.5437 28.3792L29.8328 36.6601C30.0494 36.8767 30.1711 37.1705 30.1711 37.4768C30.1711 37.7831 30.0494 38.0769 29.8328 38.2935C29.6162 38.5101 29.3225 38.6318 29.0161 38.6318C28.7098 38.6318 28.4161 38.5101 28.1995 38.2935L19.9512 29.9717C19.7944 29.8723 19.6085 29.8293 19.4241 29.8497C19.2396 29.8701 19.0677 29.9527 18.9364 30.0839C18.8052 30.2152 18.7226 30.3871 18.7022 30.5716C18.6818 30.756 18.7248 30.9419 18.8242 31.0987L25.0308 37.3053C25.1381 37.4126 25.2231 37.5399 25.2812 37.68C25.3392 37.8201 25.3691 37.9703 25.3691 38.122C25.3691 38.2737 25.3392 38.4238 25.2812 38.564C25.2231 38.7041 25.1381 38.8314 25.0308 38.9386C24.9236 39.0459 24.7963 39.131 24.6561 39.189C24.516 39.2471 24.3658 39.2769 24.2141 39.2769C24.0625 39.2769 23.9123 39.2471 23.7722 39.189C23.632 39.131 23.5047 39.0459 23.3975 38.9386L23.2505 38.7916C23.4735 38.3795 23.5851 37.9162 23.5744 37.4477C23.5636 36.9792 23.4309 36.5216 23.1893 36.12C22.9477 35.7185 22.6056 35.3869 22.1967 35.1579C21.7878 34.929 21.3263 34.8106 20.8577 34.8145C20.8621 34.4573 20.7946 34.1028 20.6592 33.7722C20.5238 33.4416 20.3233 33.1416 20.0695 32.8901C19.8158 32.6387 19.514 32.4408 19.1822 32.3084C18.8504 32.176 18.4953 32.1118 18.1382 32.1195C18.1497 31.6469 18.0372 31.1796 17.8118 30.7641C17.5864 30.3487 17.256 29.9996 16.8536 29.7516C16.4511 29.5037 15.9907 29.3657 15.5182 29.3513C15.0458 29.3368 14.5778 29.4466 14.161 29.6695V29.6695C13.1907 28.6889 12.4975 27.4688 12.152 26.1333C11.966 25.4207 11.5906 24.7717 11.0658 24.255L8.98332 22.1807L16.464 14.7L17.542 15.778C18.0521 16.2849 18.7152 16.6092 19.4285 16.7008L21.1108 16.9132L17.0928 20.9312C16.7919 21.2115 16.5506 21.5496 16.3832 21.9253C16.2158 22.301 16.1258 22.7065 16.1186 23.1177C16.1113 23.5289 16.187 23.9373 16.341 24.3187C16.495 24.7 16.7243 25.0464 17.0151 25.3372C17.3059 25.628 17.6523 25.8573 18.0336 26.0113C18.415 26.1653 18.8234 26.241 19.2346 26.2337C19.6458 26.2265 20.0514 26.1365 20.427 25.9691C20.8027 25.8017 21.1408 25.5604 21.4212 25.2595L24.1243 22.5563C24.3665 22.3194 24.6588 22.1398 24.9797 22.031C25.3006 21.9222 25.6418 21.8868 25.9781 21.9275L35.2718 31.2211C35.3782 31.3284 35.462 31.456 35.5181 31.5963C35.5742 31.7366 35.6016 31.8867 35.5985 32.0378C35.5951 32.3316 35.478 32.6126 35.2718 32.8218H35.3126ZM37.5666 26.4518C37.3379 27.6096 36.7692 28.673 35.9333 29.5062L35.8761 29.5633L29.5633 23.2668C30.3642 23.4745 31.1862 23.5896 32.0133 23.6098C32.1191 23.6178 32.2255 23.6036 32.3255 23.568C32.4255 23.5324 32.5169 23.4762 32.5938 23.4031C32.6708 23.33 32.7315 23.2416 32.7722 23.1436C32.8129 23.0456 32.8326 22.9401 32.83 22.834C32.83 22.6174 32.7439 22.4097 32.5908 22.2565C32.4376 22.1034 32.2299 22.0173 32.0133 22.0173C30.4648 21.9757 28.9492 21.5611 27.5952 20.8087C26.8612 20.3952 26.0128 20.2314 25.1777 20.3419C24.3425 20.4524 23.5659 20.8311 22.9647 21.4212L20.2615 24.1243C20.1338 24.2917 19.9716 24.4298 19.7859 24.5291C19.6002 24.6284 19.3953 24.6866 19.1851 24.6998C18.975 24.7131 18.7644 24.681 18.5677 24.6058C18.371 24.5306 18.1928 24.414 18.0451 24.2639C17.8973 24.1138 17.7836 23.9338 17.7115 23.7359C17.6394 23.538 17.6107 23.327 17.6273 23.1171C17.6439 22.9071 17.7053 22.7032 17.8076 22.5191C17.9098 22.335 18.0504 22.175 18.2198 22.05L22.3031 17.9667C22.9073 17.3686 23.6397 16.9158 24.4448 16.6428C25.2499 16.3697 26.1066 16.2834 26.95 16.3905C27.9436 16.5126 28.9519 16.4252 29.9097 16.1341C30.8676 15.8429 31.7539 15.3544 32.5115 14.7L40.0166 22.1807L39.6083 22.5808C38.5567 23.6385 37.8456 24.9866 37.5666 26.4518V26.4518ZM44.6961 20.7352L43.3405 22.05C43.2642 22.1303 43.1723 22.1942 43.0706 22.2379C42.9688 22.2816 42.8592 22.3042 42.7484 22.3042C42.6376 22.3042 42.528 22.2816 42.4262 22.2379C42.3244 22.1942 42.2326 22.1303 42.1563 22.05L32.6666 12.5522C32.5863 12.4759 32.5224 12.384 32.4787 12.2822C32.435 12.1805 32.4125 12.0708 32.4125 11.9601C32.4125 11.8493 32.435 11.7397 32.4787 11.6379C32.5224 11.5361 32.5863 11.4443 32.6666 11.368L33.9978 10.0368C34.0741 9.95651 34.1659 9.89257 34.2677 9.84887C34.3695 9.80517 34.4791 9.78263 34.5899 9.78263C34.7007 9.78263 34.8103 9.80517 34.9121 9.84887C35.0139 9.89257 35.1057 9.95651 35.182 10.0368L44.6716 19.6C44.8237 19.753 44.9091 19.96 44.9091 20.1757C44.9091 20.3915 44.8237 20.5985 44.6716 20.7515L44.6961 20.7352Z" fill="white"></path></svg>