<svg xmlns="http://www.w3.org/2000/svg" width="41" height="41" viewBox="0 0 41 41" fill="none"><g clip-path="url(#clip0_1388_232)"><path d="M12.7786 21.8248L9.42171 18.4679L8.51587 19.3737L12.3596 23.2175C12.4794 23.3379 12.6428 23.4052 12.8125 23.4052C12.8202 23.4052 12.8273 23.4052 12.8356 23.4045C13.0131 23.3981 13.1803 23.318 13.2969 23.1842L21.625 13.5748L20.6564 12.7349L12.7786 21.8248Z" fill="white"></path><path d="M14.6517 4.42444C7.22176 4.42444 1.19861 10.4476 1.19861 17.8776C1.19861 23.9705 5.25248 29.1116 10.808 30.7663V32.1833H13.5683V37.0963H15.3381V32.1833H18.4955V30.7663C24.051 29.1116 28.1049 23.9712 28.1049 17.8776C28.1049 10.4476 22.0817 4.42444 14.6517 4.42444ZM14.6517 30.2338C8.25899 30.2338 2.50719 25.0083 2.50719 17.8776C2.50719 10.7468 8.81776 5.75178 14.6517 5.75178C21.2374 5.75178 26.8417 10.356 26.8417 17.8776C26.8417 25.3991 21.0445 30.2338 14.6517 30.2338Z" fill="white"></path><path d="M36.2806 18.8961C36.2806 19.9576 36.2515 20.818 37.313 20.818C38.3745 20.818 38.2025 19.9576 38.2025 18.8961V11.2086H36.2806L36.2806 18.8961Z" fill="white"></path><path d="M35.1517 16.0156V-1.28125H20.7949V5.16187C22.2376 5.81146 23.1733 6.61573 24.3098 7.6875H33.7733V9.43885H25.6618C26.1583 10.0391 26.4565 10.2128 26.8492 10.8906H33.7733V12.6835H27.4642C27.7429 13.3017 28.0203 13.432 28.208 14.0937H33.7733V16.518H28.7454C28.8992 17.3495 28.7454 17.0624 28.7454 17.9375H36.2574C35.5989 17.5467 35.1517 16.8356 35.1517 16.0156ZM27.4642 6.19424H23.3021L22.2697 1.28125H27.4642V6.19424ZM33.7733 6.19424H28.7454V4.48437H33.7733V6.19424ZM33.7733 2.94964H28.7454V1.28125H33.7733V2.94964Z" fill="white"></path></g><defs><clipPath id="clip0_1388_232"><rect width="41" height="41" fill="white"></rect></clipPath></defs></svg>