<svg xmlns="http://www.w3.org/2000/svg" width="41" height="41" viewBox="0 0 41 41" fill="none"><path d="M35.1247 26.252C35.7898 25.9155 36.324 25.3672 36.643 24.6935C36.9621 24.0198 37.0478 23.2591 36.8867 22.5313C36.7256 21.8035 36.3269 21.15 35.7534 20.6739C35.1799 20.1977 34.4642 19.926 33.7192 19.9016C32.9742 19.8772 32.2422 20.1014 31.6387 20.539C31.0353 20.9765 30.5946 21.6025 30.3862 22.3182C30.1778 23.0338 30.2135 23.7985 30.4877 24.4917C30.7619 25.1848 31.2591 25.7669 31.9007 26.1463C31.0637 26.4881 30.3695 27.1069 29.934 27.8992L28.4726 30.5554L26.2408 27.5597C26.2052 27.5119 26.1589 27.4731 26.1057 27.4464C26.0524 27.4197 25.9937 27.4059 25.9341 27.4059H24.7666V25.8532C24.7654 25.0678 24.5194 24.3022 24.0629 23.6631C23.6063 23.024 22.9619 22.5431 22.2193 22.2873C22.7218 21.9239 23.0963 21.4106 23.2889 20.8211C23.4816 20.2316 23.4825 19.5963 23.2915 19.0062C23.1005 18.4162 22.7275 17.9018 22.2259 17.537C21.7244 17.1722 21.1202 16.9757 20.5 16.9757C19.8798 16.9757 19.2756 17.1722 18.7741 17.537C18.2725 17.9018 17.8995 18.4162 17.7085 19.0062C17.5175 19.5963 17.5184 20.2316 17.7111 20.8211C17.9037 21.4106 18.2782 21.9239 18.7807 22.2873C18.038 22.543 17.3935 23.0239 16.937 23.663C16.4804 24.3021 16.2345 25.0677 16.2334 25.8532V27.4059H15.0659C15.0063 27.4059 14.9476 27.4197 14.8943 27.4464C14.8411 27.4731 14.7948 27.5119 14.7592 27.5597L12.5266 30.5554L11.066 27.8992C10.6303 27.1071 9.93612 26.4883 9.09928 26.1463C9.74116 25.7669 10.2385 25.1847 10.5129 24.4913C10.7873 23.798 10.8231 23.0331 10.6146 22.3172C10.4062 21.6013 9.96543 20.9752 9.36179 20.5375C8.75815 20.0998 8.02599 19.8755 7.28077 19.8999C6.53555 19.9243 5.81966 20.1961 5.24598 20.6724C4.67231 21.1487 4.27349 21.8024 4.11241 22.5304C3.95133 23.2584 4.03716 24.0194 4.35636 24.6932C4.67556 25.367 5.20998 25.9155 5.87533 26.252C5.26454 26.5617 4.75143 27.0345 4.39285 27.618C4.03427 28.2015 3.84422 28.8728 3.84375 29.5576V35.9222C3.84375 36.0235 3.88399 36.1207 3.95563 36.1923C4.02726 36.264 4.12442 36.3042 4.22572 36.3042C4.32703 36.3042 4.42418 36.264 4.49582 36.1923C4.56745 36.1207 4.6077 36.0235 4.6077 35.9222V29.5576C4.60854 28.7775 4.91876 28.0296 5.4703 27.4779C6.02183 26.9262 6.76967 26.6158 7.54977 26.6148H7.60422C8.17504 26.6153 8.73527 26.769 9.22653 27.0597C9.71778 27.3504 10.1221 27.7675 10.3973 28.2676L12.1446 31.4443C12.1446 31.4443 12.1487 31.4515 12.1503 31.4555L12.505 32.1001C12.538 32.16 12.5865 32.2099 12.6454 32.2447C12.7042 32.2795 12.7714 32.2978 12.8397 32.2979H16.5185C16.7521 32.2979 16.9762 32.3907 17.1414 32.5559C17.3066 32.7211 17.3994 32.9451 17.3994 33.1788C17.3994 33.4124 17.3066 33.6364 17.1414 33.8016C16.9762 33.9668 16.7521 34.0596 16.5185 34.0596H12.0918C11.8789 34.0602 11.6693 34.0077 11.4818 33.9069C11.2943 33.8061 11.1349 33.6601 11.0179 33.4823C11.0099 33.4675 11.0008 33.4533 10.9907 33.4398L8.9191 30.0765C8.89359 30.0323 8.85945 29.9936 8.81871 29.9627C8.77797 29.9319 8.73146 29.9095 8.68192 29.897C8.63239 29.8844 8.58084 29.882 8.53033 29.8897C8.47982 29.8974 8.43138 29.9152 8.38787 29.942C8.34436 29.9688 8.30667 30.004 8.27702 30.0457C8.24738 30.0873 8.22639 30.1344 8.21529 30.1843C8.2042 30.2342 8.20322 30.2858 8.21242 30.336C8.22163 30.3863 8.24082 30.4342 8.26887 30.4769L10.2236 33.6536L7.54656 37.2363C7.51412 37.2763 7.49009 37.3224 7.47592 37.3719C7.46174 37.4214 7.45772 37.4732 7.46409 37.5243C7.47045 37.5754 7.48707 37.6246 7.51296 37.6691C7.53884 37.7136 7.57345 37.7524 7.61471 37.7832C7.65597 37.814 7.70302 37.8361 7.75305 37.8483C7.80307 37.8604 7.85503 37.8623 7.90581 37.8538C7.95659 37.8454 8.00513 37.8268 8.04853 37.7991C8.09193 37.7714 8.12929 37.7353 8.15836 37.6928L10.7032 34.279C11.0823 34.6267 11.5775 34.8204 12.0918 34.822H16.5209C16.9508 34.8125 17.3598 34.6351 17.6604 34.3277C17.9611 34.0204 18.1294 33.6075 18.1294 33.1776C18.1294 32.7476 17.9611 32.3348 17.6604 32.0274C17.3598 31.7201 16.9508 31.5426 16.5209 31.5332H13.0655L12.931 31.2929L15.2573 28.1699H25.7427L28.065 31.2929L27.9304 31.5332H24.4815C24.0516 31.5426 23.6426 31.7201 23.342 32.0274C23.0413 32.3348 22.873 32.7476 22.873 33.1776C22.873 33.6075 23.0413 34.0204 23.342 34.3277C23.6426 34.6351 24.0516 34.8125 24.4815 34.822H28.9082C29.4216 34.82 29.9158 34.6267 30.2944 34.2798L32.8392 37.6936C32.9014 37.7701 32.9907 37.8197 33.0886 37.8319C33.1864 37.8441 33.2852 37.8179 33.3642 37.759C33.4432 37.7 33.4964 37.6128 33.5126 37.5155C33.5288 37.4183 33.5067 37.3185 33.451 37.2371L30.7764 33.648L32.7303 30.4721C32.7566 30.4295 32.7743 30.3821 32.7822 30.3326C32.7902 30.2832 32.7883 30.2326 32.7768 30.1839C32.7652 30.1351 32.7442 30.0891 32.7148 30.0485C32.6855 30.0079 32.6484 29.9735 32.6058 29.9472C32.5632 29.9209 32.5158 29.9033 32.4663 29.8953C32.4168 29.8873 32.3663 29.8892 32.3176 29.9008C32.2688 29.9123 32.2228 29.9334 32.1822 29.9627C32.1416 29.992 32.1072 30.0291 32.0809 30.0717L30.0101 33.4406C30.0013 33.4524 29.9933 33.4647 29.9861 33.4775C29.8691 33.6565 29.7092 33.8034 29.521 33.9048C29.3327 34.0062 29.122 34.0589 28.9082 34.058H24.4815C24.2479 34.058 24.0238 33.9652 23.8586 33.8C23.6934 33.6348 23.6006 33.4108 23.6006 33.1772C23.6006 32.9435 23.6934 32.7195 23.8586 32.5543C24.0238 32.3891 24.2479 32.2963 24.4815 32.2963H28.1603C28.2286 32.2962 28.2958 32.2779 28.3546 32.2431C28.4135 32.2083 28.462 32.1584 28.495 32.0985L28.8473 31.4579C28.8529 31.4483 28.8586 31.4379 28.8634 31.4275L30.6027 28.2676C30.878 27.7673 31.2826 27.3501 31.7742 27.0595C32.2658 26.7689 32.8263 26.6156 33.3974 26.6156H33.4518C34.2319 26.6166 34.9798 26.927 35.5313 27.4787C36.0828 28.0304 36.3931 28.7783 36.3939 29.5584V35.923C36.3939 36.0243 36.4341 36.1215 36.5058 36.1931C36.5774 36.2648 36.6746 36.305 36.7759 36.305C36.8772 36.305 36.9743 36.2648 37.046 36.1931C37.1176 36.1215 37.1578 36.0243 37.1578 35.923V29.5576C37.1572 28.8726 36.9669 28.2012 36.6081 27.6177C36.2492 27.0342 35.7358 26.5615 35.1247 26.252V26.252ZM4.79668 23.2579C4.79668 22.7449 4.9488 22.2434 5.2338 21.8169C5.5188 21.3903 5.92389 21.0579 6.39783 20.8616C6.87177 20.6653 7.39329 20.6139 7.89642 20.714C8.39956 20.8141 8.86171 21.0611 9.22445 21.4238C9.58719 21.7866 9.83422 22.2487 9.9343 22.7519C10.0344 23.255 9.98302 23.7765 9.7867 24.2505C9.59039 24.7244 9.25795 25.1295 8.83141 25.4145C8.40487 25.6995 7.9034 25.8516 7.39041 25.8516C6.70277 25.8508 6.04354 25.5772 5.5573 25.091C5.07107 24.6048 4.79753 23.9455 4.79668 23.2579ZM18.3299 19.9122C18.3299 19.4828 18.4572 19.0631 18.6958 18.706C18.9344 18.349 19.2735 18.0708 19.6702 17.9065C20.0669 17.7422 20.5035 17.6992 20.9246 17.7831C21.3458 17.8669 21.7326 18.0737 22.0362 18.3774C22.3397 18.6811 22.5464 19.068 22.6301 19.4892C22.7138 19.9104 22.6707 20.3469 22.5062 20.7435C22.3418 21.1402 22.0634 21.4792 21.7063 21.7177C21.3492 21.9561 20.9294 22.0833 20.5 22.0831C19.9244 22.0825 19.3726 21.8536 18.9656 21.4466C18.5586 21.0396 18.3297 20.4878 18.3291 19.9122H18.3299ZM16.9982 25.8532C16.999 25.056 17.3161 24.2917 17.8798 23.7279C18.4436 23.1642 19.2079 22.8471 20.0051 22.8463H20.9965C21.7937 22.8471 22.558 23.1642 23.1218 23.7279C23.6855 24.2917 24.0026 25.056 24.0034 25.8532V27.4059H22.8223V25.7851C22.8246 25.7336 22.8165 25.682 22.7984 25.6337C22.7803 25.5853 22.7526 25.5412 22.7169 25.5038C22.6812 25.4665 22.6384 25.4368 22.5909 25.4165C22.5434 25.3962 22.4923 25.3857 22.4407 25.3857C22.3891 25.3857 22.338 25.3962 22.2905 25.4165C22.243 25.4368 22.2001 25.4665 22.1645 25.5038C22.1288 25.5412 22.1011 25.5853 22.083 25.6337C22.0649 25.682 22.0568 25.7336 22.0591 25.7851V27.4099H18.9361V25.7851C18.9384 25.7336 18.9303 25.682 18.9122 25.6337C18.8941 25.5853 18.8664 25.5412 18.8307 25.5038C18.795 25.4665 18.7522 25.4368 18.7047 25.4165C18.6572 25.3962 18.6061 25.3857 18.5545 25.3857C18.5029 25.3857 18.4518 25.3962 18.4043 25.4165C18.3568 25.4368 18.314 25.4665 18.2783 25.5038C18.2426 25.5412 18.2149 25.5853 18.1968 25.6337C18.1787 25.682 18.1706 25.7336 18.1729 25.7851V27.4099H16.9974L16.9982 25.8532ZM31.0167 23.2579C31.0167 22.7449 31.1688 22.2434 31.4538 21.8169C31.7388 21.3903 32.1439 21.0579 32.6178 20.8616C33.0918 20.6653 33.6133 20.6139 34.1164 20.714C34.6195 20.8141 35.0817 21.0611 35.4444 21.4238C35.8072 21.7866 36.0542 22.2487 36.1543 22.7519C36.2544 23.255 36.203 23.7765 36.0067 24.2505C35.8104 24.7244 35.4779 25.1295 35.0514 25.4145C34.6248 25.6995 34.1234 25.8516 33.6104 25.8516C32.9226 25.851 32.2632 25.5775 31.7768 25.0913C31.2904 24.605 31.0167 23.9457 31.0159 23.2579H31.0167Z" fill="white" stroke="white" stroke-width="0.2"></path><path d="M13.0376 15.2197C13.0756 15.2196 13.1133 15.214 13.1497 15.2028L16.9029 14.0505C18.0197 14.4863 19.2084 14.7079 20.4072 14.704C20.6962 14.704 20.9821 14.6911 21.2624 14.6671C22.1825 15.8243 23.8353 16.5353 25.6403 16.5353C26.2981 16.5376 26.9524 16.4406 27.5814 16.2479L29.7667 17.0631C29.8333 17.0878 29.9055 17.0935 29.9751 17.0794C30.0447 17.0654 30.1091 17.0322 30.1609 16.9837C30.2127 16.9351 30.25 16.873 30.2685 16.8044C30.287 16.7358 30.286 16.6635 30.2656 16.5954L29.7707 14.9498C30.4025 14.2932 30.7485 13.4916 30.7485 12.67C30.7485 11.2093 29.6634 9.87925 27.9625 9.22661C27.9689 9.12892 27.9721 9.03042 27.9721 8.93112C27.9721 5.74642 24.5784 3.15509 20.4072 3.15509C16.2359 3.15509 12.843 5.74642 12.843 8.93112C12.843 10.1459 13.3235 11.2958 14.2331 12.2736L12.7165 14.6311C12.6794 14.6887 12.6585 14.7553 12.656 14.8237C12.6535 14.8922 12.6695 14.9601 12.7022 15.0203C12.735 15.0805 12.7833 15.1307 12.8422 15.1658C12.901 15.2009 12.9683 15.2195 13.0368 15.2197H13.0376ZM29.9853 12.67C29.9853 13.3578 29.6722 14.0113 29.0796 14.559C29.027 14.6074 28.9891 14.6697 28.9703 14.7387C28.9514 14.8077 28.9524 14.8806 28.9731 14.949L29.3126 16.0789L27.7239 15.4863C27.6422 15.4552 27.5521 15.4535 27.4693 15.4815C26.8795 15.6776 26.2618 15.7769 25.6403 15.7754C24.2621 15.7754 22.9977 15.3158 22.1825 14.547C25.0541 14.0177 27.2915 12.2351 27.8416 10.0026C29.1557 10.5543 29.9853 11.5729 29.9853 12.67ZM15.0395 12.4297C15.0874 12.3557 15.1082 12.2674 15.0982 12.1798C15.0883 12.0922 15.0483 12.0107 14.9851 11.9493C14.0826 11.0684 13.6061 10.0274 13.6061 8.92952C13.6061 6.16523 16.6571 3.91743 20.4072 3.91743C24.1572 3.91743 27.209 6.16603 27.209 8.92872C27.209 11.6914 24.158 13.9408 20.4072 13.9408C19.2624 13.9458 18.1278 13.7257 17.0679 13.293C16.9858 13.2588 16.8943 13.2543 16.8093 13.2802L13.9264 14.1666L15.0395 12.4297Z" fill="white" stroke="white" stroke-width="0.2"></path><path d="M16.6691 7.94858H24.146C24.2473 7.94858 24.3444 7.90833 24.4161 7.8367C24.4877 7.76507 24.5279 7.66791 24.5279 7.5666C24.5279 7.4653 24.4877 7.36814 24.4161 7.29651C24.3444 7.22487 24.2473 7.18463 24.146 7.18463H16.6691C16.5678 7.18463 16.4706 7.22487 16.399 7.29651C16.3274 7.36814 16.2871 7.4653 16.2871 7.5666C16.2871 7.66791 16.3274 7.76507 16.399 7.8367C16.4706 7.90833 16.5678 7.94858 16.6691 7.94858Z" fill="white" stroke="white" stroke-width="0.2"></path><path d="M24.528 10.29C24.5278 10.1889 24.4874 10.0919 24.4158 10.0204C24.3442 9.94898 24.2472 9.90885 24.146 9.90885H16.6691C16.6175 9.90648 16.566 9.9146 16.5177 9.93271C16.4693 9.95082 16.4251 9.97855 16.3878 10.0142C16.3504 10.0499 16.3207 10.0927 16.3004 10.1402C16.2801 10.1877 16.2697 10.2388 16.2697 10.2904C16.2697 10.3421 16.2801 10.3932 16.3004 10.4406C16.3207 10.4881 16.3504 10.531 16.3878 10.5666C16.4251 10.6023 16.4693 10.63 16.5177 10.6481C16.566 10.6662 16.6175 10.6744 16.6691 10.672H24.146C24.1962 10.672 24.2458 10.6621 24.2922 10.6429C24.3385 10.6237 24.3806 10.5956 24.4161 10.5601C24.4516 10.5246 24.4797 10.4825 24.4989 10.4362C24.5181 10.3899 24.528 10.3402 24.528 10.29V10.29Z" fill="white" stroke="white" stroke-width="0.2"></path></svg>