<svg xmlns="http://www.w3.org/2000/svg" width="34" height="34" viewBox="0 0 34 34" fill="none"><path d="M10.625 33.2931H0.708333C0.317333 33.2931 0 32.9758 0 32.5848V15.5848C0 15.1938 0.317333 14.8765 0.708333 14.8765H10.625C11.016 14.8765 11.3333 15.1938 11.3333 15.5848V32.5848C11.3333 32.9758 11.016 33.2931 10.625 33.2931ZM1.41667 31.8765H9.91667V16.2931H1.41667V31.8765Z" fill="black"></path><path d="M27.9791 31.8764H14.8749C13.5645 31.8764 11.1845 31.3126 10.1234 30.2529C9.8472 29.9767 9.8472 29.5276 10.1234 29.2514C10.3997 28.9751 10.8488 28.9751 11.125 29.2514C11.7951 29.9214 13.7232 30.4612 14.8735 30.4612H27.9777C28.9538 30.4612 29.7485 29.6664 29.7485 28.6904C29.7485 28.203 29.5502 27.7469 29.1889 27.4054C28.9878 27.217 28.9169 26.928 29.0034 26.6674C29.0898 26.4053 29.3207 26.2197 29.5941 26.1885C30.4909 26.0837 31.1666 25.3314 31.1666 24.4389C31.1666 23.9516 30.9683 23.4954 30.607 23.154C30.4059 22.9656 30.335 22.6766 30.4214 22.4159C30.5079 22.1539 30.7388 21.9683 31.0122 21.9371C31.9075 21.8337 32.5833 21.0814 32.5833 20.1889C32.5833 19.5288 32.2121 18.9281 31.6143 18.6221C31.3862 18.5045 31.2389 18.275 31.2304 18.02C31.2204 17.765 31.3479 17.5228 31.5661 17.3896C32.2022 16.9958 32.5833 16.3214 32.5833 15.5848C32.5833 14.4132 31.6299 13.4598 30.4583 13.4598H20.5416C20.3079 13.4598 20.0911 13.345 19.9579 13.1538C19.8248 12.9625 19.7964 12.7174 19.8786 12.5007C19.8928 12.4624 21.2499 8.86836 21.2499 6.37644C21.2499 4.05736 19.1929 2.12644 18.4166 2.12644C17.806 2.12644 17.2946 2.34886 16.9999 2.51178V7.08478C16.9999 7.18678 16.9773 7.28878 16.9348 7.38086L12.6848 16.5892C12.6168 16.7351 12.502 16.8541 12.3589 16.9264L10.9423 17.6347C10.5909 17.8089 10.1674 17.6673 9.9917 17.3174C9.81603 16.9674 9.95911 16.5424 10.309 16.3668L11.5033 15.7704L15.5833 6.92894V2.12644C15.5833 1.91111 15.681 1.70853 15.8496 1.57253C15.8935 1.53711 16.9447 0.709778 18.4166 0.709778C20.0557 0.709778 22.6666 3.30369 22.6666 6.37644C22.6666 8.31444 21.9724 10.727 21.5404 12.0431H30.4583C32.4104 12.0431 33.9999 13.6326 33.9999 15.5848C33.9999 16.4787 33.667 17.3174 33.0791 17.9577C33.6614 18.5428 33.9999 19.3375 33.9999 20.1889C33.9999 21.4172 33.2959 22.4953 32.2504 23.0223C32.4685 23.4572 32.5833 23.9374 32.5833 24.4389C32.5833 25.6672 31.8792 26.7453 30.8337 27.2723C31.0519 27.7072 31.1666 28.1874 31.1666 28.6889C31.1666 30.4456 29.7372 31.8764 27.9791 31.8764Z" fill="black"></path></svg>