<svg xmlns="http://www.w3.org/2000/svg" width="46" height="32" viewBox="0 0 46 32" fill="none"><g clip-path="url(#clip0_1407_335)"><path d="M18.7513 7.80331H27.2487C27.3133 7.80331 27.3774 7.79058 27.4371 7.76584C27.4968 7.7411 27.5511 7.70483 27.5968 7.65911C27.6425 7.61339 27.6788 7.55912 27.7035 7.49938C27.7283 7.43965 27.741 7.37563 27.741 7.31097V3.96878C27.741 3.90413 27.7283 3.84011 27.7035 3.78037C27.6788 3.72064 27.6425 3.66636 27.5968 3.62064C27.5511 3.57493 27.4968 3.53866 27.4371 3.51392C27.3774 3.48917 27.3133 3.47644 27.2487 3.47644H18.7513C18.6207 3.47644 18.4954 3.52831 18.4031 3.62064C18.3108 3.71298 18.2589 3.83821 18.2589 3.96878V7.31097C18.2589 7.44155 18.3108 7.56678 18.4031 7.65911C18.4954 7.75144 18.6207 7.80331 18.7513 7.80331V7.80331ZM19.2427 4.45663H26.7572V6.81953H19.2427V4.45663Z" fill="black"></path><path d="M27.2487 14.405C27.3133 14.405 27.3774 14.3923 27.4371 14.3675C27.4968 14.3428 27.5511 14.3065 27.5968 14.2608C27.6425 14.2151 27.6788 14.1608 27.7035 14.1011C27.7283 14.0414 27.741 13.9773 27.741 13.9127V10.5669C27.741 10.5022 27.7283 10.4382 27.7035 10.3785C27.6788 10.3188 27.6425 10.2645 27.5968 10.2188C27.5511 10.173 27.4968 10.1368 27.4371 10.112C27.3774 10.0873 27.3133 10.0746 27.2487 10.0746H18.7513C18.6207 10.0746 18.4954 10.1264 18.4031 10.2188C18.3108 10.3111 18.2589 10.4363 18.2589 10.5669V13.9127C18.2589 14.0433 18.3108 14.1685 18.4031 14.2608C18.4954 14.3531 18.6207 14.405 18.7513 14.405H27.2487ZM19.2427 11.0583H26.7572V13.4212H19.2427V11.0583Z" fill="black"></path><path d="M42.2867 25.5573H40.8294V3.56718C40.8294 3.43684 40.7777 3.31184 40.6855 3.21967C40.5933 3.12751 40.4683 3.07573 40.338 3.07573H30.6969V0.223192C30.6969 0.0926145 30.645 -0.0326152 30.5527 -0.124948C30.4603 -0.21728 30.3351 -0.269152 30.2045 -0.269152H23.4914V-1.54943C23.75 -1.48683 24.0151 -1.45487 24.2811 -1.45419C25.1266 -1.45419 25.8525 -1.77314 26.5209 -2.06603C27.4832 -2.48919 28.3178 -2.85486 29.4435 -2.34904C29.5185 -2.31546 29.6007 -2.30117 29.6826 -2.30748C29.7645 -2.31378 29.8435 -2.34047 29.9124 -2.38513C29.9814 -2.42978 30.0381 -2.49097 30.0773 -2.56313C30.1165 -2.63528 30.1371 -2.71611 30.1371 -2.79825V-7.76032C30.1372 -7.85533 30.1098 -7.94832 30.0581 -8.02804C30.0065 -8.10777 29.9328 -8.17081 29.846 -8.20954C28.3187 -8.89415 27.1507 -8.38204 26.1247 -7.93013C25.1616 -7.50697 24.3278 -7.1413 23.2003 -7.64802C23.1254 -7.6814 23.0433 -7.69553 22.9615 -7.68913C22.8798 -7.68273 22.8009 -7.656 22.7321 -7.61137C22.6632 -7.56674 22.6067 -7.50562 22.5675 -7.43357C22.5283 -7.36152 22.5077 -7.28082 22.5076 -7.1988V-0.27005H15.7954C15.6648 -0.27005 15.5396 -0.218179 15.4472 -0.125847C15.3549 -0.0335145 15.303 0.0917162 15.303 0.222294V3.07483H5.66011C5.52977 3.07483 5.40477 3.12661 5.31261 3.21877C5.22045 3.31094 5.16867 3.43594 5.16867 3.56628V25.5573H3.7132C3.64683 25.5545 3.58058 25.5651 3.51843 25.5886C3.45628 25.612 3.39951 25.6478 3.35155 25.6937C3.30359 25.7397 3.26542 25.7949 3.23934 25.856C3.21327 25.9171 3.19983 25.9828 3.19983 26.0492C3.19983 26.1157 3.21327 26.1814 3.23934 26.2425C3.26542 26.3036 3.30359 26.3588 3.35155 26.4047C3.39951 26.4507 3.45628 26.4865 3.51843 26.5099C3.58058 26.5333 3.64683 26.544 3.7132 26.5411H42.2867C42.3531 26.544 42.4193 26.5333 42.4815 26.5099C42.5436 26.4865 42.6004 26.4507 42.6484 26.4047C42.6963 26.3588 42.7345 26.3036 42.7606 26.2425C42.7866 26.1814 42.8001 26.1157 42.8001 26.0492C42.8001 25.9828 42.7866 25.9171 42.7606 25.856C42.7345 25.7949 42.6963 25.7397 42.6484 25.6937C42.6004 25.6478 42.5436 25.612 42.4815 25.5886C42.4193 25.5651 42.3531 25.5545 42.2867 25.5573ZM23.4914 -6.5106C24.689 -6.224 25.6539 -6.64806 26.52 -7.029C27.3861 -7.40993 28.1678 -7.74775 29.1533 -7.42431V-3.48825C27.9557 -3.77396 26.9917 -3.34989 26.1247 -2.96986C25.2577 -2.58982 24.477 -2.25111 23.4914 -2.57364V-6.5106ZM30.6969 20.4102V15.2999H34.7794V20.4102H30.6969ZM39.8456 14.3161H35.7632V9.20397H39.8456V14.3161ZM34.7794 14.3161H30.6969V9.20397H34.7794V14.3161ZM35.7632 15.2999H39.8456V20.4102H35.7632V15.2999ZM39.8456 8.22019H35.7632V4.05862H39.8456V8.22019ZM34.7794 4.05862V8.21929H30.6969V4.05862H34.7794ZM6.15425 20.4102V15.2999H10.2368V20.4102H6.15425ZM15.303 14.3134H11.2205V9.20128H15.303V14.3134ZM10.2368 14.3134H6.15425V9.20128H10.2368V14.3134ZM11.225 15.2972H15.3075V20.4102H11.2205L11.225 15.2972ZM15.3075 8.21749H11.2205V4.05862H15.303L15.3075 8.21749ZM10.2368 4.05862V8.21929H6.15425V4.05862H10.2368ZM6.15425 21.3985H15.303V25.5591H6.15425V21.3985ZM16.2868 3.56718V0.714638H29.7131V25.5573H26.9648V17.6008C26.9649 17.5362 26.9522 17.4722 26.9276 17.4124C26.903 17.3527 26.8668 17.2984 26.8211 17.2527C26.7755 17.207 26.7213 17.1707 26.6616 17.1459C26.6019 17.1212 26.5379 17.1084 26.4733 17.1084H19.5266C19.462 17.1084 19.398 17.1212 19.3383 17.1459C19.2786 17.1707 19.2244 17.207 19.1788 17.2527C19.1331 17.2984 19.0969 17.3527 19.0723 17.4124C19.0477 17.4722 19.035 17.5362 19.0351 17.6008V25.5573H16.2868V3.56718ZM25.981 19.5118H20.0189V18.0922H25.981V19.5118ZM20.0189 25.5555V20.5H25.981V25.56L20.0189 25.5555ZM30.6969 25.5555V21.3985H39.8456V25.5591L30.6969 25.5555Z" fill="black"></path></g><defs><clipPath id="clip0_1407_335"><rect width="46" height="32" fill="white"></rect></clipPath></defs></svg>