<svg xmlns="http://www.w3.org/2000/svg" width="49" height="49" viewBox="0 0 49 49" fill="none"><path d="M41.9055 15.6322L39.9207 14.8799V12.272C39.9205 12.139 39.8762 12.0099 39.7946 11.9049C39.713 11.7999 39.5987 11.725 39.4699 11.6921C30.0211 9.27175 25.8341 12.3036 24.5 13.6703C23.1669 12.3027 18.9818 9.26792 9.53013 11.6921C9.40128 11.725 9.28705 11.7999 9.20544 11.9049C9.12383 12.0099 9.07947 12.139 9.07937 12.272V14.8799L7.09448 15.6322C6.9815 15.6761 6.88446 15.7531 6.81612 15.8532C6.74779 15.9533 6.71138 16.0718 6.71167 16.193V37.6181C6.71177 37.7258 6.74088 37.8315 6.79595 37.9242C6.85101 38.0168 6.93 38.0929 7.02462 38.1444C7.11292 38.1918 7.21151 38.2168 7.31173 38.2172C7.4271 38.2169 7.54001 38.1837 7.63712 38.1214C14.8369 33.4531 24.2703 35.6332 24.3641 35.6533C24.3727 35.6533 24.3804 35.6533 24.389 35.6533C24.4023 35.6558 24.4157 35.6574 24.4292 35.6581C24.4778 35.6734 24.5299 35.6734 24.5785 35.6581C24.592 35.6574 24.6054 35.6558 24.6187 35.6533C24.6263 35.6533 24.635 35.6533 24.6436 35.6533C24.7393 35.6313 34.1718 33.4521 41.3706 38.1214C41.4677 38.1837 41.5806 38.2169 41.6959 38.2172C41.7962 38.2168 41.8948 38.1918 41.9831 38.1444C42.0777 38.0929 42.1567 38.0168 42.2117 37.9242C42.2668 37.8315 42.2959 37.7258 42.296 37.6181V16.193C42.2957 16.0709 42.2582 15.9518 42.1884 15.8516C42.1186 15.7514 42.0199 15.6748 41.9055 15.6322V15.6322ZM38.7215 12.741V31.985C30.8872 30.157 26.8476 32.1764 25.0991 33.5995V14.7948C25.704 14.054 29.2249 10.4479 38.7215 12.741ZM10.2785 12.741C19.7101 10.4642 23.2846 14.0598 23.9009 14.7986V33.5995C22.6472 32.5822 20.2202 31.2595 16.0657 31.2595C14.4196 31.2595 12.5008 31.4682 10.2785 31.985V12.741ZM7.907 36.5586V16.6055L9.07937 16.1614V32.7487C9.0794 32.84 9.10034 32.9302 9.14057 33.0122C9.18081 33.0943 9.23927 33.166 9.3115 33.222C9.38372 33.278 9.46779 33.3167 9.55727 33.3352C9.64675 33.3536 9.73928 33.3514 9.82777 33.3286C16.8313 31.5332 20.6901 32.9257 22.5563 34.1335C19.4191 33.7363 13.3027 33.5066 7.907 36.5586ZM41.093 36.5586C35.6781 33.4961 29.5359 33.7392 26.4141 34.1383C28.2516 32.9238 32.0969 31.5151 39.1732 33.3286C39.2618 33.3519 39.3545 33.3543 39.4442 33.3357C39.5338 33.3171 39.618 33.278 39.69 33.2215C39.762 33.1654 39.8203 33.0937 39.8604 33.0118C39.9006 32.9299 39.9215 32.8399 39.9216 32.7487V16.1614L41.094 16.6055L41.093 36.5586Z" fill="white"></path></svg>