<svg xmlns="http://www.w3.org/2000/svg" width="34" height="34" viewBox="0 0 34 34" fill="none"><path d="M28.3326 23.0153C28.3326 21.2558 26.9063 19.8293 25.1466 19.8293H8.85254C7.09301 19.8293 5.66663 21.2558 5.66663 23.0153V23.8337C5.66663 25.0985 6.11786 26.3218 6.93919 27.2836C9.15812 29.882 12.5383 31.1644 16.995 31.1644C21.4508 31.1644 24.8327 29.8824 27.056 27.285C27.8798 26.3226 28.3326 25.0974 28.3326 23.8304V23.0153ZM8.85254 21.9543H25.1466C25.7326 21.9543 26.2076 22.4294 26.2076 23.0153V23.8304C26.2076 24.5906 25.936 25.3257 25.4416 25.9032C23.6617 27.9828 20.8743 29.0394 16.995 29.0394C13.1157 29.0394 10.3307 27.9828 8.55517 25.9036C8.06237 25.3266 7.79163 24.5926 7.79163 23.8337V23.0153C7.79163 22.4294 8.26661 21.9543 8.85254 21.9543Z" fill="white"></path><path d="M24.0784 9.91945C24.0784 6.00744 20.907 2.83612 16.995 2.83612C14.6568 2.83612 12.5831 3.96906 11.2932 5.71593C11.1929 5.68458 11.0863 5.6677 10.9757 5.6677H7.43713C6.85032 5.66768 6.37463 6.14339 6.37463 6.7302V14.5201C6.37463 16.6718 8.11889 18.416 10.2705 18.416H10.6246V18.4099C10.6295 18.4099 10.6344 18.4099 10.6393 18.4099C11.4197 18.4099 12.0524 17.7772 12.0524 16.9968C12.0524 16.2163 11.4197 15.5836 10.6393 15.5836C10.1868 15.5836 9.78403 15.7963 9.52539 16.1271C8.91965 15.8457 8.49963 15.232 8.49963 14.5201V14.1653H9.55902C10.0983 14.1653 10.5974 13.9931 11.0042 13.7007C12.2594 15.6851 14.4733 17.0029 16.995 17.0029C20.907 17.0029 24.0784 13.8315 24.0784 9.91945ZM9.91318 9.76936C9.91215 9.81927 9.91163 9.8693 9.91163 9.91945C9.91163 9.96962 9.91215 10.0197 9.91318 10.0696V11.6861C9.91318 11.8817 9.75462 12.0403 9.55902 12.0403H8.49963V7.7927H9.91318V9.76936ZM12.0382 10.045V9.79391C12.1048 7.1135 14.2985 4.96112 16.995 4.96112C19.7334 4.96112 21.9534 7.18105 21.9534 9.91945C21.9534 12.6579 19.7334 14.8779 16.995 14.8779C14.2985 14.8779 12.1048 12.7254 12.0382 10.045Z" fill="white"></path></svg>