<svg xmlns="http://www.w3.org/2000/svg" width="67" height="67" viewBox="0 0 67 67" fill="none"><g clip-path="url(#clip0_2158_683)"><path d="M43.2883 8.76758C41.6395 8.76758 40.3047 10.1023 40.3047 11.7512V33.3953L38.8652 7.81231C38.7736 6.07188 37.3342 4.72402 35.5938 4.72402C33.7879 4.72402 32.3223 6.18965 32.3223 7.99551V29.993L31.3147 3.50703C31.2623 1.91055 29.9537 0.654297 28.3572 0.654297C26.7607 0.654297 25.4521 1.91055 25.3867 3.50703L24.3398 29.993V7.90391C24.3398 6.1373 22.9135 4.71094 21.1469 4.71094C19.4588 4.71094 18.0586 6.01953 17.9539 7.70762L16.3574 33.3953V41.5479L10.9791 35.1881L10.5604 34.7693C7.82539 32.0344 3.38926 32.0213 0.654297 34.7693L4.71094 38.826L7.34121 44.6492L14.3945 57.1855L23.0182 66.3457H46.2457L48.2871 53.7178V33.3953L46.2457 11.4764C46.1148 9.93223 44.8193 8.76758 43.2883 8.76758Z" fill="#F69583"></path><path d="M32.0605 52.5139L31.6287 51.624C29.5742 47.3318 25.7531 44.1389 21.173 42.8695L16.3574 41.5479V35.3975L25.4652 37.4258C31.1053 38.682 35.6723 42.8041 37.4912 48.2871L32.0605 52.5139Z" fill="#EA806F"></path><path d="M41.7441 34.0889L32.3223 29.9668H22.1152C22.1152 31.6287 23.4631 32.9766 25.125 32.9766H31.9297L38.1979 36.235C39.8205 37.0725 41.7441 35.9078 41.7441 34.0889Z" fill="#EA806F"></path><path d="M24.3395 29.993V7.90391C24.3395 6.1373 22.9131 4.71094 21.1465 4.71094L20.6623 28.4881C20.6492 29.2994 21.3035 29.9799 22.1148 29.9799L24.3395 29.993Z" fill="#EA806F"></path><path d="M31.3146 3.50703C31.2623 1.92363 29.9668 0.680469 28.3965 0.654297V29.9668H32.3223L31.3146 3.50703Z" fill="#EA806F"></path><path d="M35.6068 4.71094C35.5938 4.71094 35.5938 4.71094 35.6068 4.71094L35.5938 32.8457L40.3047 33.3953L38.8783 7.79922C38.7736 6.07187 37.3473 4.71094 35.6068 4.71094Z" fill="#EA806F"></path><path d="M48.2867 33.3953L46.2453 11.4764C46.1145 9.93223 44.8189 8.76758 43.2879 8.76758L44.8844 33.5L43.2879 55.6152L36.9281 58.5465C33.8922 59.9467 31.9424 62.9957 31.9424 66.3457H46.2453L48.2998 53.7178V33.3953H48.2867Z" fill="#EA806F"></path><path d="M18.892 45.1371C19.9515 47.7183 22.065 53.4847 24.2742 55.0873C25.1641 55.7357 25.9691 55.6891 27.0512 55.1588C27.197 55.442 27.4145 55.6819 27.6819 55.8548C27.9494 56.0278 28.2575 56.1276 28.5755 56.1444C31.781 56.215 31.2475 51.1697 31.2475 51.1697C31.5946 52.0328 32.1448 52.8159 32.8935 52.9447C35.8007 53.4542 36.2855 49.7988 35.2371 45.3029C34.3463 41.4876 31.7736 35.8374 32.3824 34.5086C32.5249 34.2302 32.7216 33.9831 32.9611 33.7819C33.2005 33.5807 33.4778 33.4295 33.7766 33.3371C36.6938 32.6023 43.4872 32.9373 44.0948 29.5393C44.6758 26.3059 38.5475 26.7128 33.6476 25.9655C30.0144 25.4144 25.5359 22.8417 22.8444 21.3596C21.1757 20.4389 17.5862 17.4838 15.6496 15.6757C14.7889 14.8707 13.146 14.2887 12.0163 14.611C10.2456 15.0787 8.6093 15.9554 7.23905 17.1706C5.8688 18.3858 4.80282 19.9056 4.12684 21.6077C3.85067 22.2742 3.79708 23.012 3.97403 23.7113C4.15099 24.4107 4.54903 25.0343 5.10892 25.4892C6.77805 26.8682 8.68654 27.3306 10.0039 30.2342C11.5347 33.6014 12.2173 37.4343 13.6692 41.5836C15.1212 45.7329 15.9319 51.6215 16.5157 52.6688C17.5271 54.5014 20.8816 53.5099 18.892 45.1371Z" fill="#FFEAE4"></path><path d="M11.5085 36.9246C11.9572 38.5169 12.4223 40.1648 13.0211 41.882C13.7876 44.2742 14.4098 46.7102 14.8844 49.1769C15.3456 51.3487 15.6019 52.5063 15.9002 53.0431C16.1174 53.4996 16.496 53.8594 16.9629 54.0531C17.4298 54.2468 17.952 54.2606 18.4285 54.0919C18.9254 53.8985 20.123 53.1526 20.3222 50.45C21.3417 52.6497 22.5442 54.7609 23.8483 55.7078C24.2657 56.0314 24.7614 56.2387 25.285 56.3085C25.8085 56.3783 26.3412 56.3081 26.8288 56.1051C27.0479 56.3536 27.3162 56.5538 27.6167 56.6931C27.9173 56.8324 28.2435 56.9078 28.5746 56.9144C29.0046 56.9354 29.4339 56.862 29.8325 56.6994C30.231 56.5367 30.5891 56.2889 30.8817 55.9731C31.482 55.248 31.8591 54.3644 31.9671 53.4293C32.2115 53.5732 32.4797 53.6722 32.7591 53.7216C33.2304 53.8346 33.723 53.8226 34.1883 53.6868C34.6535 53.5511 35.0753 53.2963 35.412 52.9477C37.0847 51.1823 36.4956 47.3143 35.995 45.1661C35.649 43.6776 35.0643 41.9504 34.499 40.2802C33.8549 38.3791 32.8846 35.5114 33.1084 34.9203C33.2973 34.5747 33.608 34.3116 33.9801 34.1822C34.8754 33.994 35.7807 33.8568 36.6915 33.7713C40.0735 33.3739 44.2823 32.8792 44.8366 29.7928C44.914 29.443 44.915 29.0807 44.8395 28.7304C44.7641 28.3802 44.6141 28.0504 44.3996 27.7635C43.2637 26.2661 40.4463 26.0022 37.1846 25.6968C36.051 25.5904 34.8788 25.4806 33.7834 25.3146C30.5268 24.8177 26.4822 22.5767 23.8055 21.0937L23.2875 20.8068C21.6693 19.9127 18.1165 16.9686 16.2824 15.2531C15.2803 14.3143 13.3757 13.5936 11.9175 14.009C10.9609 14.2765 10.0365 14.6483 9.16104 15.1175C6.61197 16.4994 4.62601 18.7287 3.54663 21.4198C3.20877 22.2385 3.14277 23.144 3.35835 24.0029C3.57393 24.8619 4.05969 25.6289 4.74407 26.191C5.2164 26.5693 5.71041 26.9197 6.22358 27.2404C7.41734 28.0166 8.54691 28.7518 9.40209 30.6414C10.2593 32.6806 10.9634 34.7808 11.5085 36.9246V36.9246ZM7.07912 25.9281C6.6148 25.6389 6.16776 25.3229 5.74028 24.9816C5.31456 24.6337 5.01198 24.1581 4.87721 23.6251C4.74243 23.0921 4.78259 22.5299 4.99177 22.0215C5.61739 20.4327 6.61003 19.0146 7.88858 17.8828C9.16713 16.7511 10.6953 15.9379 12.3482 15.5098C13.1222 15.2894 14.4905 15.71 15.219 16.3917C17.0727 18.1262 20.7451 21.1822 22.5375 22.1722L23.0534 22.4573C25.8279 23.9946 30.02 26.317 33.5534 26.8564C34.6914 27.0301 35.8865 27.1418 37.0426 27.2503C39.5701 27.4847 42.4374 27.7555 43.1586 28.7055C43.2426 28.8206 43.2993 28.9534 43.3243 29.0937C43.3493 29.234 43.342 29.3782 43.303 29.5152C42.956 31.4644 39.3843 31.8842 36.5149 32.2205C35.5391 32.3121 34.5695 32.461 33.6111 32.6664C33.1987 32.7861 32.8156 32.9899 32.486 33.2652C32.1563 33.5404 31.8874 33.881 31.6961 34.2655C31.2138 35.3143 31.8532 37.3226 33.0245 40.7825C33.5777 42.4172 34.1501 44.1073 34.4791 45.5215C35.1877 48.5646 35.1121 50.9994 34.2831 51.8749C34.123 52.0354 33.9219 52.149 33.7019 52.2034C33.4818 52.2579 33.2509 52.2511 33.0344 52.1838C32.7451 52.1334 32.3659 51.9438 31.9963 50.9172C31.6923 49.9455 31.4598 48.953 31.3006 47.9475C30.8418 45.5104 30.3213 42.748 28.699 40.6C28.6375 40.5171 28.5603 40.4471 28.4716 40.3942C28.383 40.3413 28.2847 40.3065 28.1826 40.2918C28.0804 40.2771 27.9763 40.2827 27.8764 40.3085C27.7764 40.3342 27.6826 40.3795 27.6002 40.4418C27.5179 40.504 27.4487 40.5819 27.3966 40.6711C27.3446 40.7602 27.3107 40.8588 27.297 40.9611C27.2833 41.0634 27.2899 41.1674 27.3167 41.2671C27.3434 41.3668 27.3896 41.4602 27.4526 41.542C28.8547 43.3969 29.3391 45.9682 29.7665 48.2364C29.936 49.2844 30.1779 50.3194 30.4904 51.334C30.5538 52.0584 30.5399 54.0457 29.7366 54.9174C29.5946 55.0708 29.4196 55.19 29.2248 55.2659C29.03 55.3419 28.8205 55.3726 28.6121 55.3558C28.3722 55.3497 28.0778 55.2723 27.7371 54.7348C27.1999 53.8891 26.8401 52.3607 26.4232 50.5915C25.8539 48.1732 25.1449 45.1634 23.6191 42.5538C23.5169 42.3789 23.3507 42.2507 23.1556 42.196C22.9605 42.1414 22.7519 42.1646 22.5736 42.2609L22.5498 42.2737C22.4612 42.3255 22.3836 42.3942 22.3216 42.4759C22.2595 42.5577 22.2142 42.6508 22.1882 42.7501C22.1622 42.8494 22.1559 42.9528 22.1699 43.0545C22.1838 43.1561 22.2177 43.254 22.2695 43.3426C23.6764 45.7494 24.3274 48.5124 24.9013 50.9502C25.1622 52.2367 25.5247 53.5006 25.9853 54.7299C25.7749 54.7841 25.5546 54.7869 25.3429 54.7381C25.1311 54.6893 24.9343 54.5902 24.7689 54.4492C22.9992 53.1623 21.096 48.4067 20.0755 45.8507C19.9315 45.4905 19.7996 45.1604 19.6807 44.8707C19.6022 44.679 19.4507 44.5264 19.2596 44.4463C19.0686 44.3663 18.8535 44.3654 18.6618 44.4439C18.2391 44.6322 18.1135 44.9929 18.2544 45.5109C19.6639 50.695 18.3862 52.439 17.8662 52.6366C17.6184 52.7324 17.3892 52.5104 17.2647 52.2894C16.8979 51.1666 16.6123 50.0189 16.4102 48.8552C15.9227 46.3233 15.2825 43.8232 14.4933 41.3686C13.91 39.698 13.4525 38.0738 13.0096 36.5032C12.446 34.2826 11.716 32.1076 10.8259 29.9966C9.78487 27.6889 8.34734 26.7536 7.07912 25.9281V25.9281Z" fill="#FDB0A0"></path></g><defs><clipPath id="clip0_2158_683"><rect width="67" height="67" fill="white"></rect></clipPath></defs></svg>