<svg xmlns="http://www.w3.org/2000/svg" width="58" height="44" viewBox="0 0 58 44" fill="none"><path d="M57.0603 7.17957H54.3326V4.43628C54.3326 4.18548 54.2336 3.94495 54.0573 3.76761C53.8811 3.59026 53.6421 3.49063 53.3928 3.49063H50.0287V1.01019C50.0284 0.769885 49.9374 0.538655 49.7741 0.36335C49.6107 0.188044 49.3873 0.0817693 49.149 0.0660554C36.9788 -0.708893 31.0296 5.60853 29 8.41828C26.9764 5.60701 21.0437 -0.713425 8.84952 0.0660554C8.61122 0.0817693 8.38777 0.188044 8.22443 0.36335C8.06109 0.538655 7.97007 0.769885 7.96982 1.01019V3.49063H4.60715C4.35792 3.49063 4.11889 3.59026 3.94265 3.76761C3.76642 3.94495 3.66741 4.18548 3.66741 4.43628V7.17957H0.939746C0.69051 7.17957 0.451481 7.2792 0.275245 7.45655C0.0990086 7.63389 0 7.87442 0 8.12522V43.0206C0.000395637 43.2714 0.0994831 43.5119 0.275591 43.6894C0.451699 43.8668 0.690494 43.9669 0.939746 43.9677C1.00733 43.9675 1.07473 43.9604 1.1409 43.9466C1.33456 43.9013 20.6984 39.7169 28.6202 43.2442H28.6412C28.6652 43.2532 28.6908 43.2578 28.7148 43.2653C28.7337 43.2751 28.7533 43.2837 28.7733 43.291C28.8287 43.3024 28.885 43.3095 28.9415 43.3121C28.961 43.3121 28.979 43.3121 28.997 43.3121H29.0075H29.0435C29.1052 43.3105 29.1665 43.303 29.2267 43.2895C29.2447 43.2895 29.2597 43.2729 29.2762 43.2683C29.3062 43.2609 29.3358 43.2518 29.3648 43.2411C29.3648 43.2411 29.3753 43.2411 29.3798 43.2411C37.2941 39.7214 56.6654 43.8998 56.8591 43.9436C56.9253 43.9574 56.9927 43.9645 57.0603 43.9647C57.3095 43.9639 57.5483 43.8638 57.7244 43.6863C57.9005 43.5088 57.9996 43.2684 58 43.0176V8.1222C57.9992 7.87192 57.8998 7.63217 57.7237 7.45548C57.5475 7.27879 57.309 7.17957 57.0603 7.17957V7.17957ZM52.4531 5.38193V37.1276C49.5753 36.4584 42.0333 35.466 32.2336 39.7471C34.9552 37.0279 40.1899 33.5958 49.0274 34.1789C49.1558 34.1878 49.2846 34.1699 49.4058 34.1262C49.527 34.0825 49.6379 34.014 49.7314 33.9251C49.8258 33.8369 49.9011 33.73 49.9527 33.6113C50.0044 33.4925 50.0312 33.3644 50.0317 33.2348V5.38344L52.4531 5.38193ZM48.1477 1.9075V32.2408C38.1513 31.8964 32.5218 36.4569 29.9397 39.4495V10.4017C30.7339 9.04519 35.7013 1.47395 48.1477 1.91052V1.9075ZM9.85231 1.9075C22.2927 1.44676 27.2661 9.04217 28.0603 10.3987V39.448C25.5698 36.5642 20.2676 32.2242 10.9062 32.2242C10.5609 32.2242 10.2081 32.2242 9.85532 32.2408L9.85231 1.9075ZM5.5469 5.38193H7.97132V33.2348C7.97176 33.3644 7.99863 33.4925 8.05028 33.6113C8.10192 33.73 8.17724 33.8369 8.27156 33.9251C8.36494 34.0144 8.47578 34.083 8.597 34.1267C8.71823 34.1704 8.84718 34.1882 8.97562 34.1789C17.7876 33.5988 23.0313 37.0279 25.7589 39.741C15.9637 35.4614 8.42318 36.46 5.5499 37.1276L5.5469 5.38193ZM1.88099 41.8604V9.07993H3.66741V38.3694C3.66743 38.5207 3.70353 38.6698 3.77269 38.8042C3.84185 38.9385 3.94205 39.0542 4.06486 39.1416C4.18767 39.2289 4.32951 39.2853 4.47847 39.306C4.62743 39.3267 4.77916 39.3112 4.9209 39.2606C5.00047 39.2319 11.4646 37.0385 20.9836 39.9782C13.5512 39.7214 4.95543 41.2516 1.88099 41.8604ZM56.119 41.8604C53.0491 41.2562 44.4743 39.7259 37.0539 39.9767C46.5264 37.0687 53.001 39.2335 53.0791 39.2606C53.2208 39.3109 53.3723 39.3262 53.5211 39.3053C53.6698 39.2845 53.8115 39.228 53.9341 39.1407C54.0567 39.0534 54.1567 38.9378 54.2258 38.8036C54.2949 38.6694 54.331 38.5205 54.3311 38.3694V9.07238H56.1175L56.119 41.8604Z" fill="white"></path></svg>