<svg xmlns="http://www.w3.org/2000/svg" width="40" height="38" viewBox="0 0 40 38" fill="none"><path d="M25.4526 18.6299C25.5112 18.6297 25.5691 18.6176 25.6229 18.5943C25.6766 18.5709 25.725 18.5368 25.765 18.4941C25.8051 18.4513 25.836 18.4008 25.8558 18.3457C25.8756 18.2905 25.8839 18.2319 25.8803 18.1735L25.644 14.5797C28.1596 13.1314 29.6546 10.7856 29.6546 8.2583C29.6546 3.99791 25.414 0.531738 20.203 0.531738C14.9921 0.531738 10.7515 3.99881 10.7515 8.2583C10.7515 12.5178 14.9912 15.9849 20.203 15.9849C20.7966 15.9872 21.3896 15.9439 21.9765 15.8555L25.1804 18.5337C25.2573 18.5962 25.3535 18.6302 25.4526 18.6299V18.6299ZM24.9594 17.231L22.3728 15.0694C22.2958 15.0046 22.1984 14.9692 22.0978 14.9696C22.0735 14.9696 22.0492 14.9714 22.0251 14.975C21.4233 15.0789 20.8137 15.1309 20.203 15.1304C15.4638 15.1304 11.6077 12.0488 11.6077 8.2601C11.6077 4.47139 15.4638 1.39064 20.203 1.39064C24.9423 1.39064 28.7975 4.47229 28.7975 8.261C28.7975 10.5484 27.3762 12.6804 24.9953 13.9625C24.9231 14.0016 24.8636 14.0605 24.8238 14.1323C24.784 14.2041 24.7656 14.2857 24.7707 14.3677L24.9594 17.231Z" fill="#231F20" stroke="black" stroke-width="0.2"></path><path d="M25.627 5.67974C25.6268 5.56615 25.5816 5.45728 25.5013 5.37696C25.4209 5.29665 25.3121 5.25142 25.1985 5.25118H15.207C15.1491 5.24853 15.0913 5.25764 15.037 5.27796C14.9828 5.29827 14.9332 5.32938 14.8913 5.36939C14.8494 5.40941 14.8161 5.4575 14.7933 5.51076C14.7705 5.56403 14.7588 5.62136 14.7588 5.67929C14.7588 5.73722 14.7705 5.79455 14.7933 5.84781C14.8161 5.90107 14.8494 5.94916 14.8913 5.98918C14.9332 6.02919 14.9828 6.0603 15.037 6.08062C15.0913 6.10094 15.1491 6.11004 15.207 6.10739H25.1985C25.312 6.10739 25.4209 6.06236 25.5012 5.98219C25.5815 5.90201 25.6268 5.79324 25.627 5.67974V5.67974Z" fill="#231F20" stroke="black" stroke-width="0.2"></path><path d="M24.0643 7.83154H16.3377C16.2241 7.83154 16.1151 7.87669 16.0347 7.95706C15.9543 8.03743 15.9092 8.14644 15.9092 8.2601C15.9092 8.37376 15.9543 8.48276 16.0347 8.56313C16.1151 8.6435 16.2241 8.68865 16.3377 8.68865H24.0643C24.178 8.68865 24.287 8.6435 24.3673 8.56313C24.4477 8.48276 24.4929 8.37376 24.4929 8.2601C24.4929 8.14644 24.4477 8.03743 24.3673 7.95706C24.287 7.87669 24.178 7.83154 24.0643 7.83154V7.83154Z" fill="#231F20" stroke="black" stroke-width="0.2"></path><path d="M22.6475 10.4127H17.7582C17.7004 10.4101 17.6426 10.4192 17.5883 10.4395C17.5341 10.4598 17.4845 10.4909 17.4426 10.531C17.4007 10.571 17.3674 10.6191 17.3446 10.6723C17.3218 10.7256 17.3101 10.7829 17.3101 10.8408C17.3101 10.8988 17.3218 10.9561 17.3446 11.0094C17.3674 11.0626 17.4007 11.1107 17.4426 11.1507C17.4845 11.1907 17.5341 11.2219 17.5883 11.2422C17.6426 11.2625 17.7004 11.2716 17.7582 11.2689H22.6475C22.7577 11.2639 22.8616 11.2166 22.9378 11.1369C23.014 11.0571 23.0565 10.9511 23.0565 10.8408C23.0565 10.7306 23.014 10.6246 22.9378 10.5448C22.8616 10.4651 22.7577 10.4178 22.6475 10.4127Z" fill="#231F20" stroke="black" stroke-width="0.2"></path><path d="M10.3492 24.5793C11.3343 24.047 12.1137 23.2014 12.564 22.1762C13.0143 21.151 13.1098 20.0049 12.8353 18.9194C12.5608 17.8338 11.932 16.8709 11.0485 16.183C10.165 15.4951 9.07727 15.1216 7.95756 15.1216C6.83785 15.1216 5.75013 15.4951 4.86664 16.183C3.98314 16.8709 3.35436 17.8338 3.07985 18.9194C2.80534 20.0049 2.90079 21.151 3.35109 22.1762C3.80139 23.2014 4.5808 24.047 5.56592 24.5793C4.12033 24.9831 2.84634 25.8483 1.93805 27.0432C1.02975 28.2381 0.536934 29.6972 0.534668 31.1981V37.0379C0.534668 37.1516 0.579819 37.2606 0.660189 37.341C0.740559 37.4213 0.849563 37.4665 0.963223 37.4665C1.07688 37.4665 1.18589 37.4213 1.26626 37.341C1.34663 37.2606 1.39178 37.1516 1.39178 37.0379V31.1981C1.39321 29.6035 2.02729 28.0746 3.15486 26.947C4.28242 25.8195 5.81131 25.1854 7.40592 25.1839H8.50381C10.0987 25.1849 11.6281 25.8188 12.756 26.9464C13.884 28.074 14.5183 29.6032 14.5197 31.1981V37.0379C14.5197 37.1516 14.5649 37.2606 14.6453 37.341C14.7256 37.4213 14.8346 37.4665 14.9483 37.4665C15.062 37.4665 15.171 37.4213 15.2513 37.341C15.3317 37.2606 15.3769 37.1516 15.3769 37.0379V31.1981C15.3748 29.6976 14.8825 28.2389 13.9749 27.0441C13.0673 25.8493 11.7941 24.9837 10.3492 24.5793V24.5793ZM3.77982 20.15C3.77983 19.3239 4.02475 18.5163 4.48365 17.8293C4.94255 17.1424 5.59481 16.6069 6.35798 16.2906C7.12115 15.9743 7.96097 15.8914 8.77128 16.0523C9.58158 16.2132 10.326 16.6107 10.9104 17.1946C11.4948 17.7785 11.893 18.5226 12.0546 19.3328C12.2162 20.1429 12.134 20.9828 11.8183 21.7463C11.5027 22.5097 10.9678 23.1624 10.2812 23.6219C9.59465 24.0814 8.78728 24.327 7.96115 24.3277C6.85289 24.3275 5.79004 23.8874 5.00604 23.1041C4.22204 22.3207 3.78102 21.2583 3.77982 20.15Z" fill="#231F20" stroke="black" stroke-width="0.2"></path><path d="M4.27715 30.8C4.22084 30.7999 4.16506 30.8109 4.11301 30.8324C4.06096 30.8539 4.01367 30.8855 3.97385 30.9253C3.93403 30.9651 3.90247 31.0124 3.88097 31.0645C3.85948 31.1165 3.84848 31.1723 3.84859 31.2286V37.0388C3.84594 37.0967 3.85505 37.1545 3.87537 37.2087C3.89569 37.263 3.92679 37.3125 3.96681 37.3544C4.00682 37.3963 4.05491 37.4297 4.10818 37.4524C4.16144 37.4752 4.21877 37.487 4.2767 37.487C4.33463 37.487 4.39196 37.4752 4.44522 37.4524C4.49848 37.4297 4.54658 37.3963 4.58659 37.3544C4.6266 37.3125 4.65771 37.263 4.67803 37.2087C4.69835 37.1545 4.70746 37.0967 4.7048 37.0388V31.2286C4.70492 31.1724 4.69395 31.1167 4.67251 31.0647C4.65107 31.0127 4.61959 30.9654 4.57986 30.9256C4.54014 30.8858 4.49296 30.8542 4.44101 30.8327C4.38907 30.8111 4.33338 30.8 4.27715 30.8V30.8Z" fill="#231F20" stroke="black" stroke-width="0.2"></path><path d="M11.6443 30.8C11.588 30.7999 11.5322 30.8109 11.4802 30.8324C11.4281 30.8539 11.3809 30.8855 11.341 30.9253C11.3012 30.9651 11.2697 31.0124 11.2482 31.0645C11.2267 31.1165 11.2157 31.1723 11.2158 31.2286V37.0388C11.2131 37.0967 11.2222 37.1545 11.2426 37.2087C11.2629 37.263 11.294 37.3125 11.334 37.3544C11.374 37.3963 11.4221 37.4297 11.4754 37.4524C11.5286 37.4752 11.586 37.487 11.6439 37.487C11.7018 37.487 11.7591 37.4752 11.8124 37.4524C11.8657 37.4297 11.9138 37.3963 11.9538 37.3544C11.9938 37.3125 12.0249 37.263 12.0452 37.2087C12.0655 37.1545 12.0746 37.0967 12.072 37.0388V31.2286C12.0721 31.1724 12.0611 31.1167 12.0397 31.0647C12.0183 31.0127 11.9868 30.9654 11.9471 30.9256C11.9073 30.8858 11.8601 30.8542 11.8082 30.8327C11.7563 30.8111 11.7006 30.8 11.6443 30.8V30.8Z" fill="#231F20" stroke="black" stroke-width="0.2"></path><path d="M34.4342 24.5793C35.4193 24.047 36.1987 23.2014 36.649 22.1762C37.0993 21.151 37.1947 20.0049 36.9202 18.9194C36.6457 17.8338 36.0169 16.8709 35.1334 16.183C34.2499 15.4951 33.1622 15.1216 32.0425 15.1216C30.9228 15.1216 29.8351 15.4951 28.9516 16.183C28.0681 16.8709 27.4393 17.8338 27.1648 18.9194C26.8903 20.0049 26.9858 21.151 27.4361 22.1762C27.8864 23.2014 28.6658 24.047 29.6509 24.5793C28.2053 24.9831 26.9313 25.8483 26.023 27.0432C25.1147 28.2381 24.6219 29.6972 24.6196 31.1981V37.0379C24.6196 37.1516 24.6648 37.2606 24.7451 37.341C24.8255 37.4213 24.9345 37.4665 25.0482 37.4665C25.1618 37.4665 25.2708 37.4213 25.3512 37.341C25.4316 37.2606 25.4767 37.1516 25.4767 37.0379V31.1981C25.4782 29.6035 26.1123 28.0746 27.2398 26.947C28.3674 25.8195 29.8963 25.1854 31.4909 25.1839H32.5888C34.1834 25.1854 35.7123 25.8195 36.8398 26.947C37.9674 28.0746 38.6015 29.6035 38.6029 31.1981V37.0379C38.6029 37.1516 38.6481 37.2606 38.7284 37.341C38.8088 37.4213 38.9178 37.4665 39.0315 37.4665C39.1451 37.4665 39.2541 37.4213 39.3345 37.341C39.4149 37.2606 39.46 37.1516 39.46 37.0379V31.1981C39.4581 29.6979 38.966 28.2393 38.0588 27.0445C37.1515 25.8497 35.8787 24.9841 34.4342 24.5793V24.5793ZM27.8648 20.15C27.8648 19.3236 28.1099 18.5157 28.5691 17.8286C29.0283 17.1415 29.681 16.606 30.4446 16.2899C31.2082 15.9738 32.0484 15.8913 32.8589 16.0528C33.6694 16.2143 34.4138 16.6125 34.9979 17.1972C35.582 17.7818 35.9796 18.5265 36.1404 19.3372C36.3012 20.1478 36.218 20.9879 35.9012 21.7512C35.5845 22.5146 35.0484 23.1668 34.3609 23.6254C33.6734 24.084 32.8654 24.3284 32.0389 24.3277C30.9319 24.3256 29.8709 23.8846 29.0885 23.1015C28.306 22.3184 27.866 21.257 27.8648 20.15Z" fill="#231F20" stroke="black" stroke-width="0.2"></path><path d="M28.3554 30.8C28.2991 30.8 28.2434 30.8111 28.1915 30.8327C28.1395 30.8542 28.0924 30.8858 28.0526 30.9256C28.0129 30.9654 27.9814 31.0127 27.96 31.0647C27.9386 31.1167 27.9276 31.1724 27.9277 31.2286V37.0388C27.925 37.0967 27.9342 37.1545 27.9545 37.2087C27.9748 37.263 28.0059 37.3125 28.0459 37.3544C28.0859 37.3963 28.134 37.4297 28.1873 37.4524C28.2405 37.4752 28.2979 37.487 28.3558 37.487C28.4137 37.487 28.4711 37.4752 28.5243 37.4524C28.5776 37.4297 28.6257 37.3963 28.6657 37.3544C28.7057 37.3125 28.7368 37.263 28.7571 37.2087C28.7774 37.1545 28.7866 37.0967 28.7839 37.0388V31.2286C28.784 31.1723 28.773 31.1165 28.7515 31.0645C28.73 31.0124 28.6985 30.9651 28.6586 30.9253C28.6188 30.8855 28.5715 30.8539 28.5195 30.8324C28.4674 30.8109 28.4117 30.7999 28.3554 30.8V30.8Z" fill="#231F20" stroke="black" stroke-width="0.2"></path><path d="M35.7269 30.8C35.6707 30.8 35.615 30.8111 35.5631 30.8327C35.5111 30.8542 35.4639 30.8858 35.4242 30.9256C35.3845 30.9654 35.353 31.0127 35.3316 31.0647C35.3101 31.1167 35.2992 31.1724 35.2993 31.2286V37.0388C35.2966 37.0967 35.3057 37.1545 35.3261 37.2087C35.3464 37.263 35.3775 37.3125 35.4175 37.3544C35.4575 37.3963 35.5056 37.4297 35.5589 37.4524C35.6121 37.4752 35.6695 37.487 35.7274 37.487C35.7853 37.487 35.8426 37.4752 35.8959 37.4524C35.9492 37.4297 35.9973 37.3963 36.0373 37.3544C36.0773 37.3125 36.1084 37.263 36.1287 37.2087C36.149 37.1545 36.1581 37.0967 36.1555 37.0388V31.2286C36.1556 31.1723 36.1446 31.1165 36.1231 31.0645C36.1016 31.0124 36.0701 30.9651 36.0302 30.9253C35.9904 30.8855 35.9431 30.8539 35.8911 30.8324C35.839 30.8109 35.7832 30.7999 35.7269 30.8Z" fill="#231F20" stroke="black" stroke-width="0.2"></path></svg>