<svg xmlns="http://www.w3.org/2000/svg" width="33" height="33" viewBox="0 0 33 33" fill="none"><path d="M13.9605 6.92226C14.2441 7.70859 14.6824 8.27578 15.2625 8.59804C15.6363 8.80429 16.0617 8.92031 16.4742 8.92031C16.4871 8.92031 16.5 8.92031 16.5258 8.92031C16.9512 8.92031 17.3766 8.80429 17.7504 8.59804C18.3305 8.26289 18.7688 7.70859 19.0523 6.92226C19.2844 6.29062 19.568 5.45273 19.6195 4.57617C19.684 3.62226 19.3875 2.71992 18.8074 2.11406C18.2402 1.52109 17.4152 1.19882 16.5258 1.2375C15.6105 1.21172 14.7855 1.52109 14.2184 2.11406C13.6383 2.71992 13.3289 3.62226 13.4063 4.57617C13.4449 5.45273 13.7285 6.29062 13.9605 6.92226ZM15.082 2.95195C15.4172 2.6039 15.907 2.42343 16.5129 2.44922C17.0801 2.42343 17.5828 2.61679 17.9051 2.95195C18.2531 3.31289 18.4207 3.86718 18.382 4.48593C18.3305 5.20781 18.0855 5.94258 17.8793 6.49687C17.6988 6.99961 17.441 7.34765 17.1188 7.52812C16.9254 7.63125 16.6934 7.68281 16.4742 7.6957C16.2551 7.6957 16.0359 7.64414 15.8426 7.52812C15.5203 7.34765 15.2625 6.99961 15.082 6.49687C14.8758 5.94258 14.6309 5.20781 14.5793 4.48593C14.5664 3.86718 14.734 3.31289 15.082 2.95195Z" fill="black"></path><path d="M22.352 12.2461C22.1973 11.3824 21.6172 10.6734 20.8051 10.3512C19.8641 9.96445 18.5621 9.39727 18.5621 9.39727L18.2398 9.25547L17.9563 9.46172C17.9563 9.46172 17.8402 9.55195 17.75 9.60352C17.5309 9.74531 17.2988 9.83555 17.0539 9.9C16.9121 9.93867 16.7703 9.95156 16.6543 9.95156H16.3449C16.216 9.95156 16.0871 9.92578 15.9324 9.88711C15.6875 9.83555 15.4555 9.73242 15.2234 9.57773C15.159 9.53906 15.043 9.44883 15.043 9.44883L14.7207 9.2168L14.3727 9.41016C14.3598 9.41016 14.3211 9.43594 14.2695 9.46172C13.9086 9.6293 12.9676 10.016 12.1941 10.3383C11.382 10.6734 10.8148 11.3824 10.6602 12.2332L10.209 14.6051H22.816L22.352 12.2461ZM11.6656 13.3934L11.8461 12.4652C11.9234 12.0141 12.2328 11.6402 12.6453 11.4727C12.9934 11.3309 14.0633 10.8926 14.6176 10.6477C14.9527 10.8539 15.3008 10.9957 15.6617 11.0859C15.8809 11.1375 16.1 11.1633 16.3449 11.1762H16.693C16.8992 11.1633 17.1184 11.1375 17.3375 11.0859C17.7113 10.9957 18.0723 10.8539 18.3816 10.6477C18.3816 10.6477 18.3945 10.6477 18.3945 10.6348C18.8457 10.8281 19.6836 11.1891 20.3539 11.4598C20.7793 11.6402 21.0758 12.0012 21.166 12.4523L21.3465 13.3805H11.6656V13.3934Z" fill="black"></path><path d="M4.67949 24.0797C4.96309 24.866 5.40137 25.4332 5.98145 25.7555C6.35528 25.9617 6.78067 26.0777 7.19317 26.0777C7.20606 26.0777 7.21895 26.0777 7.23184 26.0777C7.65723 26.0777 8.08262 25.9617 8.45645 25.7555C9.03653 25.4203 9.47481 24.866 9.7584 24.0797C9.99043 23.448 10.274 22.6101 10.3256 21.7336C10.39 20.7797 10.0936 19.8773 9.51348 19.2715C8.94629 18.6785 8.12129 18.3562 7.23184 18.3949C6.3166 18.3562 5.4916 18.6785 4.92442 19.2715C4.34434 19.8773 4.03496 20.7797 4.11231 21.7336C4.17676 22.6101 4.44746 23.448 4.67949 24.0797ZM5.80098 20.1094C6.11035 19.7742 6.58731 19.6066 7.15449 19.6066C7.18028 19.6066 7.20606 19.6066 7.23184 19.6066C7.56699 19.5937 8.18574 19.6453 8.62403 20.1094C8.97207 20.4703 9.13965 21.0246 9.10098 21.6433C9.04942 22.3781 8.80449 23.1 8.59824 23.6543C8.41778 24.157 8.15996 24.5051 7.8377 24.6855C7.64434 24.7887 7.4252 24.8402 7.19317 24.8531C6.97403 24.8531 6.75489 24.8016 6.56153 24.6855C6.23926 24.5051 5.98145 24.157 5.80098 23.6543C5.59473 23.1 5.34981 22.3652 5.29824 21.6433C5.28535 21.0246 5.45293 20.4703 5.80098 20.1094Z" fill="black"></path><path d="M11.5371 27.5086C10.5961 27.1219 9.29414 26.5547 9.29414 26.5547L8.97187 26.4129L8.68828 26.632C8.68828 26.632 8.57227 26.7223 8.48203 26.7738C8.26289 26.9156 8.03086 27.0059 7.78594 27.0703C7.63125 27.109 7.50234 27.1219 7.38633 27.1219C7.34766 27.1219 7.30898 27.1219 7.25742 27.1219H7.21875H7.18008C7.14141 27.1219 7.10273 27.1219 7.06406 27.1219C6.93516 27.1219 6.80625 27.0961 6.65156 27.0574C6.40664 27.0059 6.17461 26.9027 5.94258 26.7481C5.87812 26.7094 5.76211 26.6192 5.74922 26.6192L5.46563 26.4129L5.14336 26.5547C5.14336 26.5547 3.84141 27.1219 2.90039 27.5086C2.08828 27.8438 1.52109 28.5527 1.35352 29.4035L0.902344 31.7754H13.5094L13.0582 29.4035C12.9164 28.5399 12.3492 27.8309 11.5371 27.5086ZM2.38477 30.5508L2.56523 29.6227C2.64258 29.1715 2.95195 28.7977 3.36445 28.6301C4.03477 28.3594 4.87266 27.9984 5.32383 27.8051C5.65898 28.0113 6.00703 28.166 6.38086 28.2434C6.61289 28.2949 6.81914 28.3207 7.06406 28.3336C7.11562 28.3336 7.16719 28.3336 7.21875 28.3336C7.27031 28.3336 7.32188 28.3336 7.41211 28.3336C7.61836 28.3336 7.8375 28.2949 8.05664 28.2434C8.43047 28.1531 8.79141 28.0113 9.10078 27.8051C9.10078 27.8051 9.11367 27.8051 9.11367 27.7922C9.56484 27.9856 10.4027 28.3465 11.073 28.6172C11.4984 28.7848 11.7949 29.1586 11.8852 29.6098L12.0656 30.5379H2.38477V30.5508Z" fill="black"></path><path d="M22.662 21.7207C22.7265 22.5973 22.9972 23.4352 23.2292 24.0668C23.5128 24.8531 23.9511 25.4203 24.5311 25.7426C24.905 25.9488 25.3304 26.0648 25.7429 26.0648C25.7557 26.0648 25.7557 26.0648 25.7686 26.0648C26.194 26.0648 26.6323 25.9617 27.019 25.7426C27.5991 25.4074 28.0374 24.8531 28.321 24.0668C28.553 23.4352 28.8366 22.5973 28.8882 21.7207C28.9526 20.7668 28.6561 19.8644 28.0761 19.2586C27.5089 18.6656 26.6839 18.3434 25.7944 18.382C24.8792 18.3434 24.0542 18.6656 23.487 19.2586C22.894 19.8773 22.5975 20.7668 22.662 21.7207ZM24.3636 20.1094C24.8147 19.6453 25.4335 19.5937 25.7944 19.6066C26.3616 19.5937 26.8643 19.7742 27.1866 20.1094C27.5347 20.4703 27.7022 21.0246 27.6636 21.6434C27.612 22.3781 27.3671 23.1 27.1608 23.6543C26.9804 24.157 26.7225 24.5051 26.4003 24.6855C26.2069 24.7887 25.9749 24.8402 25.7557 24.8531C25.5366 24.8531 25.3175 24.8016 25.1241 24.6855C24.8018 24.5051 24.544 24.157 24.3636 23.6543C24.1573 23.1 23.9124 22.3652 23.8608 21.6434C23.835 21.0246 24.0155 20.4703 24.3636 20.1094Z" fill="black"></path><path d="M31.6338 29.4035C31.4791 28.5528 30.899 27.8309 30.0869 27.5086C29.1459 27.1219 27.8439 26.5547 27.8439 26.5547L27.5217 26.4129L27.2381 26.6192C27.2381 26.6192 27.1221 26.7094 27.0318 26.761C26.8127 26.9028 26.5807 26.993 26.3357 27.0574C26.1811 27.0961 26.0521 27.109 25.9361 27.109C25.8975 27.109 25.8588 27.109 25.8072 27.109H25.7686H25.7299C25.6912 27.109 25.6525 27.109 25.6139 27.109C25.485 27.109 25.3561 27.0832 25.2014 27.0446C24.9564 26.993 24.7244 26.8899 24.4924 26.7352C24.4279 26.6965 24.3119 26.6063 24.299 26.6063L24.0154 26.4L23.6932 26.5418C23.6932 26.5418 22.3912 27.109 21.4502 27.4957C20.6381 27.8309 20.0709 28.5399 19.9033 29.3906L19.4521 31.7625H32.0592L31.6338 29.4035ZM20.9475 30.5508L21.1279 29.6227C21.2053 29.1715 21.5146 28.7977 21.9271 28.6301C22.5975 28.3594 23.4354 27.9985 23.8865 27.8051C24.2217 28.0114 24.5697 28.166 24.9436 28.2434C25.1756 28.2949 25.3818 28.3207 25.6268 28.3336C25.6783 28.3336 25.7299 28.3336 25.7814 28.3336C25.833 28.3336 25.8975 28.3336 25.9748 28.3336C26.1811 28.3336 26.4002 28.2949 26.6193 28.2434C26.9932 28.1531 27.3541 28.0114 27.6635 27.8051C27.6635 27.8051 27.6764 27.8051 27.6764 27.7922C28.1275 27.9856 28.9654 28.3465 29.6357 28.6172C30.0611 28.7977 30.3576 29.1586 30.4479 29.6098L30.6283 30.5379H20.9475V30.5508Z" fill="black"></path><path d="M19.7355 24.0668C19.9418 24.0668 20.1351 23.9637 20.2511 23.7832C20.4316 23.4996 20.3414 23.1258 20.0578 22.9453L17.1187 21.102L17.0929 17.5957C17.0929 17.2606 16.8222 16.9899 16.4871 16.9899C16.1519 16.9899 15.8812 17.2606 15.8812 17.6086L15.907 21.0762L12.9293 22.9324C12.6457 23.1129 12.5554 23.4867 12.7359 23.7703C12.8519 23.9508 13.0453 24.0539 13.2515 24.0539C13.3675 24.0539 13.4707 24.0281 13.5738 23.9637L16.5 22.1461L19.4132 23.9766C19.5164 24.0282 19.6324 24.0668 19.7355 24.0668Z" fill="black"></path></svg>