<svg xmlns="http://www.w3.org/2000/svg" width="42" height="42" viewBox="0 0 42 42" fill="none"><path d="M35 5.25H7C6.0335 5.25 5.25 6.0335 5.25 7V10.5C5.25 11.4665 6.0335 12.25 7 12.25H35C35.9665 12.25 36.75 11.4665 36.75 10.5V7C36.75 6.0335 35.9665 5.25 35 5.25Z" stroke="white" stroke-width="2" stroke-linecap="round" stroke-linejoin="round"></path><path d="M21 31.5C24.866 31.5 28 28.366 28 24.5C28 20.634 24.866 17.5 21 17.5C17.134 17.5 14 20.634 14 24.5C14 28.366 17.134 31.5 21 31.5Z" stroke="white" stroke-width="2" stroke-linecap="round" stroke-linejoin="round"></path><path d="M33.25 12.25V24.5C33.25 27.7489 31.9594 30.8647 29.6621 33.1621C27.3647 35.4594 24.2489 36.75 21 36.75C17.7511 36.75 14.6353 35.4594 12.3379 33.1621C10.0406 30.8647 8.75 27.7489 8.75 24.5V12.25" stroke="white" stroke-width="2" stroke-linecap="round" stroke-linejoin="round"></path><path d="M21 24.5H21.0171" stroke="white" stroke-width="2" stroke-linecap="round" stroke-linejoin="round"></path></svg>