<svg xmlns="http://www.w3.org/2000/svg" width="36" height="40" viewBox="0 0 36 40" fill="none"><path d="M19.4579 21.5005H17.9985V24.5004H19.4579V21.5005Z" fill="white"></path><path d="M21.8904 21.5005H20.431V24.5004H21.8904V21.5005Z" fill="white"></path><path d="M19.9446 27.2193L21.3383 25.5004H18.5509L19.9446 27.2193Z" fill="white"></path><path d="M19.9445 7.50073C18.5949 7.50057 17.2869 7.98106 16.2431 8.86045C15.1994 9.73984 14.4843 10.9638 14.2197 12.324C13.955 13.6842 14.1571 15.0967 14.7915 16.321C15.4259 17.5454 16.4535 18.506 17.6994 19.0393C17.788 19.0773 17.8637 19.1413 17.917 19.2235C17.9702 19.3056 17.9986 19.402 17.9987 19.5007V20.5005H19.458V18.2076L17.6547 16.354C17.5661 16.2597 17.5171 16.1334 17.5182 16.0024C17.5193 15.8713 17.5705 15.7459 17.6607 15.6531C17.7509 15.5604 17.8729 15.5079 18.0004 15.5067C18.128 15.5056 18.2508 15.556 18.3426 15.6471L19.9445 17.2935L21.5464 15.6471C21.6381 15.556 21.761 15.5056 21.8885 15.5067C22.0161 15.5079 22.1381 15.5604 22.2283 15.6531C22.3185 15.7459 22.3696 15.8713 22.3707 16.0024C22.3718 16.1334 22.3228 16.2597 22.2342 16.354L20.4309 18.2076V20.5005H21.8903V19.5007C21.8903 19.402 21.9187 19.3056 21.972 19.2235C22.0252 19.1413 22.1009 19.0773 22.1895 19.0393C23.4354 18.506 24.463 17.5454 25.0974 16.321C25.7319 15.0967 25.9339 13.6842 25.6693 12.324C25.4046 10.9638 24.6896 9.73984 23.6458 8.86045C22.602 7.98106 21.2941 7.50057 19.9445 7.50073Z" fill="white"></path><path d="M23.4664 32.6002C26.4112 31.9198 29.1098 30.4 31.2526 28.2151C33.3953 26.0302 34.8954 23.2687 35.5807 20.2474C36.266 17.2262 36.1088 14.0675 35.1271 11.1339C34.1454 8.2003 32.3789 5.61056 30.0304 3.66182C27.6819 1.71308 24.8465 0.484289 21.8495 0.116427C18.8525 -0.251436 15.8153 0.256533 13.0864 1.58205C10.3574 2.90757 8.04734 4.99695 6.42112 7.61045C4.7949 10.224 3.91843 13.2557 3.89227 16.3579L0.072102 22.7384C0.0267686 22.8142 0.00191591 22.901 0.000106401 22.9899C-0.00170311 23.0788 0.0195961 23.1666 0.0618079 23.2443C0.10402 23.3219 0.165616 23.3866 0.240245 23.4316C0.314874 23.4766 0.399835 23.5003 0.486366 23.5004H3.89154V28.5002C3.89282 29.6933 4.3545 30.8371 5.17527 31.6807C5.99604 32.5243 7.10887 32.9988 8.26962 33.0001H14.1071C14.2361 33.0001 14.3598 33.0528 14.451 33.1466C14.5423 33.2404 14.5935 33.3675 14.5935 33.5001C14.5935 33.6327 14.5423 33.7599 14.451 33.8537C14.3598 33.9475 14.2361 34.0001 14.1071 34.0001H9.24252V39.5C9.24252 39.6326 9.29377 39.7598 9.385 39.8536C9.47623 39.9473 9.59996 40 9.72897 40H27.2413C27.3703 40 27.494 39.9473 27.5853 39.8536C27.6765 39.7598 27.7277 39.6326 27.7277 39.5V32.0602C26.4474 32.7413 25.0871 33.2505 23.6804 33.5751C23.6174 33.5919 23.5516 33.5955 23.4872 33.5857C23.4227 33.5758 23.3609 33.5528 23.3052 33.5179C23.2496 33.483 23.2014 33.437 23.1634 33.3826C23.1254 33.3282 23.0984 33.2665 23.0841 33.2011C23.0697 33.1358 23.0683 33.0682 23.0799 33.0023C23.0915 32.9364 23.1158 32.8735 23.1515 32.8175C23.1871 32.7614 23.2334 32.7133 23.2875 32.676C23.3416 32.6386 23.4024 32.6128 23.4664 32.6002V32.6002ZM24.6679 21.0654C24.6206 21.1095 24.5663 21.145 24.5074 21.1704C24.4489 21.196 24.3861 21.2096 24.3226 21.2104C24.2264 21.21 24.1324 21.1804 24.0525 21.1254C23.9726 21.0703 23.9103 20.9922 23.8734 20.9009C23.8365 20.8096 23.8267 20.7091 23.8451 20.612C23.8636 20.515 23.9095 20.4257 23.9772 20.3554C24.0455 20.2859 24.1324 20.2388 24.2268 20.2201C24.3212 20.2014 24.4189 20.212 24.5074 20.2504C24.5664 20.2757 24.6207 20.3112 24.6679 20.3554C24.7119 20.4033 24.7465 20.4593 24.7701 20.5204C24.7951 20.5805 24.8083 20.6451 24.809 20.7104C24.807 20.8428 24.7567 20.9695 24.6679 21.0654ZM26.1808 19.8154C26.1362 19.8632 26.0825 19.9011 26.0231 19.9269C25.9638 19.9527 25.8999 19.9658 25.8354 19.9654C25.772 19.9668 25.709 19.9546 25.6504 19.9296C25.5918 19.9047 25.5388 19.8675 25.4949 19.8204C25.4266 19.7512 25.3798 19.6627 25.3604 19.5661C25.341 19.4695 25.3499 19.3692 25.386 19.2778C25.422 19.1865 25.4837 19.1081 25.5631 19.0528C25.6425 18.9974 25.7361 18.9674 25.832 18.9667C25.9279 18.9661 26.0219 18.9946 26.1021 19.0488C26.1822 19.103 26.2449 19.1805 26.2823 19.2713C26.3196 19.3621 26.3299 19.4623 26.3119 19.5592C26.2938 19.656 26.2482 19.7452 26.1808 19.8154V19.8154ZM27.4407 18.1555C27.3969 18.229 27.3353 18.2897 27.2621 18.3317C27.1888 18.3737 27.1063 18.3957 27.0224 18.3955C26.9345 18.3947 26.8486 18.3687 26.7743 18.3205C26.7191 18.2872 26.6709 18.243 26.6326 18.1903C26.5942 18.1376 26.5665 18.0776 26.5511 18.0138C26.5357 17.95 26.5329 17.8836 26.5428 17.8186C26.5527 17.7537 26.5752 17.6914 26.6089 17.6355C26.6421 17.5793 26.6858 17.5305 26.7374 17.4917C26.7889 17.4529 26.8475 17.4249 26.9096 17.4093C26.9717 17.3938 27.0362 17.391 27.0993 17.401C27.1625 17.4111 27.2232 17.4338 27.2778 17.468C27.3324 17.5021 27.3799 17.547 27.4177 17.6C27.4554 17.653 27.4826 17.7132 27.4978 17.777C27.5129 17.8409 27.5157 17.9071 27.5059 17.9721C27.4961 18.037 27.4739 18.0993 27.4407 18.1555V18.1555ZM28.292 16.2355C28.2594 16.3362 28.1967 16.4238 28.1129 16.4857C28.029 16.5477 27.9283 16.5808 27.825 16.5805C27.7757 16.5813 27.7265 16.5746 27.6791 16.5605C27.5867 16.5312 27.5049 16.4742 27.4441 16.397C27.3832 16.3197 27.3461 16.2256 27.3374 16.1266C27.3288 16.0277 27.3489 15.9283 27.3953 15.8411C27.4417 15.7539 27.5123 15.6828 27.5981 15.637C27.6839 15.5911 27.781 15.5725 27.8771 15.5836C27.9732 15.5946 28.064 15.6347 28.1378 15.6989C28.2117 15.763 28.2653 15.8483 28.2919 15.9438C28.3185 16.0394 28.3168 16.1409 28.2872 16.2355H28.292ZM28.1947 14.6255H28.1558C28.0239 14.6203 27.8993 14.5621 27.8087 14.4634C27.7181 14.3648 27.6688 14.2335 27.6714 14.0979C27.6739 13.9622 27.7281 13.8331 27.8223 13.7381C27.9166 13.6431 28.0433 13.5898 28.1753 13.5898C28.3073 13.5898 28.434 13.6431 28.5282 13.7381C28.6224 13.8331 28.6766 13.9622 28.6792 14.0979C28.6817 14.2335 28.6324 14.3648 28.5418 14.4634C28.4512 14.5621 28.3266 14.6203 28.1947 14.6255ZM28.5888 12.0606C28.5992 12.1253 28.597 12.1916 28.5823 12.2554C28.5675 12.3193 28.5406 12.3795 28.503 12.4325C28.4655 12.4855 28.418 12.5304 28.3634 12.5644C28.3088 12.5984 28.2481 12.6209 28.185 12.6306C28.1594 12.6364 28.1334 12.6397 28.1072 12.6406C27.9913 12.6407 27.8793 12.5978 27.7917 12.5198C27.7041 12.4418 27.6468 12.334 27.6304 12.216V12.2206V12.2156V12.2161C27.6205 12.1515 27.6231 12.0854 27.638 12.0218C27.6529 11.9581 27.6798 11.8981 27.7173 11.8451C27.7548 11.7922 27.802 11.7473 27.8563 11.7131C27.9107 11.6789 27.971 11.6561 28.0339 11.6459C28.0969 11.6357 28.1611 11.6383 28.2231 11.6536C28.285 11.6689 28.3434 11.6966 28.3949 11.7351C28.4464 11.7736 28.4901 11.8222 28.5233 11.878C28.5566 11.9339 28.5788 11.9959 28.5888 12.0606ZM27.3921 9.76064C27.5114 9.70959 27.6456 9.70935 27.7651 9.75999C27.8846 9.81062 27.9797 9.90798 28.0293 10.0306C28.079 10.1533 28.0792 10.2912 28.03 10.414C27.9807 10.5369 27.886 10.6346 27.7667 10.6856C27.7064 10.7109 27.642 10.7245 27.5769 10.7256C27.4644 10.7248 27.3556 10.6841 27.2689 10.6103C27.1822 10.5365 27.123 10.4342 27.1012 10.3207C27.0795 10.2072 27.0965 10.0895 27.1495 9.9874C27.2026 9.88534 27.2882 9.80524 27.3921 9.76064V9.76064ZM26.3365 8.08568C26.3882 8.04582 26.447 8.01691 26.5097 8.00064C26.5723 7.98437 26.6375 7.98106 26.7014 7.9909C26.7653 8.00074 26.8266 8.02353 26.8819 8.05796C26.9371 8.09239 26.9851 8.13776 27.0232 8.19143C27.0612 8.24511 27.0885 8.30602 27.1034 8.37063C27.1184 8.43524 27.1207 8.50225 27.1102 8.56778C27.0997 8.6333 27.0766 8.69603 27.0424 8.75232C27.0081 8.80861 26.9633 8.85733 26.9105 8.89566C26.829 8.95803 26.73 8.99138 26.6284 8.99066C26.5515 8.99142 26.4756 8.9732 26.407 8.93753C26.3385 8.90185 26.2792 8.84977 26.2343 8.78566C26.1578 8.67882 26.1256 8.54518 26.1448 8.41399C26.1639 8.28281 26.2329 8.16476 26.3365 8.08568V8.08568ZM24.9404 6.70571C24.9818 6.65564 25.0324 6.61449 25.0894 6.58461C25.1463 6.55473 25.2084 6.53672 25.2722 6.53161C25.3359 6.5265 25.4 6.53439 25.4608 6.55483C25.5216 6.57527 25.5778 6.60785 25.6263 6.65071C25.6994 6.71499 25.7523 6.8001 25.7783 6.8953C25.8044 6.99049 25.8024 7.09148 25.7726 7.18551C25.7428 7.27953 25.6866 7.36236 25.611 7.42353C25.5354 7.4847 25.4438 7.52145 25.3479 7.52914C25.252 7.53683 25.156 7.51512 25.0721 7.46674C24.9882 7.41837 24.9201 7.3455 24.8765 7.25736C24.8329 7.16923 24.8157 7.06977 24.827 6.97158C24.8384 6.87338 24.8778 6.78086 24.9404 6.70571ZM23.267 5.69573C23.3067 5.61698 23.366 5.5505 23.4389 5.50311C23.5119 5.45572 23.5958 5.42912 23.682 5.42604C23.7682 5.42296 23.8537 5.44351 23.9297 5.48559C24.0056 5.52767 24.0693 5.58975 24.1143 5.66548C24.1592 5.74121 24.1837 5.82785 24.1853 5.91653C24.1869 6.0052 24.1655 6.09271 24.1233 6.17009C24.0811 6.24746 24.0197 6.31192 23.9453 6.35684C23.8709 6.40176 23.7862 6.42553 23.6999 6.42571C23.6223 6.42482 23.5458 6.40602 23.4761 6.37071C23.3615 6.30954 23.2751 6.20416 23.2359 6.07764C23.1967 5.95112 23.2078 5.81379 23.267 5.69573V5.69573ZM21.4087 5.12074C21.4296 5.02892 21.4753 4.94502 21.5405 4.8787C21.6057 4.81237 21.6878 4.76632 21.7774 4.74583C21.8669 4.72534 21.9603 4.73124 22.0467 4.76287C22.1332 4.7945 22.2092 4.85055 22.266 4.9246C22.3228 4.99865 22.3581 5.08767 22.3679 5.18143C22.3777 5.2752 22.3615 5.36989 22.3212 5.45463C22.281 5.53936 22.2183 5.6107 22.1403 5.66042C22.0623 5.71015 21.9723 5.73625 21.8806 5.73573C21.8428 5.7354 21.8053 5.73036 21.7687 5.72073C21.7067 5.7057 21.6482 5.67825 21.5965 5.63995C21.5448 5.60164 21.501 5.55324 21.4676 5.4975C21.4341 5.44177 21.4117 5.3798 21.4016 5.31515C21.3915 5.2505 21.3939 5.18443 21.4087 5.12074V5.12074ZM19.9591 4.50075C20.0553 4.50075 20.1493 4.53008 20.2293 4.58502C20.3093 4.63996 20.3717 4.71805 20.4085 4.80941C20.4453 4.90077 20.455 5.0013 20.4362 5.09829C20.4174 5.19528 20.3711 5.28437 20.3031 5.35429C20.235 5.42421 20.1483 5.47183 20.054 5.49113C19.9596 5.51042 19.8618 5.50052 19.7729 5.46267C19.684 5.42483 19.6081 5.36075 19.5546 5.27852C19.5012 5.1963 19.4726 5.09963 19.4726 5.00074C19.473 4.86826 19.5244 4.7413 19.6155 4.64762C19.7067 4.55394 19.8302 4.50114 19.9591 4.50075V4.50075ZM17.9257 4.74075C18.0515 4.71091 18.1837 4.73366 18.2931 4.80398C18.4026 4.87431 18.4804 4.98645 18.5095 5.11574C18.5385 5.24503 18.5164 5.38088 18.4479 5.4934C18.3795 5.60592 18.2704 5.68589 18.1446 5.71573C18.1082 5.72596 18.0705 5.731 18.0327 5.73073C17.9131 5.73011 17.7979 5.68433 17.7089 5.6021C17.62 5.51987 17.5636 5.40691 17.5504 5.28472C17.5372 5.16252 17.5681 5.03959 17.6373 4.9393C17.7065 4.83901 17.8091 4.76835 17.9257 4.74075V4.74075ZM15.9945 5.46573C16.0515 5.43353 16.1143 5.41342 16.1791 5.40661C16.2438 5.39979 16.3092 5.4064 16.3715 5.42604C16.4337 5.44569 16.4914 5.47797 16.5413 5.52097C16.5912 5.56397 16.6321 5.61683 16.6618 5.6764C16.6914 5.73597 16.7091 5.80105 16.7138 5.86777C16.7185 5.9345 16.7102 6.00153 16.6892 6.06487C16.6683 6.12822 16.6352 6.1866 16.5919 6.23656C16.5486 6.28652 16.496 6.32704 16.4372 6.35571C16.3698 6.39261 16.2946 6.41152 16.2183 6.41071C16.1087 6.41155 16.0021 6.37433 15.9157 6.3051C15.8294 6.23587 15.7683 6.13868 15.7424 6.02928C15.7165 5.91989 15.7273 5.80471 15.773 5.70242C15.8188 5.60013 15.8968 5.51673 15.9945 5.46573V5.46573ZM14.287 6.63071C14.3358 6.58741 14.3924 6.55448 14.4536 6.53384C14.5148 6.51319 14.5794 6.50525 14.6437 6.51046C14.7079 6.51567 14.7705 6.53393 14.8278 6.56419C14.8851 6.59445 14.936 6.6361 14.9775 6.68673C15.0191 6.73736 15.0504 6.79596 15.0697 6.85913C15.0891 6.9223 15.096 6.98878 15.0901 7.05473C15.0843 7.12068 15.0657 7.18478 15.0356 7.2433C15.0055 7.30183 14.9643 7.35363 14.9146 7.39569C14.8281 7.47211 14.7172 7.51306 14.6032 7.51069C14.5033 7.51183 14.4054 7.48117 14.3231 7.42291C14.2408 7.36465 14.178 7.28164 14.1433 7.18526C14.1087 7.08888 14.1039 6.98385 14.1297 6.88457C14.1554 6.78529 14.2104 6.69662 14.287 6.63071ZM12.8861 8.17068C12.9637 8.06583 13.0784 7.99654 13.2053 7.97773C13.3322 7.95892 13.4612 7.9921 13.5646 8.07012C13.6679 8.14814 13.7373 8.26476 13.7578 8.39486C13.7783 8.52495 13.7482 8.65812 13.6741 8.76566H13.6692C13.624 8.82781 13.5652 8.87825 13.4977 8.91297C13.4301 8.94769 13.3556 8.96573 13.2801 8.96566C13.1769 8.96722 13.076 8.93384 12.9931 8.87066C12.889 8.79206 12.8194 8.67441 12.7994 8.54331C12.7793 8.41221 12.8105 8.27828 12.8861 8.17068V8.17068ZM11.8742 10.0006C11.9086 9.91754 11.9642 9.84556 12.0351 9.79235C12.1061 9.73914 12.1898 9.70668 12.2772 9.69843C12.3647 9.69019 12.4527 9.70645 12.5319 9.7455C12.6111 9.78455 12.6785 9.84493 12.727 9.92022C12.7755 9.99551 12.8032 10.0829 12.8073 10.1731C12.8113 10.2633 12.7915 10.3529 12.7499 10.4324C12.7083 10.512 12.6466 10.5784 12.5712 10.6248C12.4958 10.6711 12.4096 10.6956 12.3218 10.6956C12.2564 10.6968 12.1917 10.6831 12.1321 10.6556C12.073 10.6304 12.0194 10.5934 11.9743 10.5467C11.9293 10.5 11.8937 10.4446 11.8698 10.3836C11.8458 10.3226 11.8338 10.2574 11.8346 10.1917C11.8353 10.1259 11.8488 10.061 11.8742 10.0006V10.0006ZM11.8645 11.6156C11.9847 11.6365 12.093 11.7029 12.1679 11.8018C12.2429 11.9007 12.279 12.0248 12.2692 12.1498C12.2595 12.2747 12.2045 12.3913 12.1151 12.4766C12.0258 12.5619 11.9086 12.6097 11.7867 12.6106C11.7589 12.6098 11.7312 12.6065 11.704 12.6006C11.6411 12.5897 11.5808 12.5663 11.5267 12.5315C11.4726 12.4968 11.4257 12.4514 11.3887 12.398C11.3516 12.3446 11.3252 12.2842 11.3108 12.2203C11.2965 12.1564 11.2945 12.0903 11.3051 12.0256C11.3156 11.9609 11.3385 11.899 11.3723 11.8434C11.4061 11.7878 11.4502 11.7396 11.5022 11.7015C11.5541 11.6634 11.6129 11.6363 11.675 11.6215C11.7372 11.6068 11.8016 11.6048 11.8645 11.6156V11.6156ZM11.2078 14.1305C11.2011 14.0317 11.223 13.9329 11.2708 13.8468C11.3187 13.7608 11.3903 13.6912 11.4766 13.647C11.5629 13.6027 11.6601 13.5858 11.7558 13.5983C11.8515 13.6108 11.9414 13.6522 12.0142 13.7172C12.087 13.7822 12.1394 13.868 12.1648 13.9637C12.1901 14.0593 12.1873 14.1605 12.1567 14.2545C12.1261 14.3486 12.0691 14.4311 11.9928 14.4918C11.9166 14.5525 11.8245 14.5886 11.7283 14.5955H11.6942C11.571 14.5955 11.4524 14.5475 11.3621 14.4613C11.2719 14.375 11.2168 14.2569 11.2078 14.1305V14.1305ZM12.0542 16.5555C11.9307 16.5572 11.8112 16.5109 11.7195 16.4259C11.6278 16.3409 11.5707 16.2234 11.5597 16.097C11.5487 15.9706 11.5845 15.8445 11.66 15.7441C11.7356 15.6437 11.8452 15.5763 11.967 15.5554C12.0889 15.5345 12.2139 15.5617 12.317 15.6316C12.4201 15.7014 12.4938 15.8086 12.5233 15.9319C12.5528 16.0552 12.5358 16.1853 12.4759 16.2963C12.416 16.4073 12.3175 16.491 12.2002 16.5305C12.1529 16.546 12.1038 16.5545 12.0542 16.5555V16.5555ZM13.1001 18.3005C13.0245 18.3451 12.9391 18.3692 12.852 18.3705C12.7668 18.371 12.6831 18.3485 12.609 18.3054C12.5349 18.2622 12.4731 18.1998 12.4298 18.1245C12.3865 18.0491 12.3632 17.9634 12.3622 17.8759C12.3612 17.7883 12.3826 17.7021 12.4241 17.6257C12.4657 17.5493 12.526 17.4855 12.5991 17.4405C12.6721 17.3956 12.7554 17.3711 12.8405 17.3696C12.9257 17.368 13.0097 17.3895 13.0843 17.4317C13.1589 17.474 13.2213 17.5356 13.2655 17.6105C13.3313 17.7249 13.3508 17.8612 13.3199 17.9902C13.2889 18.1192 13.21 18.2306 13.1001 18.3005V18.3005ZM14.3746 19.8004C14.3289 19.8464 14.2749 19.8827 14.2156 19.9072C14.1563 19.9317 14.0928 19.9439 14.0289 19.9432C13.8998 19.9418 13.7766 19.8877 13.6863 19.7929C13.596 19.6981 13.546 19.5703 13.5474 19.4376C13.5487 19.305 13.6013 19.1783 13.6936 19.0854C13.7858 18.9926 13.9102 18.9413 14.0392 18.9427C14.1683 18.9441 14.2916 18.9981 14.3819 19.0929C14.4722 19.1878 14.5222 19.3156 14.5208 19.4482C14.5194 19.5809 14.4668 19.7076 14.3746 19.8004V19.8004ZM15.9118 21.0654C15.8201 21.1589 15.696 21.2113 15.5668 21.211C15.4376 21.2107 15.3138 21.1579 15.2224 21.064C15.1311 20.9701 15.0796 20.8428 15.0794 20.71C15.0791 20.5772 15.13 20.4497 15.221 20.3554C15.2683 20.3112 15.3226 20.2757 15.3816 20.2504C15.5 20.2004 15.6328 20.2004 15.7513 20.2504C15.8108 20.2745 15.8653 20.3101 15.9118 20.3554C16.0022 20.4502 16.0529 20.5777 16.0529 20.7104C16.0529 20.8432 16.0022 20.9706 15.9118 21.0654V21.0654ZM22.8632 19.8251V25.0003C22.8625 25.0629 22.8504 25.1247 22.8274 25.1826C22.8179 25.2028 22.8069 25.2223 22.7948 25.241C22.7824 25.2688 22.7675 25.2954 22.7504 25.3204L20.3181 28.3203C20.2725 28.3766 20.2153 28.4219 20.1508 28.4529C20.0862 28.484 20.0158 28.5001 19.9445 28.5001C19.8732 28.5001 19.8028 28.484 19.7382 28.4529C19.6736 28.4219 19.6165 28.3766 19.5708 28.3203L17.1386 25.3204C17.1214 25.2954 17.1066 25.2688 17.0942 25.241C17.082 25.2223 17.0711 25.2028 17.0616 25.1826C17.0386 25.1247 17.0265 25.0629 17.0258 25.0003V19.8251C15.6287 19.144 14.4987 17.9945 13.8217 16.5656C13.1446 15.1368 12.9608 13.5137 13.3005 11.9632C13.6401 10.4127 14.483 9.02717 15.6905 8.03443C16.898 7.0417 18.3982 6.50086 19.9445 6.50086C21.4908 6.50086 22.991 7.0417 24.1985 8.03443C25.406 9.02717 26.2489 10.4127 26.5885 11.9632C26.9282 13.5137 26.7443 15.1368 26.0673 16.5656C25.3902 17.9945 24.2603 19.144 22.8632 19.8251Z" fill="white"></path></svg>