<svg xmlns="http://www.w3.org/2000/svg" width="40" height="57" viewBox="0 0 40 57" fill="none"><path d="M1.20937 51.0128C0.541543 51.0128 0.000268541 51.554 0.000268541 52.2219V55.1774C0.000268541 55.8453 0.541543 56.3865 1.20937 56.3865H7.19267H13.1933H26.807H32.8076H38.7909C39.4587 56.3865 40 55.8453 40 55.1774V44.8516C40 42.9213 39.3171 41.148 38.1812 39.7589V29.6074C38.1812 28.9396 37.64 28.3983 36.9721 28.3983H31.3958C32.1121 26.9995 32.5189 25.4173 32.5189 23.7407V19.5361C37.0327 14.1931 38.2074 8.9284 35.7313 5.04249C34.2995 2.79544 31.804 1.25478 28.5145 0.586951C25.2572 -0.0745612 21.4306 0.182574 17.45 1.33055C9.26279 3.69112 6.65395 1.90272 6.31567 0.979774C6.22929 0.389868 5.73167 0.00161213 5.13196 0C5.13089 0 5.12995 0 5.129 0C4.52311 0 4.01959 0.502045 3.93952 1.10297C3.13641 7.12711 6.35839 11.3607 7.48084 12.6295V23.7406C7.48084 25.417 7.88763 26.9994 8.60396 28.3981H3.02759C2.35976 28.3981 1.81849 28.9394 1.81849 29.6072V39.759C0.682739 41.1481 0 42.9215 0 44.8515V46.5121C0 47.1799 0.541274 47.7212 1.2091 47.7212C1.87693 47.7212 2.4182 47.1799 2.4182 46.5121V44.8515C2.4182 42.4741 3.89747 40.437 5.9833 39.6085V53.9683H2.41847V52.2219C2.41847 51.5542 1.8772 51.0128 1.20937 51.0128ZM16.2662 39.2114H23.734H25.5979V53.9683H14.4024V39.2114H16.2662ZM9.89918 23.7406V13.3619H30.1007V23.7406C30.1007 27.8084 26.9855 31.1616 23.0158 31.5422H16.9842C13.0144 31.1617 9.89918 27.8085 9.89918 23.7406ZM17.4753 33.9908C17.5629 33.9931 17.6499 33.9975 17.738 33.9975H22.2621C22.3502 33.9975 22.4373 33.9931 22.5249 33.9908V36.7932H17.4753V33.9908V33.9908ZM28.0161 53.9683V39.2114H31.5985V53.9683H28.0161ZM37.5818 53.9683H34.0167V39.6087C36.1025 40.4372 37.5818 42.4742 37.5818 44.8516V53.9683ZM35.763 30.8163V37.7587C35.0172 37.3553 34.2004 37.0681 33.3373 36.9167C33.1772 36.8383 32.9978 36.7932 32.8076 36.7932H31.9418H26.807H24.9431V33.6396C26.7745 33.1431 28.4028 32.1508 29.6768 30.8162H35.763V30.8163ZM18.1201 3.65417C25.1226 1.6347 31.3809 2.7151 33.692 6.34214C35.209 8.72272 34.7654 11.9567 32.519 15.486V12.1529C32.519 11.4851 31.9778 10.9438 31.3099 10.9438H9.2202C8.47405 10.0772 6.62265 7.60605 6.28558 4.0924C8.79325 5.34275 12.7708 5.19631 18.1201 3.65417ZM10.3232 30.8163C11.5973 32.1509 13.2257 33.1431 15.0571 33.6397V36.7933H13.1933H8.05852H7.19267C7.00244 36.7933 6.82309 36.8385 6.66295 36.9168C5.79979 37.0682 4.98284 37.3556 4.23696 37.7591V30.8165H10.3232V30.8163ZM8.40177 39.2114H11.9842V53.9683H8.40177V39.2114Z" fill="white"></path></svg>