<svg xmlns="http://www.w3.org/2000/svg" width="47" height="47" viewBox="0 0 47 47" fill="none"><path d="M16.8906 18.3594C16.6959 18.3594 16.5091 18.282 16.3713 18.1443C16.2336 18.0066 16.1563 17.8198 16.1563 17.625V12.4844C16.1563 12.2896 16.2336 12.1028 16.3713 11.9651C16.5091 11.8274 16.6959 11.75 16.8906 11.75C17.0854 11.75 17.2722 11.8274 17.4099 11.9651C17.5476 12.1028 17.625 12.2896 17.625 12.4844V17.625C17.625 17.8198 17.5476 18.0066 17.4099 18.1443C17.2722 18.282 17.0854 18.3594 16.8906 18.3594ZM17.625 9.54687V8.8125C17.625 8.61773 17.5476 8.43094 17.4099 8.29322C17.2722 8.1555 17.0854 8.07812 16.8906 8.07812C16.6959 8.07812 16.5091 8.1555 16.3713 8.29322C16.2336 8.43094 16.1563 8.61773 16.1563 8.8125V9.54687C16.1563 9.74164 16.2336 9.92843 16.3713 10.0662C16.5091 10.2039 16.6959 10.2812 16.8906 10.2812C17.0854 10.2812 17.2722 10.2039 17.4099 10.0662C17.5476 9.92843 17.625 9.74164 17.625 9.54687ZM29.2722 34.8534L30.4398 41.8961C30.4576 42.001 30.4524 42.1086 30.4245 42.2113C30.3966 42.314 30.3467 42.4094 30.2783 42.4909C30.2093 42.5715 30.1237 42.6363 30.0274 42.6806C29.931 42.725 29.8262 42.748 29.7202 42.748H16.5014C16.3942 42.7493 16.2881 42.7273 16.1903 42.6832C16.0926 42.6392 16.0057 42.5743 15.9357 42.4932C15.8657 42.412 15.8144 42.3165 15.7852 42.2133C15.7561 42.1102 15.7499 42.0019 15.767 41.8961L16.9934 34.5523C14.3288 33.3124 12.074 31.3368 10.4945 28.8583C8.91502 26.3798 8.07665 23.5015 8.07813 20.5625C8.07813 20.3677 8.1555 20.1809 8.29322 20.0432C8.43094 19.9055 8.61773 19.8281 8.8125 19.8281H12.4844V5.875C12.4844 5.68023 12.5617 5.49344 12.6995 5.35572C12.8372 5.218 13.024 5.14062 13.2188 5.14062H32.3125C32.5073 5.14062 32.6941 5.218 32.8318 5.35572C32.9695 5.49344 33.0469 5.68023 33.0469 5.875V8.07812H35.25C35.4448 8.07812 35.6316 8.1555 35.7693 8.29322C35.907 8.43094 35.9844 8.61773 35.9844 8.8125V11.75C35.9844 11.9448 35.907 12.1316 35.7693 12.2693C35.6316 12.407 35.4448 12.4844 35.25 12.4844H33.0469V19.8281H38.1875C38.3823 19.8281 38.5691 19.9055 38.7068 20.0432C38.8445 20.1809 38.9219 20.3677 38.9219 20.5625C38.9199 23.6348 38.0003 26.6365 36.281 29.1827C34.5618 31.7289 32.1212 33.7035 29.2722 34.8534ZM33.0469 9.54687V11.0156H34.5156V9.54687H33.0469ZM13.9531 19.8281H31.5781V6.60937H13.9531V19.8281ZM9.54688 21.2969C9.58154 21.9133 9.6576 22.5266 9.77453 23.1328H37.2034C37.3278 22.5271 37.4112 21.9138 37.4531 21.2969H9.54688ZM27.8622 35.3455C27.2211 35.532 26.5686 35.6768 25.9087 35.7787L25.3433 35.8669L24.6823 35.9256L23.8305 35.9844H23.5H23.3091C22.8831 35.9844 22.4572 35.9623 22.0312 35.9183H21.9064C21.4364 35.8669 20.9738 35.7934 20.5111 35.7053L20.1513 35.6245C19.8061 35.5437 19.4683 35.4556 19.1305 35.3602L18.7339 35.25L18.3961 35.1472L17.368 41.3086H28.8536L27.8622 35.3455ZM36.8436 24.6016H10.1564C10.7583 26.5804 11.7909 28.4015 13.1799 29.934C14.569 31.4666 16.2801 32.6726 18.1905 33.4655L18.5944 33.6123C18.8661 33.7152 19.1305 33.8106 19.4022 33.8987L19.9236 34.0383C20.1659 34.1044 20.4156 34.1705 20.658 34.2219L21.2381 34.3173C21.4731 34.3541 21.7081 34.3981 21.9725 34.4202C22.2369 34.4422 22.3984 34.4569 22.6187 34.4716C22.8391 34.4862 23.052 34.4716 23.2723 34.4716C23.4927 34.4716 23.7864 34.4716 24.0067 34.4716C24.227 34.4716 24.3445 34.4716 24.5134 34.4716C24.8219 34.4716 25.1377 34.4128 25.4534 34.3687L25.7398 34.3247C26.107 34.2659 26.4742 34.1852 26.8414 34.097H26.9589C27.3555 33.9942 27.752 33.8694 28.1486 33.7298C30.2111 32.9949 32.0724 31.7861 33.5826 30.2006C35.0928 28.6152 36.2097 26.6974 36.8436 24.6016Z" fill="white"></path></svg>