<svg xmlns="http://www.w3.org/2000/svg" width="45" height="45" viewBox="0 0 45 45" fill="none"><mask id="path-1-inside-1_2158_750" fill="white"><path d="M22.4921 2.81253C22.104 2.81625 21.7921 3.1342 21.7959 3.52252V7.74265C21.7746 8.7012 23.2233 8.7012 23.2021 7.74265V3.52252C23.2048 3.12882 22.8856 2.80871 22.4921 2.81253ZM32.009 5.35175C31.9825 5.3512 31.9568 5.3523 31.9307 5.35441C31.6993 5.3754 31.4944 5.50968 31.3814 5.71284L29.2748 9.36716C28.7775 10.1883 30.036 10.9111 30.4943 10.0675L32.5995 6.41871C32.8803 5.95431 32.5514 5.36029 32.009 5.35166L32.009 5.35175ZM12.9876 5.35441C12.4534 5.37434 12.1359 5.96002 12.4108 6.41871L14.5174 10.0675C14.9919 10.8511 16.1742 10.172 15.7369 9.36716L13.6248 5.71284C13.4962 5.48366 13.2502 5.34541 12.9876 5.35442V5.35441ZM22.5168 9.14881C16.3105 9.14881 11.2476 14.238 11.2476 20.4908C11.2476 23.4121 12.8256 26.1629 14.3197 28.5919C15.8138 31.0208 17.183 32.3437 17.183 33.0441C17.1814 33.4483 17.5151 33.7514 17.9053 33.7499H27.1297C27.5063 33.7513 27.8234 33.4345 27.8219 33.0441C27.8219 32.3437 29.1449 31.0647 30.6934 28.5891C32.2057 26.1714 33.7504 23.4121 33.7504 20.4908C33.7504 14.238 28.7232 9.14881 22.5168 9.14881V9.14881ZM6.0401 12.2991C5.33435 12.3374 5.09898 13.254 5.73385 13.6257L9.37582 15.7283C10.1507 16.1732 10.907 15.0086 10.0872 14.5225L6.44522 12.398C6.32324 12.3249 6.18186 12.2904 6.0401 12.2991V12.2991ZM38.8508 12.2991C38.7591 12.3103 38.665 12.3417 38.5734 12.398L34.9218 14.506C34.1094 14.9739 34.8096 16.1934 35.6222 15.7255L39.2792 13.6175C40.0471 13.144 39.4929 12.2207 38.8508 12.2992V12.2991ZM21.0941 12.6562H23.908C24.2968 12.6547 24.6131 12.9691 24.6139 13.358L24.6153 14.7999C24.7227 14.8413 24.855 14.8993 24.96 14.9468L25.9831 13.9279C26.2628 13.6497 26.7003 13.6552 26.9746 13.9279L28.9617 15.9109C29.2381 16.1858 29.2381 16.633 28.9617 16.9079L27.9441 17.9283C27.9906 18.0326 28.0465 18.1661 28.0869 18.273H29.533C29.9213 18.2745 30.2349 18.5905 30.2334 18.9788V21.7858C30.2326 22.1725 29.9197 22.486 29.533 22.4876H28.0897C28.0493 22.5945 27.9934 22.7293 27.9469 22.8337L28.9672 23.8609C29.2428 24.1356 29.2385 24.579 28.963 24.8538L26.9758 26.8368C26.7015 27.1094 26.2586 27.1094 25.9843 26.8368L24.9641 25.8192C24.8592 25.8667 24.7213 25.9206 24.6139 25.962V27.4026C24.6154 27.793 24.2985 28.1099 23.9081 28.1085H21.0942C20.7059 28.1069 20.3923 27.7909 20.3938 27.4026V25.9593C20.2868 25.9187 20.1494 25.863 20.045 25.8164L19.0233 26.8368C18.7485 27.1122 18.3024 27.1122 18.0276 26.8368L16.0391 24.8538C15.7637 24.579 15.7637 24.1329 16.0391 23.8581L17.0622 22.8364C17.0146 22.7317 16.9553 22.5949 16.9139 22.4876H15.4733C15.0844 22.4891 14.7682 22.1747 14.7674 21.7858V18.9788C14.7659 18.5884 15.0828 18.2715 15.4733 18.273H16.9166C16.9581 18.1664 17.0121 18.0323 17.0594 17.9283L16.0391 16.9079C15.7628 16.633 15.7628 16.1858 16.0391 15.9109L18.0276 13.9279C18.3023 13.6525 18.7485 13.6525 19.0232 13.9279L20.0477 14.9468C20.1519 14.9003 20.2869 14.8431 20.3938 14.8026V13.3579C20.3946 12.9712 20.7075 12.6577 21.0942 12.6562L21.0941 12.6562ZM21.8014 14.0638V15.3135C21.8 15.6299 21.5876 15.9064 21.2823 15.9892C20.9222 16.088 20.5789 16.2319 20.2537 16.4149C19.9782 16.572 19.6317 16.5253 19.4077 16.3009L18.5261 15.4179L17.5345 16.4094L18.4162 17.2966C18.6405 17.5206 18.6872 17.8671 18.5302 18.1425C18.3446 18.4662 18.2016 18.8121 18.1003 19.1711C18.0134 19.4721 17.7379 19.6792 17.4247 19.6792H16.1736V21.08H17.4247C17.7399 21.0808 18.0161 21.2913 18.1003 21.595C18.2017 21.9539 18.3447 22.2985 18.5302 22.6222C18.6872 22.8976 18.6405 23.2441 18.4162 23.4681L17.5345 24.3553L18.5261 25.3468L19.4077 24.4651C19.6304 24.2389 19.977 24.19 20.2537 24.3457C20.5789 24.5287 20.9222 24.6725 21.2823 24.7714C21.589 24.8546 21.8018 25.1333 21.8014 25.4512V26.7022H23.2076V25.4566C23.2083 25.1419 23.4181 24.8659 23.7212 24.781C24.0811 24.6798 24.4239 24.5365 24.7484 24.3511C25.0227 24.1927 25.369 24.2371 25.5944 24.4596L26.4829 25.3468L27.4744 24.3553L26.5914 23.4736C26.3698 23.2505 26.3233 22.9073 26.4774 22.6332C26.6608 22.308 26.8043 21.9589 26.9031 21.5991C26.9858 21.2942 27.2616 21.0819 27.5774 21.08H28.834V19.6792H27.5774C27.2631 19.6779 26.9879 19.4683 26.9031 19.1656C26.8044 18.8058 26.6608 18.4581 26.4774 18.1329C26.3225 17.8584 26.369 17.5144 26.5914 17.291L27.4744 16.4094L26.4829 15.4179L25.5944 16.3009C25.3703 16.5253 25.0239 16.572 24.7484 16.4149C24.4239 16.2295 24.0811 16.0848 23.7212 15.9837C23.4186 15.899 23.2089 15.6237 23.2076 15.3094V14.0638L21.8014 14.0638ZM22.5017 17.5726C24.0466 17.5726 25.3142 18.8403 25.3142 20.3851C25.3142 21.9299 24.0466 23.199 22.5017 23.199C20.9568 23.199 19.6879 21.9299 19.6879 20.3851C19.6879 18.8403 20.9568 17.5726 22.5017 17.5726ZM22.5017 18.9788C21.7167 18.9788 21.0941 19.6004 21.0941 20.3851C21.0941 21.1698 21.7167 21.7913 22.5017 21.7913C23.2868 21.7913 23.908 21.1698 23.908 20.3851C23.908 19.6004 23.2868 18.9788 22.5017 18.9788V18.9788ZM3.48303 21.7886C2.54531 21.8337 2.61265 23.2413 3.55032 23.1962H7.76907C8.67979 23.1965 8.65233 21.7888 7.76907 21.7886H3.55032C3.52906 21.7875 3.50535 21.7875 3.48303 21.7886V21.7886ZM37.1946 21.7886C36.3239 21.8762 36.3369 23.1609 37.266 23.1962H41.4847C42.4229 23.1965 42.4229 21.7888 41.4847 21.7886H37.266C37.2421 21.7874 37.2185 21.7874 37.1946 21.7886ZM35.2363 29.1549C34.5312 29.1944 34.318 30.133 34.9369 30.4733L38.5844 32.5854C39.4582 33.0516 40.0555 31.7929 39.2943 31.3659L35.6386 29.2524C35.5377 29.1927 35.4234 29.1592 35.3063 29.1549C35.2824 29.1537 35.2597 29.1537 35.2363 29.1549H35.2363ZM9.65735 29.1632C9.56726 29.1725 9.47398 29.2003 9.38132 29.2497L5.73797 31.3522C4.89481 31.8464 5.58302 33.0422 6.44522 32.5799L10.0982 30.4733C10.781 29.932 10.2879 29.0984 9.65735 29.1632V29.1632ZM18.272 35.1562C17.3556 35.1767 17.3556 36.542 18.272 36.5624H26.7081C27.6518 36.5415 27.6556 35.1773 26.7081 35.1562H18.272ZM18.9174 37.9687C18.0429 38.0887 18.0662 39.3307 18.9847 39.3763H26.0132C26.9512 39.3763 26.9512 37.9687 26.0132 37.9687H18.9847C18.9635 37.9676 18.9398 37.9676 18.9174 37.9687H18.9174ZM20.3786 40.7812C19.4621 40.8014 19.4621 42.1671 20.3786 42.1875H24.6111C25.5276 42.1673 25.5276 40.8015 24.6111 40.7812H20.3786Z"></path></mask><path d="M22.4921 2.81253C22.104 2.81625 21.7921 3.1342 21.7959 3.52252V7.74265C21.7746 8.7012 23.2233 8.7012 23.2021 7.74265V3.52252C23.2048 3.12882 22.8856 2.80871 22.4921 2.81253ZM32.009 5.35175C31.9825 5.3512 31.9568 5.3523 31.9307 5.35441C31.6993 5.3754 31.4944 5.50968 31.3814 5.71284L29.2748 9.36716C28.7775 10.1883 30.036 10.9111 30.4943 10.0675L32.5995 6.41871C32.8803 5.95431 32.5514 5.36029 32.009 5.35166L32.009 5.35175ZM12.9876 5.35441C12.4534 5.37434 12.1359 5.96002 12.4108 6.41871L14.5174 10.0675C14.9919 10.8511 16.1742 10.172 15.7369 9.36716L13.6248 5.71284C13.4962 5.48366 13.2502 5.34541 12.9876 5.35442V5.35441ZM22.5168 9.14881C16.3105 9.14881 11.2476 14.238 11.2476 20.4908C11.2476 23.4121 12.8256 26.1629 14.3197 28.5919C15.8138 31.0208 17.183 32.3437 17.183 33.0441C17.1814 33.4483 17.5151 33.7514 17.9053 33.7499H27.1297C27.5063 33.7513 27.8234 33.4345 27.8219 33.0441C27.8219 32.3437 29.1449 31.0647 30.6934 28.5891C32.2057 26.1714 33.7504 23.4121 33.7504 20.4908C33.7504 14.238 28.7232 9.14881 22.5168 9.14881V9.14881ZM6.0401 12.2991C5.33435 12.3374 5.09898 13.254 5.73385 13.6257L9.37582 15.7283C10.1507 16.1732 10.907 15.0086 10.0872 14.5225L6.44522 12.398C6.32324 12.3249 6.18186 12.2904 6.0401 12.2991V12.2991ZM38.8508 12.2991C38.7591 12.3103 38.665 12.3417 38.5734 12.398L34.9218 14.506C34.1094 14.9739 34.8096 16.1934 35.6222 15.7255L39.2792 13.6175C40.0471 13.144 39.4929 12.2207 38.8508 12.2992V12.2991ZM21.0941 12.6562H23.908C24.2968 12.6547 24.6131 12.9691 24.6139 13.358L24.6153 14.7999C24.7227 14.8413 24.855 14.8993 24.96 14.9468L25.9831 13.9279C26.2628 13.6497 26.7003 13.6552 26.9746 13.9279L28.9617 15.9109C29.2381 16.1858 29.2381 16.633 28.9617 16.9079L27.9441 17.9283C27.9906 18.0326 28.0465 18.1661 28.0869 18.273H29.533C29.9213 18.2745 30.2349 18.5905 30.2334 18.9788V21.7858C30.2326 22.1725 29.9197 22.486 29.533 22.4876H28.0897C28.0493 22.5945 27.9934 22.7293 27.9469 22.8337L28.9672 23.8609C29.2428 24.1356 29.2385 24.579 28.963 24.8538L26.9758 26.8368C26.7015 27.1094 26.2586 27.1094 25.9843 26.8368L24.9641 25.8192C24.8592 25.8667 24.7213 25.9206 24.6139 25.962V27.4026C24.6154 27.793 24.2985 28.1099 23.9081 28.1085H21.0942C20.7059 28.1069 20.3923 27.7909 20.3938 27.4026V25.9593C20.2868 25.9187 20.1494 25.863 20.045 25.8164L19.0233 26.8368C18.7485 27.1122 18.3024 27.1122 18.0276 26.8368L16.0391 24.8538C15.7637 24.579 15.7637 24.1329 16.0391 23.8581L17.0622 22.8364C17.0146 22.7317 16.9553 22.5949 16.9139 22.4876H15.4733C15.0844 22.4891 14.7682 22.1747 14.7674 21.7858V18.9788C14.7659 18.5884 15.0828 18.2715 15.4733 18.273H16.9166C16.9581 18.1664 17.0121 18.0323 17.0594 17.9283L16.0391 16.9079C15.7628 16.633 15.7628 16.1858 16.0391 15.9109L18.0276 13.9279C18.3023 13.6525 18.7485 13.6525 19.0232 13.9279L20.0477 14.9468C20.1519 14.9003 20.2869 14.8431 20.3938 14.8026V13.3579C20.3946 12.9712 20.7075 12.6577 21.0942 12.6562L21.0941 12.6562ZM21.8014 14.0638V15.3135C21.8 15.6299 21.5876 15.9064 21.2823 15.9892C20.9222 16.088 20.5789 16.2319 20.2537 16.4149C19.9782 16.572 19.6317 16.5253 19.4077 16.3009L18.5261 15.4179L17.5345 16.4094L18.4162 17.2966C18.6405 17.5206 18.6872 17.8671 18.5302 18.1425C18.3446 18.4662 18.2016 18.8121 18.1003 19.1711C18.0134 19.4721 17.7379 19.6792 17.4247 19.6792H16.1736V21.08H17.4247C17.7399 21.0808 18.0161 21.2913 18.1003 21.595C18.2017 21.9539 18.3447 22.2985 18.5302 22.6222C18.6872 22.8976 18.6405 23.2441 18.4162 23.4681L17.5345 24.3553L18.5261 25.3468L19.4077 24.4651C19.6304 24.2389 19.977 24.19 20.2537 24.3457C20.5789 24.5287 20.9222 24.6725 21.2823 24.7714C21.589 24.8546 21.8018 25.1333 21.8014 25.4512V26.7022H23.2076V25.4566C23.2083 25.1419 23.4181 24.8659 23.7212 24.781C24.0811 24.6798 24.4239 24.5365 24.7484 24.3511C25.0227 24.1927 25.369 24.2371 25.5944 24.4596L26.4829 25.3468L27.4744 24.3553L26.5914 23.4736C26.3698 23.2505 26.3233 22.9073 26.4774 22.6332C26.6608 22.308 26.8043 21.9589 26.9031 21.5991C26.9858 21.2942 27.2616 21.0819 27.5774 21.08H28.834V19.6792H27.5774C27.2631 19.6779 26.9879 19.4683 26.9031 19.1656C26.8044 18.8058 26.6608 18.4581 26.4774 18.1329C26.3225 17.8584 26.369 17.5144 26.5914 17.291L27.4744 16.4094L26.4829 15.4179L25.5944 16.3009C25.3703 16.5253 25.0239 16.572 24.7484 16.4149C24.4239 16.2295 24.0811 16.0848 23.7212 15.9837C23.4186 15.899 23.2089 15.6237 23.2076 15.3094V14.0638L21.8014 14.0638ZM22.5017 17.5726C24.0466 17.5726 25.3142 18.8403 25.3142 20.3851C25.3142 21.9299 24.0466 23.199 22.5017 23.199C20.9568 23.199 19.6879 21.9299 19.6879 20.3851C19.6879 18.8403 20.9568 17.5726 22.5017 17.5726ZM22.5017 18.9788C21.7167 18.9788 21.0941 19.6004 21.0941 20.3851C21.0941 21.1698 21.7167 21.7913 22.5017 21.7913C23.2868 21.7913 23.908 21.1698 23.908 20.3851C23.908 19.6004 23.2868 18.9788 22.5017 18.9788V18.9788ZM3.48303 21.7886C2.54531 21.8337 2.61265 23.2413 3.55032 23.1962H7.76907C8.67979 23.1965 8.65233 21.7888 7.76907 21.7886H3.55032C3.52906 21.7875 3.50535 21.7875 3.48303 21.7886V21.7886ZM37.1946 21.7886C36.3239 21.8762 36.3369 23.1609 37.266 23.1962H41.4847C42.4229 23.1965 42.4229 21.7888 41.4847 21.7886H37.266C37.2421 21.7874 37.2185 21.7874 37.1946 21.7886ZM35.2363 29.1549C34.5312 29.1944 34.318 30.133 34.9369 30.4733L38.5844 32.5854C39.4582 33.0516 40.0555 31.7929 39.2943 31.3659L35.6386 29.2524C35.5377 29.1927 35.4234 29.1592 35.3063 29.1549C35.2824 29.1537 35.2597 29.1537 35.2363 29.1549H35.2363ZM9.65735 29.1632C9.56726 29.1725 9.47398 29.2003 9.38132 29.2497L5.73797 31.3522C4.89481 31.8464 5.58302 33.0422 6.44522 32.5799L10.0982 30.4733C10.781 29.932 10.2879 29.0984 9.65735 29.1632V29.1632ZM18.272 35.1562C17.3556 35.1767 17.3556 36.542 18.272 36.5624H26.7081C27.6518 36.5415 27.6556 35.1773 26.7081 35.1562H18.272ZM18.9174 37.9687C18.0429 38.0887 18.0662 39.3307 18.9847 39.3763H26.0132C26.9512 39.3763 26.9512 37.9687 26.0132 37.9687H18.9847C18.9635 37.9676 18.9398 37.9676 18.9174 37.9687H18.9174ZM20.3786 40.7812C19.4621 40.8014 19.4621 42.1671 20.3786 42.1875H24.6111C25.5276 42.1673 25.5276 40.8015 24.6111 40.7812H20.3786Z" stroke="black" stroke-width="2" mask="url(#path-1-inside-1_2158_750)"></path></svg>