<svg xmlns="http://www.w3.org/2000/svg" width="36" height="36" viewBox="0 0 36 36" fill="none"><path fill-rule="evenodd" clip-rule="evenodd" d="M25.5 22.5C24.6716 22.5 24 23.1716 24 24C24 24.8284 24.6716 25.5 25.5 25.5C26.3284 25.5 27 24.8284 27 24C27 23.1716 26.3284 22.5 25.5 22.5ZM22.5 24C22.5 22.3431 23.8431 21 25.5 21C27.1569 21 28.5 22.3431 28.5 24C28.5 25.6569 27.1569 27 25.5 27C23.8431 27 22.5 25.6569 22.5 24Z" fill="black"></path><path fill-rule="evenodd" clip-rule="evenodd" d="M10.5 7.5C9.67158 7.5 9 8.17158 9 9C9 9.82842 9.67158 10.5 10.5 10.5C11.3284 10.5 12 9.82842 12 9C12 8.17158 11.3284 7.5 10.5 7.5ZM7.5 9C7.5 7.34314 8.84314 6 10.5 6C12.1569 6 13.5 7.34314 13.5 9C13.5 10.6569 12.1569 12 10.5 12C8.84314 12 7.5 10.6569 7.5 9Z" fill="black"></path><path fill-rule="evenodd" clip-rule="evenodd" d="M25.5007 27C23.1436 27 21.1474 28.554 20.4846 30.6952L19.0518 30.2516C19.9035 27.5001 22.4676 25.5 25.5007 25.5C28.534 25.5 31.0981 27.5001 31.9498 30.2516L30.517 30.6952C29.8542 28.554 27.858 27 25.5007 27Z" fill="black"></path><path fill-rule="evenodd" clip-rule="evenodd" d="M10.5008 12C8.14367 12 6.14751 13.554 5.48468 15.6953L4.05176 15.2516C4.90353 12.5001 7.46762 10.5 10.5008 10.5C13.534 10.5 16.0982 12.5001 16.9499 15.2516L15.5171 15.6953C14.8541 13.554 12.858 12 10.5008 12Z" fill="black"></path><path fill-rule="evenodd" clip-rule="evenodd" d="M25.5 18.75C21.772 18.75 18.75 21.772 18.75 25.5C18.75 29.228 21.772 32.25 25.5 32.25C29.228 32.25 32.25 29.228 32.25 25.5C32.25 21.772 29.228 18.75 25.5 18.75ZM17.25 25.5C17.25 20.9436 20.9436 17.25 25.5 17.25C30.0564 17.25 33.75 20.9436 33.75 25.5C33.75 30.0564 30.0564 33.75 25.5 33.75C20.9436 33.75 17.25 30.0564 17.25 25.5Z" fill="black"></path><path fill-rule="evenodd" clip-rule="evenodd" d="M10.5 3.75C6.77208 3.75 3.75 6.77208 3.75 10.5C3.75 14.2279 6.77208 17.25 10.5 17.25C14.2279 17.25 17.25 14.2279 17.25 10.5C17.25 6.77208 14.2279 3.75 10.5 3.75ZM2.25 10.5C2.25 5.94365 5.94365 2.25 10.5 2.25C15.0564 2.25 18.75 5.94365 18.75 10.5C18.75 15.0564 15.0564 18.75 10.5 18.75C5.94365 18.75 2.25 15.0564 2.25 10.5Z" fill="black"></path><path fill-rule="evenodd" clip-rule="evenodd" d="M9 23.25C7.75735 23.25 6.75 24.2574 6.75 25.5C6.75 26.7426 7.75735 27.75 9 27.75C10.2426 27.75 11.25 26.7426 11.25 25.5C11.25 24.2574 10.2426 23.25 9 23.25ZM5.25 25.5C5.25 23.429 6.92894 21.75 9 21.75C11.0711 21.75 12.75 23.429 12.75 25.5C12.75 27.5711 11.0711 29.25 9 29.25C6.92894 29.25 5.25 27.5711 5.25 25.5Z" fill="black"></path><path fill-rule="evenodd" clip-rule="evenodd" d="M27 8.25C28.2426 8.25 29.25 9.25735 29.25 10.5C29.25 11.7426 28.2426 12.75 27 12.75C25.7574 12.75 24.75 11.7426 24.75 10.5C24.75 9.25735 25.7574 8.25 27 8.25ZM30.75 10.5C30.75 8.42894 29.0711 6.75 27 6.75C24.929 6.75 23.25 8.42894 23.25 10.5C23.25 12.5711 24.929 14.25 27 14.25C29.0711 14.25 30.75 12.5711 30.75 10.5Z" fill="black"></path><path fill-rule="evenodd" clip-rule="evenodd" d="M12 24.75H18V26.25H12V24.75Z" fill="black"></path><path fill-rule="evenodd" clip-rule="evenodd" d="M24 9.75H18V11.25H24V9.75Z" fill="black"></path><path fill-rule="evenodd" clip-rule="evenodd" d="M16.2804 15.2195L20.7804 19.7195L19.7197 20.7803L15.2197 16.2803L16.2804 15.2195Z" fill="black"></path></svg>