<svg xmlns="http://www.w3.org/2000/svg" width="40" height="40" viewBox="0 0 40 40" fill="none"><path d="M3.40899 0C1.52625 0 0 1.5263 0 3.4091V12C0 17.9476 4.32679 22.8846 10.0043 23.8348C10.0362 20.5338 11.0677 17.4718 12.8106 14.9373L8.43416 10.5607C7.8484 9.97488 7.8484 9.02512 8.43416 8.43934C9.01992 7.85356 9.96965 7.85356 10.5554 8.43934L14.7423 12.6264C17.0467 10.3429 20.042 8.75544 23.3869 8.20528C21.799 3.4376 17.3007 0 11.9996 0H3.40899Z" fill="white"></path><path d="M15.1025 32.7737L10.4345 37.4391C9.84857 38.0247 9.84829 38.9743 10.4339 39.5603C11.0195 40.1463 11.9692 40.1467 12.5551 39.5609L17.2238 34.8949C19.6249 36.8309 22.6786 37.9899 26.0031 37.9899C33.7333 37.9899 40.0001 31.7231 40.0001 23.9925V13.4952C40.0001 11.5622 38.4331 9.99524 36.5002 9.99524H26.0031C18.2728 9.99524 12.0062 16.2621 12.0062 23.9925C12.0062 27.3179 13.1657 30.3723 15.1025 32.7737ZM27.5547 24.5701L19.3644 32.7607C18.5642 32.1539 17.8496 31.4401 17.242 30.6405L25.4334 22.4487C26.0191 21.8629 26.9689 21.8629 27.5547 22.4487C28.1405 23.0345 28.1405 23.9843 27.5547 24.5701Z" fill="white"></path></svg>