<svg xmlns="http://www.w3.org/2000/svg" width="45" height="46" viewBox="0 0 45 46" fill="none"><path d="M43.0991 1.44323C43.0868 1.36261 43.0555 1.28593 43.0077 1.2193C42.9599 1.15266 42.8969 1.09791 42.8237 1.05941C42.75 1.0219 42.6684 1.0016 42.5853 1.00009C42.5023 0.998578 42.42 1.01589 42.3448 1.05069C31.5395 6.17117 23.9797 11.7862 19.7285 17.8104C19.1013 17.1832 13.146 11.4862 1.60415 9.85058C1.52923 9.84068 1.45303 9.84654 1.3806 9.86776C1.30817 9.88898 1.24117 9.92509 1.18404 9.97368C1.1269 10.0223 1.08094 10.0822 1.04922 10.1496C1.01749 10.2169 1.00071 10.2902 1 10.3644C1 10.6043 1.1537 34.4402 19.8005 40.9328C19.827 40.9396 19.854 40.9443 19.8813 40.9468C19.8964 40.9521 19.9119 40.9564 19.9275 40.9599H19.932C20.011 40.9669 20.4073 41 21.0487 41C23.8234 41 31.1495 40.3894 36.8445 34.4821C43.2902 27.7906 45.3984 16.6747 43.0991 1.44323ZM2.07769 10.9732C13.2393 12.7336 18.9662 18.531 19.024 18.5894C19.0622 18.6295 19.119 18.6269 19.1661 18.6522C17.8192 20.7225 16.8618 22.839 16.2938 25.0018C11.8897 18.9069 6.10147 14.3892 6.04106 14.3412C5.92993 14.2748 5.79791 14.2506 5.66986 14.2731C5.54181 14.2957 5.42656 14.3634 5.34584 14.4636C5.26512 14.5637 5.22449 14.6894 5.23161 14.817C5.23873 14.9445 5.29311 15.0651 5.38449 15.156C5.44757 15.2031 11.617 20.0183 15.9801 26.3809C14.874 32.3955 17.088 37.0606 18.5149 39.3068C3.75419 32.9355 2.2305 14.5523 2.07769 10.9732ZM36.0857 33.7572C30.3561 39.7125 22.6577 39.9925 20.5716 39.9506C20.9688 37.072 35 26.0773 33.8726 14.1659C33.9341 14.1237 33.9859 14.0692 34.0244 14.0059C34.063 13.9427 34.0875 13.8722 34.0964 13.799C34.1053 13.7258 34.0983 13.6516 34.076 13.5812C34.0537 13.5109 34.0164 13.4459 33.9668 13.3907C33.9171 13.3354 33.8561 13.2911 33.7878 13.2606C33.7194 13.2301 33.6453 13.2141 33.5702 13.2136C33.4952 13.2132 33.4209 13.2283 33.3522 13.258C33.2835 13.2878 33.2219 13.3314 33.1716 13.3861C33.1716 25.0047 23.3895 33.4649 20.3045 37.9431C20.0197 38.3565 19.792 38.736 19.6343 39.0809C18.307 37.0694 15.7856 32.2429 17.1049 26.0773C18.9591 17.4118 27.386 9.41617 42.1592 2.29897C44.2346 16.8273 42.1929 27.4094 36.0857 33.7572Z" fill="white"></path><path d="M20.5716 39.9506C22.6577 39.9925 30.3561 39.7125 36.0857 33.7572C42.1929 27.4094 44.2346 16.8273 42.1592 2.29897C27.386 9.41617 18.9591 17.4118 17.1049 26.0773C15.7856 32.2429 18.307 37.0694 19.6343 39.0809C19.792 38.736 20.0197 38.3565 20.3045 37.9431M20.5716 39.9506C20.9688 37.072 35 26.0773 33.8726 14.1659C33.9341 14.1237 33.9859 14.0692 34.0244 14.0059C34.063 13.9427 34.0875 13.8722 34.0964 13.799C34.1053 13.7258 34.0983 13.6516 34.076 13.5812C34.0537 13.5109 34.0164 13.4459 33.9668 13.3907C33.9171 13.3354 33.8561 13.2911 33.7878 13.2606C33.7194 13.2301 33.6453 13.2141 33.5702 13.2136C33.4952 13.2132 33.4209 13.2283 33.3522 13.258C33.2835 13.2878 33.2219 13.3314 33.1716 13.3861C33.1716 25.0047 23.3895 33.4649 20.3045 37.9431M20.5716 39.9506C18.5478 41.6337 14 45 12 45C9.5 45 20.9747 40.3862 20.3045 37.9431M43.0991 1.44323C43.0868 1.36261 43.0555 1.28593 43.0077 1.2193C42.9599 1.15266 42.8969 1.09791 42.8237 1.05941C42.75 1.0219 42.6684 1.0016 42.5853 1.00009C42.5023 0.998578 42.42 1.01589 42.3448 1.05069C31.5395 6.17117 23.9797 11.7862 19.7285 17.8104C19.1013 17.1832 13.146 11.4862 1.60415 9.85058C1.52923 9.84068 1.45303 9.84654 1.3806 9.86776C1.30817 9.88898 1.24117 9.92509 1.18404 9.97368C1.1269 10.0223 1.08094 10.0822 1.04922 10.1496C1.01749 10.2169 1.00071 10.2902 1 10.3644C1 10.6043 1.1537 34.4402 19.8005 40.9328C19.827 40.9396 19.854 40.9443 19.8813 40.9468C19.8964 40.9521 19.9119 40.9564 19.9275 40.9599H19.932C20.011 40.9669 20.4073 41 21.0487 41C23.8234 41 31.1495 40.3894 36.8445 34.4821C43.2902 27.7906 45.3984 16.6747 43.0991 1.44323ZM2.07769 10.9732C13.2393 12.7336 18.9662 18.531 19.024 18.5894C19.0622 18.6295 19.119 18.6269 19.1661 18.6522C17.8192 20.7225 16.8618 22.839 16.2938 25.0018C11.8897 18.9069 6.10147 14.3892 6.04106 14.3412C5.92993 14.2748 5.79791 14.2506 5.66986 14.2731C5.54181 14.2957 5.42656 14.3634 5.34584 14.4636C5.26512 14.5637 5.22449 14.6894 5.23161 14.817C5.23873 14.9445 5.29311 15.0651 5.38449 15.156C5.44757 15.2031 11.617 20.0183 15.9801 26.3809C14.874 32.3955 17.088 37.0606 18.5149 39.3068C3.75419 32.9355 2.2305 14.5523 2.07769 10.9732Z" stroke="white"></path></svg>