<svg xmlns="http://www.w3.org/2000/svg" width="40" height="40" viewBox="0 0 40 40" fill="none"><g clip-path="url(#clip0_1319_550)"><path d="M28.3594 10.3126C27.2377 9.20053 25.9045 8.32467 24.4385 7.73679C22.9724 7.14891 21.4034 6.86095 19.8242 6.88993C13.507 6.98055 8.24531 12.1915 8.09531 18.5063C8.0479 20.457 8.48042 22.3895 9.35484 24.1339C10.2293 25.8782 11.5188 27.3811 13.1102 28.5103C13.321 28.6577 13.4937 28.8533 13.6136 29.081C13.7336 29.3086 13.7975 29.5616 13.8 29.8188V32.1485C13.8002 32.2552 13.8427 32.3574 13.9181 32.4328C13.9935 32.5082 14.0957 32.5507 14.2023 32.5509H25.7977C25.9044 32.5509 26.0067 32.5085 26.0822 32.433C26.1576 32.3576 26.2 32.2552 26.2 32.1485V29.8173C26.2016 29.5617 26.2644 29.3101 26.383 29.0837C26.5017 28.8573 26.6728 28.6625 26.882 28.5157C28.3032 27.5096 29.4864 26.2041 30.3484 24.6911C31.2103 23.1782 31.73 21.4946 31.8709 19.7591C32.0117 18.0235 31.7703 16.2782 31.1636 14.6461C30.5569 13.014 29.5997 11.5347 28.3594 10.3126ZM26.4164 27.8587C26.1024 28.0801 25.8458 28.3734 25.6682 28.7141C25.4906 29.0548 25.397 29.4331 25.3953 29.8173V31.7454H14.6094V29.8188C14.6067 29.433 14.5118 29.0534 14.3327 28.7116C14.1536 28.3698 13.8954 28.0758 13.5797 27.854C12.0957 26.8011 10.8932 25.3996 10.0778 23.7729C9.26252 22.1462 8.85939 20.3441 8.90391 18.5251C9.04375 12.6384 13.95 7.77899 19.8414 7.69462C22.2114 7.6599 24.5303 8.38448 26.459 9.76236C28.3876 11.1402 29.8247 13.0991 30.56 15.3524C31.2954 17.6057 31.2904 20.0352 30.5458 22.2855C29.8012 24.5358 28.3561 26.4887 26.4219 27.8587H26.4164Z" fill="white" stroke="white"></path><path d="M28.0976 20.0493C28.5273 19.5704 28.7555 18.8337 28.393 17.8767C27.714 16.086 26.2515 15.6407 25.5406 15.5329C25.5145 15.2112 25.4086 14.9011 25.2323 14.6307C25.056 14.3603 24.8151 14.1382 24.5312 13.9845C23.6765 13.5157 22.9531 13.672 22.5523 13.8353C22.0836 13.3603 21.4586 13.1821 20.7359 13.3407C20.4527 13.4044 20.1953 13.5523 19.9976 13.765C19.7997 13.5523 19.5421 13.4044 19.2586 13.3407C18.5383 13.1845 17.9117 13.3603 17.443 13.8353C17.0445 13.672 16.3211 13.5157 15.4687 13.9845C15.1857 14.1383 14.9454 14.3601 14.7695 14.6301C14.5937 14.9 14.4879 15.2095 14.4617 15.5306C13.7508 15.6407 12.2883 16.086 11.6094 17.8743C11.2469 18.8314 11.475 19.5681 11.9047 20.047C11.3969 20.4142 10.9164 21.1251 11.0016 22.3485C11.1086 23.8939 12.8266 24.3064 13.8234 24.3064H26.1789C27.1758 24.3064 28.893 23.8939 29.0008 22.3485C29.0859 21.1275 28.6055 20.4165 28.0976 20.0493ZM11.8023 22.2946C11.7148 21.04 12.3555 20.6665 12.6305 20.5642C12.9113 20.6851 13.2138 20.7478 13.5195 20.7485C14.0766 20.7485 14.6039 20.5368 14.9328 20.1337C14.9662 20.0927 14.9912 20.0455 15.0063 19.9948C15.0215 19.9441 15.0265 19.8909 15.0211 19.8383C15.0157 19.7856 15 19.7346 14.9748 19.688C14.9497 19.6415 14.9156 19.6003 14.8746 19.5669C14.8336 19.5335 14.7864 19.5085 14.7357 19.4934C14.685 19.4782 14.6318 19.4732 14.5791 19.4786C14.5265 19.484 14.4755 19.4997 14.4289 19.5249C14.3823 19.55 14.3412 19.5841 14.3078 19.6251C14.007 19.9923 13.3133 20.0493 12.7922 19.7485C12.475 19.5657 11.9969 19.1157 12.3586 18.1618C12.8766 16.7939 13.975 16.4306 14.5281 16.3337C14.6567 16.7991 14.9142 17.2186 15.2711 17.5439C15.0367 17.8298 14.8805 18.2681 15.0187 18.8853C15.039 18.9738 15.0887 19.0529 15.1596 19.1096C15.2305 19.1663 15.3185 19.1974 15.4094 19.1978C15.4393 19.1979 15.4692 19.1945 15.4984 19.1876C15.6025 19.1639 15.6929 19.1 15.7498 19.0098C15.8068 18.9196 15.8257 18.8105 15.8023 18.7064C15.7101 18.2978 15.8344 18.09 15.9508 17.9884C16.3005 18.1331 16.6888 18.156 17.0531 18.0532C17.3482 17.9649 17.6195 17.8111 17.8469 17.6033C18.0743 17.3955 18.2518 17.1391 18.3664 16.8532C18.4023 16.7527 18.3969 16.6421 18.3513 16.5456C18.3056 16.4491 18.2235 16.3747 18.123 16.3388C18.0225 16.3028 17.9119 16.3083 17.8154 16.3539C17.7189 16.3996 17.6445 16.4816 17.6086 16.5821C17.5374 16.7467 17.4316 16.8941 17.2984 17.0142C17.1652 17.1343 17.0078 17.2244 16.8367 17.2782C16.6028 17.3413 16.3534 17.3092 16.143 17.1892L16.1242 17.179C16.0487 17.1367 15.977 17.0878 15.9101 17.0329C15.729 16.8919 15.578 16.7161 15.466 16.5157C15.3539 16.3154 15.2831 16.0946 15.2578 15.8665C15.2578 15.8603 15.2578 15.8548 15.2578 15.8485C15.2508 15.7688 15.2508 15.6885 15.2578 15.6087C15.2706 15.4173 15.3319 15.2324 15.4359 15.0713C15.5399 14.9101 15.6832 14.7781 15.8523 14.6876C16.3164 14.4337 16.7117 14.4532 16.9734 14.5196C16.9246 14.6215 16.8811 14.7258 16.843 14.8321C16.8064 14.9324 16.8112 15.0431 16.8562 15.1399C16.9013 15.2367 16.9829 15.3116 17.0832 15.3482C17.1835 15.3847 17.2942 15.38 17.391 15.3349C17.4877 15.2899 17.5626 15.2082 17.5992 15.1079C17.8961 14.2923 18.3805 13.972 19.0836 14.1267C19.2303 14.162 19.3606 14.2461 19.4533 14.3652C19.5459 14.4843 19.5955 14.6313 19.5937 14.7821V20.4407C18.0055 20.9048 17.5 19.7267 17.4445 19.5814C17.4075 19.4812 17.3323 19.3998 17.2353 19.3551C17.1383 19.3104 17.0275 19.3061 16.9273 19.3431C16.8272 19.3801 16.7458 19.4553 16.7011 19.5523C16.6564 19.6493 16.6521 19.7601 16.6891 19.8603C16.8111 20.1568 16.9891 20.4271 17.2133 20.6564C16.5101 21.015 16.1391 21.7204 16.0273 22.1548C16.0012 22.2578 16.0168 22.3669 16.0708 22.4584C16.1248 22.5498 16.2128 22.6162 16.3156 22.6431C16.3488 22.6517 16.3829 22.6562 16.4172 22.6564C16.5062 22.6566 16.5928 22.6274 16.6634 22.5733C16.7341 22.5191 16.7849 22.4431 16.8078 22.3571C16.8203 22.311 17.1141 21.2634 18.1359 21.2376C18.382 21.3182 18.6395 21.3585 18.8984 21.3571C19.1337 21.3554 19.368 21.3271 19.5969 21.2728V23.5032H13.8211C13.7422 23.504 11.8852 23.49 11.8023 22.2946ZM28.1976 22.2946C28.114 23.49 26.2578 23.504 26.1789 23.504H20.4023V21.2735C20.631 21.3279 20.865 21.3562 21.1 21.3579C21.3587 21.3594 21.6159 21.319 21.8617 21.2384C22.8844 21.2681 23.1758 22.3079 23.1898 22.3571C23.2166 22.4607 23.2833 22.5495 23.3755 22.6038C23.4677 22.6582 23.5776 22.6737 23.6812 22.647C23.7848 22.6203 23.8736 22.5535 23.9279 22.4613C23.9823 22.3692 23.9978 22.2592 23.9711 22.1556C23.8586 21.7204 23.4984 21.0103 22.7891 20.6525C23.0113 20.4242 23.1879 20.1556 23.3094 19.861C23.346 19.7608 23.3414 19.65 23.2964 19.5532C23.2514 19.4563 23.1698 19.3813 23.0695 19.3446C22.9692 19.308 22.8585 19.3126 22.7616 19.3576C22.6648 19.4026 22.5898 19.4842 22.5531 19.5845C22.3955 19.947 22.1142 20.2416 21.7594 20.4157C21.3836 20.5876 20.9289 20.5962 20.4047 20.4423V14.7829C20.4029 14.6322 20.4523 14.4852 20.5448 14.3662C20.6374 14.2471 20.7675 14.163 20.9141 14.1275C21.6219 13.9712 22.1062 14.2931 22.4031 15.1087C22.4397 15.209 22.5146 15.2906 22.6114 15.3357C22.7081 15.3807 22.8188 15.3855 22.9191 15.3489C23.0194 15.3124 23.1011 15.2375 23.1461 15.1407C23.1912 15.0439 23.1959 14.9332 23.1594 14.8329C23.1213 14.7266 23.0777 14.6223 23.0289 14.5204C23.4094 14.4287 23.8106 14.4887 24.1476 14.6876C24.3159 14.7784 24.4585 14.9103 24.5619 15.0711C24.6653 15.2319 24.7263 15.4164 24.739 15.6071C24.7867 16.1282 24.543 16.661 24.0867 17.0314C24.0213 17.0848 23.9515 17.1326 23.8781 17.1743L23.8523 17.1884C23.7484 17.2479 23.6338 17.2863 23.515 17.3014C23.3962 17.3164 23.2756 17.3077 23.1601 17.2759C22.9892 17.2221 22.8317 17.1322 22.6986 17.0122C22.5654 16.8922 22.4596 16.745 22.3883 16.5806C22.3705 16.5308 22.343 16.4851 22.3076 16.4459C22.2721 16.4067 22.2292 16.3749 22.1814 16.3524C22.1337 16.3298 22.0819 16.3168 22.0291 16.3142C21.9764 16.3116 21.9236 16.3194 21.8738 16.3372C21.8241 16.355 21.7783 16.3824 21.7391 16.4179C21.7 16.4534 21.6682 16.4963 21.6456 16.544C21.623 16.5918 21.61 16.6436 21.6074 16.6964C21.6048 16.7491 21.6127 16.8019 21.6305 16.8517C21.7451 17.1374 21.9226 17.3937 22.1498 17.6014C22.377 17.8091 22.6481 17.963 22.943 18.0517C23.0925 18.0935 23.247 18.1148 23.4023 18.115C23.6236 18.1147 23.8426 18.0709 24.0469 17.986C24.1562 18.0837 24.2875 18.2915 24.1945 18.7048C24.1712 18.8089 24.1901 18.918 24.247 19.0082C24.304 19.0984 24.3944 19.1624 24.4984 19.186C24.5276 19.1928 24.5575 19.1962 24.5875 19.1962C24.6783 19.1959 24.7663 19.1648 24.8373 19.108C24.9082 19.0513 24.9578 18.9722 24.9781 18.8837C25.1172 18.2665 24.957 17.8282 24.725 17.5423C25.082 17.2177 25.3399 16.7987 25.4687 16.3337C26.0219 16.4298 27.1203 16.7939 27.6383 18.1618C28 19.1157 27.5219 19.5681 27.2047 19.7485C26.6836 20.0493 25.9898 19.9931 25.689 19.6251C25.6557 19.5841 25.6145 19.55 25.5679 19.5249C25.5214 19.4997 25.4703 19.484 25.4177 19.4786C25.3651 19.4732 25.3119 19.4782 25.2612 19.4934C25.2105 19.5085 25.1633 19.5335 25.1223 19.5669C25.0812 19.6003 25.0472 19.6415 25.022 19.688C24.9969 19.7346 24.9812 19.7856 24.9758 19.8383C24.9704 19.8909 24.9754 19.9441 24.9905 19.9948C25.0057 20.0455 25.0307 20.0927 25.064 20.1337C25.393 20.5368 25.9234 20.7485 26.4773 20.7485C26.7831 20.7478 27.0856 20.6851 27.3664 20.5642C27.6445 20.6665 28.2851 21.04 28.1976 22.2946Z" fill="white" stroke="white"></path><path d="M25.7975 34.4204H14.2021C14.0954 34.4204 13.9931 34.4628 13.9176 34.5383C13.8422 34.6137 13.7998 34.716 13.7998 34.8228C13.7998 34.9295 13.8422 35.0318 13.9176 35.1073C13.9931 35.1827 14.0954 35.2251 14.2021 35.2251H25.7975C25.9042 35.2251 26.0065 35.1827 26.082 35.1073C26.1574 35.0318 26.1998 34.9295 26.1998 34.8228C26.1998 34.716 26.1574 34.6137 26.082 34.5383C26.0065 34.4628 25.9042 34.4204 25.7975 34.4204Z" fill="white" stroke="white"></path><path d="M25.7975 37.4688H14.2021C14.0954 37.4688 13.9931 37.5111 13.9176 37.5866C13.8422 37.662 13.7998 37.7644 13.7998 37.8711C13.7998 37.9778 13.8422 38.0801 13.9176 38.1556C13.9931 38.231 14.0954 38.2734 14.2021 38.2734H25.7975C25.9042 38.2734 26.0065 38.231 26.082 38.1556C26.1574 38.0801 26.1998 37.9778 26.1998 37.8711C26.1998 37.7644 26.1574 37.662 26.082 37.5866C26.0065 37.5111 25.9042 37.4688 25.7975 37.4688Z" fill="white" stroke="white"></path><path d="M20 6.05781C20.1067 6.05781 20.209 6.01542 20.2845 5.93997C20.36 5.86452 20.4023 5.76218 20.4023 5.65547V2.12891C20.4023 2.0222 20.36 1.91986 20.2845 1.84441C20.209 1.76895 20.1067 1.72656 20 1.72656C19.8933 1.72656 19.791 1.76895 19.7155 1.84441C19.64 1.91986 19.5977 2.0222 19.5977 2.12891V5.65547C19.5977 5.70831 19.6081 5.76062 19.6283 5.80944C19.6485 5.85825 19.6781 5.90261 19.7155 5.93997C19.7529 5.97733 19.7972 6.00697 19.846 6.02719C19.8948 6.04741 19.9472 6.05781 20 6.05781Z" fill="white" stroke="white"></path><path d="M9.54783 8.63582C9.586 8.6724 9.63099 8.7011 9.68025 8.72028C9.72951 8.73947 9.78206 8.74877 9.83491 8.74764C9.88776 8.74652 9.93987 8.73499 9.98827 8.71373C10.0367 8.69247 10.0804 8.66188 10.117 8.62371C10.1535 8.58555 10.1822 8.54055 10.2014 8.49129C10.2206 8.44204 10.2299 8.38948 10.2288 8.33663C10.2277 8.28379 10.2161 8.23167 10.1949 8.18328C10.1736 8.13488 10.143 8.09115 10.1049 8.05457L7.29236 5.36473C7.21483 5.29344 7.11245 5.25539 7.00718 5.25875C6.90191 5.26211 6.80216 5.30662 6.72934 5.38271C6.65652 5.4588 6.61644 5.56041 6.6177 5.66573C6.61897 5.77104 6.66148 5.87166 6.73611 5.94598L9.54783 8.63582Z" fill="white" stroke="white"></path><path d="M5.1486 17.7155C5.1486 17.6086 5.10613 17.5061 5.03053 17.4305C4.95493 17.3549 4.85239 17.3124 4.74548 17.3124H0.887664C0.833284 17.31 0.778982 17.3186 0.728032 17.3378C0.677082 17.357 0.630541 17.3862 0.591213 17.4239C0.551885 17.4615 0.520586 17.5067 0.499203 17.5568C0.477821 17.6068 0.466797 17.6607 0.466797 17.7151C0.466797 17.7696 0.477821 17.8234 0.499203 17.8735C0.520586 17.9236 0.551885 17.9688 0.591213 18.0064C0.630541 18.044 0.677082 18.0733 0.728032 18.0925C0.778982 18.1116 0.833284 18.1203 0.887664 18.1179H4.74548C4.85226 18.1179 4.95467 18.0755 5.03025 18.0001C5.10583 17.9246 5.14839 17.8223 5.1486 17.7155Z" fill="white" stroke="white"></path><path d="M7.76864 27.9445L4.48114 30.814C4.44017 30.8484 4.40645 30.8906 4.38198 30.9382C4.35751 30.9857 4.34277 31.0377 4.33862 31.091C4.33446 31.1444 4.34099 31.198 4.35781 31.2488C4.37463 31.2995 4.4014 31.3465 4.43656 31.3868C4.47173 31.4271 4.51458 31.46 4.5626 31.4835C4.61063 31.5071 4.66287 31.5208 4.71627 31.5239C4.76967 31.527 4.82315 31.5195 4.8736 31.5017C4.92404 31.4839 4.97043 31.4562 5.01005 31.4203L8.29755 28.5515C8.37805 28.4814 8.42738 28.3822 8.43471 28.2756C8.44204 28.1691 8.40675 28.0641 8.33661 27.9836C8.26647 27.9031 8.16723 27.8537 8.06072 27.8464C7.9542 27.8391 7.84914 27.8744 7.76864 27.9445Z" fill="white" stroke="white"></path><path d="M30.1742 8.75007C30.2778 8.74996 30.3774 8.70995 30.4523 8.63835L33.2609 5.9485C33.3003 5.91228 33.3321 5.86857 33.3544 5.81992C33.3766 5.77127 33.389 5.71867 33.3907 5.66519C33.3924 5.6117 33.3834 5.55842 33.3643 5.50845C33.3452 5.45847 33.3162 5.41282 33.2793 5.37416C33.2423 5.3355 33.1979 5.30461 33.1488 5.2833C33.0998 5.26198 33.0469 5.25067 32.9934 5.25003C32.9399 5.24939 32.8868 5.25942 32.8372 5.27955C32.7876 5.29968 32.7426 5.32949 32.7047 5.36725L29.8922 8.0571C29.8341 8.11269 29.794 8.18439 29.7771 8.26296C29.7602 8.34154 29.7672 8.42338 29.7972 8.49795C29.8272 8.57252 29.8788 8.63638 29.9455 8.68132C30.0121 8.72626 30.0907 8.7502 30.1711 8.75007H30.1742Z" fill="white" stroke="white"></path><path d="M39.1127 17.3124H35.2549C35.2005 17.31 35.1462 17.3186 35.0952 17.3378C35.0443 17.357 34.9977 17.3862 34.9584 17.4239C34.9191 17.4615 34.8878 17.5067 34.8664 17.5568C34.845 17.6068 34.834 17.6607 34.834 17.7151C34.834 17.7696 34.845 17.8234 34.8664 17.8735C34.8878 17.9236 34.9191 17.9688 34.9584 18.0064C34.9977 18.044 35.0443 18.0733 35.0952 18.0925C35.1462 18.1116 35.2005 18.1203 35.2549 18.1179H39.1127C39.167 18.1203 39.2213 18.1116 39.2723 18.0925C39.3232 18.0733 39.3698 18.044 39.4091 18.0064C39.4484 17.9688 39.4797 17.9236 39.5011 17.8735C39.5225 17.8234 39.5335 17.7696 39.5335 17.7151C39.5335 17.6607 39.5225 17.6068 39.5011 17.5568C39.4797 17.5067 39.4484 17.4615 39.4091 17.4239C39.3698 17.3862 39.3232 17.357 39.2723 17.3378C39.2213 17.3186 39.167 17.31 39.1127 17.3124Z" fill="white" stroke="white"></path><path d="M35.519 30.814L32.2315 27.9445C32.1916 27.9098 32.1453 27.8832 32.0952 27.8664C32.0451 27.8496 31.9921 27.8428 31.9394 27.8464C31.8867 27.85 31.8351 27.864 31.7878 27.8875C31.7405 27.9111 31.6982 27.9437 31.6635 27.9836C31.6288 28.0234 31.6022 28.0697 31.5854 28.1199C31.5686 28.17 31.5618 28.2229 31.5654 28.2756C31.569 28.3284 31.583 28.3799 31.6065 28.4272C31.6301 28.4746 31.6627 28.5168 31.7026 28.5515L34.9901 31.4203C35.0297 31.4562 35.0761 31.4839 35.1265 31.5017C35.177 31.5195 35.2304 31.527 35.2838 31.5239C35.3372 31.5208 35.3895 31.5071 35.4375 31.4835C35.4855 31.46 35.5284 31.4271 35.5635 31.3868C35.5987 31.3465 35.6255 31.2996 35.6423 31.2488C35.6591 31.198 35.6656 31.1444 35.6615 31.091C35.6573 31.0377 35.6426 30.9858 35.6181 30.9382C35.5937 30.8906 35.5599 30.8484 35.519 30.814Z" fill="white" stroke="white"></path></g><defs><clipPath id="clip0_1319_550"><rect width="40" height="40" fill="white"></rect></clipPath></defs></svg>