<svg xmlns="http://www.w3.org/2000/svg" width="34" height="40" viewBox="0 0 34 40" fill="none"><path d="M20.7188 0H13.2812C10.8206 0 8.79412 1.74944 8.5293 3.99888L4.78125 4C2.14064 4 0 6.01472 0 8.5V35.5C0 37.9852 2.14064 40 4.78125 40H29.2188C31.8593 40 34 37.9852 34 35.5V8.5C34 6.01472 31.8593 4 29.2188 4L25.4707 3.99888C25.2059 1.74944 23.1793 0 20.7188 0ZM13.2812 3H20.7188C21.5989 3 22.3125 3.67158 22.3125 4.5C22.3125 5.32842 21.5989 6 20.7188 6H13.2812C12.4011 6 11.6875 5.32842 11.6875 4.5C11.6875 3.67158 12.4011 3 13.2812 3ZM18.0625 16.5C18.0625 15.6716 18.7761 15 19.6562 15H27.0938C27.9739 15 28.6875 15.6716 28.6875 16.5C28.6875 17.3284 27.9739 18 27.0938 18H19.6562C18.7761 18 18.0625 17.3284 18.0625 16.5ZM19.6565 26H27.0935C27.9739 26 28.6873 26.6716 28.6873 27.5C28.6873 28.3284 27.9739 29 27.0935 29H19.6565C18.7761 29 18.0627 28.3284 18.0627 27.5C18.0627 26.6716 18.7761 26 19.6565 26ZM14.4081 15.5607L10.1582 19.5606C9.53581 20.1464 8.52669 20.1464 7.9043 19.5606L5.7793 17.5606C5.15691 16.9748 5.15691 16.0252 5.7793 15.4393C6.40169 14.8536 7.41081 14.8536 8.0332 15.4393L9.03125 16.3786L12.1543 13.4393C12.7768 12.8536 13.7857 12.8536 14.4081 13.4393C15.0306 14.0251 15.0306 14.9749 14.4081 15.5607ZM14.4081 24.4394C15.0306 25.0252 15.0306 25.9748 14.4081 26.5606L10.1582 30.5606C9.53581 31.1464 8.52669 31.1464 7.9043 30.5606L5.7793 28.5606C5.15691 27.9748 5.15691 27.0252 5.7793 26.4394C6.40169 25.8536 7.41081 25.8536 8.0332 26.4394L9.03125 27.3786L12.1543 24.4394C12.7768 23.8536 13.7857 23.8536 14.4081 24.4394Z" fill="white"></path></svg>