<svg xmlns="http://www.w3.org/2000/svg" width="45" height="45" viewBox="0 0 45 45" fill="none"><path d="M14.0796 19.2628L19.9387 24.4336L20.8696 23.3789L15.0098 18.2081C14.4262 17.6934 14.0908 16.9509 14.0908 16.1719H12.6846C12.6846 17.3545 13.1936 18.4809 14.0796 19.2628Z" fill="white"></path><path d="M42.1024 23.9062C41.5245 23.9062 40.9591 24.1404 40.5506 24.5489L36.2714 28.8281H33.892L34.7878 27.4845C35.0283 27.1223 35.1562 26.7019 35.1562 26.2666V26.1007C35.1562 24.8906 34.1719 23.9062 32.9618 23.9062C32.3838 23.9062 31.8185 24.1404 31.41 24.5489L24.6452 31.3137C23.7157 32.2432 23.2031 33.4793 23.2031 34.7941V38.6719H21.7969V34.7941C21.7969 33.4793 21.2843 32.2432 20.3548 31.3137L13.59 24.5489C13.1815 24.1404 12.6162 23.9062 12.0382 23.9062C10.8281 23.9062 9.84375 24.8906 9.84375 26.1007V26.2666C9.84375 26.7012 9.97172 27.1223 10.2122 27.4838L11.108 28.8281H8.72859L4.44938 24.5489C4.04086 24.1404 3.47555 23.9062 2.89758 23.9062C1.6875 23.9062 0.703125 24.8906 0.703125 26.1007V26.2666C0.703125 26.7012 0.831094 27.1223 1.07156 27.4838L5.19328 33.667C6.10875 35.0402 7.64016 35.8594 9.28898 35.8594H13.3594C13.7475 35.8594 14.0625 36.1744 14.0625 36.5625V38.6719H12.6562V44.2969H21.7969H23.2031H32.3438V38.6719H30.9375V36.5625C30.9375 36.1744 31.2525 35.8594 31.6406 35.8594H35.711C37.3598 35.8594 38.8905 35.0402 39.806 33.6677L43.9277 27.4845C44.1689 27.1223 44.2969 26.7019 44.2969 26.2666V26.1007C44.2969 24.8906 43.3125 23.9062 42.1024 23.9062ZM13.3594 34.4531H9.28898C8.11125 34.4531 7.01789 33.8681 6.36398 32.8873L2.24227 26.704C2.15508 26.5746 2.10938 26.4227 2.10938 26.2666V26.1007C2.10938 25.6662 2.46305 25.3125 2.89758 25.3125C3.105 25.3125 3.3082 25.3962 3.45516 25.5431L8.14641 30.2344H12.0459L12.7744 31.3277L13.9444 30.548L11.3822 26.7047C11.2957 26.5746 11.25 26.4227 11.25 26.2666V26.1007C11.25 25.6662 11.6037 25.3125 12.0382 25.3125C12.2456 25.3125 12.4488 25.3962 12.5958 25.5431L19.3605 32.3079C20.0243 32.9716 20.3906 33.8548 20.3906 34.7941V38.6719H15.4688V36.5625C15.4688 35.3995 14.5223 34.4531 13.3594 34.4531ZM21.7969 42.8906H14.0625V40.0781H21.7969V42.8906ZM30.9375 42.8906H23.2031V40.0781H30.9375V42.8906ZM42.8906 26.2666C42.8906 26.4227 42.8449 26.5746 42.7584 26.704L38.6367 32.8873C37.9828 33.8681 36.8888 34.4531 35.711 34.4531H31.6406C30.4777 34.4531 29.5312 35.3995 29.5312 36.5625V38.6719H24.6094V34.7941C24.6094 33.8548 24.9757 32.9716 25.6395 32.3079L32.4042 25.5431C32.5512 25.3962 32.7544 25.3125 32.9618 25.3125C33.3963 25.3125 33.75 25.6662 33.75 26.1007V26.2666C33.75 26.4227 33.7043 26.5746 33.6178 26.704L31.0556 30.5473L32.2256 31.327L32.9541 30.2344H36.8536L41.5448 25.5431C41.6918 25.3962 41.895 25.3125 42.1024 25.3125C42.537 25.3125 42.8906 25.6662 42.8906 26.1007V26.2666Z" fill="white"></path><path d="M23.4021 25.2C23.325 25.2 23.2481 25.1905 23.1733 25.1719C19.8315 24.3361 17.0665 22.9108 14.9561 20.9354C13.1422 19.2388 11.8519 17.1472 11.2256 14.888C10.7741 13.2626 10.6795 11.5954 10.9522 10.0745C11.2249 8.55357 11.8369 7.28332 12.724 6.39877C14.9599 4.16957 18.3042 4.14019 20.624 5.09913C21.6855 5.53672 22.5871 6.1881 23.2322 6.98076C23.2903 7.05202 23.3461 7.12433 23.3996 7.19767C23.4536 7.12433 23.5096 7.05202 23.5677 6.98076C24.2122 6.1881 25.1144 5.53734 26.1759 5.09913C28.4957 4.14019 31.8425 4.16957 34.0758 6.39877C34.963 7.28332 35.5756 8.55419 35.8477 10.0745C36.1198 11.5948 36.0257 13.2626 35.5743 14.888C34.9473 17.1472 33.6576 19.2382 31.8438 20.9354C29.7334 22.9108 26.9684 24.3361 23.626 25.1719C23.5528 25.1902 23.4776 25.1996 23.4021 25.2ZM17.595 6.35751C16.111 6.35751 14.8363 6.942 14.0539 7.72215C12.7353 9.03992 12.3153 11.7811 13.0382 14.3885C13.573 16.3151 14.6808 18.1067 16.2433 19.5683C18.0703 21.278 20.4779 22.5307 23.4021 23.2946C26.327 22.5307 28.7346 21.278 30.5616 19.5683C32.1234 18.1067 33.2319 16.3176 33.7661 14.3885C34.4896 11.7811 34.0721 9.03992 32.751 7.72215C31.5823 6.55755 29.3196 5.82928 26.8982 6.82948C25.2981 7.49023 24.3426 8.68172 24.3426 10.0176C24.3426 10.2663 24.2435 10.5048 24.0672 10.6807C23.8908 10.8565 23.6516 10.9553 23.4021 10.9553C23.1527 10.9553 22.9135 10.8565 22.7371 10.6807C22.5608 10.5048 22.4617 10.2663 22.4617 10.0176C22.4617 8.68172 21.5068 7.49023 19.9067 6.82948C19.1749 6.52178 18.3893 6.36138 17.595 6.35751Z" fill="white"></path></svg>