<svg xmlns="http://www.w3.org/2000/svg" width="33" height="33" viewBox="0 0 33 33" fill="none"><path d="M16.5 7.21875C17.3528 7.21875 18.0469 6.52472 18.0469 5.67188C18.0469 4.81903 17.3528 4.125 16.5 4.125C15.6472 4.125 14.9531 4.81903 14.9531 5.67188C14.9531 6.52472 15.6472 7.21875 16.5 7.21875ZM16.5 5.15625C16.7841 5.15625 17.0156 5.38777 17.0156 5.67188C17.0156 5.95598 16.7841 6.1875 16.5 6.1875C16.2159 6.1875 15.9844 5.95598 15.9844 5.67188C15.9844 5.38777 16.2159 5.15625 16.5 5.15625Z" fill="black" stroke="black" stroke-width="0.2"></path><path d="M16.5 18.0469C15.9313 18.0469 15.4688 17.5844 15.4688 17.0156H14.4375C14.4375 18.1531 15.3625 19.0781 16.5 19.0781C17.6375 19.0781 18.5625 18.1531 18.5625 17.0156H17.5312C17.5312 17.5844 17.0687 18.0469 16.5 18.0469Z" fill="black" stroke="black" stroke-width="0.2"></path><path d="M29.238 17.5329C29.3365 17.2055 29.3906 16.859 29.3906 16.5001C29.3906 15.2946 28.777 14.1715 27.7819 13.5053C27.8221 13.3063 27.8438 13.1011 27.8438 12.8907C27.8438 11.5099 26.9342 10.3379 25.6828 9.94135C25.3069 8.23463 23.8693 6.9435 22.1435 6.73622C22.1605 6.55472 22.1719 6.37219 22.1719 6.18759C22.1719 4.57678 21.483 3.0361 20.2821 1.96102C19.0828 0.88697 17.4694 0.374439 15.855 0.551814C13.3212 0.832314 11.2303 2.86491 10.8833 5.3858C10.8204 5.84213 10.8168 6.2933 10.8585 6.7357C9.13172 6.94247 7.69312 8.23411 7.31723 9.94135C6.06581 10.3379 5.15625 11.5099 5.15625 12.8907C5.15625 13.1011 5.17791 13.3063 5.21812 13.5053C4.22297 14.1715 3.60938 15.2946 3.60938 16.5001C3.60938 16.859 3.66352 17.2055 3.762 17.5329C3.00506 18.379 2.57812 19.4783 2.57812 20.6251C2.57812 22.4226 3.597 24.0293 5.19956 24.8017C5.4022 26.2614 6.38292 27.502 7.7452 28.0522C7.85503 30.5143 9.88659 32.4845 12.375 32.4845C14.1709 32.4845 15.7291 31.4568 16.5 29.96C17.2709 31.4568 18.8291 32.4845 20.625 32.4845C23.1134 32.4845 25.145 30.5143 25.2548 28.0522C26.6166 27.502 27.5973 26.2614 27.7999 24.8017C29.403 24.0293 30.4219 22.4226 30.4219 20.6251C30.4219 19.4783 29.9949 18.379 29.238 17.5329ZM11.9053 5.52605C12.1889 3.46664 13.8976 1.80581 15.9684 1.57688C17.3116 1.42786 18.5986 1.83778 19.5943 2.7293C20.577 3.60895 21.1406 4.86966 21.1406 6.18759C21.1406 7.22606 20.805 8.20781 20.1697 9.02611C19.2375 10.227 18.6079 11.5382 18.2897 12.8907H17.0156V8.25009H15.9844V12.8907H14.7304C14.4282 11.5027 13.8213 10.2172 12.936 9.15708C12.0883 8.14285 11.7222 6.85378 11.9053 5.52605ZM14.8974 13.922H18.1093C18.0721 14.2468 18.0469 14.5727 18.0469 14.8996V14.9532H14.9531V14.898C14.9531 14.5691 14.9304 14.2442 14.8974 13.922ZM27.1245 23.973L26.8218 24.0947L26.8022 24.4206C26.7377 25.5014 26.1051 26.4527 25.1775 26.9534C24.7613 24.8197 22.8793 23.2032 20.625 23.2032V24.2345C22.6153 24.2345 24.2344 25.8535 24.2344 27.8438C24.2344 29.8342 22.6153 31.4532 20.625 31.4532C18.6347 31.4532 17.0156 29.8342 17.0156 27.8438V22.172H15.9844V27.8438C15.9844 29.8342 14.3653 31.4532 12.375 31.4532C10.3847 31.4532 8.76562 29.8342 8.76562 27.8438C8.76562 25.8535 10.3847 24.2345 12.375 24.2345V23.2032C10.1207 23.2032 8.23866 24.8197 7.82203 26.9534C6.89442 26.4527 6.26175 25.5014 6.1973 24.4206L6.1777 24.0947L5.87503 23.973C4.49883 23.4198 3.60938 22.106 3.60938 20.6251C3.60938 19.8811 3.84295 19.1633 4.26112 18.5631C4.91442 19.4964 5.99569 20.1095 7.21875 20.1095C8.10872 20.1095 8.96311 19.7831 9.62569 19.1901L8.93784 18.4218C8.46502 18.8452 7.854 19.0782 7.21875 19.0782C5.79717 19.0782 4.64062 17.9217 4.64062 16.5001C4.64062 15.7148 5.00466 14.9769 5.60742 14.4912C6.15037 15.3848 7.13006 15.9845 8.25 15.9845V14.9532C7.11253 14.9532 6.1875 14.0282 6.1875 12.8907C6.1875 11.7533 7.11253 10.8282 8.25 10.8282C9.38747 10.8282 10.3125 11.7533 10.3125 12.8907H11.3438C11.3438 11.2443 10.05 9.89803 8.42634 9.80574C8.82131 8.68477 9.84792 7.87885 11.0483 7.7618C11.2628 8.50585 11.631 9.20349 12.1445 9.81863C13.2907 11.1902 13.9219 12.9944 13.9219 14.898V15.9845H19.0781V14.8996C19.0781 13.0774 19.7371 11.265 20.9844 9.65878C21.4304 9.08438 21.7511 8.44242 21.9476 7.76128C23.15 7.8773 24.1787 8.68322 24.5742 9.80574C22.95 9.89803 21.6562 11.2443 21.6562 12.8907H22.6875C22.6875 11.7533 23.6125 10.8282 24.75 10.8282C25.8875 10.8282 26.8125 11.7533 26.8125 12.8907C26.8125 14.0282 25.8875 14.9532 24.75 14.9532V15.9845C25.8699 15.9845 26.8496 15.3848 27.3926 14.4912C27.9953 14.9769 28.3594 15.7148 28.3594 16.5001C28.3594 17.9217 27.2028 19.0782 25.7812 19.0782C25.146 19.0782 24.535 18.8452 24.0622 18.4218L23.3743 19.1901C24.0369 19.7831 24.8913 20.1095 25.7812 20.1095C27.0043 20.1095 28.0856 19.4964 28.7389 18.5631C29.157 19.1633 29.3906 19.8811 29.3906 20.6251C29.3906 22.106 28.5012 23.4198 27.1245 23.973Z" fill="black" stroke="black" stroke-width="0.2"></path></svg>