<svg xmlns="http://www.w3.org/2000/svg" width="35" height="35" viewBox="0 0 35 35" fill="none"><g clip-path="url(#clip0_1319_480)"><path d="M32.8125 2.1875H19.1406V1.09375C19.1406 0.641484 18.7726 0.273438 18.3203 0.273438H16.6797C16.2274 0.273438 15.8594 0.641484 15.8594 1.09375V2.1875H2.18723C1.13203 2.1875 0.273438 3.04609 0.273438 4.10129V23.2425C0.273438 24.2977 1.13203 25.1562 2.18723 25.1562H7.40906L3.30504 34.3416C3.2673 34.4263 3.27496 34.5242 3.32527 34.6019C3.37559 34.6795 3.46199 34.7266 3.55469 34.7266H6.01562C6.12363 34.7266 6.22125 34.6634 6.26527 34.5647L8.27012 30.0781H15.8594V34.4531C15.8594 34.6043 15.9816 34.7266 16.1328 34.7266H18.8672C19.0184 34.7266 19.1406 34.6043 19.1406 34.4531V30.0781H26.7299L28.7345 34.5647C28.7785 34.6631 28.8764 34.7266 28.9841 34.7266H31.445C31.5377 34.7266 31.6239 34.6795 31.6745 34.6019C31.725 34.5242 31.7324 34.4261 31.6947 34.3416L27.5909 25.1562H32.8128C33.868 25.1562 34.7266 24.2977 34.7266 23.2425V4.10129C34.7266 3.04609 33.8677 2.1875 32.8125 2.1875ZM16.4062 1.09375C16.4062 0.943086 16.5287 0.820312 16.6797 0.820312H18.3203C18.4713 0.820312 18.5938 0.943086 18.5938 1.09375V2.1875H16.4062V1.09375ZM5.83844 34.1797H3.97633L8.00816 25.1562H9.87L8.69586 27.784C8.69586 27.784 8.69586 27.784 8.69586 27.7843L7.84082 29.6978C7.84082 29.698 7.84055 29.6983 7.84055 29.6986L5.83844 34.1797ZM15.8594 25.1562V27.6172H9.36961L10.4691 25.1562H15.8594ZM18.5938 25.1562V27.6172H16.4062V25.1562H18.5938ZM24.5309 25.1562L25.6304 27.6172H19.1406V25.1562H24.5309ZM18.5938 34.1797H16.4062V30.0781H18.5938V34.1797ZM8.5143 29.5312L9.12516 28.1641H25.8746L26.4854 29.5312H8.5143ZM31.0237 34.1797H29.1616L27.1595 29.6986C27.1595 29.6983 27.1592 29.698 27.1592 29.6978L26.3041 27.7843C26.3041 27.7843 26.3041 27.784 26.3039 27.784L25.13 25.1562H26.9918L31.0237 34.1797ZM34.1797 23.2425C34.1797 23.9963 33.5666 24.6094 32.8128 24.6094H27.1652C27.1644 24.6094 27.1636 24.6094 27.1627 24.6094H24.7043C24.7034 24.6094 24.7026 24.6094 24.7018 24.6094H10.2982C10.2974 24.6094 10.2966 24.6094 10.2957 24.6094H7.83727C7.83645 24.6094 7.83563 24.6094 7.8348 24.6094H2.18723C1.43336 24.6094 0.820312 23.9963 0.820312 23.2425V4.10129C0.820312 3.3477 1.43336 2.73438 2.18723 2.73438H32.8125C33.5664 2.73438 34.1797 3.3477 34.1797 4.10129V23.2425Z" fill="white" stroke="white" stroke-width="0.7"></path><path d="M31.9916 3.55469H3.00836C2.25422 3.55469 1.64062 4.16801 1.64062 4.92188V22.4213C1.64062 23.1755 2.25422 23.7891 3.00836 23.7891H31.9916C32.7458 23.7891 33.3594 23.1755 33.3594 22.4213V4.92242C33.3594 4.16828 32.7458 3.55469 31.9916 3.55469ZM4.10156 22.9666V20.2366C4.10156 20.0845 4.22516 19.9609 4.37719 19.9609H8.20094C8.35297 19.9609 8.47656 20.0845 8.47656 20.2366V22.9666C8.47656 23.1186 8.35297 23.2422 8.20094 23.2422H4.37719C4.22516 23.2422 4.10156 23.1186 4.10156 22.9666ZM4.73758 19.4141L4.10348 17.1946C4.11906 17.0589 4.235 16.9531 4.375 16.9531C4.44965 16.9531 4.56285 16.9531 4.65883 17.3018L5.26231 19.4141H4.73758ZM7.08121 19.4141L7.91766 16.4864C8.02621 16.1328 8.1457 16.1328 8.20312 16.1328C8.30895 16.1328 8.39727 16.1604 8.4391 16.2064C8.46863 16.2386 8.48203 16.2898 8.47902 16.3589L7.60621 19.4141H7.08121ZM31.1719 21.6016H24.0625V20.5078H31.1719V21.6016ZM24.0625 23.2422V22.1484H31.1719V23.2422H24.0625ZM32.8125 22.4213C32.8125 22.8739 32.4442 23.2422 31.9916 23.2422H31.7188V20.5078C31.7188 20.2062 31.4735 19.9609 31.1719 19.9609H24.0625C23.7609 19.9609 23.5156 20.2062 23.5156 20.5078V23.2422H8.97258C9.00348 23.1555 9.02344 23.0636 9.02344 22.9666V20.2366C9.02344 19.7832 8.6543 19.4141 8.20094 19.4141H8.17496L9.01305 16.4814C9.0177 16.4648 9.0207 16.4478 9.02234 16.4306C9.04914 16.1317 8.93949 15.9428 8.8427 15.8372C8.69477 15.6751 8.46754 15.5859 8.20312 15.5859C7.8173 15.5859 7.54523 15.835 7.3932 16.3311L6.51246 19.4141H5.83133L5.18547 17.1538C5.04875 16.6578 4.77586 16.4062 4.375 16.4062C3.92273 16.4062 3.55469 16.7743 3.55469 17.2266C3.55469 17.252 3.55824 17.2774 3.56508 17.3018L4.17648 19.4417C3.8202 19.5319 3.55469 19.8527 3.55469 20.2366V22.9666C3.55469 23.0636 3.57465 23.1555 3.60555 23.2422H3.00809C2.55582 23.2422 2.1875 22.8739 2.1875 22.4213V4.92188C2.1875 4.46961 2.55582 4.10156 3.00836 4.10156H31.9916C32.4442 4.10156 32.8125 4.46988 32.8125 4.92242V22.4213Z" fill="white" stroke="white" stroke-width="0.7"></path><path d="M11.7291 8.08094C11.6361 7.89555 11.3328 7.89555 11.2399 8.08094L9.05238 12.4559C8.98484 12.591 9.03953 12.7554 9.17461 12.8229C9.30968 12.8907 9.47375 12.8357 9.54156 12.7007L10.2861 11.211H12.6825L13.4274 12.7004C13.4752 12.7964 13.5718 12.8516 13.6721 12.8516C13.7131 12.8516 13.755 12.8423 13.7941 12.8229C13.9291 12.7554 13.9838 12.591 13.9163 12.4559L11.7291 8.08094ZM10.5596 10.6641L11.4843 8.81457L12.4091 10.6641H10.5596Z" fill="white" stroke="white"></path><path d="M19.4141 9.29688C19.4141 8.54301 18.7562 7.92969 17.9476 7.92969H15.8594C15.7082 7.92969 15.5859 8.05219 15.5859 8.20312V10.3906V12.5781C15.5859 12.7291 15.7082 12.8516 15.8594 12.8516H17.9476C18.7562 12.8516 19.4141 12.2382 19.4141 11.4844C19.4141 11.0357 19.1778 10.64 18.8182 10.3906C19.1778 10.1412 19.4141 9.74559 19.4141 9.29688ZM18.8672 11.4844C18.8672 11.9366 18.4546 12.3047 17.9476 12.3047H16.1328V10.6641H17.9476C18.4546 10.6641 18.8672 11.0321 18.8672 11.4844ZM17.9476 10.1172H16.1328V8.47656H17.9476C18.4546 8.47656 18.8672 8.84461 18.8672 9.29688C18.8672 9.74914 18.4546 10.1172 17.9476 10.1172Z" fill="white" stroke="white"></path><path d="M23.2422 8.47656H24.3359C24.4871 8.47656 24.6094 8.35406 24.6094 8.20312C24.6094 8.05219 24.4871 7.92969 24.3359 7.92969H23.2422C22.187 7.92969 21.3281 8.78828 21.3281 9.84375V10.9375C21.3281 11.993 22.187 12.8516 23.2422 12.8516H24.3359C24.4871 12.8516 24.6094 12.7291 24.6094 12.5781C24.6094 12.4272 24.4871 12.3047 24.3359 12.3047H23.2422C22.4883 12.3047 21.875 11.6914 21.875 10.9375V9.84375C21.875 9.08988 22.4883 8.47656 23.2422 8.47656Z" fill="white" stroke="white"></path></g><defs><clipPath id="clip0_1319_480"><rect width="35" height="35" fill="white"></rect></clipPath></defs></svg>