<svg xmlns="http://www.w3.org/2000/svg" width="96" height="79" viewBox="0 0 96 79" fill="none"><circle cx="35.5" cy="43.5" r="35.5" fill="#B9E2F9"></circle><ellipse cx="57.9211" cy="70.779" rx="5.60526" ry="5.97895" fill="#FFF7AC"></ellipse><path d="M84.2421 16.018H37.7578C36.8958 16.0191 36.0695 16.3619 35.46 16.9714C34.8506 17.5809 34.5077 18.4072 34.5066 19.2691V50.8963C34.5077 51.737 34.8417 52.543 35.4357 53.138C36.0296 53.7329 36.8351 54.0684 37.6757 54.0709H84.3242C85.1658 54.0698 85.9726 53.735 86.5678 53.1399C87.1629 52.5448 87.4977 51.7379 87.4988 50.8963V19.2691C87.4977 18.4063 87.1541 17.5791 86.5434 16.9695C85.9327 16.3599 85.105 16.0176 84.2421 16.018V16.018ZM37.6019 19.2691C37.6019 19.2293 37.6177 19.191 37.646 19.1628C37.6742 19.1346 37.7124 19.1188 37.7523 19.1188H84.2421C84.282 19.1188 84.3203 19.1346 84.3485 19.1628C84.3767 19.191 84.3925 19.2293 84.3925 19.2691V25.3969C84.3916 25.4269 84.3818 25.456 84.3642 25.4803C84.3467 25.5047 84.3223 25.5232 84.2941 25.5336L61 34.3L37.7003 25.5377C37.6722 25.5273 37.6477 25.5088 37.6302 25.4844C37.6126 25.4601 37.6028 25.431 37.6019 25.401V19.2691ZM84.3242 50.9701H37.6757C37.6562 50.9701 37.6374 50.9623 37.6235 50.9485C37.6097 50.9346 37.6019 50.9159 37.6019 50.8963V28.8135L60.4531 37.4076L60.4777 37.4158L60.5707 37.4459L60.613 37.4568C60.6409 37.4647 60.6692 37.471 60.6978 37.476L60.7429 37.4855L60.8304 37.4965H60.8714C60.9125 37.4965 60.9548 37.4965 60.9972 37.4965C61.0396 37.4965 61.082 37.4965 61.123 37.4965H61.164L61.2515 37.4855L61.2966 37.476C61.3252 37.471 61.3535 37.4647 61.3814 37.4568L61.4251 37.4459L61.5167 37.4158L61.5414 37.4076L84.3939 28.8135V50.8963C84.3939 50.9152 84.3867 50.9334 84.3737 50.9471C84.3608 50.9608 84.343 50.9691 84.3242 50.9701V50.9701Z" fill="black"></path></svg>