<svg xmlns="http://www.w3.org/2000/svg" width="48" height="29" viewBox="0 0 48 29" fill="none"><path d="M13.9712 1.64606C6.87301 1.64606 1.11719 7.40132 1.11719 14.5001C1.11719 21.5989 6.87301 27.3542 13.9712 27.3542C21.0695 27.3542 26.8253 21.5989 26.8253 14.5001C26.8253 7.40132 21.0695 1.64606 13.9712 1.64606Z" stroke="black" stroke-miterlimit="10" stroke-linecap="round" stroke-linejoin="round"></path><path d="M10.4561 19.9318L8.27148 13.1907L13.9859 9.02484L19.7015 13.1907L17.5191 19.9318H10.4561Z" stroke="black" stroke-miterlimit="10" stroke-linecap="round" stroke-linejoin="round"></path><path d="M18.8558 2.64532L13.9869 4.72265L9.11914 2.64532" stroke="black" stroke-miterlimit="10" stroke-linecap="round" stroke-linejoin="round"></path><path d="M4.27306 6.17627L4.74083 11.4649L1.26465 15.4664" stroke="black" stroke-miterlimit="10" stroke-linecap="round" stroke-linejoin="round"></path><path d="M3.11621 21.1826L8.27292 22.3702L10.9941 26.9227" stroke="black" stroke-miterlimit="10" stroke-linecap="round" stroke-linejoin="round"></path><path d="M16.9834 26.9227L19.7023 22.3679L24.8573 21.1803" stroke="black" stroke-miterlimit="10" stroke-linecap="round" stroke-linejoin="round"></path><path d="M26.7104 15.4653L23.2314 11.4615L23.6987 6.17627" stroke="black" stroke-miterlimit="10" stroke-linecap="round" stroke-linejoin="round"></path><path d="M13.9863 4.72266V9.02485" stroke="black" stroke-miterlimit="10" stroke-linecap="round" stroke-linejoin="round"></path><path d="M19.7021 13.3578L23.2314 11.4615" stroke="black" stroke-miterlimit="10" stroke-linecap="round" stroke-linejoin="round"></path><path d="M17.5195 19.9318L19.7019 22.3679" stroke="black" stroke-miterlimit="10" stroke-linecap="round" stroke-linejoin="round"></path><path d="M10.456 19.9318L8.27246 22.3701" stroke="black" stroke-miterlimit="10" stroke-linecap="round" stroke-linejoin="round"></path><path d="M4.74023 11.4648L8.27119 13.1906" stroke="black" stroke-miterlimit="10" stroke-linecap="round" stroke-linejoin="round"></path><path d="M37.1422 27.8803C35.8977 27.8813 34.6633 27.658 33.4981 27.2209C33.3982 27.1838 33.3129 27.1156 33.2549 27.0263C33.1969 26.937 33.1691 26.8314 33.1758 26.7251C33.1823 26.6195 33.2223 26.5188 33.2901 26.4376C33.3579 26.3565 33.4499 26.2991 33.5526 26.2739C39.6213 24.7865 41.069 19.1392 41.4112 16.7891C41.428 16.67 41.4876 16.561 41.5788 16.4826C41.67 16.4041 41.7866 16.3615 41.907 16.3627C43.8016 16.4236 45.6398 17.022 47.2071 18.0881C47.2794 18.1378 47.3372 18.2057 47.3746 18.2849C47.4121 18.3642 47.4279 18.452 47.4203 18.5393C47.186 21.0997 46.0005 23.4792 44.0977 25.2085C42.195 26.9377 39.7133 27.891 37.1422 27.8803V27.8803ZM35.3821 26.7251C35.9625 26.8343 36.5517 26.889 37.1422 26.8887C39.415 26.8997 41.6127 26.0764 43.3189 24.575C45.025 23.0735 46.121 20.9982 46.399 18.7426C45.1692 17.9653 43.7687 17.4991 42.3185 17.3841C41.8772 19.8928 40.3848 24.7071 35.3821 26.7251Z" fill="#231F20" stroke="black" stroke-width="0.2"></path><path d="M33.6725 27.2506C33.6133 27.2511 33.5546 27.2411 33.499 27.2209C31.7413 26.5592 30.1982 25.4293 29.0367 23.9535C28.9915 23.8895 28.9614 23.8162 28.9485 23.7389C28.9356 23.6616 28.9403 23.5825 28.9623 23.5073C28.9882 23.4295 29.033 23.3593 29.0927 23.303C29.1525 23.2468 29.2252 23.2062 29.3044 23.185C30.6312 22.8081 31.8993 22.2491 33.0726 21.524C35.2591 20.2052 36.6473 18.6583 36.6473 17.5576C36.6466 17.4569 36.6766 17.3583 36.7333 17.2751C36.79 17.1918 36.8707 17.1278 36.9647 17.0915C38.5557 16.5339 40.2384 16.2849 41.9227 16.3577C41.9916 16.3612 42.059 16.3789 42.1206 16.4099C42.1822 16.4408 42.2366 16.4843 42.2805 16.5375C42.3243 16.5907 42.3566 16.6524 42.3753 16.7188C42.3939 16.7852 42.3985 16.8547 42.3888 16.9229C42.0219 19.4764 40.4403 25.5847 33.7865 27.2308L33.6725 27.2506ZM30.301 23.899C31.2435 24.9247 32.4064 25.7231 33.7022 26.2342C39.2156 24.7914 40.8468 19.9028 41.3228 17.3394C40.0732 17.3526 38.8322 17.5481 37.639 17.9195C37.3613 19.9028 34.7682 21.6728 33.608 22.3818C32.5647 23.0073 31.4557 23.5161 30.301 23.899V23.899Z" fill="#231F20" stroke="black" stroke-width="0.2"></path><path d="M46.9234 18.9904C46.8223 18.9902 46.7237 18.959 46.6408 18.9012C45.2302 17.9467 43.5784 17.4104 41.8761 17.3542C40.3294 17.2938 38.7847 17.519 37.3196 18.0186C37.2274 18.0542 37.1268 18.0613 37.0305 18.0393C36.9342 18.0172 36.8467 17.9668 36.7792 17.8947C35.6849 16.619 35.051 15.0125 34.9794 13.3332C34.9671 13.2348 34.9846 13.1349 35.0297 13.0465C35.0748 12.9581 35.1454 12.8853 35.2323 12.8374C38.2004 11.1572 41.6558 10.548 45.0195 11.112C45.142 11.134 45.2517 11.2013 45.3269 11.3004C46.7153 13.0904 47.4673 15.2922 47.4639 17.5575C47.4639 17.8897 47.4639 18.2219 47.4192 18.5491C47.4069 18.6719 47.3493 18.7856 47.2576 18.8681C47.1659 18.9506 47.0468 18.996 46.9234 18.9954V18.9904ZM41.3456 16.3478H41.9257C43.5189 16.4098 45.0757 16.8427 46.4722 17.6121V17.5575C46.4812 15.5685 45.8444 13.6304 44.6576 12.0342C41.6827 11.5899 38.6441 12.126 36.0008 13.5613C36.0989 14.7998 36.5478 15.9848 37.2948 16.9774C38.6057 16.5647 39.9713 16.3525 41.3456 16.3478V16.3478Z" fill="#231F20" stroke="black" stroke-width="0.2"></path><path d="M35.4753 13.7795C35.3961 13.7798 35.3178 13.7611 35.2473 13.725C35.1728 13.6868 35.1092 13.6304 35.0624 13.5611C35.0156 13.4917 34.9871 13.4116 34.9795 13.3283C34.8527 11.4365 35.02 9.53648 35.4753 7.69593C35.4976 7.59745 35.5495 7.50814 35.6239 7.43991C35.6983 7.37169 35.7918 7.32782 35.8918 7.31415C36.3061 7.25989 36.7235 7.23339 37.1413 7.23482C38.7254 7.22846 40.2894 7.59015 41.71 8.29138C43.1305 8.99261 44.3687 10.0142 45.3271 11.2757C45.3912 11.3559 45.4288 11.454 45.4347 11.5565C45.4406 11.659 45.4146 11.7609 45.3602 11.8479C45.3057 11.935 45.2256 12.003 45.1309 12.0426C45.0361 12.0822 44.9314 12.0914 44.8312 12.069C41.6899 11.5513 38.4661 12.1326 35.7034 13.715C35.6337 13.7546 35.5555 13.7768 35.4753 13.7795V13.7795ZM36.3678 8.26115C36.0561 9.64547 35.908 11.0616 35.9265 12.4805C38.3313 11.2685 41.02 10.7322 43.7058 10.9286C42.844 10.0673 41.8203 9.3851 40.6936 8.92133C39.567 8.45756 38.3596 8.22139 37.1413 8.22644C36.8834 8.22644 36.6455 8.23636 36.3678 8.26115V8.26115Z" fill="#231F20" stroke="black" stroke-width="0.2"></path><path d="M33.3304 22.4363C33.2535 22.4363 33.1775 22.4184 33.1087 22.384C33.0398 22.3496 32.98 22.2996 32.9338 22.238C30.5936 19.0896 29.9589 14.1068 29.8449 10.4775C29.8431 10.4082 29.8559 10.3393 29.8823 10.2752C29.9088 10.2112 29.9484 10.1534 29.9986 10.1056C31.6081 8.55356 33.6827 7.57288 35.9037 7.3142C35.9822 7.30469 36.062 7.31413 36.1361 7.34173C36.2103 7.36934 36.2768 7.4143 36.3301 7.47286C36.3838 7.53147 36.4227 7.60216 36.4434 7.67896C36.4641 7.75577 36.4661 7.83642 36.4491 7.91413C36.0086 9.65266 35.8413 11.4491 35.9532 13.2391V13.2887C36.0114 14.7334 36.5506 16.1173 37.4853 17.2204C37.5782 17.3087 37.6333 17.4296 37.639 17.5576C37.639 19.6945 34.8129 21.6331 33.5833 22.3719C33.5063 22.4156 33.419 22.4378 33.3304 22.4363V22.4363ZM30.8514 10.6708C30.9555 13.4523 31.4513 18.2269 33.4742 21.2712C35.3186 20.0862 36.5234 18.7475 36.6424 17.7361C35.6385 16.4807 35.0586 14.9392 34.9864 13.3333C34.8692 11.6824 34.986 10.0232 35.3335 8.40498C33.6565 8.72919 32.1028 9.51375 30.8464 10.6708H30.8514Z" fill="#231F20" stroke="black" stroke-width="0.2"></path><path d="M29.4321 24.1419C29.3576 24.1416 29.2841 24.1245 29.2172 24.0919C29.1502 24.0592 29.0915 24.012 29.0453 23.9535C27.4564 21.9419 26.6735 19.4106 26.8495 16.8531C27.0255 14.2957 28.1477 11.8955 29.9973 10.1205C30.0661 10.0536 30.1529 10.0082 30.2471 9.98975C30.3413 9.97127 30.4388 9.98051 30.5278 10.0164C30.6168 10.0529 30.6933 10.1145 30.7478 10.1938C30.8024 10.273 30.8328 10.3664 30.8352 10.4626C30.9294 13.3135 31.4302 18.5641 33.7258 21.6579C33.7671 21.7134 33.7965 21.7769 33.8118 21.8443C33.8272 21.9118 33.8283 21.9817 33.815 22.0496C33.8024 22.1179 33.7755 22.1827 33.7362 22.2399C33.6969 22.2972 33.6461 22.3455 33.5869 22.3818C32.3297 23.1459 30.9756 23.7378 29.561 24.1419C29.5181 24.1468 29.4749 24.1468 29.4321 24.1419V24.1419ZM29.8981 11.6674C28.5979 13.2702 27.8654 15.2586 27.8152 17.3219C27.7649 19.3851 28.3998 21.4068 29.6205 23.071C30.6554 22.7471 31.6527 22.3132 32.5953 21.7769C30.7658 18.9756 30.1014 14.9546 29.8981 11.6674Z" fill="#231F20" stroke="black" stroke-width="0.2"></path></svg>