<svg xmlns="http://www.w3.org/2000/svg" width="42" height="18" viewBox="0 0 42 18" fill="none"><path d="M41.4384 16.7741C41.44 16.6961 41.452 16.6245 41.452 16.5467C41.452 13.1839 40.1958 10.2811 37.4581 9.38525L35.6068 12.0316L33.5491 9.42016C30.9662 10.2437 29.8203 12.6986 29.8203 15.9847C29.8203 16.2493 29.828 16.5129 29.8429 16.7744L41.4384 16.7741Z" stroke="black" stroke-miterlimit="10"></path><path d="M32.1428 4.1385L32.2141 3.54543L32.3324 2.96904L32.4148 2.72755L32.5249 2.50044L32.7202 2.17785L32.8539 1.9569L33.0294 1.77238L33.2306 1.5717L33.517 1.37332L33.8737 1.17418L34.2836 1.00814L34.6167 0.916266L34.7986 0.865967H35.0386H35.2729H35.7233H36.0795L36.6007 0.984529L37.1463 1.293L37.407 1.60095L37.8576 2.09881L38.1425 2.66802L38.2608 2.95262L38.4025 3.68786L38.4507 4.11463V4.28042L38.5931 4.37537L38.6637 4.75492L38.6398 5.18195L38.4748 5.72703L38.3078 5.98802L38.1184 6.05911L37.9759 6.58084L37.668 7.31582L37.454 7.62403L37.1701 8.05107L36.6959 8.43036L36.1739 8.83353L35.771 8.95183L35.1782 9.02318L34.4899 8.95183L33.8263 8.59615L33.4706 8.24071L33.1621 7.71899L32.7351 6.984L32.5464 6.55671L32.3085 6.12994L32.1902 5.94029L32.0006 5.72703L31.882 5.4663L31.8579 4.94457L31.882 4.49393V4.32815L32.0481 4.25732L32.1428 4.1385Z" stroke="black" stroke-miterlimit="10"></path><path d="M13.4568 16.7015C13.4585 16.6173 13.4708 16.5402 13.4708 16.4568C13.4708 12.8389 12.12 9.71513 9.17385 8.7514L7.1816 11.599L4.96781 8.78773C2.18857 9.67477 0.955078 12.3157 0.955078 15.8518C0.955078 16.1364 0.963787 16.4194 0.979506 16.7015H13.4568Z" stroke="black" stroke-miterlimit="10"></path><path d="M4.06994 4.03279L4.1394 3.45885L4.2541 2.90041L4.33397 2.66633L4.4406 2.44669L4.62965 2.13401L4.7588 1.92032L4.92852 1.74168L5.12309 1.5469L5.40178 1.3553L5.74674 1.16243L6.14268 1.00141L6.4664 0.912413L6.6425 0.86377H6.87424H7.10174H7.53761H7.88258L8.38749 0.978474L8.91576 1.27713L9.16832 1.57579L9.60484 2.05797L9.88034 2.60897L9.99462 2.88448L10.1327 3.59628L10.1788 4.00964V4.17065L10.3166 4.26263L10.3853 4.62989L10.3623 5.04325L10.2019 5.57132L10.0407 5.82388L9.85719 5.8927L9.71933 6.39804L9.42089 7.10984L9.21378 7.40871L8.9387 7.82185L8.47946 8.18933L7.97391 8.57933L7.58371 8.69424L7.00955 8.7637L6.34342 8.69424L5.70065 8.34992L5.3559 8.00538L5.05788 7.50026L4.64409 6.78867L4.46078 6.37488L4.23073 5.96173L4.11624 5.778L3.93229 5.57132L3.8178 5.31875L3.79443 4.81342L3.8178 4.37733V4.21653L3.97838 4.14771L4.06994 4.03279Z" stroke="black" stroke-miterlimit="10"></path><path d="M27.1392 5.16349C27.2563 5.04633 27.2563 4.85638 27.1392 4.73922L25.23 2.83003C25.1128 2.71288 24.9229 2.71288 24.8057 2.83003C24.6886 2.94719 24.6886 3.13714 24.8057 3.2543L26.5028 4.95135L24.8057 6.64841C24.6886 6.76557 24.6886 6.95552 24.8057 7.07267C24.9229 7.18983 25.1128 7.18983 25.23 7.07267L27.1392 5.16349ZM15.7075 5.25135L26.927 5.25135L26.927 4.65135L15.7075 4.65135L15.7075 5.25135Z" fill="black"></path><path d="M15.4951 13.0171C15.378 12.9 15.378 12.71 15.4951 12.5929L17.4043 10.6837C17.5215 10.5665 17.7114 10.5665 17.8286 10.6837C17.9457 10.8008 17.9457 10.9908 17.8286 11.1079L16.1315 12.805L17.8286 14.502C17.9457 14.6192 17.9457 14.8092 17.8286 14.9263C17.7114 15.0435 17.5215 15.0435 17.4043 14.9263L15.4951 13.0171ZM26.9268 13.105L15.7072 13.105L15.7072 12.505L26.9268 12.505L26.9268 13.105Z" fill="black"></path></svg>