<svg xmlns="http://www.w3.org/2000/svg" width="45" height="45" viewBox="0 0 45 45" fill="none"><path d="M24.8849 13.23C24.8849 13.23 24.9074 13.23 24.9074 13.2075C25.0199 13.14 25.0649 12.9825 24.9974 12.8475C22.5224 8.7525 27.4049 5.31 27.6299 5.175C27.7424 5.085 27.7649 4.9275 27.6974 4.815C27.6074 4.7025 27.4499 4.68 27.3374 4.7475C27.2924 4.7925 21.8249 8.6175 24.5699 13.1175C24.6374 13.2525 24.7724 13.2975 24.8849 13.23Z" fill="black" stroke="black" stroke-width="0.3"></path><path d="M19.2374 29.97C19.2824 30.15 19.4624 30.285 19.6424 30.24C19.8224 30.195 19.9349 29.9925 19.8899 29.8125C19.8674 29.7225 19.3499 27.675 16.7399 27.675C16.7174 27.675 16.6949 27.675 16.6949 27.675C15.3224 27.6975 14.6699 28.3051 14.3549 28.8226C14.0174 29.385 14.0399 30.105 14.0399 30.15C14.0399 30.3075 14.1749 30.6675 14.3999 30.6675V30.645V30.6V30.645C14.3999 30.645 14.5124 30.5775 14.5574 30.51C14.5574 30.4875 14.5574 30.4875 14.5574 30.4875C14.6474 30.3975 14.6924 30.2175 14.6924 30.0825C14.6924 30.06 14.6924 29.5875 14.9174 29.205C15.2324 28.665 15.8624 28.3725 16.7174 28.35C16.7399 28.35 16.7624 28.35 16.7624 28.3275C18.8324 28.35 19.2374 29.9025 19.2374 29.97Z" fill="black" stroke="black" stroke-width="0.3"></path><path d="M24.7727 27.675H24.7277C22.0502 27.675 21.5777 29.835 21.5777 29.8575C21.5552 29.9475 21.5777 30.015 21.6227 30.0825C21.6677 30.15 21.7577 30.1725 21.8027 30.1725C21.8027 30.1725 21.8252 30.1725 21.8477 30.1725C21.8702 30.1725 21.8927 30.1725 21.9152 30.1725C22.0727 30.1725 22.2077 30.06 22.2527 29.9025C22.2752 29.835 22.6352 28.2375 24.7502 28.215H24.8177C26.7077 28.215 26.8652 29.745 26.8652 29.925C26.8652 30.06 27.0227 30.42 27.2477 30.42V30.375V30.42C27.2477 30.42 27.3602 30.3525 27.3827 30.285C27.3827 30.2625 27.3602 30.2625 27.3602 30.2625C27.4502 30.1725 27.4952 30.015 27.4727 29.9025C27.4727 29.88 27.4502 29.295 27.1127 28.755C26.7977 28.2825 26.1452 27.675 24.7727 27.675Z" fill="black" stroke="black" stroke-width="0.3"></path><path d="M23.7825 34.5601C23.7375 34.5826 23.22 34.74 22.635 34.74C21.825 34.74 21.2625 34.4251 20.9925 33.8176C20.9475 33.7051 20.8125 33.6151 20.6775 33.6151C20.5425 33.6151 20.43 33.6826 20.3625 33.7951C20.0475 34.425 19.5075 34.7625 18.7425 34.7625C18.0675 34.7625 17.505 34.515 17.4375 34.47C17.28 34.4025 17.055 34.47 16.9875 34.6275C16.92 34.8075 16.9875 34.9875 17.145 35.0775C17.37 35.19 17.9775 35.415 18.72 35.415C19.2825 35.415 20.0925 35.2575 20.655 34.5376C21.2175 35.2125 22.05 35.3475 22.635 35.3475C23.085 35.3475 23.5575 35.28 23.9625 35.1226C24.0525 35.1001 24.12 35.0325 24.165 34.9425C24.21 34.8526 24.21 34.7625 24.1875 34.695C24.165 34.605 23.9625 34.5151 23.7825 34.5601Z" fill="black" stroke="black" stroke-width="0.3"></path><path d="M20.6775 32.85C21.1725 32.85 21.465 32.49 21.4425 32.0175C21.4425 31.545 21.15 31.2075 20.475 31.2075C20.025 31.2075 19.71 31.5675 19.71 32.04C19.7325 32.5125 20.205 32.85 20.6775 32.85Z" fill="black" stroke="black" stroke-width="0.3"></path><path d="M32.6026 21.375H30.2401H29.9026H27.6076L28.6426 16.47C30.2851 15.75 31.4551 14.22 31.7026 12.42C31.9951 10.35 31.0501 8.34753 29.2951 7.26753C29.2501 6.95253 29.2501 6.68253 29.2951 6.43503C29.6101 4.36503 30.8926 3.55503 30.8926 3.55503C30.9826 3.48753 31.0276 3.37503 31.0051 3.26253C30.9826 3.15003 30.8701 3.08253 30.7576 3.08253C30.6676 3.08253 28.8001 3.03753 26.7301 3.93753C24.7051 4.81503 22.1626 6.75003 21.5776 11.0475C21.3076 12.915 22.0726 14.6475 23.4226 15.75L23.0176 21.375H20.9251C18.6526 15.75 16.4701 10.26 16.4251 10.215L11.0926 5.35503C11.0026 5.28753 10.8901 5.24253 10.7776 5.28753C10.7101 5.31003 10.6426 5.37753 10.5976 5.44503C10.5751 5.46753 10.5751 5.49003 10.5751 5.53503L9.81006 12.78V12.8025V12.825V12.8925C9.81006 12.8925 12.1276 18.45 13.2976 21.375H11.0251V39.9825C11.0251 41.0175 12.0601 41.85 13.1176 41.85H28.2826C29.3401 41.85 30.1501 41.04 30.1501 39.9825V35.325H32.6026C34.0201 35.325 35.1001 34.245 35.1001 32.805V24.03C35.1001 22.6125 34.0201 21.375 32.6026 21.375ZM30.1501 24.525H31.9501V32.175H30.1501V24.525ZM27.6301 18.7875C26.9776 18.99 26.3026 19.0575 25.6051 18.9675C24.9076 18.8775 24.2776 18.63 23.7151 18.2475L23.8726 16.1325C24.4801 16.515 25.1551 16.785 25.8976 16.8975C26.6176 16.9875 27.3601 16.9425 28.0576 16.7175L27.6301 18.7875ZM22.0501 11.0925C22.5001 7.83003 24.1426 5.60253 26.9101 4.38753C28.1251 3.87003 29.2951 3.69003 30.0151 3.62253C29.5651 4.11753 28.9801 4.99503 28.7551 6.36753C28.7101 6.70503 28.7101 7.06503 28.7776 7.49253C28.8001 7.56003 28.8451 7.62752 28.9126 7.67252C30.5551 8.61753 31.4326 10.44 31.1626 12.3525C30.9376 13.9725 29.8576 15.3225 28.3501 15.9975C27.5851 16.2225 26.7751 16.4925 25.9426 16.3575C23.4451 15.9975 21.6901 13.6575 22.0501 11.0925ZM23.6926 18.7875C24.2551 19.125 24.8851 19.3725 25.5601 19.4625C26.2351 19.5525 26.8876 19.485 27.5401 19.3275L27.0901 21.3975H23.5126L23.6926 18.7875ZM20.2276 21.375H18.6076L14.6026 11.43L15.9976 10.89L20.2276 21.375ZM16.1776 21.375L12.5101 12.285L13.9951 11.7225L17.8876 21.3975H16.1776V21.375ZM10.8451 8.91003L13.1176 7.98753L15.5926 10.2375L10.4851 12.3075L10.8451 8.91003ZM10.5526 13.05L11.9026 12.5325L15.4576 21.375H13.9051L10.5526 13.05ZM29.4751 39.9825C29.4751 40.6575 28.9576 41.175 28.2826 41.175H13.1176C12.4201 41.175 11.7001 40.6575 11.7001 39.9825V22.05H29.4751V24.255V32.58V35.055V39.9825ZM34.4251 32.805C34.4251 33.8625 33.6601 34.65 32.6026 34.65H30.1501V32.85H32.3776C32.5576 32.85 32.6251 32.76 32.6251 32.58V24.255C32.6251 24.075 32.5576 23.85 32.3776 23.85H30.1501V22.05H32.6026C33.6601 22.05 34.4251 22.9725 34.4251 24.03V32.805Z" fill="black" stroke="black" stroke-width="0.3"></path></svg>