<svg xmlns="http://www.w3.org/2000/svg" width="50" height="52" viewBox="0 0 50 52" fill="none"><path d="M49.5122 28.8669C48.6175 26.9716 46.828 25.9377 44.8596 25.9377C43.428 25.9377 41.9965 26.4547 40.7438 27.6608C38.2386 29.9008 36.4491 31.4515 35.7333 31.7961C35.1965 32.1407 34.1228 31.9684 33.586 31.2792C33.2281 30.7623 33.0491 30.0731 33.2281 29.0392C33.407 28.35 36.0912 11.981 36.4491 9.56875C36.6281 8.36262 36.2702 7.15648 35.5544 6.29495C34.6597 5.43343 33.586 4.91651 32.3334 4.91651C30.5439 4.91651 28.3965 6.12265 27.8597 8.53492C27.6808 9.91336 26.965 14.221 26.4281 17.4948C26.4281 13.1872 26.4281 6.98418 26.4281 4.5719C26.4281 3.53807 26.0702 2.50424 25.3545 1.81502C24.4597 0.953497 23.386 0.608887 22.1334 0.608887C19.9861 0.608887 17.8387 1.98733 17.6598 4.91651C17.6598 7.8457 17.6598 12.1533 17.6598 15.7717C17.1229 12.8425 16.5861 9.56875 16.4071 8.36262C16.2282 6.29495 14.4387 4.91651 12.1124 4.91651C10.6809 4.74421 9.24929 5.26112 8.5335 6.29495C7.99666 6.81187 7.28088 8.018 7.63877 9.91336C8.17561 13.1872 8.89139 17.1502 9.60718 20.2517C9.07034 19.2178 8.89139 18.3563 8.5335 17.3225C8.17561 15.4271 6.38615 14.221 4.41774 14.221C2.98617 14.221 1.73354 14.9102 0.838811 15.944C-0.0559208 16.9779 -0.234867 18.5286 0.301972 20.0794C1.73354 25.0762 3.52301 31.4515 5.84931 38.8606L6.02825 39.3775C8.35455 47.1313 14.0808 51.4389 22.1334 51.4389C27.5018 51.4389 31.7965 48.8543 34.4807 46.6143C36.2702 45.2359 46.2912 36.6207 48.6175 34.2084C50.049 32.6576 50.4069 30.59 49.5122 28.8669ZM46.6491 32.4853C44.5017 34.7253 35.1965 42.6513 32.6912 44.719C30.7228 46.2697 26.786 49.0266 22.1334 49.0266C15.1545 49.0266 10.5019 45.5805 8.71245 38.8606L8.5335 38.3437C6.2072 30.7623 4.41774 24.5593 2.98617 19.5624C2.80722 19.0455 2.80722 18.184 3.16511 17.6671C3.523 17.3225 4.05984 16.9779 4.59668 16.9779C4.95458 16.9779 5.84931 17.1502 6.2072 18.184C6.74404 19.9071 7.10193 21.2855 8.17561 24.2147L8.89139 26.4547C9.24929 27.8331 10.323 28.5223 11.3966 28.5223C11.9335 28.5223 12.4703 28.35 13.0072 27.8331C13.544 27.3162 13.7229 26.4547 13.544 25.5931C13.544 25.2485 13.1861 23.8701 12.8282 21.9747C12.1124 18.5286 11.2177 13.5318 10.5019 9.39645C10.144 8.70723 10.144 8.19031 10.5019 7.8457C10.8598 7.50109 11.3966 7.32879 11.9335 7.32879C12.1124 7.32879 13.3651 7.32879 13.544 8.53492C13.9019 10.7749 15.1545 18.3563 15.6914 21.2855L15.8703 21.9747C16.2282 23.5255 17.3019 24.0424 18.0177 24.0424C19.2703 24.0424 20.165 23.1809 20.165 21.9747V21.4578C20.165 19.2178 20.165 9.91336 20.165 4.74421C20.165 3.19346 21.4176 3.02116 21.9545 3.02116C22.4913 3.02116 23.0282 3.19346 23.386 3.53807C23.565 3.71038 23.7439 4.05499 23.7439 4.3996C23.7439 7.8457 23.7439 18.3563 23.7439 21.2855C23.7439 23.1809 24.9966 24.0424 26.0702 24.0424C27.1439 24.0424 28.2176 23.1809 28.3965 22.147C28.3965 21.9747 28.5755 20.9409 28.7544 19.5624C29.2913 16.2887 30.186 10.6026 30.3649 8.87953C30.5439 7.50109 31.7965 7.32879 32.1544 7.32879C32.6912 7.32879 33.2281 7.50109 33.407 7.8457C33.7649 8.19031 33.7649 8.53492 33.7649 9.05184C33.407 11.4641 30.7228 28.35 30.7228 28.5223C30.3649 30.7623 31.0807 32.1407 31.7965 32.8299C33.2281 34.3807 35.7333 34.8976 37.5228 33.8638C38.2386 33.3469 39.6702 32.313 42.8912 29.3838C44.6806 27.8331 46.6491 28.1777 47.3648 29.7285C47.3648 30.2454 47.5438 31.4515 46.6491 32.4853Z" fill="white"></path></svg>