<svg xmlns="http://www.w3.org/2000/svg" width="38" height="48" viewBox="0 0 38 48" fill="none"><path d="M35.625 3.16553H26.1915V4.74886H35.625C36.062 4.74886 36.4167 5.10511 36.4167 5.54053V45.1239C36.4167 45.5593 36.062 45.9155 35.625 45.9155H2.375C1.938 45.9155 1.58333 45.5593 1.58333 45.1239V5.54053C1.58333 5.10511 1.938 4.74886 2.375 4.74886H11.875V3.16553H2.375C1.06558 3.16553 0 4.23111 0 5.54053V45.1239C0 46.4333 1.06558 47.4989 2.375 47.4989H35.625C36.9344 47.4989 38 46.4333 38 45.1239V5.54053C38 4.23111 36.9344 3.16553 35.625 3.16553Z" fill="white"></path><path d="M34.0417 33.2512C33.6047 33.2512 33.25 32.8965 33.25 32.4595V7.91781H29.2917C28.8547 7.91781 28.5 7.56314 28.5 7.12614C28.5 6.68914 28.8547 6.33447 29.2917 6.33447H34.0417C34.4787 6.33447 34.8333 6.68914 34.8333 7.12614V32.4595C34.8333 32.8965 34.4787 33.2512 34.0417 33.2512Z" fill="white"></path><path d="M26.1251 44.3334H3.95841C3.52141 44.3334 3.16675 43.9787 3.16675 43.5417V7.12504C3.16675 6.68804 3.52141 6.33337 3.95841 6.33337H8.70841C9.14541 6.33337 9.50008 6.68804 9.50008 7.12504C9.50008 7.56204 9.14541 7.91671 8.70841 7.91671H4.75008V42.75H26.1251C26.5621 42.75 26.9167 43.1047 26.9167 43.5417C26.9167 43.9787 26.5621 44.3334 26.1251 44.3334Z" fill="white"></path><path d="M26.1249 44.3334C26.0236 44.3334 25.9207 44.3128 25.8225 44.2732C25.5264 44.1513 25.3333 43.8615 25.3333 43.5417V35.625C25.3333 35.188 25.6879 34.8334 26.1249 34.8334H34.0416C34.3614 34.8334 34.6512 35.0265 34.7731 35.3226C34.8966 35.6187 34.8285 35.9591 34.6021 36.1855L26.6854 44.1022C26.5334 44.2526 26.3308 44.3334 26.1249 44.3334ZM26.9166 36.4167V41.6306L32.1305 36.4167H26.9166Z" fill="white"></path><path d="M8.95004 26.9422C8.94371 26.9422 8.93896 26.9422 8.93263 26.9422C8.70779 26.9375 8.49563 26.8377 8.34996 26.6667L6.52438 24.5356C6.23938 24.2046 6.27738 23.7043 6.60988 23.4193C6.94238 23.1343 7.44271 23.1755 7.72613 23.5064L8.97854 24.9662L11.496 22.2856C11.7953 21.9674 12.2956 21.9516 12.6155 22.2524C12.9353 22.5532 12.9495 23.0536 12.6503 23.3718L9.52796 26.6952C9.37754 26.852 9.16854 26.9422 8.95004 26.9422Z" fill="white"></path><path d="M8.95004 19.0251C8.94371 19.0251 8.93896 19.0251 8.93263 19.0251C8.70779 19.0204 8.49563 18.9206 8.34996 18.7496L6.52438 16.6184C6.23938 16.2875 6.27738 15.7872 6.60988 15.5022C6.94238 15.2172 7.44271 15.2584 7.72613 15.5893L8.97854 17.0491L11.496 14.3685C11.7953 14.0503 12.2956 14.0344 12.6155 14.3353C12.9353 14.6361 12.9495 15.1364 12.6503 15.4547L9.52796 18.7781C9.37754 18.9349 9.16854 19.0251 8.95004 19.0251Z" fill="white"></path><path d="M21.3757 34.8335H15.0424C14.6054 34.8335 14.2507 34.4788 14.2507 34.0418C14.2507 33.6048 14.6054 33.2501 15.0424 33.2501H21.3757C21.8127 33.2501 22.1674 33.6048 22.1674 34.0418C22.1674 34.4788 21.8127 34.8335 21.3757 34.8335Z" fill="white"></path><path d="M29.2924 31.6678H15.0424C14.6054 31.6678 14.2507 31.3131 14.2507 30.8761C14.2507 30.4391 14.6054 30.0845 15.0424 30.0845H29.2924C29.7294 30.0845 30.0841 30.4391 30.0841 30.8761C30.0841 31.3131 29.7294 31.6678 29.2924 31.6678Z" fill="white"></path><path d="M29.2924 23.7496H24.5424C24.1054 23.7496 23.7507 23.3949 23.7507 22.9579C23.7507 22.5209 24.1054 22.1663 24.5424 22.1663H29.2924C29.7294 22.1663 30.0841 22.5209 30.0841 22.9579C30.0841 23.3949 29.7294 23.7496 29.2924 23.7496Z" fill="white"></path><path d="M26.1257 26.9178H15.0424C14.6054 26.9178 14.2507 26.5631 14.2507 26.1261C14.2507 25.6891 14.6054 25.3345 15.0424 25.3345H26.1257C26.5627 25.3345 26.9174 25.6891 26.9174 26.1261C26.9174 26.5631 26.5627 26.9178 26.1257 26.9178Z" fill="white"></path><path d="M21.3757 23.7496H15.0424C14.6054 23.7496 14.2507 23.3949 14.2507 22.9579C14.2507 22.5209 14.6054 22.1663 15.0424 22.1663H21.3757C21.8127 22.1663 22.1674 22.5209 22.1674 22.9579C22.1674 23.3949 21.8127 23.7496 21.3757 23.7496Z" fill="white"></path><path d="M29.2924 15.8335H15.0424C14.6054 15.8335 14.2507 15.4788 14.2507 15.0418C14.2507 14.6048 14.6054 14.2501 15.0424 14.2501H29.2924C29.7294 14.2501 30.0841 14.6048 30.0841 15.0418C30.0841 15.4788 29.7294 15.8335 29.2924 15.8335Z" fill="white"></path><path d="M22.9591 18.9996H15.0424C14.6054 18.9996 14.2507 18.6449 14.2507 18.2079C14.2507 17.7709 14.6054 17.4163 15.0424 17.4163H22.9591C23.3961 17.4163 23.7507 17.7709 23.7507 18.2079C23.7507 18.6449 23.3961 18.9996 22.9591 18.9996Z" fill="white"></path><path d="M10.2916 34.8336H7.12492C6.68792 34.8336 6.33325 34.479 6.33325 34.042V30.8753C6.33325 30.4383 6.68792 30.0836 7.12492 30.0836H10.2916C10.7286 30.0836 11.0833 30.4383 11.0833 30.8753V34.042C11.0833 34.479 10.7286 34.8336 10.2916 34.8336ZM7.91659 33.2503H9.49992V31.667H7.91659V33.2503Z" fill="white"></path><path d="M26.1249 9.50005H11.8749C11.4379 9.50005 11.0833 9.14538 11.0833 8.70838V3.95838C11.0833 2.64896 12.1488 1.58337 13.4583 1.58337C13.8953 1.58337 14.2499 1.93804 14.2499 2.37504C14.2499 2.81204 13.8953 3.16671 13.4583 3.16671C13.0213 3.16671 12.6666 3.52296 12.6666 3.95838V7.91671H25.3333V3.95838C25.3333 3.52296 24.9786 3.16671 24.5416 3.16671C24.1046 3.16671 23.7499 2.81204 23.7499 2.37504C23.7499 1.93804 24.1046 1.58337 24.5416 1.58337C25.851 1.58337 26.9166 2.64896 26.9166 3.95838V8.70838C26.9166 9.14538 26.5619 9.50005 26.1249 9.50005Z" fill="white"></path><path d="M21.3749 3.16667C20.9379 3.16667 20.5833 2.812 20.5833 2.375C20.5833 1.93958 20.2286 1.58333 19.7916 1.58333H18.2083C18.0373 1.58333 17.8742 1.63558 17.7396 1.73692C17.5338 1.88733 17.4166 2.12008 17.4166 2.375C17.4166 2.812 17.0619 3.16667 16.6249 3.16667C16.1879 3.16667 15.8333 2.812 15.8333 2.375C15.8333 1.62292 16.1943 0.908833 16.7975 0.463917C17.206 0.1615 17.6953 0 18.2083 0H19.7916C21.101 0 22.1666 1.06558 22.1666 2.375C22.1666 2.812 21.8119 3.16667 21.3749 3.16667Z" fill="white"></path></svg>