<svg xmlns="http://www.w3.org/2000/svg" width="47" height="47" viewBox="0 0 47 47" fill="none"><path d="M33.3995 16.3178V20.915H26.1732C25.8044 20.9078 25.4371 20.9624 25.0863 21.0766C24.4883 21.262 23.944 21.5896 23.5001 22.0313C23.0884 22.4321 22.7617 22.9118 22.5396 23.4418C22.3176 23.9717 22.2046 24.541 22.2076 25.1156V30.3444H13.3951L5.94852 37.5559V16.3178C5.93938 15.3668 6.15238 14.4268 6.57055 13.5726C6.98873 12.7184 7.60053 11.9736 8.35727 11.3975C9.30069 10.6725 10.4575 10.28 11.6473 10.2813H27.7007C29.1275 10.2846 30.497 10.8429 31.5195 11.8381C32.1204 12.4182 32.597 13.1145 32.9202 13.8846C33.2434 14.6548 33.4065 15.4826 33.3995 16.3178V16.3178Z" stroke="black" stroke-linecap="round" stroke-linejoin="round"></path><path d="M41.1246 25.0569V39.6563L36.0133 34.6625H26.1727C25.6496 34.6613 25.1326 34.5509 24.6546 34.3385C24.1766 34.126 23.7482 33.8162 23.3968 33.4288C22.6519 32.633 22.2417 31.5812 22.2511 30.4913V25.0569C22.2502 24.4953 22.36 23.939 22.5743 23.4198C22.7885 22.9007 23.1029 22.4288 23.4996 22.0313C23.9159 21.6264 24.4178 21.3202 24.9683 21.1353C25.3191 21.0212 25.6864 20.9666 26.0552 20.9738H37.0855C37.9033 20.9704 38.699 21.2391 39.3474 21.7375C39.884 22.1119 40.3246 22.6076 40.6334 23.1844C40.9422 23.7612 41.1105 24.4028 41.1246 25.0569Z" stroke="black" stroke-linecap="round" stroke-linejoin="round"></path><path d="M13.6745 21.1941C14.6236 21.1941 15.3929 20.3787 15.3929 19.3728C15.3929 18.367 14.6236 17.5516 13.6745 17.5516C12.7254 17.5516 11.9561 18.367 11.9561 19.3728C11.9561 20.3787 12.7254 21.1941 13.6745 21.1941Z" stroke="black" stroke-linecap="round" stroke-linejoin="round"></path><path d="M19.6813 21.1941C20.6304 21.1941 21.3998 20.3787 21.3998 19.3728C21.3998 18.367 20.6304 17.5516 19.6813 17.5516C18.7323 17.5516 17.9629 18.367 17.9629 19.3728C17.9629 20.3787 18.7323 21.1941 19.6813 21.1941Z" stroke="black" stroke-linecap="round" stroke-linejoin="round"></path><path d="M27.3924 19.3728C27.395 19.6749 27.3241 19.973 27.186 20.2417C27.0478 20.5103 26.8465 20.7414 26.5993 20.915H26.1734C25.8046 20.9078 25.4372 20.9624 25.0865 21.0766C24.7507 20.9378 24.4645 20.7009 24.2654 20.397C24.0662 20.093 23.9634 19.7361 23.9702 19.3728C23.9482 19.1348 23.976 18.8948 24.0519 18.6681C24.1279 18.4414 24.2503 18.2331 24.4113 18.0565C24.5724 17.8798 24.7685 17.7387 24.9872 17.6421C25.2059 17.5455 25.4423 17.4957 25.6813 17.4957C25.9204 17.4957 26.1568 17.5455 26.3755 17.6421C26.5942 17.7387 26.7903 17.8798 26.9513 18.0565C27.1124 18.2331 27.2348 18.4414 27.3107 18.6681C27.3867 18.8948 27.4145 19.1348 27.3924 19.3728V19.3728Z" stroke="black" stroke-linecap="round" stroke-linejoin="round"></path><path d="M29.9775 26.1878C29.9976 25.8524 30.1156 25.5303 30.3169 25.2612C30.5182 24.9922 30.7939 24.7881 31.11 24.6741C31.426 24.5601 31.7686 24.5413 32.0952 24.62C32.4219 24.6986 32.7183 24.8713 32.9478 25.1167C33.1774 25.362 33.3299 25.6693 33.3867 26.0005C33.4434 26.3316 33.4018 26.6722 33.267 26.9799C33.1323 27.2877 32.9102 27.5492 32.6284 27.7321C32.3465 27.915 32.0173 28.0113 31.6813 28.009" stroke="black" stroke-linecap="round" stroke-linejoin="round"></path><path d="M30.8291 31.5193V31.6515" stroke="black" stroke-linecap="round" stroke-linejoin="round"></path><path d="M31.6805 28.009C31.5648 28.0128 31.4509 28.0394 31.3454 28.0872C31.24 28.1351 31.1449 28.2032 31.0658 28.2878C30.9867 28.3723 30.925 28.4717 30.8843 28.5801C30.8436 28.6885 30.8247 28.8039 30.8286 28.9197V29.5072" stroke="black" stroke-linecap="round" stroke-linejoin="round"></path></svg>