<svg xmlns="http://www.w3.org/2000/svg" width="73" height="93" viewBox="0 0 73 93" fill="none"><circle cx="35.5" cy="57.5" r="35.5" fill="#B9E2F9"></circle><ellipse cx="57.9211" cy="84.779" rx="5.60526" ry="5.97895" fill="#FFF7AC"></ellipse><path d="M54.5 0C44.2836 0 36 8.39551 36 18.75C36 26.3096 38.5987 28.4209 52.6018 48.9941C53.5202 50.3389 55.4838 50.3389 56.402 48.9941C70.3984 28.418 73 26.3086 73 18.75C73 8.39551 64.7135 0 54.5 0ZM54.5 26.4746C50.2479 26.4746 46.7917 22.9707 46.7917 18.6621C46.7917 14.3535 50.2508 10.8496 54.5 10.8496C58.7492 10.8496 62.2083 14.3535 62.2083 18.6621C62.2083 22.9707 58.7492 26.4746 54.5 26.4746Z" fill="black"></path></svg>