<svg xmlns="http://www.w3.org/2000/svg" width="41" height="41" viewBox="0 0 41 41" fill="none"><path d="M17.7516 15.4773C17.9178 15.5932 18.1202 15.6455 18.3217 15.6247C18.4572 15.6125 18.5862 15.5613 18.6933 15.4773C18.8038 15.3845 18.886 15.2624 18.9303 15.125L19.2186 14.1705L22.1142 13.8502L22.6459 14.7342C22.7174 14.8582 22.8216 14.9601 22.947 15.0289C23.0689 15.0858 23.2041 15.108 23.3378 15.093C23.538 15.0701 23.7227 14.9743 23.8567 14.8239C23.9241 14.7554 23.9752 14.6726 24.0063 14.5817C24.0373 14.4908 24.0475 14.394 24.0361 14.2986C24.0219 14.1846 23.9825 14.0752 23.9208 13.9783L21.0187 9.385C20.9237 9.23824 20.7879 9.12245 20.628 9.05187C20.4632 8.98703 20.2852 8.96285 20.1091 8.9814C19.9313 8.99956 19.7613 9.06358 19.6158 9.16719C19.4742 9.26816 19.3686 9.41185 19.3147 9.57719L17.4953 14.7022C17.4534 14.8101 17.438 14.9266 17.4505 15.0417C17.4667 15.1316 17.502 15.217 17.5539 15.2921C17.6058 15.3672 17.6732 15.4304 17.7516 15.4773ZM20.3141 10.7816L21.4287 12.7034L19.6414 12.902L20.3141 10.7816Z" fill="white"></path><path d="M14.049 29.0266C14.3411 28.9249 14.5942 28.7345 14.7729 28.4821C14.9897 28.1608 15.0765 27.7692 15.0159 27.3864C14.9552 27.0035 14.7517 26.6579 14.4462 26.4193C13.9806 26.0987 13.422 25.941 12.8575 25.9709H10.5512C10.3425 25.9601 10.1379 26.0314 9.98105 26.1695C9.84409 26.3266 9.77498 26.5316 9.78886 26.7396V31.5571C9.77498 31.7651 9.84409 31.9701 9.98105 32.1273C10.1379 32.2653 10.3425 32.3366 10.5512 32.3259H12.9471C13.3548 32.3326 13.7598 32.2586 14.1387 32.1081C14.453 31.9827 14.726 31.7719 14.9267 31.4995C15.1089 31.2293 15.2029 30.9092 15.1957 30.5834C15.2083 30.2311 15.1048 29.8845 14.901 29.5968C14.6853 29.3206 14.3867 29.1208 14.049 29.0266ZM11.3968 27.2265H12.5756C12.8143 27.2077 13.0532 27.2613 13.261 27.3802C13.3361 27.4359 13.3955 27.5099 13.4336 27.5952C13.4718 27.6804 13.4874 27.7741 13.4789 27.8671C13.4855 27.9554 13.4689 28.0438 13.4306 28.1236C13.3924 28.2034 13.3339 28.2718 13.261 28.322C13.0507 28.4339 12.8133 28.4849 12.5756 28.4693H11.3968V27.2265ZM13.4532 30.9165C13.2388 31.0366 12.9935 31.0902 12.7485 31.0702H11.4032V29.7185H12.7485C12.9944 29.6968 13.2409 29.7528 13.4532 29.8787C13.5283 29.9412 13.5869 30.0212 13.6237 30.1117C13.6606 30.2022 13.6747 30.3004 13.6646 30.3976C13.671 30.4944 13.6553 30.5915 13.6187 30.6814C13.5821 30.7713 13.5255 30.8517 13.4532 30.9165Z" fill="white"></path><path d="M33.9531 20.4999H26.413L27.1881 20.4102C27.6074 20.3652 28.0133 20.2366 28.3819 20.0319C28.7506 19.8273 29.0744 19.5507 29.3342 19.2186C29.5979 18.8901 29.7942 18.5127 29.9118 18.1082C30.0294 17.7036 30.0661 17.2799 30.0197 16.8611L28.8281 6.0538C28.7843 5.63217 28.6573 5.22343 28.4543 4.85126C28.2514 4.4791 27.9766 4.15092 27.6459 3.88574C27.3151 3.62057 26.9351 3.42368 26.5277 3.30649C26.1203 3.18929 25.6937 3.15412 25.2727 3.20302L13.8119 4.48427C13.3936 4.52766 12.9883 4.6543 12.6197 4.85674C12.2511 5.05917 11.9268 5.33332 11.6658 5.66302C11.4021 5.99159 11.2058 6.36895 11.0882 6.77349C10.9706 7.17803 10.9339 7.60179 10.9803 8.02052L12.1719 18.8599C12.2448 19.4616 12.4869 20.0303 12.8702 20.4999H7.04688C6.19735 20.4999 5.38263 20.8374 4.78192 21.4381C4.18122 22.0388 3.84375 22.8535 3.84375 23.703V34.5936C3.84375 35.4432 4.18122 36.2579 4.78192 36.8586C5.38263 37.4593 6.19735 37.7968 7.04688 37.7968H17.9375C18.4348 37.7968 18.9252 37.681 19.37 37.4586C19.8148 37.2362 20.2016 36.9133 20.5 36.5155C20.7984 36.9133 21.1852 37.2362 21.63 37.4586C22.0748 37.681 22.5652 37.7968 23.0625 37.7968H33.9531C34.8026 37.7968 35.6174 37.4593 36.2181 36.8586C36.8188 36.2579 37.1562 35.4432 37.1562 34.5936V23.703C37.1562 22.8535 36.8188 22.0388 36.2181 21.4381C35.6174 20.8374 34.8026 20.4999 33.9531 20.4999ZM20.5 21.7811C20.3388 21.5645 20.1492 21.3706 19.9363 21.2046L21.2175 21.0572C20.9422 21.2598 20.7001 21.5041 20.5 21.7811ZM12.6652 6.48302C12.9816 6.08609 13.4422 5.83045 13.9464 5.77193L25.4136 4.48427H25.625C26.1001 4.48139 26.5595 4.6546 26.9144 4.97048C27.2693 5.28635 27.4946 5.7225 27.5469 6.19474L28.7577 17.0149C28.7862 17.2661 28.7648 17.5204 28.6949 17.7633C28.625 18.0062 28.5078 18.233 28.3501 18.4306C28.1924 18.6281 27.9973 18.7926 27.7759 18.9147C27.5545 19.0367 27.3112 19.1139 27.06 19.1418L15.5992 20.423C15.3461 20.4542 15.0892 20.4347 14.8437 20.3656C14.5982 20.2965 14.3689 20.1793 14.1691 20.0207C13.9694 19.8621 13.8032 19.6653 13.6803 19.4418C13.5573 19.2183 13.4801 18.9726 13.4531 18.719L12.2552 7.8988C12.227 7.64745 12.2487 7.393 12.319 7.15005C12.3894 6.90709 12.507 6.68042 12.6652 6.48302ZM17.9375 36.5155H7.04688C6.53716 36.5155 6.04833 36.313 5.6879 35.9526C5.32748 35.5922 5.125 35.1034 5.125 34.5936V23.703C5.125 23.1933 5.32748 22.7045 5.6879 22.3441C6.04833 21.9836 6.53716 21.7811 7.04688 21.7811H17.9375C18.4472 21.7811 18.936 21.9836 19.2965 22.3441C19.6569 22.7045 19.8594 23.1933 19.8594 23.703V34.5936C19.8594 35.1034 19.6569 35.5922 19.2965 35.9526C18.936 36.313 18.4472 36.5155 17.9375 36.5155ZM35.875 34.5936C35.875 35.1034 35.6725 35.5922 35.3121 35.9526C34.9517 36.313 34.4628 36.5155 33.9531 36.5155H23.0625C22.5528 36.5155 22.064 36.313 21.7035 35.9526C21.3431 35.5922 21.1406 35.1034 21.1406 34.5936V23.703C21.1406 23.1933 21.3431 22.7045 21.7035 22.3441C22.064 21.9836 22.5528 21.7811 23.0625 21.7811H33.9531C34.4628 21.7811 34.9517 21.9836 35.3121 22.3441C35.6725 22.7045 35.875 23.1933 35.875 23.703V34.5936Z" fill="white"></path><path d="M29.033 27.2008C29.2278 27.2003 29.4217 27.2261 29.6095 27.2776C29.8174 27.3452 30.0172 27.4354 30.2053 27.5467C30.2831 27.601 30.367 27.6462 30.4552 27.6812C30.5336 27.7075 30.6159 27.7205 30.6986 27.7197C30.7733 27.7202 30.847 27.703 30.9138 27.6696C30.9806 27.6362 31.0386 27.5875 31.083 27.5275C31.1896 27.3927 31.2462 27.2252 31.2431 27.0534C31.2462 26.9425 31.222 26.8325 31.1727 26.7331C31.1214 26.6368 31.0465 26.5553 30.9549 26.4961C30.364 26.0894 29.6604 25.8788 28.9433 25.8939C28.361 25.8792 27.7848 26.0161 27.2713 26.2911C26.7982 26.5516 26.4127 26.9461 26.163 27.425C25.9059 27.9631 25.7725 28.5519 25.7725 29.1483C25.7725 29.7446 25.9059 30.3334 26.163 30.8715C26.4086 31.3599 26.7945 31.7637 27.2713 32.0311C27.7848 32.306 28.361 32.4429 28.9433 32.4283C29.6604 32.4434 30.364 32.2327 30.9549 31.8261C31.0454 31.7657 31.1201 31.6844 31.1727 31.589C31.2213 31.4894 31.2454 31.3796 31.2431 31.2687C31.2462 31.0969 31.1896 30.9294 31.083 30.7947C31.0386 30.7346 30.9806 30.6859 30.9138 30.6525C30.847 30.6191 30.7733 30.602 30.6986 30.6025C30.6268 30.6012 30.5554 30.6121 30.4872 30.6345L30.2053 30.7754C29.9427 30.8908 29.7249 30.9804 29.5647 31.0381C29.3954 31.0948 29.2179 31.123 29.0394 31.1214C28.8172 31.1384 28.5941 31.1039 28.3874 31.0206C28.1807 30.9372 27.9961 30.8073 27.8478 30.6409C27.5538 30.2085 27.416 29.6888 27.457 29.1675C27.4169 28.6503 27.5548 28.1349 27.8478 27.7069C27.9929 27.5367 28.1754 27.4025 28.381 27.3147C28.5866 27.2269 28.8098 27.1879 29.033 27.2008Z" fill="white"></path></svg>