<svg xmlns="http://www.w3.org/2000/svg" width="61" height="42" viewBox="0 0 61 42" fill="none"><path d="M60.6964 8.39797L55.8613 1.29367C55.8436 1.26789 55.8146 1.25338 55.7953 1.22921C55.7517 1.17676 55.7025 1.1292 55.6486 1.08738C55.5983 1.04694 55.5444 1.01133 55.4874 0.981005C55.4315 0.952942 55.3733 0.929757 55.3134 0.911704C55.216 0.892659 55.1187 0.872781 55.0217 0.852073H37.4978C36.4308 0.849418 35.3771 1.08931 34.4163 1.55363C33.4556 2.01795 32.6129 2.69454 31.952 3.5323L30.8706 4.89417L29.7891 3.5323C29.1282 2.69454 28.2856 2.01795 27.3248 1.55363C26.3641 1.08931 25.3104 0.849418 24.2433 0.852073H6.71145C6.67943 0.85681 6.64768 0.863265 6.61636 0.871412C6.55143 0.878727 6.48726 0.89167 6.42457 0.910093C6.36215 0.928241 6.30168 0.952535 6.24406 0.982619C6.18714 1.01174 6.13317 1.04628 6.08289 1.08577C6.02975 1.12903 5.98066 1.17704 5.93623 1.22921C5.91689 1.25338 5.88788 1.26789 5.87015 1.29367L1.0351 8.39797C0.923709 8.56948 0.866436 8.7705 0.870706 8.97495V40.9072C0.870706 41.175 0.97695 41.4317 1.16611 41.6212C1.35527 41.8107 1.61189 41.9173 1.87962 41.9178H59.8615C60.1293 41.9173 60.3859 41.8107 60.575 41.6212C60.7642 41.4317 60.8705 41.175 60.8705 40.9072V8.97495C60.8719 8.76949 60.8112 8.56838 60.6964 8.39797V8.39797ZM33.5331 4.78458C34.0057 4.18597 34.6082 3.70258 35.2951 3.37089C35.9819 3.03921 36.7351 2.8679 37.4978 2.8699H54.0208V35.2454H37.4978C36.4306 35.2429 35.3768 35.4831 34.4161 35.9477C33.4553 36.4123 32.6128 37.0892 31.952 37.9272L31.8795 38.0175V6.86848L33.5331 4.78458ZM7.72036 2.87151H24.2433C25.0059 2.86932 25.759 3.04038 26.4459 3.37178C27.1327 3.70318 27.7352 4.18627 28.2081 4.78458L29.8617 6.86687V38.0143L29.7891 37.924C29.1281 37.0865 28.2854 36.4103 27.3246 35.9462C26.3639 35.4822 25.3103 35.2425 24.2433 35.2454H7.72036V2.87151ZM2.88531 9.27795L5.69931 5.14076V36.2462C5.6991 36.3789 5.72504 36.5102 5.77565 36.6328C5.82625 36.7554 5.90054 36.8668 5.99424 36.9607C6.08795 37.0546 6.19924 37.129 6.32176 37.1798C6.44427 37.2306 6.5756 37.2568 6.70822 37.2568H24.2433C25.0061 37.2548 25.7593 37.4261 26.4461 37.7578C27.1329 38.0894 27.7354 38.5728 28.2081 39.1714L28.7818 39.8935H2.88853L2.88531 9.27795ZM58.8494 39.8999H32.9658L33.5395 39.1779C34.0122 38.5793 34.6147 38.0959 35.3015 37.7642C35.9883 37.4325 36.7415 37.2612 37.5043 37.2632H55.0297C55.1623 37.2632 55.2937 37.2371 55.4162 37.1863C55.5387 37.1355 55.65 37.061 55.7437 36.9671C55.8374 36.8733 55.9117 36.7619 55.9623 36.6393C56.0129 36.5167 56.0388 36.3853 56.0386 36.2527V5.14721L58.8526 9.2844L58.8494 39.8999Z" fill="white"></path></svg>