<svg xmlns="http://www.w3.org/2000/svg" width="33" height="33" viewBox="0 0 33 33" fill="none"><path d="M29.0888 5.02891C28.9902 4.9303 28.8588 4.86456 28.7273 4.86456H23.7313V2.56377C23.7313 2.30082 23.5012 2.07074 23.2382 2.07074H9.20339C8.94044 2.07074 8.71036 2.30082 8.71036 2.56377V4.86456H3.58287C3.4514 4.86456 3.31992 4.9303 3.22132 5.02891C3.12271 5.12751 3.08984 5.25899 3.08984 5.39046C3.08984 5.48907 3.18845 7.59265 3.94443 10.0249C4.99622 13.2789 6.77112 15.5797 9.13765 16.6315C9.9265 19.261 11.7343 21.3317 14.0022 22.1534V22.252C14.0022 24.9801 11.9315 27.1494 9.26913 27.1494C9.00618 27.1494 8.7761 27.3795 8.7761 27.6425V30.4363C8.7761 30.6992 9.00618 30.9293 9.26913 30.9293H23.2382C23.5012 30.9293 23.7313 30.6992 23.7313 30.4363V27.6425C23.7313 27.3795 23.5012 27.1494 23.2382 27.1494C20.543 27.1494 18.3408 24.9472 18.3408 22.252V22.1863C20.7074 21.3646 22.548 19.261 23.3369 16.5658C25.6048 15.4811 27.3468 13.2132 28.3657 10.0249C29.1546 7.59265 29.2203 5.4562 29.2203 5.39046C29.2532 5.25899 29.1875 5.12751 29.0888 5.02891ZM4.10877 5.85062H8.71036V13.7391C8.71036 14.2978 8.74323 14.8237 8.84184 15.3496C5.09482 13.1146 4.27311 7.55978 4.10877 5.85062ZM22.7452 28.1026V29.9104H9.76215V28.1026C12.6546 27.8725 14.8896 25.4731 14.9554 22.4164C15.3498 22.4821 15.7771 22.5478 16.2044 22.5478C16.5988 22.5478 16.9932 22.515 17.3548 22.4492C17.4863 25.4403 19.8199 27.8725 22.7452 28.1026ZM17.5191 21.4303C17.0918 21.5289 16.6645 21.5946 16.2373 21.5946C15.7442 21.5946 15.2512 21.5289 14.791 21.3974C14.6924 21.3646 14.5281 21.2988 14.4624 21.2988C11.7343 20.3785 9.69642 17.3546 9.69642 13.7719V3.08966H22.7452V5.06178V5.68628V13.7719C22.7452 17.3546 20.7074 20.3785 17.9464 21.2988L17.5191 21.4303ZM23.6327 15.2839C23.6984 14.7909 23.7641 14.265 23.7641 13.7391V5.85062H28.2343C28.0699 7.55978 27.2811 12.9502 23.6327 15.2839Z" fill="black"></path><path d="M20.9702 8.9731L18.275 8.57868L17.0588 6.11354C16.9274 5.85059 16.6315 5.65338 16.3357 5.65338C16.0399 5.65338 15.7441 5.81772 15.6126 6.11354L14.3965 8.57868L11.7013 8.9731C11.4054 9.00597 11.1425 9.23605 11.0439 9.53187C10.9453 9.82768 11.011 10.1564 11.2411 10.3536L13.2132 12.26L12.753 14.9552C12.6873 15.251 12.8188 15.5468 13.0817 15.744C13.2132 15.8426 13.3775 15.9084 13.5748 15.9084C13.7062 15.9084 13.8377 15.8755 13.9363 15.8098L16.4343 14.5608L18.8009 15.8098C19.0638 15.9412 19.3925 15.9412 19.6554 15.744C19.9184 15.5468 20.017 15.251 19.9841 14.9552L19.524 12.26L21.4961 10.3536C21.7262 10.1235 21.7919 9.82768 21.6933 9.53187C21.5289 9.23605 21.2989 9.00597 20.9702 8.9731ZM18.6036 11.7341C18.4722 11.8327 18.4393 11.997 18.4722 12.1613L18.9323 14.758L16.6644 13.5747C16.5329 13.509 16.3686 13.509 16.2042 13.5747L13.772 14.7908L14.2321 12.1613C14.265 11.997 14.1993 11.8327 14.1007 11.7341L12.2272 9.89342L14.8238 9.499C14.9881 9.46613 15.1196 9.36752 15.1853 9.23605L16.3357 6.86952L17.4861 9.23605C17.5519 9.36752 17.6833 9.499 17.8477 9.499L20.4443 9.89342L18.6036 11.7341Z" fill="black"></path></svg>