<svg xmlns="http://www.w3.org/2000/svg" width="41" height="41" viewBox="0 0 41 41" fill="none"><path d="M39.6679 8.93941L35.9834 6.38568C36.3119 6.1528 36.5795 5.84419 36.7634 5.48598C36.9474 5.12777 37.0423 4.73051 37.0402 4.32784C37.038 3.92516 36.9389 3.52893 36.7512 3.17269C36.5634 2.81645 36.2926 2.5107 35.9617 2.28131C35.6307 2.05192 35.2494 1.90566 34.8499 1.8549C34.4504 1.80415 34.0446 1.85039 33.6668 1.98973C33.289 2.12906 32.9503 2.35738 32.6795 2.65536C32.4086 2.95333 32.2135 3.31218 32.1108 3.70152L28.2561 1.02979L25.5845 4.88427C25.4168 4.64653 25.2083 4.44027 24.9689 4.27496C24.6984 4.08689 24.3935 3.95399 24.0716 3.88387C23.7497 3.81375 23.4171 3.80778 23.0929 3.8663C22.7687 3.92481 22.4592 4.04668 22.1822 4.22491C21.9051 4.40314 21.6659 4.63425 21.4782 4.90502C21.2906 5.17578 21.1581 5.48089 21.0885 5.80289C21.0188 6.12488 21.0134 6.45745 21.0724 6.78156C21.1314 7.10568 21.2537 7.41498 21.4323 7.69178C21.611 7.96858 21.8424 8.20744 22.1135 8.3947C22.3523 8.56094 22.6186 8.68371 22.9001 8.75736L20.2285 12.6118L24.7785 15.7654L24.7817 15.374C24.7852 14.9938 24.8922 14.6216 25.0914 14.2977C25.2905 13.9737 25.5741 13.7101 25.9118 13.5352C26.2495 13.3604 26.6284 13.2809 27.0079 13.3052C27.3874 13.3296 27.7531 13.4569 28.0656 13.6736C28.3782 13.8902 28.6258 14.1879 28.7818 14.5347C28.9378 14.8815 28.9964 15.2642 28.9511 15.6418C28.9059 16.0194 28.7587 16.3775 28.5252 16.6777C28.2917 16.9778 27.9808 17.2087 27.626 17.3454L27.2606 17.4858L31.8106 20.6394L34.4555 16.8233C34.6996 17.1272 35.0112 17.37 35.3656 17.5323C35.7199 17.6947 36.1073 17.7721 36.4968 17.7585C36.8864 17.7449 37.2674 17.6406 37.6095 17.454C37.9517 17.2673 38.2456 17.0034 38.468 16.6832C38.6903 16.3631 38.8348 15.9955 38.8902 15.6096C38.9455 15.2238 38.9101 14.8304 38.7867 14.4606C38.6634 14.0909 38.4555 13.755 38.1795 13.4797C37.9036 13.2044 37.5673 12.9972 37.1973 12.8747L38.5678 10.9549C38.5836 10.9327 38.5948 10.9077 38.601 10.8812C38.6071 10.8547 38.608 10.8273 38.6035 10.8005C38.599 10.7736 38.5893 10.748 38.5749 10.7249C38.5605 10.7018 38.5417 10.6818 38.5195 10.666C38.4974 10.6502 38.4724 10.639 38.4459 10.6328C38.4194 10.6267 38.392 10.6259 38.3652 10.6303C38.3383 10.6348 38.3127 10.6445 38.2896 10.6589C38.2665 10.6733 38.2465 10.6921 38.2307 10.7143L36.4995 13.1395L36.8145 13.2016C37.1554 13.2687 37.4742 13.4197 37.7421 13.6409C38.01 13.862 38.2187 14.1464 38.3492 14.4684C38.4797 14.7903 38.528 15.1397 38.4897 15.485C38.4514 15.8303 38.3277 16.1606 38.1298 16.4462C37.9319 16.7317 37.666 16.9635 37.3562 17.1205C37.0463 17.2776 36.7022 17.355 36.3549 17.3458C36.0076 17.3367 35.6681 17.2411 35.3669 17.0679C35.0658 16.8946 34.8125 16.6491 34.63 16.3535L34.4639 16.0844L31.7062 20.0631L28.1124 17.5722C28.4808 17.3627 28.79 17.0632 29.0111 16.7017C29.2323 16.3402 29.3581 15.9285 29.3769 15.5052C29.3958 15.0818 29.3069 14.6606 29.1187 14.2809C28.9305 13.9012 28.6491 13.5754 28.3008 13.334C27.9525 13.0926 27.5487 12.9435 27.1271 12.9005C26.7055 12.8576 26.2799 12.9223 25.8901 13.0885C25.5003 13.2548 25.159 13.5171 24.8981 13.8511C24.6373 14.1851 24.4654 14.5797 24.3985 14.9982L20.8047 12.5073L23.6155 8.45186L23.2769 8.40904C22.9204 8.36381 22.5816 8.22747 22.2931 8.01318C22.0046 7.79888 21.7762 7.51386 21.63 7.18561C21.4837 6.85736 21.4245 6.49695 21.4581 6.13916C21.4916 5.78137 21.6168 5.43826 21.8216 5.14294C22.1381 4.68741 22.6224 4.37602 23.1682 4.27709C23.714 4.17815 24.2768 4.29975 24.733 4.6152C25.0095 4.80613 25.2352 5.06154 25.3908 5.35933L25.5497 5.66132L28.3605 1.60596L32.4164 4.41711L32.4591 4.07831C32.5041 3.72149 32.6403 3.38229 32.8546 3.09344C33.0688 2.8046 33.3539 2.57587 33.6824 2.42933C34.0108 2.28279 34.3715 2.22339 34.7296 2.25687C35.0876 2.29034 35.431 2.41556 35.7266 2.62043C36.0222 2.8253 36.26 3.10292 36.417 3.42647C36.574 3.75002 36.645 4.10859 36.623 4.46756C36.6011 4.82653 36.487 5.17378 36.2917 5.4758C36.0965 5.77782 35.8266 6.02439 35.5083 6.19174L35.206 6.35059L39.4321 9.27966C39.4544 9.29568 39.4797 9.3071 39.5065 9.31324C39.5333 9.31939 39.561 9.32015 39.5881 9.31547C39.6152 9.3108 39.641 9.30078 39.6642 9.286C39.6874 9.27122 39.7073 9.25198 39.723 9.2294C39.7386 9.20682 39.7496 9.18135 39.7554 9.15448C39.7611 9.1276 39.7614 9.09986 39.7562 9.07287C39.7511 9.04587 39.7407 9.02017 39.7255 8.99725C39.7104 8.97434 39.6908 8.95467 39.668 8.93939L39.6679 8.93941Z" fill="black" stroke="black" stroke-width="0.6"></path><path d="M33.0662 27.1449C32.8253 27.1446 32.5856 27.1794 32.3547 27.2481V22.6051H27.5681C27.7515 22.223 27.8351 21.8007 27.8109 21.3776C27.7868 20.9545 27.6557 20.5445 27.43 20.1858C27.2043 19.8271 26.8914 19.5315 26.5204 19.3266C26.1494 19.1217 25.7325 19.0142 25.3088 19.0142C24.885 19.0142 24.4681 19.1217 24.0971 19.3266C23.7262 19.5315 23.4132 19.8271 23.1875 20.1858C22.9618 20.5445 22.8308 20.9545 22.8066 21.3776C22.7824 21.8007 22.866 22.223 23.0494 22.6051H18.6768V17.6708L18.3741 17.8285C18.0766 17.9847 17.7456 18.066 17.4097 18.0654C17.1345 18.066 16.8619 18.0123 16.6076 17.9074C16.3532 17.8026 16.122 17.6486 15.9272 17.4542C15.7325 17.2599 15.5779 17.029 15.4725 16.7749C15.3671 16.5208 15.3128 16.2483 15.3128 15.9732C15.3128 15.698 15.3671 15.4256 15.4725 15.1714C15.5779 14.9173 15.7325 14.6864 15.9272 14.4921C16.122 14.2978 16.3532 14.1438 16.6076 14.0389C16.8619 13.934 17.1345 13.8804 17.4097 13.881C17.7456 13.8804 18.0766 13.9617 18.3741 14.1178L18.6768 14.2755V8.92719H13.5326L13.6204 9.19805C13.7225 9.51207 13.7488 9.84579 13.6972 10.1719C13.6456 10.4981 13.5175 10.8074 13.3234 11.0745C13.1294 11.3417 12.8748 11.5591 12.5806 11.709C12.2864 11.8589 11.9609 11.9371 11.6307 11.9371C11.3005 11.9371 10.975 11.8589 10.6808 11.709C10.3866 11.5591 10.1321 11.3417 9.93804 11.0745C9.74398 10.8074 9.61591 10.4981 9.5643 10.1719C9.51269 9.84579 9.53901 9.51207 9.6411 9.19805L9.72889 8.92719H4.58475V13.6111C4.31681 13.5153 4.03431 13.4665 3.74975 13.467H3.7494C3.08471 13.467 2.44723 13.731 1.97722 14.201C1.50721 14.6711 1.24316 15.3085 1.24316 15.9732C1.24316 16.6379 1.50721 17.2754 1.97722 17.7454C2.44723 18.2154 3.08471 18.4795 3.7494 18.4795C4.03409 18.4799 4.31671 18.4312 4.58477 18.3353V28.1101L4.90517 27.9004C5.22078 27.6939 5.58635 27.5765 5.96319 27.5607C6.34003 27.5449 6.71413 27.6313 7.04591 27.8107C7.3777 27.9901 7.65481 28.2558 7.84794 28.5798C8.04108 28.9038 8.14304 29.2739 8.14305 29.6511C8.14305 30.0283 8.0411 30.3984 7.84798 30.7224C7.65485 31.0464 7.37774 31.3121 7.04597 31.4915C6.71419 31.6709 6.34009 31.7573 5.96325 31.7415C5.58641 31.7257 5.22084 31.6084 4.90523 31.4019L4.58477 31.1921V36.4901C4.58477 36.545 4.60658 36.5977 4.64541 36.6365C4.68424 36.6753 4.7369 36.6971 4.7918 36.6971C4.84671 36.6971 4.89937 36.6753 4.9382 36.6365C4.97702 36.5977 4.99883 36.545 4.99883 36.4901V31.9262C5.38071 32.1027 5.80086 32.1802 6.22056 32.1516C6.64025 32.123 7.046 31.9892 7.4004 31.7625C7.75479 31.5359 8.04644 31.2237 8.24846 30.8547C8.45048 30.4857 8.55636 30.0718 8.55636 29.6511C8.55636 29.2305 8.45048 28.8166 8.24846 28.4476C8.04644 28.0786 7.75479 27.7664 7.4004 27.5397C7.046 27.3131 6.64025 27.1793 6.22056 27.1507C5.80086 27.1221 5.38071 27.1996 4.99883 27.376V23.0192H9.25693C9.16899 23.2767 9.12425 23.5469 9.12454 23.819C9.12454 24.4837 9.38859 25.1212 9.8586 25.5912C10.3286 26.0612 10.9661 26.3253 11.6308 26.3253C12.2955 26.3253 12.9329 26.0612 13.403 25.5912C13.873 25.1212 14.137 24.4837 14.137 23.819C14.1373 23.5469 14.0926 23.2767 14.0046 23.0192H18.2627V28.0953L18.5816 27.8906C18.8976 27.6877 19.2625 27.5735 19.6379 27.5602C20.0133 27.5469 20.3854 27.635 20.715 27.815C21.0447 27.9951 21.3198 28.2607 21.5114 28.5837C21.7031 28.9068 21.8042 29.2755 21.8042 29.6511C21.8042 30.0268 21.7031 30.3955 21.5114 30.7185C21.3198 31.0416 21.0447 31.3071 20.715 31.4872C20.3854 31.6673 20.0133 31.7553 19.6379 31.742C19.2625 31.7287 18.8976 31.6146 18.5816 31.4117L18.2627 31.207V36.2831H13.3855L13.5238 36.578C13.6549 36.855 13.7229 37.1577 13.723 37.4642C13.723 38.019 13.5025 38.5512 13.1102 38.9436C12.7178 39.3359 12.1857 39.5563 11.6308 39.5563C11.0759 39.5563 10.5437 39.3359 10.1514 38.9436C9.75903 38.5512 9.53861 38.019 9.53861 37.4642C9.53866 37.1577 9.60668 36.8551 9.73776 36.5781L9.87615 36.2831H6.8672C6.81229 36.2831 6.75963 36.3049 6.72081 36.3437C6.68198 36.3825 6.66017 36.4352 6.66017 36.4901C6.66017 36.545 6.68198 36.5977 6.72081 36.6365C6.75963 36.6753 6.81229 36.6971 6.8672 36.6971H9.24604C9.16533 36.9448 9.12432 37.2037 9.12452 37.4642C9.12452 38.1289 9.38857 38.7663 9.85858 39.2363C10.3286 39.7064 10.9661 39.9704 11.6308 39.9704C12.2955 39.9704 12.9329 39.7064 13.4029 39.2363C13.8729 38.7663 14.137 38.1289 14.137 37.4642C14.1372 37.2037 14.0962 36.9448 14.0154 36.6971H18.2627H23.8318L23.6008 36.3705C23.3792 36.0574 23.248 35.6893 23.2215 35.3066C23.195 34.9239 23.2742 34.5413 23.4505 34.2005C23.6268 33.8598 23.8934 33.5741 24.2211 33.3747C24.5488 33.1753 24.9251 33.0698 25.3087 33.0698C25.6923 33.0698 26.0686 33.1753 26.3963 33.3747C26.724 33.5741 26.9906 33.8598 27.1669 34.2005C27.3432 34.5413 27.4224 34.9239 27.3959 35.3066C27.3694 35.6893 27.2381 36.0574 27.0165 36.3705L26.7856 36.6971H32.3548V32.0542C32.6995 32.1562 33.0621 32.1829 33.418 32.1325C33.774 32.082 34.1149 31.9555 34.4176 31.7617C34.7204 31.5678 34.9779 31.3111 35.1727 31.009C35.3675 30.7068 35.495 30.3663 35.5465 30.0105C35.5981 29.6547 35.5725 29.292 35.4715 28.947C35.3705 28.602 35.1965 28.2827 34.9612 28.0109C34.7259 27.7391 34.4349 27.5211 34.1079 27.3716C33.781 27.2222 33.4257 27.1449 33.0662 27.1449H33.0662ZM18.2627 22.6051H13.3638L13.5094 22.903C13.6499 23.1879 13.723 23.5013 13.7229 23.819C13.7229 24.3739 13.5025 24.906 13.1102 25.2984C12.7178 25.6907 12.1856 25.9111 11.6308 25.9111C11.0759 25.9111 10.5437 25.6907 10.1514 25.2984C9.75901 24.906 9.53859 24.3739 9.53859 23.819C9.53856 23.5013 9.61163 23.1879 9.75214 22.903L9.89776 22.6051H4.99881V17.6826L4.69772 17.8362C4.40441 17.9872 4.07926 18.0657 3.7494 18.0654C3.19452 18.0654 2.66237 17.8449 2.27001 17.4526C1.87765 17.0602 1.65723 16.5281 1.65723 15.9732C1.65723 15.4183 1.87765 14.8862 2.27001 14.4938C2.66237 14.1014 3.19452 13.881 3.7494 13.881H3.74965C4.0794 13.8807 4.40445 13.9592 4.69767 14.1101L4.99876 14.2637V9.34125H9.17562C9.10083 9.70553 9.10806 10.0819 9.19676 10.443C9.28546 10.8042 9.45342 11.1411 9.68845 11.4293C9.92349 11.7174 10.2197 11.9497 10.5556 12.1092C10.8916 12.2687 11.2588 12.3515 11.6307 12.3515C12.0026 12.3515 12.3698 12.2687 12.7057 12.1092C13.0416 11.9497 13.3379 11.7174 13.5729 11.4293C13.8079 11.1411 13.9759 10.8042 14.0646 10.443C14.1533 10.0819 14.1605 9.70553 14.0857 9.34125H18.2627V13.6169C17.9893 13.5171 17.7005 13.4663 17.4096 13.4669C17.08 13.4662 16.7536 13.5306 16.4489 13.6562C16.1442 13.7819 15.8673 13.9664 15.6341 14.1992C15.4008 14.432 15.2157 14.7085 15.0895 15.0129C14.9632 15.3173 14.8982 15.6436 14.8982 15.9732C14.8982 16.3027 14.9632 16.629 15.0895 16.9335C15.2157 17.2379 15.4008 17.5144 15.6341 17.7472C15.8673 17.98 16.1442 18.1645 16.4489 18.2901C16.7536 18.4158 17.08 18.4801 17.4096 18.4794C17.7005 18.48 17.9893 18.4292 18.2627 18.3294L18.2627 22.6051ZM33.0662 31.7433C32.7785 31.7436 32.494 31.6841 32.2305 31.5686L31.9407 31.442V36.2831H27.5507C27.7416 35.901 27.8317 35.4764 27.8124 35.0497C27.7931 34.6231 27.665 34.2084 27.4404 33.8451C27.2158 33.4818 26.9021 33.1819 26.529 32.974C26.1559 32.766 25.7359 32.6568 25.3087 32.6568C24.8816 32.6568 24.4616 32.766 24.0885 32.974C23.7154 33.1819 23.4017 33.4818 23.177 33.8451C22.9524 34.2084 22.8244 34.6231 22.8051 35.0497C22.7858 35.4764 22.8758 35.901 23.0667 36.2831H18.6768V31.9338C19.0585 32.1068 19.4776 32.1814 19.8956 32.1506C20.3136 32.1199 20.7172 31.9848 21.0695 31.7577C21.4218 31.5306 21.7115 31.2188 21.9121 30.8507C22.1128 30.4827 22.2179 30.0703 22.2179 29.6511C22.2179 29.232 22.1128 28.8195 21.9121 28.4515C21.7115 28.0835 21.4218 27.7717 21.0695 27.5446C20.7172 27.3175 20.3136 27.1824 19.8956 27.1516C19.4776 27.1209 19.0585 27.1954 18.6768 27.3685V23.0191H23.7987L23.5784 22.6956C23.3646 22.3811 23.2406 22.0143 23.2197 21.6346C23.1987 21.2549 23.2817 20.8766 23.4596 20.5405C23.6375 20.2044 23.9037 19.9232 24.2295 19.727C24.5553 19.5309 24.9284 19.4272 25.3087 19.4272C25.689 19.4272 26.0621 19.5309 26.3878 19.727C26.7136 19.9232 26.9798 20.2044 27.1577 20.5405C27.3357 20.8766 27.4186 21.2549 27.3977 21.6346C27.3768 22.0143 27.2527 22.3811 27.0389 22.6956L26.8186 23.0191H31.9406V27.8602L32.2304 27.7337C32.5155 27.6094 32.8246 27.5503 33.1354 27.5606C33.4462 27.5708 33.7508 27.6503 34.027 27.7931C34.3032 27.9359 34.5441 28.1385 34.7322 28.3861C34.9203 28.6337 35.0508 28.9202 35.1142 29.2246C35.1777 29.529 35.1725 29.8437 35.099 30.1459C35.0254 30.448 34.8855 30.73 34.6893 30.9712C34.4931 31.2125 34.2456 31.407 33.9648 31.5405C33.684 31.6741 33.377 31.7434 33.066 31.7433L33.0662 31.7433Z" fill="black" stroke="black" stroke-width="0.6"></path></svg>