<svg xmlns="http://www.w3.org/2000/svg" width="64" height="58" viewBox="0 0 64 58" fill="none"><path d="M32.1562 57.2812C30.8281 57.2812 29.8125 56.2656 29.8125 54.9375V2.67188C29.8125 1.42188 30.8281 0.328125 32.1562 0.328125H32.2344C33.4844 0.328125 34.5781 1.34375 34.5781 2.67188V54.9375C34.4219 56.2656 33.4062 57.2812 32.1562 57.2812Z" fill="#C45527"></path><path d="M37.0781 18.8437H25.3594C22.1563 18.8437 19.5 16.1875 19.5 12.9844V12.8281C19.5 9.625 22.1563 6.96875 25.3594 6.96875H37.0781C40.2812 6.96875 42.9375 9.625 42.9375 12.8281V12.9844C42.9375 16.2656 40.2812 18.8437 37.0781 18.8437Z" fill="#7ACCCE"></path><path d="M62.7031 57.5937H1.29687C0.671875 57.5937 0.125 57.0469 0.125 56.4219V55.3281C0.125 54.7031 0.671875 54.1562 1.29687 54.1562H62.7031C63.3281 54.1562 63.875 54.7031 63.875 55.3281V56.4219C63.875 57.125 63.3281 57.5937 62.7031 57.5937Z" fill="#C45527"></path><path d="M52.3906 54.3125H10.0469C6.84375 54.3125 4.1875 51.6562 4.1875 48.4531V48.375C4.1875 45.1719 6.84375 42.5156 10.0469 42.5156H52.3906C55.5938 42.5156 58.25 45.1719 58.25 48.375V48.4531C58.25 51.6562 55.5938 54.3125 52.3906 54.3125Z" fill="#F7B2B8"></path><path d="M45.9062 42.5156H16.5312C13.3281 42.5156 10.6719 39.8594 10.6719 36.6563V36.5781C10.6719 33.375 13.3281 30.7188 16.5312 30.7188H45.9062C49.1094 30.7188 51.7656 33.375 51.7656 36.5781V36.6563C51.7656 39.8594 49.1094 42.5156 45.9062 42.5156Z" fill="#F3D04C"></path><path d="M40.9062 30.7187H21.4531C18.25 30.7187 15.5938 28.0625 15.5938 24.8594V24.7031C15.5938 21.5 18.25 18.8438 21.4531 18.8438H40.9062C44.1094 18.8438 46.7656 21.5 46.7656 24.7031V24.8594C46.7656 28.0625 44.1094 30.7187 40.9062 30.7187Z" fill="#F48053"></path><path d="M24.8125 16.3438C24.8125 16.1094 24.7344 15.7969 24.5 15.6406C23.875 14.9375 23.4844 14.0781 23.4844 13.0625V12.9844C23.4844 11.9688 23.875 11.1094 24.5 10.4063C24.6563 10.1719 24.8125 9.93751 24.8125 9.70314C24.8125 8.68751 23.5625 8.21876 22.9375 9.00001C21.9219 10.0938 21.375 11.5 21.375 13.0625V13.1406C21.375 14.7031 22 16.1094 22.9375 17.2031C23.5625 17.8281 24.8125 17.3594 24.8125 16.3438Z" fill="#AAD6D6"></path><path d="M21.2969 28.0625C21.2969 27.8281 21.2188 27.5156 20.9844 27.3594C20.3594 26.6563 19.9687 25.7188 19.9687 24.7813V24.7031C19.9687 23.6875 20.3594 22.8281 20.9844 22.125C21.1406 21.8906 21.2969 21.6563 21.2969 21.4219C21.2969 20.4063 20.0469 19.9375 19.4219 20.7188C18.4063 21.8125 17.8594 23.2188 17.8594 24.7813V24.8594C17.8594 26.4219 18.4844 27.8281 19.4219 28.9219C20.0469 29.5469 21.2969 29.0781 21.2969 28.0625Z" fill="#F58D63"></path><path d="M16.5312 39.8594C16.5312 39.625 16.4531 39.3125 16.2187 39.1563C15.5937 38.4531 15.2031 37.5156 15.2031 36.5781V36.5C15.2031 35.4844 15.5937 34.5469 16.2187 33.9219C16.375 33.6875 16.5312 33.4531 16.5312 33.2188C16.5312 32.2031 15.2812 31.7344 14.6562 32.5156C13.6406 33.6094 13.0938 35.0156 13.0938 36.5781V36.6563C13.0938 38.2188 13.7187 39.625 14.6562 40.7188C15.2812 41.3438 16.5312 40.875 16.5312 39.8594Z" fill="#F5D779"></path><path d="M9.89062 51.8125C9.89062 51.5782 9.8125 51.2657 9.65625 51.1094C9.03125 50.4063 8.64062 49.5469 8.64062 48.6094V48.5313C8.64062 47.5938 9.03125 46.6563 9.65625 46.0313C9.8125 45.7969 9.89062 45.5625 9.89062 45.3282C9.89062 44.3907 8.71875 43.9219 8.01562 44.625C7.07812 45.6407 6.45312 47.0469 6.45312 48.6094V48.6875C6.45312 50.25 7 51.5782 8.01562 52.6719C8.64062 53.2969 9.89062 52.8282 9.89062 51.8125Z" fill="#F9C7C9"></path><path d="M62.7031 54.1562H53.6406C53.25 54.2344 52.7813 54.3125 52.3125 54.3125H34.4219V54.9375C34.4219 56.1875 33.4062 57.2812 32.0781 57.2812H32C31.9219 57.2812 31.9219 57.2812 31.8438 57.2812V57.5937H62.625C63.25 57.5937 63.7969 57.0469 63.7969 56.4219V55.3281C63.875 54.7031 63.3281 54.1562 62.7031 54.1562Z" fill="#B84E2A"></path><path d="M32.1562 0.40625C32.0781 0.40625 32 0.40625 32 0.40625V7.04688H34.5V2.75C34.4219 1.42188 33.4062 0.40625 32.1562 0.40625ZM34.4219 54.3125H31.9219V57.2813C32 57.2813 32 57.2813 32.0781 57.2813H32.1562C33.4062 57.2813 34.5 56.2656 34.5 54.9375V54.3125H34.4219Z" fill="#B84E2A"></path><path d="M52.3906 42.4375H46.5312C46.375 42.4375 46.1406 42.4375 45.9844 42.4375H31.9219V54.2344H52.3125C52.7812 54.2344 53.1719 54.1563 53.6406 54.0781C56.2187 53.4531 58.1719 51.1875 58.1719 48.375V48.2969C58.25 45.0937 55.5937 42.4375 52.3906 42.4375Z" fill="#F496A7"></path><path d="M45.9063 30.6406H41.5312C41.375 30.6406 41.1406 30.6406 40.9844 30.6406H31.9219V42.4375H45.8281C45.9844 42.4375 46.2188 42.4375 46.375 42.4375C49.3438 42.125 51.6875 39.625 51.6875 36.5781V36.5C51.7656 33.2969 49.1094 30.6406 45.9063 30.6406Z" fill="#DFB747"></path><path d="M40.9062 18.8438H37.625C37.4687 18.8438 37.2344 18.8438 37.0781 18.8438H31.9219V30.6406H40.9062C41.0625 30.6406 41.2969 30.6406 41.4531 30.6406C44.4219 30.3281 46.7656 27.8281 46.7656 24.7812V24.625C46.7656 21.5 44.1094 18.8438 40.9062 18.8438Z" fill="#E27650"></path><path d="M37.0781 7.04688H31.9219V18.8437H37.0781C37.2344 18.8437 37.4687 18.8437 37.625 18.8437C40.5937 18.5312 42.9375 16.0312 42.9375 12.9844V12.8281C42.9375 9.70312 40.2812 7.04688 37.0781 7.04688Z" fill="#71B8BC"></path></svg>