<svg xmlns="http://www.w3.org/2000/svg" width="34" height="36" viewBox="0 0 34 36" fill="none"><path d="M32.4679 34.7448H27.3186C24.3409 34.7448 22.4331 34.08 21.1327 32.5891C19.8725 31.1443 19.3126 29.0561 18.7116 26.4764L17.1493 19.7386C17.1438 19.7138 17.1335 19.6904 17.1189 19.6696C17.1043 19.6489 17.0857 19.6312 17.0642 19.6177C17.0428 19.6042 17.0188 19.5951 16.9938 19.5908C16.9688 19.5866 16.9432 19.5874 16.9185 19.5931C16.8938 19.5989 16.8704 19.6094 16.8498 19.6242C16.8292 19.639 16.8117 19.6578 16.7984 19.6793C16.7851 19.7009 16.7762 19.725 16.7722 19.75C16.7682 19.7751 16.7692 19.8007 16.7751 19.8253L18.3374 26.5633C18.9508 29.1961 19.5248 31.3301 20.8432 32.8416C22.2231 34.4235 24.2202 35.1289 27.3186 35.1289H32.4679C32.5189 35.1289 32.5677 35.1087 32.6038 35.0727C32.6398 35.0367 32.66 34.9878 32.66 34.9369C32.66 34.8859 32.6398 34.8371 32.6038 34.8011C32.5677 34.765 32.5189 34.7448 32.4679 34.7448L32.4679 34.7448Z" fill="black" stroke="black" stroke-width="0.8"></path><path d="M16.2841 16.058C16.0313 14.9562 15.4113 13.9732 14.526 13.2704C13.6406 12.5676 12.5426 12.1868 11.4122 12.1906H8.51373V9.50163H11.4122C13.1502 9.49581 14.8385 10.0813 16.1997 11.1619C17.561 12.2424 18.5143 13.7539 18.903 15.4479L21.33 25.8661C22.5173 30.9624 23.1639 32.0559 27.3183 32.0559H29.5009L31.2343 33.9033C31.2691 33.9404 31.3173 33.9622 31.3682 33.9638C31.4192 33.9654 31.4686 33.9468 31.5058 33.9119C31.5429 33.877 31.5647 33.8289 31.5663 33.7779C31.5679 33.727 31.5493 33.6775 31.5144 33.6404L29.724 31.7324C29.7061 31.7132 29.6844 31.698 29.6603 31.6875C29.6362 31.6771 29.6102 31.6717 29.584 31.6717H27.3183C23.3911 31.6717 22.8696 30.7813 21.7042 25.7789L19.2771 15.3607C19.0213 14.256 18.5365 13.2173 17.8541 12.3118C17.8628 12.2897 17.8674 12.2661 17.8675 12.2423V5.86896C17.8681 4.8907 17.5739 3.93496 17.0231 3.12646C16.4724 2.31796 15.6907 1.69423 14.7801 1.33667C13.8696 0.979114 12.8723 0.904322 11.9186 1.12206C10.9649 1.33979 10.0989 1.83994 9.43375 2.55725C8.76857 1.83994 7.90262 1.33979 6.94889 1.12206C5.99517 0.904322 4.99796 0.979114 4.08738 1.33667C3.1768 1.69423 2.39514 2.31796 1.84439 3.12646C1.29364 3.93496 0.999381 4.8907 1 5.86896V34.9122C1 34.9632 1.02024 35.012 1.05626 35.048C1.09228 35.0841 1.14113 35.1043 1.19207 35.1043C1.24301 35.1043 1.29186 35.0841 1.32788 35.048C1.3639 35.012 1.38414 34.9632 1.38414 34.9122V32.2355C1.41321 32.2527 1.44636 32.2619 1.48017 32.2621H6.59305C6.64399 32.2621 6.69285 32.2419 6.72887 32.2058C6.76489 32.1698 6.78512 32.121 6.78512 32.07C6.78512 32.0191 6.76489 31.9702 6.72887 31.9342C6.69285 31.8982 6.64399 31.878 6.59305 31.878H1.48018C1.44637 31.8781 1.41322 31.8873 1.38415 31.9046V28.9658C1.41322 28.9831 1.44637 28.9923 1.48018 28.9925H6.9772C7.02814 28.9925 7.07699 28.9722 7.11301 28.9362C7.14903 28.9002 7.16927 28.8513 7.16927 28.8004C7.16927 28.7495 7.14903 28.7006 7.11301 28.6646C7.07699 28.6286 7.02814 28.6083 6.9772 28.6083H1.48018C1.44637 28.6085 1.41322 28.6177 1.38415 28.635V25.6962C1.41322 25.7135 1.44637 25.7227 1.48018 25.7228H7.93755C7.98849 25.7228 8.03734 25.7026 8.07336 25.6666C8.10938 25.6306 8.12961 25.5817 8.12961 25.5308C8.12961 25.4798 8.10938 25.431 8.07336 25.395C8.03734 25.3589 7.98849 25.3387 7.93755 25.3387H1.48018C1.44637 25.3389 1.41322 25.3481 1.38415 25.3653V22.4266C1.41322 22.4438 1.44637 22.453 1.48018 22.4532H7.93755C7.98849 22.4532 8.03734 22.433 8.07336 22.397C8.10938 22.3609 8.12961 22.3121 8.12961 22.2611C8.12961 22.2102 8.10938 22.1614 8.07336 22.1253C8.03734 22.0893 7.98849 22.0691 7.93755 22.0691H1.48018C1.44637 22.0693 1.41322 22.0785 1.38415 22.0957V19.1569C1.41322 19.1742 1.44637 19.1834 1.48018 19.1836H7.93755C7.98849 19.1836 8.03734 19.1633 8.07336 19.1273C8.10938 19.0913 8.12961 19.0425 8.12961 18.9915C8.12961 18.9406 8.10938 18.8917 8.07336 18.8557C8.03734 18.8197 7.98849 18.7994 7.93755 18.7994H1.48018C1.44637 18.7996 1.41322 18.8088 1.38415 18.8261V15.8873C1.41322 15.9046 1.44637 15.9138 1.48018 15.914H7.93755C7.98849 15.914 8.03734 15.8937 8.07336 15.8577C8.10938 15.8217 8.12961 15.7728 8.12961 15.7219C8.12961 15.6709 8.10938 15.6221 8.07336 15.5861C8.03734 15.5501 7.98849 15.5298 7.93755 15.5298H1.48018C1.44637 15.53 1.41322 15.5392 1.38415 15.5565V12.5988H8.12961V34.9122C8.12961 34.9632 8.14985 35.012 8.18587 35.048C8.22189 35.0841 8.27074 35.1043 8.32168 35.1043C8.37262 35.1043 8.42148 35.0841 8.4575 35.048C8.49352 35.012 8.51375 34.9632 8.51375 34.9122V12.5747H11.4122C12.4558 12.5712 13.4695 12.9228 14.2869 13.5716C15.1043 14.2204 15.6767 15.128 15.9101 16.1451L16.3568 18.063C16.3623 18.0878 16.3727 18.1113 16.3873 18.1321C16.4019 18.1529 16.4205 18.1705 16.442 18.1841C16.4635 18.1976 16.4875 18.2068 16.5125 18.211C16.5376 18.2152 16.5632 18.2144 16.5879 18.2086C16.6127 18.2029 16.636 18.1923 16.6567 18.1774C16.6773 18.1626 16.6947 18.1438 16.708 18.1221C16.7213 18.1005 16.7302 18.0764 16.7341 18.0513C16.7381 18.0262 16.737 18.0006 16.7309 17.9759L16.2841 16.058ZM12.9986 1.38413C14.1876 1.38548 15.3275 1.85842 16.1683 2.6992C17.0091 3.53997 17.482 4.67991 17.4834 5.86894V11.8578C16.7258 10.9939 15.792 10.3024 14.7447 9.82969C13.6975 9.35702 12.5611 9.11417 11.4121 9.1175H10.738V5.86896C10.7387 4.7725 10.3675 3.70822 9.6849 2.85014C10.1045 2.3882 10.616 2.01914 11.1867 1.76666C11.7574 1.51419 12.3745 1.38389 12.9986 1.38413V1.38413ZM9.43376 3.15184C10.0312 3.93155 10.3546 4.88666 10.3538 5.86896V9.11749H8.51373V5.86896C8.5129 4.88666 8.83631 3.93155 9.43377 3.15184H9.43376ZM8.08512 12.2147H1.43943V9.47651H8.08513L8.08512 12.2147ZM8.12959 5.86896V9.09237H1.38415V5.86896C1.38374 4.96417 1.65714 4.08043 2.1684 3.33392C2.67966 2.58742 3.40485 2.0131 4.24863 1.68647C5.09241 1.35984 6.01528 1.29618 6.89592 1.50388C7.77655 1.71157 8.57373 2.18089 9.18263 2.85014C8.50006 3.70822 8.12881 4.77251 8.1296 5.86896H8.12959Z" fill="black" stroke="black" stroke-width="0.8"></path></svg>