<svg xmlns="http://www.w3.org/2000/svg" width="52" height="49" viewBox="0 0 52 49" fill="none"><path d="M41.091 26.1705C41.091 35.4127 33.3524 42.9319 23.7728 42.9319C14.1931 42.9319 6.45459 35.4127 6.45459 26.1705C6.45459 16.9283 14.1931 9.40918 23.7728 9.40918C33.3524 9.40918 41.091 16.9283 41.091 26.1705Z" stroke="black"></path><circle cx="23.2158" cy="10.5795" r="10.5795" fill="white"></circle><g clip-path="url(#clip0_1782_512)"><ellipse cx="9.85201" cy="27.284" rx="10.5795" ry="11.6932" fill="white"></ellipse><path d="M10.5155 16.4705C7.5825 16.4705 4.42534 18.0372 4.42534 21.476V35.1257C4.40661 35.734 4.51984 36.3388 4.75664 36.8954C4.99345 37.4519 5.34773 37.9458 5.7932 38.3405C6.62907 39.0457 7.67691 39.4225 8.75312 39.4049C9.31171 39.4376 9.87084 39.3511 10.396 39.1505C10.9212 38.9499 11.4013 38.6396 11.8068 38.2387C12.2123 37.8377 12.5345 37.3547 12.7536 36.8193C12.9727 36.2839 13.0841 35.7075 13.0808 35.1257V33.1152C13.0905 32.7772 13.2005 32.4506 13.3957 32.1802C13.5909 31.9097 13.8618 31.7088 14.1712 31.6048C15.2819 31.1803 16.6059 30.058 16.6059 27.1286V21.476C16.6059 18.0372 13.4488 16.4705 10.5155 16.4705ZM15.8184 27.1423C15.8184 29.1563 15.1113 30.393 13.801 30.8945C13.3597 31.0553 12.9774 31.3549 12.707 31.7518C12.4367 32.1486 12.2918 32.6231 12.2923 33.1095V35.12C12.2923 37.5585 10.5248 38.5855 8.77896 38.5855C8.31253 38.6125 7.84578 38.5386 7.4082 38.3685C6.97061 38.1984 6.57168 37.9358 6.2366 37.5973C5.90151 37.2588 5.63756 36.8517 5.46139 36.4017C5.28522 35.9517 5.20066 35.4687 5.21306 34.983V21.4756C5.21263 18.5391 7.9205 17.2895 10.5157 17.2895C13.1109 17.2895 15.8184 18.5524 15.8184 21.4896V27.1423Z" fill="black" stroke="black" stroke-width="0.5"></path><path d="M10.8669 18.7307C10.2654 18.729 9.66918 18.8485 9.11131 19.0826C9.08784 19.0907 9.06531 19.1014 9.04415 19.1146C8.43924 19.3535 7.91921 19.7794 7.55403 20.3349C7.18886 20.8904 6.99606 21.5489 7.00158 22.2218V33.1759C7.00157 33.2584 7.02837 33.3384 7.07763 33.4031C7.1269 33.4677 7.19573 33.5131 7.27294 33.5319C7.48879 33.5848 7.70971 33.6121 7.93147 33.6134C8.26636 33.6388 8.60187 33.5733 8.90516 33.4235C9.20846 33.2736 9.46916 33.0444 9.66178 32.7584C9.87091 32.4596 9.99141 32.1037 10.0084 31.7345C10.0254 31.3653 9.93819 30.9991 9.75748 30.6808C9.54318 30.3523 9.24645 30.0912 8.89951 29.9257C8.55257 29.7602 8.16867 29.6967 7.78948 29.7421V22.2483V22.2115C7.81429 21.7282 7.98359 21.2651 8.27374 20.8867C8.56388 20.5083 8.9604 20.2336 9.40792 20.1009C9.85544 19.9682 10.3316 19.9842 10.77 20.1466C11.2084 20.3089 11.5871 20.6096 11.8532 21.0066C12.1421 21.4728 12.2872 22.0198 12.2688 22.5741C12.2688 22.671 12.3058 22.7639 12.3717 22.8324C12.4376 22.9009 12.5269 22.9394 12.6201 22.9394C12.7132 22.9394 12.8025 22.9009 12.8684 22.8324C12.9343 22.7639 12.9713 22.671 12.9713 22.5741C12.9967 21.927 12.8355 21.2869 12.5084 20.7358C12.1813 20.1848 11.7032 19.7481 11.1355 19.4819C11.8306 19.5123 12.5025 19.7506 13.0706 20.1683C13.3766 20.406 13.6234 20.7165 13.7903 21.0738C13.9572 21.431 14.0393 21.8247 14.0298 22.2218C14.0298 22.3187 14.0668 22.4116 14.1326 22.4801C14.1985 22.5486 14.2878 22.5871 14.381 22.5871C14.4741 22.5871 14.5635 22.5486 14.6293 22.4801C14.6952 22.4116 14.7322 22.3187 14.7322 22.2218C14.7322 19.9301 12.7877 18.7307 10.8669 18.7307ZM9.08947 31.0941C9.19812 31.2891 9.24961 31.5129 9.2376 31.7379C9.22559 31.963 9.15061 32.1795 9.02187 32.3608C8.88726 32.5628 8.69901 32.7197 8.4801 32.8123C8.26119 32.9049 8.0211 32.9292 7.78913 32.8823V30.5497C8.03332 30.4978 8.28679 30.5218 8.518 30.6186C8.7492 30.7153 8.94794 30.8807 9.08947 31.0941V31.0941Z" fill="black"></path></g><circle cx="41.0341" cy="26.1704" r="10.5795" fill="white"></circle><ellipse cx="23.7726" cy="40.6477" rx="6.68182" ry="8.35227" fill="white"></ellipse><path d="M24.5034 35.4626L20.9731 45.1819H19.5303L23.5952 34.5178H24.5254L24.5034 35.4626ZM27.4624 45.1819L23.9248 35.4626L23.9028 34.5178H24.833L28.9126 45.1819H27.4624ZM27.2793 41.2341V42.3914H21.2881V41.2341H27.2793Z" fill="black"></path><path d="M31.5263 9.72021C31.5263 12.2597 27.5199 15.6351 23.1666 15.6351C19.586 15.6351 16.3683 13.3638 15.3115 11.1398" stroke="black" stroke-width="1.3" stroke-miterlimit="10" stroke-linecap="round" stroke-linejoin="round"></path><path d="M30.8632 8.20637C30.0745 7.27576 28.6076 6.37669 26.7148 5.66689C25.7053 5.28834 24.2858 6.80256 23.1659 6.80256C22.0933 6.80256 20.7368 5.27257 19.7904 5.61957C17.803 6.32937 16.3045 7.3073 15.5317 8.30101C15.4055 8.47452 15.2951 8.63225 15.2162 8.80575C15.2162 8.80575 15.2162 8.80575 15.2162 8.82153C15.0269 9.21585 15.3424 9.6575 15.784 9.61018L31.5414 9.73637" stroke="black" stroke-width="1.3" stroke-miterlimit="10" stroke-linecap="round" stroke-linejoin="round"></path><g clip-path="url(#clip1_1782_512)"><path fill-rule="evenodd" clip-rule="evenodd" d="M46.2492 20.9593C46.2356 20.9978 46.2178 21.0354 46.1896 21.0694L36.4691 32.6638C36.4347 32.7381 36.3827 32.8056 36.3018 32.8461L31.0272 34.9399C31.0164 34.9464 31.0035 34.9488 30.9914 34.954L30.9735 34.9614C30.9705 34.9629 30.9669 34.9626 30.9643 34.964C30.9284 34.9777 30.8928 34.9899 30.8538 34.9943C30.8153 35.0002 30.7787 34.998 30.741 34.9929C30.7324 34.9917 30.7251 34.9941 30.7166 34.9926C30.7133 34.9918 30.711 34.9895 30.7077 34.9888C30.6716 34.9809 30.6395 34.9662 30.6069 34.9486C30.5903 34.9402 30.5731 34.933 30.5586 34.9225C30.5441 34.912 30.5325 34.8981 30.5197 34.8852C30.4935 34.8604 30.4707 34.8345 30.4534 34.8038C30.4515 34.8011 30.4489 34.7996 30.4473 34.7968C30.4437 34.7898 30.4443 34.7822 30.441 34.7748C30.4271 34.7422 30.4158 34.7093 30.4122 34.6736C30.4077 34.6369 30.4114 34.6018 30.417 34.566C30.4182 34.5629 30.4167 34.5601 30.4175 34.5574L30.4208 34.5387C30.4238 34.5272 30.4231 34.515 30.4269 34.5033L31.3288 29.2297C31.3513 29.1464 31.4092 29.0841 31.4781 29.0343L41.0498 17.6166C41.0635 17.5982 41.0803 17.5819 41.0945 17.5638L41.1986 17.4396C41.2038 17.4333 41.2111 17.4306 41.2167 17.4247C41.7226 16.8482 42.4458 16.4351 43.2944 16.3309C45.0427 16.1163 46.6227 17.2652 46.823 18.897C46.9159 19.6538 46.6871 20.3755 46.2492 20.9593ZM44.8125 21.549L43.2255 20.395L34.9911 30.2176C34.993 30.2203 34.9971 30.2209 34.999 30.2237L36.1502 31.8815L44.8125 21.549ZM31.3299 34.0033L32.3904 33.5828L31.5109 32.9435L31.3299 34.0033ZM31.6515 32.1215L33.2118 33.2564L35.5421 32.3311C35.5421 32.3311 34.2826 30.4835 34.2809 30.4829L32.0499 29.7915L31.6515 32.1215ZM34.3769 29.7719C34.3802 29.773 34.3818 29.7762 34.3852 29.7776L42.62 19.9546L41.0331 18.8006L32.3708 29.133L34.3769 29.7719ZM43.3724 17.0668C42.6713 17.1529 42.0808 17.5146 41.6963 18.0158L41.6932 18.0136L41.5141 18.2268L45.2935 20.9752L45.477 20.7559L45.4744 20.754C45.8997 20.2858 46.1312 19.6666 46.0512 19.0149C45.8991 17.776 44.6998 16.9038 43.3724 17.0668Z" fill="black" stroke="black" stroke-width="0.2"></path></g><defs><clipPath id="clip0_1782_512"><rect width="27.8409" height="28.9545" fill="white" transform="translate(0.38623 13.3635)"></rect></clipPath><clipPath id="clip1_1782_512"><rect width="19.0257" height="17.7573" fill="white" transform="translate(27.9248 17.8455) rotate(-7)"></rect></clipPath></defs></svg>