<svg xmlns="http://www.w3.org/2000/svg" width="39" height="34" viewBox="0 0 39 34" fill="none"><path d="M16.0192 8.09326V3.32264C16.3503 3.7441 16.5304 4.47704 16.5304 5.42139C16.5297 5.54615 16.5537 5.66981 16.601 5.78527C16.6483 5.90072 16.7179 6.0057 16.8059 6.09416C16.8939 6.18262 16.9985 6.25281 17.1137 6.30071C17.2289 6.34861 17.3524 6.37327 17.4771 6.37327C17.6019 6.37327 17.7254 6.34861 17.8406 6.30071C17.9558 6.25281 18.0604 6.18262 18.1484 6.09416C18.2364 6.0057 18.306 5.90072 18.3533 5.78527C18.4006 5.66981 18.4246 5.54615 18.4239 5.42139C18.4239 3.75322 17.9906 2.51945 17.1358 1.75467C16.8433 1.49076 16.5006 1.28853 16.1281 1.1601C15.7557 1.03166 15.3612 0.979641 14.9682 1.00716C14.7365 1.03263 14.5224 1.14275 14.367 1.31638C14.2116 1.49001 14.1257 1.71492 14.1259 1.94796V5.81659C13.8686 5.74575 13.6028 5.71004 13.3359 5.71042C11.8562 5.71042 10.6523 6.77925 10.6523 8.09326C10.6523 9.40727 11.8562 10.4761 13.3358 10.4761C14.8154 10.4761 16.0192 9.40722 16.0192 8.09326ZM13.3358 9.91853C12.1634 9.91853 11.2099 9.0997 11.2099 8.09326C11.2099 7.08682 12.1634 6.26802 13.3358 6.26802C13.6652 6.26709 13.9912 6.33449 14.2932 6.46597C14.3356 6.48445 14.382 6.49208 14.4281 6.48817C14.4742 6.48426 14.5187 6.46893 14.5574 6.44356C14.5961 6.41819 14.6279 6.38359 14.6499 6.34287C14.6719 6.30215 14.6834 6.25659 14.6834 6.21031V1.94796C14.6833 1.8522 14.7186 1.75977 14.7825 1.68842C14.8463 1.61707 14.9343 1.57182 15.0295 1.56135C15.3447 1.54072 15.6609 1.58401 15.9589 1.68863C16.257 1.79324 16.5308 1.95703 16.764 2.17014C17.4955 2.82468 17.8663 3.91877 17.8663 5.4215C17.8667 5.47288 17.857 5.52383 17.8376 5.57143C17.8183 5.61902 17.7897 5.66231 17.7535 5.6988C17.7173 5.73528 17.6743 5.76424 17.6268 5.784C17.5794 5.80377 17.5285 5.81394 17.4771 5.81394C17.4258 5.81394 17.3749 5.80377 17.3275 5.784C17.28 5.76424 17.237 5.73528 17.2008 5.6988C17.1646 5.66231 17.136 5.61902 17.1167 5.57143C17.0973 5.52383 17.0876 5.47288 17.088 5.4215C17.088 4.1676 16.7964 3.2438 16.245 2.75032C16.1299 2.64701 16.0008 2.56048 15.8615 2.4933C15.819 2.47282 15.772 2.46346 15.7249 2.46609C15.6777 2.46873 15.6321 2.48328 15.5921 2.50838C15.5522 2.53347 15.5193 2.5683 15.4964 2.60959C15.4736 2.65088 15.4616 2.69729 15.4616 2.74447V8.09326C15.4616 9.0997 14.5081 9.91853 13.3358 9.91853Z" fill="black" stroke="black" stroke-width="0.2"></path><path d="M26.9979 4.84584H26.9978C26.8788 4.75733 26.7409 4.69769 26.5949 4.67163C26.4489 4.64557 26.2989 4.6538 26.1566 4.69568L18.8727 6.85392C18.6761 6.91309 18.5036 7.03384 18.3808 7.19838C18.2579 7.36292 18.1911 7.56256 18.1903 7.76791V13.0266C17.9296 12.9544 17.6604 12.9181 17.3899 12.9186C15.8974 12.9186 14.6831 13.9967 14.6831 15.3218C14.6831 16.6469 15.8974 17.7251 17.3899 17.7251C18.8825 17.7251 20.0967 16.6469 20.0967 15.3218V8.47977L25.4742 6.88646V10.8684C25.2135 10.7962 24.9443 10.7598 24.6739 10.7603C23.1813 10.7603 21.9671 11.8384 21.9671 13.1635C21.9671 14.4886 23.1813 15.5668 24.6739 15.5668C26.1664 15.5668 27.3807 14.4887 27.3807 13.1635V5.60967C27.3804 5.46141 27.3456 5.31526 27.2792 5.18271C27.2128 5.05017 27.1165 4.93485 26.9979 4.84584ZM26.8231 13.1635C26.8231 14.1812 25.859 15.0092 24.6739 15.0092C23.4887 15.0092 22.5247 14.1812 22.5247 13.1635C22.5247 12.1459 23.4888 11.3179 24.6739 11.3179C25.0068 11.317 25.3363 11.3852 25.6416 11.5181C25.6841 11.5366 25.7304 11.5442 25.7765 11.5403C25.8227 11.5364 25.8671 11.5211 25.9058 11.4957C25.9445 11.4704 25.9763 11.4358 25.9983 11.395C26.0203 11.3543 26.0318 11.3087 26.0318 11.2625V6.51306C26.0318 6.46967 26.0217 6.42688 26.0022 6.38808C25.9828 6.34929 25.9546 6.31557 25.9198 6.28961C25.885 6.26365 25.8447 6.24616 25.802 6.23853C25.7592 6.23091 25.7153 6.23336 25.6737 6.24569L19.7387 8.00425C19.681 8.02136 19.6305 8.05663 19.5945 8.1048C19.5585 8.15298 19.5391 8.21149 19.5391 8.27162V15.3218C19.5391 16.3394 18.575 17.1675 17.3899 17.1675C16.2049 17.1675 15.2407 16.3394 15.2407 15.3218C15.2407 14.3042 16.2048 13.4762 17.3899 13.4762C17.7229 13.4753 18.0524 13.5435 18.3577 13.6764C18.4001 13.6949 18.4465 13.7025 18.4926 13.6986C18.5387 13.6947 18.5832 13.6794 18.6219 13.654C18.6606 13.6286 18.6924 13.594 18.7144 13.5533C18.7364 13.5126 18.7479 13.467 18.7479 13.4207V7.76791C18.7482 7.68271 18.7759 7.59988 18.8269 7.53162C18.8779 7.46335 18.9494 7.41327 19.031 7.38874L26.3155 5.23036C26.3745 5.21294 26.4367 5.20951 26.4973 5.22036C26.5578 5.23121 26.615 5.25603 26.6643 5.29285C26.7136 5.32967 26.7536 5.37748 26.7812 5.43248C26.8087 5.48748 26.8231 5.54815 26.8231 5.60967V13.1635Z" fill="black" stroke="black" stroke-width="0.2"></path><path d="M38.4416 32.299L37.0728 27.8414C37.0491 27.7632 37.0097 27.6906 36.9568 27.6282C36.904 27.5658 36.839 27.5149 36.7658 27.4786C35.9576 27.0802 35.126 26.7311 34.2756 26.4332L32.8761 21.7764C32.8348 21.6415 32.7479 21.5252 32.6302 21.4473C32.5126 21.3695 32.3715 21.3351 32.2312 21.35C31.4118 21.4598 30.6001 21.6205 29.8007 21.8313C29.7967 21.7878 29.788 21.7449 29.7747 21.7033L28.1846 17.9118C28.1536 17.8377 28.108 17.7706 28.0507 17.7144C27.9933 17.6582 27.9253 17.614 27.8506 17.5845C27.7763 17.5546 27.6968 17.54 27.6167 17.5416C27.5366 17.5433 27.4577 17.5611 27.3847 17.5941C27.3154 17.624 21.4853 20.2979 19.563 26.7451C17.6379 20.296 11.8107 17.624 11.7413 17.5941C11.6681 17.5616 11.5891 17.5441 11.5089 17.5425C11.4288 17.5409 11.3492 17.5554 11.2747 17.5849C11.2002 17.6145 11.1324 17.6587 11.0751 17.7148C11.0179 17.7709 10.9725 17.8379 10.9415 17.9118L9.35133 21.7033C9.33807 21.7449 9.32936 21.7878 9.32535 21.8313C8.52598 21.6205 7.71426 21.4598 6.8949 21.35C6.75482 21.3364 6.61432 21.3714 6.49692 21.449C6.37953 21.5266 6.29235 21.6422 6.24999 21.7764L4.85044 26.4332C3.9999 26.7307 3.16832 27.0798 2.36032 27.4786C2.28708 27.5149 2.22205 27.5658 2.16924 27.6282C2.11643 27.6906 2.07696 27.7632 2.05327 27.8414L0.684521 32.299C0.650985 32.4099 0.650087 32.5282 0.681934 32.6396C0.713782 32.751 0.777028 32.8509 0.864118 32.9273C0.951207 33.0037 1.05846 33.0535 1.17306 33.0706C1.28766 33.0877 1.40477 33.0715 1.51039 33.0238C13.446 27.6104 16.6648 32.7264 16.6937 32.7745C16.7462 32.8668 16.8222 32.9435 16.914 32.9968C17.0059 33.05 17.1102 33.078 17.2163 33.0777H21.9097C22.0148 33.0768 22.1179 33.0489 22.2091 32.9966C22.3003 32.9444 22.3765 32.8695 22.4305 32.7793C22.4622 32.7283 25.681 27.6124 37.6157 33.0238C37.7213 33.0715 37.8384 33.0877 37.953 33.0706C38.0676 33.0535 38.1749 33.0037 38.262 32.9273C38.3491 32.8509 38.4123 32.751 38.4441 32.6396C38.476 32.5282 38.4751 32.4099 38.4416 32.299ZM32.8838 25.9905C28.1846 24.7141 24.6588 25.7893 22.3544 27.1513C25.5174 23.9431 30.3301 22.8853 31.876 22.6273L32.8838 25.9905ZM27.326 18.9783L28.6563 22.1499C26.1536 22.9286 22.8925 24.4321 20.6796 27.2091C22.0763 22.3462 25.8966 19.783 27.326 18.9783ZM11.8001 18.9783C13.2295 19.783 17.0498 22.3472 18.4465 27.2091C16.2326 24.4321 12.9725 22.9286 10.4698 22.1499L11.8001 18.9783ZM7.25393 22.6225C8.79979 22.8853 13.6135 23.9431 16.7765 27.1465C14.4663 25.7854 10.9405 24.7093 6.24229 25.9847L7.25393 22.6225ZM21.5959 31.8726H17.5311C16.6417 30.7233 12.7713 27.0079 2.22653 31.399L3.13421 28.444C13.6597 23.3425 18.8594 30.3518 19.0779 30.6579C19.0837 30.6665 19.0952 30.6694 19.102 30.6781C19.113 30.6941 19.1249 30.7095 19.1376 30.7243C19.1424 30.7291 19.1453 30.7358 19.1501 30.7407C19.1696 30.7552 19.1898 30.7687 19.2107 30.7811C19.2281 30.7936 19.2425 30.8042 19.2608 30.8157C19.2791 30.8273 19.2858 30.8369 19.3003 30.8446L19.3243 30.8542L19.3455 30.8658C19.3849 30.8785 19.4256 30.8869 19.4668 30.8908C19.4882 30.8976 19.5101 30.9031 19.5322 30.9072H19.5861C19.6109 30.9034 19.6353 30.8979 19.6593 30.8908C19.7021 30.8875 19.7444 30.8795 19.7854 30.8667C19.793 30.8633 19.8004 30.8594 19.8075 30.8552C19.8295 30.8442 19.8504 30.8313 19.8701 30.8167L19.9211 30.782C19.9421 30.7698 19.9624 30.7563 19.9818 30.7416C19.9866 30.7368 19.9895 30.7301 19.9943 30.7253C20.0075 30.71 20.0197 30.694 20.0308 30.6771C20.0376 30.6694 20.0491 30.6656 20.0559 30.6569C20.1078 30.5818 25.4346 23.3252 35.9976 28.443L36.9053 31.3981C26.3567 27.006 22.4853 30.7233 21.595 31.8726H21.5959Z" fill="black"></path></svg>