<svg xmlns="http://www.w3.org/2000/svg" width="37" height="39" viewBox="0 0 37 39" fill="none"><g clip-path="url(#clip0_2158_760)"><path fill-rule="evenodd" clip-rule="evenodd" d="M25.7571 31.0769C24.8079 25.3759 25.1154 11.7564 25.1154 11.7564L25.1206 11.7567C25.1199 11.7231 25.1169 11.6901 25.1176 11.6558C25.137 10.7998 25.5507 10.073 26.1689 9.62251C25.2753 8.98789 24.6788 7.93063 24.69 6.76951C24.69 6.76951 24.1699 0.313815 29.4543 -0.266088C29.4543 -0.266088 28.2067 1.8437 29.3732 3.45751C29.3732 3.45751 30.9255 4.73038 30.9023 7.28043C30.8918 8.42366 30.2962 9.37114 29.4163 9.86539C29.9975 10.3987 30.3674 11.1689 30.3486 12.0131C30.3482 12.047 30.3434 12.0799 30.3416 12.1137L30.3468 12.1141C30.3468 12.1141 30.047 25.7338 28.8447 31.2881C28.7046 32.0445 28.0494 32.5856 27.271 32.5322C26.4906 32.4791 25.8625 31.8502 25.7571 31.0769ZM27.8019 9.17338C28.3523 9.21137 28.8704 9.04141 29.2606 8.67557C29.6523 8.30832 29.8715 7.79213 29.8765 7.22374C29.8943 5.26418 28.669 4.18642 28.6315 4.15215C27.9818 3.25305 27.7919 2.146 27.8694 1.30054C27.6815 1.41925 27.5054 1.5552 27.3401 1.71021C25.539 3.39894 25.7111 6.7171 25.713 6.74815C25.713 6.74815 25.8477 9.03809 27.8019 9.17338ZM28.8589 10.7792C28.5703 10.4555 28.1888 10.2532 27.7704 10.2251C27.3517 10.1966 26.9362 10.3419 26.6336 10.6256C26.331 10.9093 26.1759 11.2983 26.1671 11.7156L26.1471 12.9067C26.1465 12.9677 26.1455 13.0508 26.1447 13.118L29.2579 13.3329C29.2605 13.264 29.2638 13.1795 29.2656 13.1174L29.2987 11.9387C29.3088 11.5096 29.1475 11.103 28.8589 10.7792ZM27.2926 31.4539C27.4773 31.4666 27.6011 31.3782 27.6591 31.3238C27.7395 31.2484 27.7929 31.1506 27.8194 31.0078C28.6652 27.1011 29.0726 18.3585 29.2209 14.3846L26.1359 14.1716C26.1071 18.153 26.1248 26.9375 26.7964 30.9738C26.8316 31.235 27.0404 31.4372 27.2926 31.4539Z" fill="black"></path><g clip-path="url(#clip1_2158_760)"><path d="M14.6026 27.9763C13.8233 27.9763 13.1895 27.3263 13.1895 26.527C13.1895 25.7277 13.8233 25.0777 14.6026 25.0777H16.0158V26.527C16.0158 27.299 15.3554 27.9763 14.6026 27.9763ZM14.6026 25.5608C14.0831 25.5608 13.6605 25.9942 13.6605 26.527C13.6605 27.0599 14.0831 27.4932 14.6026 27.4932C15.1418 27.4932 15.5448 26.9831 15.5448 26.527V25.5608H14.6026Z" fill="black" stroke="black" stroke-width="0.2"></path><path d="M19.3136 26.527C18.5342 26.527 17.9004 25.877 17.9004 25.0777C17.9004 24.2784 18.5342 23.6284 19.3136 23.6284H20.7268V25.0777C20.7268 25.8497 20.0663 26.527 19.3136 26.527ZM19.3136 24.1115C18.794 24.1115 18.3715 24.5448 18.3715 25.0777C18.3715 25.6105 18.794 26.0439 19.3136 26.0439C19.8527 26.0439 20.2557 25.5337 20.2557 25.0777V24.1115H19.3136Z" fill="black" stroke="black" stroke-width="0.2"></path><path d="M16.016 25.3192H15.5449V19.3584L20.7266 17.2327V23.8699H20.2556V17.9463L16.016 19.6855V25.3192Z" fill="black" stroke="black" stroke-width="0.2"></path><path d="M20.5781 19.5056L20.4033 19.0569L15.692 20.9879L15.8668 21.4365L20.5781 19.5056Z" fill="black" stroke="black" stroke-width="0.2"></path></g><path d="M20.1835 10.0135C20.1835 9.59209 20.1465 9.17541 20.0819 8.77294C20.0819 8.76347 20.0773 8.754 20.0773 8.74453C19.6617 6.23498 18.0273 4.14684 15.8204 3.13828C15.802 3.12881 15.7835 3.11934 15.765 3.11461C14.8693 2.71687 13.8859 2.49432 12.8471 2.49432C11.2496 2.49432 9.76759 3.01991 8.56256 3.91482C8.53947 3.92903 8.51639 3.94323 8.49792 3.96217C6.68807 5.33533 5.51074 7.5371 5.51074 10.0182C5.51074 10.3734 5.53383 10.7238 5.58461 11.0647C5.58461 11.0694 5.58461 11.0789 5.58923 11.0836C5.95397 13.7163 7.65302 15.9133 9.9615 16.9313C9.97997 16.9408 9.99843 16.9503 10.0169 16.955C10.8895 17.3291 11.8452 17.5374 12.8471 17.5374C14.5969 17.5374 16.2036 16.9077 17.4641 15.8565C17.4872 15.8423 17.5102 15.8234 17.5333 15.7997C19.1493 14.4171 20.1835 12.3384 20.1835 10.0135ZM17.6857 14.8811C17.7457 13.6689 17.4733 12.381 16.8731 11.112C16.4807 10.2739 16.0513 9.66312 15.8297 9.36955C16.1298 9.13753 16.3468 8.79661 16.4206 8.41308C16.6746 8.3752 18.0181 8.23788 19.5556 9.00022C19.6017 9.33167 19.6294 9.67259 19.6294 10.0182C19.6294 11.9075 18.8861 13.6263 17.6857 14.8811ZM13.7751 8.11004C13.7751 7.54184 14.2507 7.08254 14.837 7.08254C15.4234 7.08254 15.8989 7.54184 15.8989 8.11004C15.8989 8.67824 15.4234 9.13753 14.837 9.13753C14.2507 9.13753 13.7751 8.67824 13.7751 8.11004ZM19.4217 8.31364C18.0227 7.7265 16.8315 7.79279 16.4253 7.84014C16.3375 7.33823 16.0143 6.91682 15.5711 6.69427C15.7789 6.22551 16.1667 5.14119 16.042 3.88641C17.7042 4.79554 18.9507 6.39597 19.4217 8.31364ZM15.4418 3.58811C15.6912 4.92338 15.2156 6.13554 15.0355 6.52855C14.9709 6.51908 14.9063 6.51434 14.837 6.51434C14.4723 6.51434 14.1352 6.63272 13.8675 6.83632C12.1269 4.63928 10.7048 3.97164 9.77682 3.81539C10.7002 3.33242 11.7436 3.05779 12.8517 3.05779C13.7659 3.05779 14.6431 3.24719 15.4418 3.58811ZM8.83958 4.40727C8.955 4.36939 9.37976 4.25101 10.0723 4.46882C10.8156 4.70083 12.0068 5.37321 13.4842 7.24827C13.3319 7.48028 13.2395 7.75491 13.2303 8.05322C12.21 8.1858 8.47945 8.7682 6.08786 10.5059C6.07863 10.345 6.0694 10.1792 6.0694 10.0135C6.06478 7.71703 7.159 5.67625 8.83958 4.40727ZM6.15712 11.1546C8.39635 9.36481 12.3162 8.74453 13.3042 8.61668C13.4104 8.92919 13.6135 9.20382 13.8767 9.39322C13.5581 10.2361 12.1776 13.6973 10.0215 16.3347C8.01314 15.3877 6.53109 13.4606 6.15712 11.1546ZM10.5571 16.562C12.6901 13.8915 14.029 10.5722 14.3799 9.64418C14.5231 9.68679 14.68 9.71047 14.837 9.71047C15.0078 9.71047 15.1694 9.68206 15.3264 9.63471C15.6912 10.0987 17.5241 12.613 17.0716 15.454C15.9128 16.401 14.4446 16.9692 12.8471 16.9692C12.0438 16.9692 11.2727 16.8224 10.5571 16.562Z" fill="black" stroke="black" stroke-width="0.3"></path></g><defs><clipPath id="clip0_2158_760"><rect width="37" height="39" fill="white"></rect></clipPath><clipPath id="clip1_2158_760"><rect width="11.3056" height="11.5946" fill="white" transform="translate(11.3057 16.8649)"></rect></clipPath></defs></svg>