<svg xmlns="http://www.w3.org/2000/svg" width="52" height="52" viewBox="0 0 52 52" fill="none"><path d="M30.8393 22.8036C30.3464 22.8036 29.9464 22.4036 29.9464 21.9107C29.9464 18.4643 32.75 15.6607 36.1964 15.6607C38.8107 15.6607 41.1696 17.3089 42.0678 19.7625C42.2375 20.2268 41.9982 20.7393 41.5357 20.9089C41.0732 21.0768 40.5589 20.8393 40.3893 20.3768C39.7482 18.6232 38.0643 17.4464 36.1964 17.4464C33.7357 17.4464 31.7321 19.4482 31.7321 21.9107C31.7321 22.4036 31.3321 22.8036 30.8393 22.8036Z" fill="white" stroke="white"></path><path d="M21.9106 22.8036C21.4178 22.8036 21.0178 22.4036 21.0178 21.9107C21.0178 19.4482 19.0142 17.4464 16.5535 17.4464C14.716 17.4464 13.0392 18.6 12.3821 20.3143C12.2053 20.775 11.6892 21.0071 11.2285 20.8286C10.7678 20.6518 10.5374 20.1357 10.7142 19.675C11.6339 17.2732 13.9821 15.6607 16.5535 15.6607C19.9999 15.6607 22.8035 18.4643 22.8035 21.9107C22.8035 22.4036 22.4035 22.8036 21.9106 22.8036Z" fill="white" stroke="white"></path><path d="M26.375 51.375C12.5893 51.375 1.375 40.1607 1.375 26.375C1.375 12.5893 12.5893 1.375 26.375 1.375C40.1607 1.375 51.375 12.5893 51.375 26.375C51.375 40.1607 40.1607 51.375 26.375 51.375ZM26.375 3.16071C13.575 3.16071 3.16071 13.575 3.16071 26.375C3.16071 39.175 13.575 49.5893 26.375 49.5893C39.175 49.5893 49.5893 39.175 49.5893 26.375C49.5893 13.575 39.175 3.16071 26.375 3.16071Z" fill="white" stroke="white"></path><path d="M26.375 37.0893C15.7178 37.0893 10.6982 30.7625 10.4893 30.4928C10.1893 30.1035 10.2589 29.5464 10.6482 29.2428C11.0393 28.9428 11.6 29.0107 11.9 29.4C11.9464 29.4571 16.6321 35.3035 26.375 35.3035C36.166 35.3035 40.8018 29.4607 40.8464 29.4C41.1482 29.0089 41.7089 28.9392 42.1 29.2392C42.4893 29.541 42.5607 30.1017 42.2589 30.491C42.0518 30.7625 37.0321 37.0893 26.375 37.0893Z" fill="white" stroke="white"></path><path d="M39.7714 12.9822C39.6964 12.9822 39.6232 12.9732 39.5482 12.9536C39.5143 12.9447 36.1607 12.0893 33.5196 12.0893C33.0268 12.0893 32.6268 11.6893 32.6268 11.1964C32.6268 10.7036 33.0268 10.3036 33.5196 10.3036C36.3893 10.3036 39.8464 11.1875 39.9928 11.225C40.4696 11.3482 40.7571 11.8357 40.6339 12.3125C40.5303 12.7161 40.1678 12.9822 39.7714 12.9822Z" fill="white" stroke="white"></path><path d="M12.9821 12.9822C12.5839 12.9822 12.2196 12.7143 12.1178 12.3089C11.9964 11.8304 12.2857 11.3447 12.7625 11.225C12.9107 11.1857 16.4178 10.3036 19.2321 10.3036C19.725 10.3036 20.125 10.7036 20.125 11.1964C20.125 11.6893 19.725 12.0893 19.2321 12.0893C16.6446 12.0893 13.2357 12.9447 13.2018 12.9536C13.1286 12.9732 13.0553 12.9822 12.9821 12.9822Z" fill="white" stroke="white"></path></svg>