<svg xmlns="http://www.w3.org/2000/svg" width="33" height="38" viewBox="0 0 33 38" fill="none"><path d="M1 12V7C1 6.44772 1.44772 6 2 6H12.5C13.0523 6 13.5 6.44772 13.5 7V18C13.5 18.5523 13.0523 19 12.5 19H2C1.44772 19 1 18.5523 1 18V15" stroke="black" stroke-linecap="round"></path><path d="M8.96 12.95H7.05V10.69L6.32 10.66V12.95H4.3L4.38 13.58H6.32V15.92L7.05 15.96V13.58H9.06L8.96 12.95Z" fill="black"></path><path d="M20 12V7C20 6.44772 20.4477 6 21 6H31.5C32.0523 6 32.5 6.44772 32.5 7V18C32.5 18.5523 32.0523 19 31.5 19H21C20.4477 19 20 18.5523 20 18V15" stroke="black" stroke-linecap="round"></path><path d="M27.81 12.95H25.3L25.39 13.58H27.9L27.81 12.95Z" fill="black"></path><path d="M1 30V25C1 24.4477 1.44772 24 2 24H12.5C13.0523 24 13.5 24.4477 13.5 25V36C13.5 36.5523 13.0523 37 12.5 37H2C1.44772 37 1 36.5523 1 36V33" stroke="black" stroke-linecap="round"></path><path d="M5.99 33L7.17 31.13L8.38 33H9.25L7.73 30.68L9.4 28.15H8.53L7.29 30.08L5.97 28.02L5.27 28.31L6.73 30.54L5.1 33H5.99Z" fill="black"></path><path d="M20 30V25C20 24.4477 20.4477 24 21 24H31.5C32.0523 24 32.5 24.4477 32.5 25V36C32.5 36.5523 32.0523 37 31.5 37H21C20.4477 37 20 36.5523 20 36V33" stroke="black" stroke-linecap="round"></path><path d="M28.64 29.2H24.3L24.39 29.81H28.72L28.64 29.2ZM28.64 31.08H24.3L24.39 31.7H28.72L28.64 31.08Z" fill="black"></path></svg>