<svg xmlns="http://www.w3.org/2000/svg" width="47" height="47" viewBox="0 0 47 47" fill="none"><path d="M41.125 13.9531H24.2344V5.875C24.2344 5.68023 24.157 5.49344 24.0193 5.35572C23.8816 5.218 23.6948 5.14062 23.5 5.14062H14.6875C14.4927 5.14062 14.3059 5.218 14.1682 5.35572C14.0305 5.49344 13.9531 5.68023 13.9531 5.875V13.9531H5.875C5.68023 13.9531 5.49344 14.0305 5.35572 14.1682C5.218 14.3059 5.14062 14.4927 5.14062 14.6875V23.5C5.14062 23.6948 5.218 23.8816 5.35572 24.0193C5.49344 24.157 5.68023 24.2344 5.875 24.2344H13.9531V41.125C13.9531 41.3198 14.0305 41.5066 14.1682 41.6443C14.3059 41.782 14.4927 41.8594 14.6875 41.8594H23.5C23.6948 41.8594 23.8816 41.782 24.0193 41.6443C24.157 41.5066 24.2344 41.3198 24.2344 41.125V24.2344H41.125C41.3198 24.2344 41.5066 24.157 41.6443 24.0193C41.782 23.8816 41.8594 23.6948 41.8594 23.5V14.6875C41.8594 14.4927 41.782 14.3059 41.6443 14.1682C41.5066 14.0305 41.3198 13.9531 41.125 13.9531ZM22.7656 31.5781H15.4219V24.2344H22.7656V31.5781ZM15.4219 22.7656V15.4219H22.7656V22.7656H15.4219ZM15.4219 6.60938H22.7656V13.9531H15.4219V6.60938ZM6.60938 15.4219H13.9531V22.7656H6.60938V15.4219ZM22.7656 40.3906H15.4219V33.0469H22.7656V40.3906ZM24.2344 15.4219H31.5781V22.7656H24.2344V15.4219ZM40.3906 22.7656H33.0469V15.4219H40.3906V22.7656Z" fill="black"></path><path d="M17.7963 35.2362H19.4776L17.4899 38.4425C17.4419 38.5195 17.4153 38.608 17.413 38.6987C17.4107 38.7895 17.4328 38.8792 17.4769 38.9585C17.521 39.0379 17.5856 39.1039 17.6639 39.1498C17.7422 39.1957 17.8314 39.2198 17.9222 39.2196H20.333C20.4681 39.2196 20.5976 39.166 20.6931 39.0705C20.7886 38.975 20.8422 38.8454 20.8422 38.7104C20.8422 38.5753 20.7886 38.4458 20.6931 38.3503C20.5976 38.2548 20.4681 38.2012 20.333 38.2012H18.8371L20.8249 34.9949C20.873 34.9179 20.8995 34.8294 20.9018 34.7387C20.9041 34.6479 20.8821 34.5582 20.8379 34.4789C20.7938 34.3995 20.7292 34.3335 20.6509 34.2876C20.5726 34.2416 20.4834 34.2175 20.3926 34.2178H17.7963C17.6613 34.2178 17.5318 34.2714 17.4363 34.3669C17.3408 34.4624 17.2871 34.5919 17.2871 34.727C17.2871 34.862 17.3408 34.9916 17.4363 35.0871C17.5318 35.1826 17.6613 35.2362 17.7963 35.2362Z" fill="black"></path><path d="M19.5527 7.71378L19.542 7.6963C19.5271 7.66444 19.5088 7.6343 19.4873 7.60642C19.4727 7.5821 19.4559 7.5591 19.4372 7.53768C19.4149 7.51819 19.3908 7.50074 19.3653 7.48554C19.3386 7.46519 19.3098 7.44766 19.2795 7.43325L19.2609 7.42194C19.2384 7.41676 19.2156 7.41333 19.1926 7.41166C19.1603 7.40331 19.1272 7.39838 19.0939 7.39697C19.0604 7.39846 19.0273 7.40338 18.9949 7.41166C18.972 7.41335 18.9493 7.41678 18.927 7.42194L18.9086 7.43325C18.8781 7.44765 18.8491 7.46528 18.8223 7.48583C18.7969 7.50093 18.773 7.51829 18.7508 7.53768C18.7322 7.559 18.7155 7.5819 18.701 7.60612C18.6793 7.63403 18.6608 7.66428 18.6459 7.6963L18.6353 7.71364L16.999 12.2108C16.9758 12.2713 16.965 12.3358 16.967 12.4005C16.9691 12.4653 16.984 12.5289 17.0109 12.5879C17.0378 12.6468 17.0762 12.6997 17.1238 12.7437C17.1713 12.7876 17.2272 12.8216 17.2881 12.8438C17.3489 12.8659 17.4136 12.8757 17.4783 12.8726C17.543 12.8695 17.6064 12.8535 17.6649 12.8257C17.7233 12.7978 17.7757 12.7586 17.8188 12.7103C17.862 12.662 17.8951 12.6056 17.9162 12.5444L18.3507 11.3507H19.8381L20.2724 12.5444C20.3166 12.666 20.4073 12.765 20.5246 12.8197C20.6419 12.8745 20.7761 12.8804 20.8977 12.8361C21.0193 12.7919 21.1184 12.7012 21.1731 12.5839C21.2278 12.4666 21.2337 12.3324 21.1895 12.2108L19.5527 7.71378ZM18.7058 10.3746L19.0939 9.30738L19.4822 10.3746H18.7058Z" fill="black"></path></svg>