<svg xmlns="http://www.w3.org/2000/svg" width="40" height="40" viewBox="0 0 40 40" fill="none"><path fill-rule="evenodd" clip-rule="evenodd" d="M13.0231 4.69892V3.0774C13.0231 1.91126 12.4259 0.846663 11.4798 0.325131C10.5351 -0.1964 9.40347 -0.0840938 8.55787 0.615897C6.34619 2.44357 3.02379 5.19276 1.1163 6.76966C0.413033 7.35119 0 8.26195 0 9.23117C0 10.2004 0.413033 11.1111 1.1163 11.6927C3.02379 13.2696 6.34619 16.0188 8.55787 17.8464C9.40347 18.5464 10.5351 18.6587 11.4798 18.1372C12.4259 17.6157 13.0231 16.5511 13.0231 15.3849V14.1096C14.6487 14.7434 15.8139 16.4542 15.8139 18.4618V36.9231C15.8139 37.7385 16.1083 38.5216 16.6315 39.0985C17.1548 39.6754 17.8651 40 18.6046 40H21.3954C22.9373 40 24.1861 38.6231 24.1861 36.9231C24.1861 32.5001 24.1861 19.971 24.1861 18.4618C24.1861 16.4542 25.3513 14.7434 26.9769 14.1096V15.3849C26.9769 16.5511 27.5741 17.6157 28.5202 18.1372C29.4649 18.6587 30.5965 18.5464 31.4421 17.8464C33.6538 16.0188 36.9762 13.2696 38.8837 11.6927C39.587 11.1111 40 10.2004 40 9.23117C40 8.26195 39.587 7.35119 38.8837 6.76966C36.9762 5.19276 33.6538 2.44357 31.4421 0.615897C30.5965 -0.0840938 29.4649 -0.1964 28.5202 0.325131C27.5741 0.846663 26.9769 1.91126 26.9769 3.0774V4.69892C24.3075 5.01738 21.8949 6.24198 19.9972 8.11118C18.1009 6.24813 15.6855 5.02046 13.0231 4.69892Z" fill="white"></path></svg>