<svg xmlns="http://www.w3.org/2000/svg" width="29" height="29" viewBox="0 0 29 29" fill="none"><g clip-path="url(#clip0_1803_474)"><path d="M10.1497 14.6359C9.35674 14.6359 8.60342 14.5906 8.04268 14.1035C7.39698 13.5428 7.29502 12.6252 7.2837 11.7133C7.27237 10.79 7.27803 9.85546 7.2837 8.94921C7.30069 7.08007 7.31202 5.15429 7.14776 3.26815C7.08545 2.57714 7.01749 1.7955 7.45362 1.20077C7.97471 0.498425 8.93194 0.396472 9.88917 0.396472L19.5747 0.390808C19.9599 0.390808 20.6792 0.390808 21.0587 0.877918C21.3193 1.21776 21.3193 1.67089 21.3193 1.9994V11.7586C21.3193 11.8605 21.3193 11.9625 21.3249 12.0701C21.3362 12.7498 21.3532 13.5201 20.8038 14.0185C20.7019 14.1092 20.5829 14.1941 20.447 14.2621C20.0109 14.483 19.5294 14.5283 19.031 14.5566C17.8302 14.6303 16.6124 14.6303 15.4343 14.6303L10.1837 14.6359C10.1724 14.6359 10.161 14.6359 10.1497 14.6359ZM19.5804 0.730652C19.5747 0.730652 19.5747 0.730652 19.5804 0.730652L9.88917 0.736316C9.02257 0.736316 8.16163 0.815613 7.73682 1.40468C7.37432 1.89745 7.43663 2.61112 7.49327 3.23983C7.66319 5.14296 7.6462 7.08007 7.6292 8.95487C7.62354 9.86112 7.61221 10.7957 7.6292 11.7133C7.64053 12.5459 7.72549 13.3785 8.26924 13.8543C8.74503 14.2678 9.44737 14.3018 10.1894 14.3018L15.44 14.2961C16.6124 14.2961 17.8245 14.2904 19.014 14.2225C19.4728 14.1941 19.9202 14.1545 20.2997 13.9619C20.4073 13.9053 20.498 13.843 20.5773 13.7693C21.0134 13.3728 20.9964 12.7158 20.9851 12.0814C20.9851 11.9738 20.9794 11.8662 20.9794 11.7642V2.00507C20.9794 1.64257 20.9624 1.31971 20.7868 1.09315C20.5376 0.758972 20.0335 0.730652 19.5804 0.730652Z" fill="black" stroke="black" stroke-width="0.5"></path><path d="M17.8645 28.5922C17.4623 28.5922 17.0658 28.5752 16.675 28.5356C14.9135 28.3317 14.7096 26.8193 14.7096 25.6979V17.8815C14.7096 17.7059 14.7096 17.4283 14.7039 17.1055C14.6982 16.2672 14.6926 15.1231 14.7096 14.6473C14.7152 14.551 14.7945 14.483 14.8852 14.483C14.9814 14.4887 15.0551 14.5623 15.0494 14.6586C15.0324 15.1344 15.0381 16.2729 15.0437 17.1055C15.0437 17.4283 15.0494 17.7059 15.0494 17.8815V25.6922C15.0494 27.3121 15.5479 28.0598 16.7146 28.1901C17.451 28.275 18.2326 28.2467 18.9916 28.2184C19.3598 28.207 19.7393 28.1901 20.1018 28.1901H25.3354C25.4203 28.1901 25.5109 28.1901 25.6016 28.1901C26.3322 28.1957 27.0855 28.2014 27.6973 27.8729C27.8105 27.8106 27.9068 27.7426 27.9918 27.6746C28.4563 27.2781 28.4393 26.7457 28.4109 26.0717C28.4053 25.9188 28.3996 25.7545 28.3996 25.5902V18.7481C28.3996 18.4705 28.3939 18.193 28.3939 17.9154C28.3883 17.2074 28.377 16.4768 28.4223 15.7631C28.4449 15.4289 28.377 15.1797 28.207 15.0098C27.8389 14.6246 27.0119 14.6416 26.3492 14.6586C26.2189 14.6586 26.1 14.6643 25.9811 14.6643C25.2787 14.6643 23.8117 14.6416 22.3957 14.6133C20.9797 14.5906 19.5184 14.5623 18.816 14.5623C18.7197 14.5623 18.6461 14.4887 18.6461 14.3924C18.6461 14.2961 18.7197 14.2225 18.816 14.2225C19.5184 14.2225 20.9854 14.2451 22.4014 14.2734C23.8174 14.2961 25.2787 14.3244 25.9811 14.3244C26.0943 14.3244 26.2133 14.3244 26.3379 14.3188C27.1082 14.3018 27.9748 14.2848 28.4506 14.7776C28.6828 15.0211 28.7848 15.361 28.7564 15.7858C28.7111 16.4881 28.7168 17.2131 28.7281 17.9154C28.7338 18.1873 28.7338 18.4705 28.7338 18.7481V25.6016C28.7338 25.7602 28.7395 25.9188 28.7451 26.0717C28.7734 26.774 28.8018 27.4367 28.207 27.9465C28.1051 28.0315 27.9861 28.1164 27.8502 28.1844C27.1592 28.5582 26.3266 28.5526 25.5902 28.5469C25.4996 28.5469 25.4146 28.5469 25.3297 28.5469H20.0961C19.7393 28.5469 19.3598 28.5582 18.9973 28.5695C18.6291 28.5752 18.2439 28.5922 17.8645 28.5922Z" fill="black" stroke="black" stroke-width="0.5"></path><path d="M3.52867 28.6092C3.12652 28.6092 2.73004 28.5922 2.33922 28.5525C0.577694 28.3486 0.373788 26.8363 0.373788 25.7148V19.5183C0.373788 19.0142 0.339804 18.4931 0.300155 17.989C0.260507 17.3773 0.215194 16.7486 0.232186 16.1369C0.243514 15.6951 0.33414 15.3666 0.509725 15.106C1.12711 14.2111 2.38453 14.2734 3.3984 14.3244C3.61363 14.3357 3.81754 14.347 3.99312 14.347C4.5652 14.347 5.69234 14.3301 6.78551 14.3187C7.87867 14.3074 9.00582 14.2904 9.58356 14.2904C9.67984 14.2904 9.75348 14.364 9.75348 14.4603C9.75348 14.5566 9.67984 14.6302 9.58356 14.6302C9.01149 14.6302 7.88434 14.6472 6.79117 14.6586C5.69801 14.6699 4.57086 14.6869 3.99312 14.6869C3.80621 14.6869 3.59664 14.6756 3.38141 14.6642C2.45816 14.6133 1.30269 14.5566 0.792929 15.2929C0.651327 15.4969 0.583358 15.7631 0.57203 16.1426C0.555038 16.7429 0.60035 17.3603 0.639999 17.9607C0.673983 18.4705 0.713632 19.0029 0.713632 19.5127V25.7092C0.713632 27.3291 1.21207 28.0767 2.37887 28.207C3.11519 28.292 3.89684 28.2637 4.65582 28.2353C5.02398 28.224 5.40348 28.207 5.76598 28.207H10.9996C11.0845 28.207 11.1752 28.207 11.2658 28.207C11.9964 28.2127 12.7498 28.2183 13.3615 27.8898C13.4748 27.8275 13.5711 27.7596 13.656 27.6916C14.1205 27.2951 14.1035 26.7627 14.0752 26.0887C14.0695 25.9357 14.0638 25.7715 14.0638 25.6072V18.765C14.0638 18.3969 14.0412 17.8248 14.0185 17.2187C13.9789 16.2162 13.9336 15.072 13.9789 14.4547C13.9845 14.3584 14.0638 14.2904 14.1601 14.2961C14.2564 14.3017 14.3244 14.381 14.3187 14.4773C14.2791 15.0777 14.3244 16.2105 14.364 17.2074C14.3867 17.8135 14.4093 18.3912 14.4093 18.765V25.6129C14.4093 25.7715 14.415 25.9301 14.4207 26.083C14.449 26.7853 14.4773 27.448 13.8826 27.9578C13.7806 28.0428 13.6617 28.1277 13.5257 28.1957C12.8347 28.5695 12.0021 28.5638 11.2658 28.5582C11.1752 28.5582 11.0902 28.5582 11.0052 28.5582H5.77164C5.4148 28.5582 5.03531 28.5695 4.67281 28.5808C4.29332 28.5922 3.91383 28.6092 3.52867 28.6092Z" fill="black" stroke="black" stroke-width="0.5"></path><path d="M12.3701 9.98573C12.5061 8.91522 12.7043 7.85604 12.9535 6.80819C13.0668 6.33241 13.1857 5.85663 13.3443 5.39217C13.4293 5.14295 13.5199 4.8994 13.6332 4.66151C13.7295 4.45194 13.8937 3.9535 14.1883 4.2367C14.3525 4.3953 14.4375 4.67284 14.5338 4.87674C14.6471 5.11463 14.7547 5.35252 14.8566 5.59041C15.0435 6.03221 15.2078 6.48534 15.3551 6.93846C15.6609 7.88436 15.8762 8.85292 16.0121 9.83846C16.0348 10.0197 16.3123 9.94042 16.284 9.76483C16.0348 7.96932 15.5023 6.22479 14.7094 4.59354C14.5791 4.33299 14.4432 3.95916 14.143 3.85721C13.8428 3.75526 13.6559 4.01014 13.5312 4.24237C13.1008 5.02967 12.8742 5.91893 12.6703 6.78553C12.4211 7.83905 12.2285 8.90956 12.0869 9.98007C12.0586 10.167 12.3475 10.1613 12.3701 9.98573Z" fill="black" stroke="black" stroke-width="0.5"></path><path d="M12.7839 7.33494C13.6958 7.24431 14.6077 7.24997 15.5196 7.35193C15.7009 7.36892 15.7009 7.08572 15.5196 7.06872C14.6077 6.96677 13.6958 6.96677 12.7839 7.05173C12.6026 7.07439 12.6026 7.35759 12.7839 7.33494Z" fill="black" stroke="black" stroke-width="0.5"></path><path d="M5.70356 18.3289C6.03208 20.1527 6.07173 22.0162 5.81684 23.8514C5.79419 24.027 6.06606 24.1063 6.08872 23.925C6.34927 22.0389 6.31528 20.1301 5.97544 18.2496C5.94712 18.074 5.66958 18.1477 5.70356 18.3289Z" fill="black" stroke="black" stroke-width="0.5"></path><path d="M5.85086 18.4478C6.60985 17.7285 7.82762 18.2099 8.07684 19.1672C8.20145 19.6316 8.12215 20.1697 7.82762 20.5605C7.4991 21.0023 6.89871 20.991 6.41727 21.1496C6.24735 21.2062 6.31531 21.4668 6.4909 21.4215C7.42547 21.1949 8.71688 21.5177 8.7282 22.6789C8.73953 23.9023 6.94402 24.0269 6.07176 23.8513C5.89617 23.8174 5.81688 24.0892 5.99813 24.1232C7.05731 24.3385 9.03406 24.1289 9.01707 22.6789C9.00008 21.3252 7.53875 20.8777 6.41727 21.1496C6.43992 21.2402 6.46824 21.3308 6.4909 21.4215C7.09129 21.2232 7.73699 21.2289 8.11649 20.6455C8.43367 20.1527 8.49598 19.49 8.29774 18.9406C7.91258 17.8644 6.50223 17.434 5.64695 18.2439C5.52234 18.3685 5.72059 18.5724 5.85086 18.4478Z" fill="black" stroke="black" stroke-width="0.5"></path><path d="M22.9734 17.5302C21.6083 17.315 20.3509 18.3572 20.062 19.6599C19.8921 20.4246 20.011 21.2232 20.3056 21.9425C20.5888 22.6336 21.0023 23.3019 21.7556 23.5228C22.6222 23.7777 23.6077 23.6134 24.4177 23.2509C24.582 23.1773 24.4404 22.9338 24.2761 23.0074C23.4831 23.3586 22.39 23.5455 21.58 23.1547C20.8323 22.7922 20.4472 21.7217 20.3169 20.957C20.181 20.13 20.3396 19.2465 20.9003 18.6064C21.3931 18.04 22.1407 17.6832 22.8997 17.8021C23.0753 17.8304 23.1546 17.5586 22.9734 17.5302Z" fill="black" stroke="black" stroke-width="0.5"></path></g><defs><clipPath id="clip0_1803_474"><rect width="29" height="29" fill="white"></rect></clipPath></defs></svg>