<svg xmlns="http://www.w3.org/2000/svg" width="48" height="45" viewBox="0 0 48 45" fill="none"><path d="M43.7908 0H32.9976C25.3709 0 19.173 6.19791 19.173 13.8246V13.8439C17.8214 13.3998 16.4119 13.1875 14.9638 13.1875H4.17056L0 17.9952L4.18986 22.8029H14.9831C17.3001 22.8029 19.1923 24.6951 19.1923 27.0121V44.3315H28.8077V13.8246C28.8077 11.5077 30.6999 9.61545 33.0169 9.61545H43.8101L48 4.80773L43.7908 0ZM42.9027 7.68464H32.9976C29.6187 7.68464 26.8576 10.4457 26.8576 13.8246V42.4007H21.1038V27.0121C21.1038 23.6332 18.3427 20.8721 14.9638 20.8721H5.05873L2.56798 17.9952L5.05873 15.1183H14.9638C16.6243 15.1183 18.2462 15.4658 19.7522 16.1223L21.1038 16.7208V13.8246C21.1038 7.25986 26.4328 1.93081 32.9976 1.93081H42.9027L45.4127 4.80773L42.9027 7.68464Z" fill="white"></path></svg>