<svg xmlns="http://www.w3.org/2000/svg" width="38" height="38" viewBox="0 0 38 38" fill="none"><path d="M18.6976 37.1623C18.7984 37.2011 18.8992 37.2244 19 37.2244C19.1009 37.2244 19.2017 37.2011 19.3025 37.1623C24.5915 34.9444 28.6009 31.8889 31.2143 28.0734C33.0678 25.3668 34.0449 22.1329 34.0449 18.7207V6.56845C34.0449 6.29702 33.9053 6.04886 33.6727 5.90927C33.44 5.76968 33.1531 5.75417 32.9127 5.87825C26.8327 8.98804 19.6515 1.10886 19.5817 1.03131C19.4266 0.868452 19.2172 0.775391 19 0.775391C18.7829 0.775391 18.5735 0.868452 18.4262 1.03131C18.3564 1.10886 11.1906 8.9958 5.09514 5.87825C4.85473 5.75417 4.56779 5.76968 4.33514 5.90927C4.10248 6.04886 3.96289 6.29702 3.96289 6.56845V18.744C3.96289 21.9546 4.82371 25.0023 6.44452 27.546C9.03473 31.6097 13.1604 34.8436 18.6976 37.1623ZM5.51391 7.73947C11.2837 9.69376 17.1621 4.50559 19 2.66764C20.838 4.49784 26.7241 9.69376 32.4862 7.73947V18.7207C32.4862 21.8227 31.6021 24.7464 29.927 27.197C27.5384 30.6946 23.8625 33.5174 19 35.6036C13.9049 33.4244 10.1204 30.4309 7.75514 26.7162C6.28942 24.4207 5.51391 21.6676 5.51391 18.744V7.73947Z" fill="white"></path><path d="M18.0925 20.5275C17.5962 21.2022 17.255 22.001 17.1231 22.8618H15.2852V24.4128H17.1231C17.255 25.2814 17.5962 26.0724 18.0925 26.7471L16.7974 28.0422L17.8909 29.1357L19.186 27.8406C19.8607 28.3369 20.6594 28.6781 21.5203 28.81V30.6479H23.0713V28.81C23.9398 28.6781 24.7309 28.3369 25.4056 27.8406L26.7007 29.1357L27.7941 28.0422L26.499 26.7471C26.9954 26.0724 27.3366 25.2736 27.4684 24.4128H29.3064V22.8618H27.4684C27.3366 21.9932 26.9954 21.2022 26.499 20.5275L27.7941 19.2324L26.7007 18.139L25.4056 19.4341C24.7309 18.9377 23.9321 18.5965 23.0713 18.4647V16.6267H21.5203V18.4647C20.6517 18.5965 19.8607 18.9377 19.186 19.4341L17.8909 18.139L16.7974 19.2324L18.0925 20.5275ZM22.3035 19.9536C24.3354 19.9536 25.995 21.6055 25.995 23.6451C25.995 25.6847 24.3431 27.3365 22.3035 27.3365C20.2639 27.3365 18.6121 25.6769 18.6121 23.6451C18.6121 21.6132 20.2717 19.9536 22.3035 19.9536Z" fill="white"></path><path d="M9.2287 15.8591L8.38339 16.7044L9.47686 17.7979L10.3222 16.9526C10.772 17.255 11.2838 17.4722 11.8344 17.5807V18.775H13.3854V17.5807C13.936 17.4722 14.4479 17.2628 14.8977 16.9526L15.743 17.7979L16.8365 16.7044L15.9911 15.8591C16.2936 15.4093 16.5107 14.8975 16.6193 14.3469H17.8136V12.7958H16.6193C16.5107 12.2452 16.3014 11.7334 15.9911 11.2836L16.8365 10.4383L15.743 9.34482L14.8977 10.1901C14.4479 9.88768 13.936 9.67053 13.3854 9.56196V8.36768H11.8344V9.56196C11.2838 9.67053 10.772 9.87992 10.3222 10.1901L9.47686 9.34482L8.38339 10.4383L9.2287 11.2836C8.92625 11.7334 8.70911 12.2452 8.60054 12.7958H7.40625V14.3469H8.60054C8.70911 14.8975 8.92625 15.4093 9.2287 15.8591ZM12.6177 11.0354C14.0214 11.0354 15.1536 12.1754 15.1536 13.5713C15.1536 14.9673 14.0136 16.1073 12.6177 16.1073C11.214 16.1073 10.074 14.9673 10.074 13.5713C10.074 12.1754 11.214 11.0354 12.6177 11.0354Z" fill="white"></path></svg>