<svg xmlns="http://www.w3.org/2000/svg" width="45" height="52" viewBox="0 0 45 52" fill="none"><path d="M23.9509 19.9147C24.9083 17.0163 28.1587 7.70982 31.5415 4.09149" stroke="white" stroke-width="2" stroke-miterlimit="10" stroke-linecap="round" stroke-linejoin="round"></path><path d="M21.6356 19.9147C20.6626 16.9692 17.3217 7.40641 13.8803 3.91998" stroke="white" stroke-width="2" stroke-miterlimit="10" stroke-linecap="round" stroke-linejoin="round"></path><path d="M32.8557 4.16503C33.5806 4.16503 34.1682 3.5774 34.1682 2.85253C34.1682 2.12766 33.5806 1.54004 32.8557 1.54004C32.1308 1.54004 31.5432 2.12766 31.5432 2.85253C31.5432 3.5774 32.1308 4.16503 32.8557 4.16503Z" stroke="white" stroke-width="2" stroke-miterlimit="10" stroke-linecap="round" stroke-linejoin="round"></path><path d="M12.7308 4.16503C13.4557 4.16503 14.0433 3.5774 14.0433 2.85253C14.0433 2.12766 13.4557 1.54004 12.7308 1.54004C12.0059 1.54004 11.4183 2.12766 11.4183 2.85253C11.4183 3.5774 12.0059 4.16503 12.7308 4.16503Z" stroke="white" stroke-width="2" stroke-miterlimit="10" stroke-linecap="round" stroke-linejoin="round"></path><path d="M24.2639 24.2293C27.3798 20.6106 34.7477 12.7048 39.4814 12.9191C45.6145 13.1969 43.8829 31.7878 42.263 33.7598C40.6432 35.7318 33.9593 37.9495 33.9593 37.9495C33.9593 37.9495 39.0603 39.9666 39.0603 44.3199C39.0603 48.673 34.5263 53.5863 29.0884 48.1253C26.3694 45.3946 24.9177 42.6784 24.1458 40.6449" stroke="white" stroke-width="2" stroke-miterlimit="10" stroke-linecap="round" stroke-linejoin="round"></path><path d="M21.6969 24.6673C18.8389 21.2983 11.0403 12.6958 6.1051 12.9191C-0.0279638 13.1969 1.70344 31.7878 3.32349 33.7598C4.94333 35.7318 11.6272 37.9495 11.6272 37.9495C11.6272 37.9495 6.5262 39.9666 6.5262 44.3199C6.5262 48.673 11.0602 53.5863 16.4981 48.1253C19.2171 45.3946 20.6688 42.6784 21.4407 40.6449" stroke="white" stroke-width="2" stroke-miterlimit="10" stroke-linecap="round" stroke-linejoin="round"></path><path d="M22.7933 23.415C23.7597 23.415 24.5432 22.6315 24.5432 21.665C24.5432 20.6985 23.7597 19.915 22.7933 19.915C21.8268 19.915 21.0433 20.6985 21.0433 21.665C21.0433 22.6315 21.8268 23.415 22.7933 23.415Z" stroke="white" stroke-width="2" stroke-miterlimit="10" stroke-linecap="round" stroke-linejoin="round"></path><path d="M22.7933 41.7899C23.7597 41.7899 24.5432 37.4807 24.5432 32.1649C24.5432 26.8492 23.7597 22.54 22.7933 22.54C21.8268 22.54 21.0433 26.8492 21.0433 32.1649C21.0433 37.4807 21.8268 41.7899 22.7933 41.7899Z" stroke="white" stroke-width="2" stroke-miterlimit="10" stroke-linecap="round" stroke-linejoin="round"></path></svg>