<svg xmlns="http://www.w3.org/2000/svg" width="37" height="37" viewBox="0 0 37 37" fill="none"><path d="M18.3111 12.0211L17.8486 11.8516C17.2794 11.6427 16.7245 11.3968 16.1875 11.1154C15.062 10.5103 14.0137 8.60249 13.8981 8.38665L13.5474 7.70832L14.2604 7.53488C14.4145 7.49249 15.802 7.17645 17.575 8.3327C19.3479 9.48895 18.8545 11.0653 18.5462 11.5972L18.3111 12.0211ZM14.7075 8.24405C15.1122 8.94936 15.883 10.0748 16.5575 10.4371C17.0088 10.6756 17.4748 10.8855 17.9527 11.0653C18.0991 10.6992 18.3381 9.73947 17.1818 8.97634C16.4631 8.46052 15.5912 8.20248 14.7075 8.24405Z" fill="black" stroke="black" stroke-width="0.3"></path><path d="M18.5542 12.0212L18.3075 11.5933C18.0083 11.0321 17.9416 10.3757 18.1219 9.7658C18.3021 9.15585 18.7148 8.64116 19.271 8.33271C21.0247 7.17646 22.4276 7.49636 22.5856 7.5349L23.3179 7.70834L22.9633 8.37126C22.8477 8.58324 21.8071 10.491 20.6701 11.1C20.1341 11.3808 19.5805 11.6266 19.0128 11.8362L18.5542 12.0212ZM21.9381 8.23636C21.1367 8.25942 20.3596 8.51667 19.7027 8.97636C18.5465 9.74719 18.7623 10.6953 18.9319 11.0653C19.4091 10.884 19.875 10.6742 20.3271 10.4371C21.0054 10.0709 21.7724 8.94553 22.1771 8.24407L21.9381 8.23636Z" fill="black" stroke="black" stroke-width="0.3"></path><path d="M18.2107 19.1706L17.6943 18.9818C16.9403 18.7002 16.2041 18.3733 15.4897 18.0028C14.0136 17.2088 12.6261 14.6805 12.4757 14.3953L12.0903 13.6553L12.8959 13.4433C12.9768 13.4241 14.8807 12.9538 17.2356 14.4955C19.8603 16.2222 18.4998 18.6696 18.4998 18.6927L18.2107 19.1706ZM13.2273 14.1602C13.7438 15.0929 14.8653 16.7887 15.8559 17.3245C16.5041 17.6623 17.1721 17.9609 17.8562 18.2186C18.0335 17.8332 18.573 16.2915 16.8001 15.1353C15.0272 13.979 13.6705 14.0908 13.2273 14.1602Z" fill="black" stroke="black" stroke-width="0.3"></path><path d="M18.654 19.1707L18.3804 18.6927C18.3804 18.6696 17.0006 16.2222 19.6407 14.4955C21.9532 12.9847 23.7762 13.3933 23.9766 13.4434L24.786 13.6553L24.4006 14.3953C24.2464 14.6805 22.8589 17.2089 21.3828 18.0028C20.6684 18.3734 19.9322 18.7003 19.1782 18.9818L18.654 19.1707ZM23.1249 14.1256C22.02 14.1544 20.948 14.5068 20.0415 15.1392C18.2725 16.2954 18.8082 17.8371 18.9855 18.2225C19.6758 17.9705 20.3502 17.6771 21.0051 17.3438C21.9956 16.808 23.1172 15.1122 23.6375 14.1795C23.4681 14.1495 23.2968 14.1315 23.1249 14.1256Z" fill="black" stroke="black" stroke-width="0.3"></path><path d="M20.3577 32.7335H16.5344C15.9544 32.7304 15.3994 32.4974 14.9911 32.0855C14.5829 31.6736 14.3547 31.1165 14.3568 30.5366V23.8727C13.9342 23.0932 13.4604 22.3426 12.9384 21.6258C11.1963 19.0319 8.56394 15.1122 8.31342 12.5531C8.15213 11.2452 8.27526 9.91788 8.67438 8.66198C9.0735 7.40608 9.73919 6.25121 10.6259 5.27638C12.5877 3.08336 15.6556 1.66888 18.4306 1.66888C19.9924 1.68552 21.5326 2.03597 22.9478 2.69672C24.363 3.35748 25.6206 4.31325 26.6361 5.49993C27.464 6.46228 28.0666 7.59729 28.4 8.82216C28.7333 10.047 28.7891 11.3309 28.5632 12.58C28.0429 15.4514 25.53 19.1976 23.8688 21.6797C23.3682 22.3637 22.9211 23.0853 22.5314 23.8381V30.5366C22.5335 31.1159 22.3059 31.6723 21.8984 32.0841C21.491 32.4959 20.937 32.7294 20.3577 32.7335ZM18.4306 2.43972C17.0611 2.49161 15.7153 2.81353 14.4705 3.38697C13.2257 3.96041 12.1065 4.77409 11.1771 5.78128C10.3643 6.67673 9.75416 7.73694 9.38834 8.88961C9.02252 10.0423 8.9096 11.2603 9.05728 12.4606C9.30009 14.8309 11.8708 18.6542 13.5705 21.1825C14.7268 22.8938 15.1122 23.495 15.1122 23.8612V30.5366C15.1106 30.7227 15.1459 30.9072 15.2158 31.0797C15.2857 31.2521 15.389 31.4091 15.5196 31.5415C15.6503 31.674 15.8059 31.7794 15.9773 31.8517C16.1488 31.9239 16.3329 31.9616 16.5189 31.9626H20.3423C20.7178 31.9596 21.0767 31.8077 21.3404 31.5404C21.6042 31.2731 21.7511 30.9121 21.749 30.5366V23.8111C21.749 23.4565 22.1345 22.8745 23.2136 21.2519C24.8401 18.8238 27.2952 15.1546 27.7885 12.4451C27.9938 11.307 27.9422 10.1374 27.6375 9.02182C27.3327 7.90622 26.7825 6.87281 26.0272 5.99711C25.087 4.89769 23.9231 4.01163 22.613 3.39815C21.303 2.78467 19.8771 2.45791 18.4306 2.43972Z" fill="black" stroke="black" stroke-width="0.3"></path><path d="M23.5105 24.8709H13.3664C13.2642 24.8709 13.1661 24.8303 13.0938 24.758C13.0216 24.6858 12.981 24.5877 12.981 24.4855C12.981 24.3833 13.0216 24.2853 13.0938 24.213C13.1661 24.1407 13.2642 24.1001 13.3664 24.1001H23.5105C23.6128 24.1001 23.7108 24.1407 23.7831 24.213C23.8553 24.2853 23.896 24.3833 23.896 24.4855C23.896 24.5877 23.8553 24.6858 23.7831 24.758C23.7108 24.8303 23.6128 24.8709 23.5105 24.8709Z" fill="black" stroke="black" stroke-width="0.3"></path><path d="M18.8317 9.91676C18.7276 11.1308 18.7083 12.3449 18.7238 13.5589C18.7161 14.1667 18.747 14.7743 18.8163 15.3781C18.8933 15.9871 18.9974 16.596 19.0167 17.2011C19.0861 18.4152 18.7931 19.6293 18.7662 20.8433C18.7263 22.0577 18.7482 23.2733 18.8317 24.4855C18.8399 24.5877 18.8071 24.689 18.7406 24.7671C18.6741 24.8451 18.5793 24.8936 18.4771 24.9018C18.4265 24.9058 18.3756 24.8998 18.3273 24.8842C18.2789 24.8686 18.2342 24.8436 18.1955 24.8107C18.1175 24.7442 18.069 24.6494 18.0608 24.5472C18.057 24.5268 18.057 24.5059 18.0608 24.4855C18.1424 23.2732 18.1604 22.0575 18.1148 20.8433C18.0878 19.6293 17.7988 18.4152 17.8681 17.2011C17.8681 16.596 17.9915 15.9871 18.0647 15.3781C18.1352 14.7744 18.1674 14.1668 18.1611 13.5589C18.1611 12.3449 18.1611 11.1308 18.0531 9.91676C18.0488 9.86615 18.0545 9.81518 18.0699 9.76677C18.0853 9.71837 18.1101 9.67346 18.1429 9.63463C18.1756 9.5958 18.2157 9.5638 18.2608 9.54046C18.3059 9.51711 18.3552 9.50288 18.4058 9.49858C18.4564 9.49428 18.5074 9.49999 18.5558 9.51538C18.6042 9.53078 18.6491 9.55556 18.6879 9.5883C18.7268 9.62105 18.7588 9.66112 18.7821 9.70624C18.8054 9.75135 18.8197 9.80062 18.824 9.85124L18.8317 9.91676Z" fill="black" stroke="black" stroke-width="0.3"></path><path d="M30.5133 35.4583H25.8459C25.7436 35.4583 25.6456 35.4177 25.5733 35.3454C25.5011 35.2732 25.4604 35.1751 25.4604 35.0729C25.4604 34.9707 25.5011 34.8727 25.5733 34.8004C25.6456 34.7281 25.7436 34.6875 25.8459 34.6875H30.5133C30.6155 34.6875 30.7135 34.7281 30.7858 34.8004C30.8581 34.8727 30.8987 34.9707 30.8987 35.0729C30.8987 35.1751 30.8581 35.2732 30.7858 35.3454C30.7135 35.4177 30.6155 35.4583 30.5133 35.4583Z" fill="black" stroke="black" stroke-width="0.3"></path><path d="M24.3737 35.4583H13.9674C13.8652 35.4583 13.7672 35.4177 13.6949 35.3454C13.6226 35.2732 13.582 35.1751 13.582 35.0729C13.582 34.9707 13.6226 34.8727 13.6949 34.8004C13.7672 34.7281 13.8652 34.6875 13.9674 34.6875H24.3737C24.4759 34.6875 24.5739 34.7281 24.6462 34.8004C24.7185 34.8727 24.7591 34.9707 24.7591 35.0729C24.7591 35.1751 24.7185 35.2732 24.6462 35.3454C24.5739 35.4177 24.4759 35.4583 24.3737 35.4583Z" fill="black" stroke="black" stroke-width="0.3"></path><path d="M12.0943 35.4583H10.6759C10.5737 35.4583 10.4757 35.4177 10.4034 35.3454C10.3311 35.2732 10.2905 35.1751 10.2905 35.0729C10.2905 34.9707 10.3311 34.8727 10.4034 34.8004C10.4757 34.7281 10.5737 34.6875 10.6759 34.6875H12.0943C12.1965 34.6875 12.2945 34.7281 12.3668 34.8004C12.4391 34.8727 12.4797 34.9707 12.4797 35.0729C12.4797 35.1751 12.4391 35.2732 12.3668 35.3454C12.2945 35.4177 12.1965 35.4583 12.0943 35.4583Z" fill="black" stroke="black" stroke-width="0.3"></path><path d="M7.70847 35.4583H7.08024C6.97802 35.4583 6.87999 35.4177 6.80771 35.3454C6.73543 35.2732 6.69482 35.1751 6.69482 35.0729C6.69482 34.9707 6.73543 34.8727 6.80771 34.8004C6.87999 34.7281 6.97802 34.6875 7.08024 34.6875H7.70847C7.81069 34.6875 7.90872 34.7281 7.981 34.8004C8.05328 34.8727 8.09389 34.9707 8.09389 35.0729C8.09389 35.1751 8.05328 35.2732 7.981 35.3454C7.90872 35.4177 7.81069 35.4583 7.70847 35.4583Z" fill="black" stroke="black" stroke-width="0.3"></path><path d="M17.3439 27.1488H14.7424C14.6401 27.1488 14.5421 27.1082 14.4698 27.0359C14.3975 26.9636 14.3569 26.8656 14.3569 26.7633C14.3569 26.6611 14.3975 26.5631 14.4698 26.4908C14.5421 26.4185 14.6401 26.3779 14.7424 26.3779H17.3439C17.4461 26.3779 17.5442 26.4185 17.6164 26.4908C17.6887 26.5631 17.7293 26.6611 17.7293 26.7633C17.7293 26.8656 17.6887 26.9636 17.6164 27.0359C17.5442 27.1082 17.4461 27.1488 17.3439 27.1488Z" fill="black" stroke="black" stroke-width="0.3"></path><path d="M22.15 30.1858H19.506C19.4038 30.1858 19.3058 30.1452 19.2335 30.0729C19.1612 30.0006 19.1206 29.9026 19.1206 29.8004C19.1206 29.6982 19.1612 29.6001 19.2335 29.5279C19.3058 29.4556 19.4038 29.415 19.506 29.415H22.15C22.2522 29.415 22.3502 29.4556 22.4225 29.5279C22.4948 29.6001 22.5354 29.6982 22.5354 29.8004C22.5354 29.9026 22.4948 30.0006 22.4225 30.0729C22.3502 30.1452 22.2522 30.1858 22.15 30.1858Z" fill="black" stroke="black" stroke-width="0.3"></path><path d="M18.4266 35.4583H18.3804C17.8437 35.4583 17.3291 35.2451 16.9496 34.8657C16.5701 34.4862 16.3569 33.9715 16.3569 33.4349V31.9626H20.4501V33.4349C20.4501 33.9715 20.2369 34.4862 19.8574 34.8657C19.4779 35.2451 18.9633 35.4583 18.4266 35.4583ZM17.1278 32.7334V33.4349C17.1288 33.7668 17.2611 34.0848 17.4958 34.3195C17.7305 34.5542 18.0485 34.6865 18.3804 34.6875H18.4266C18.7585 34.6865 19.0765 34.5542 19.3112 34.3195C19.5459 34.0848 19.6782 33.7668 19.6792 33.4349V32.7334H17.1278Z" fill="black" stroke="black" stroke-width="0.3"></path><path d="M15.3393 6.70623C15.2581 6.70617 15.1789 6.68042 15.1131 6.63266C15.0474 6.58489 14.9984 6.51756 14.9732 6.44029L14.3218 4.48238C14.3059 4.43429 14.2996 4.38354 14.3033 4.33302C14.3069 4.28249 14.3205 4.23319 14.3432 4.18791C14.3891 4.09648 14.4695 4.02702 14.5666 3.99482C14.6637 3.96262 14.7696 3.97032 14.8611 4.01622C14.9525 4.06212 15.0219 4.14245 15.0541 4.23956L15.7055 6.19748C15.7373 6.29409 15.7296 6.39934 15.6841 6.49031C15.6386 6.58127 15.559 6.65057 15.4627 6.6831C15.4231 6.6975 15.3814 6.70531 15.3393 6.70623Z" fill="black" stroke="black" stroke-width="0.3"></path><path d="M21.8147 6.84113C21.7738 6.84095 21.7333 6.83311 21.6952 6.818C21.5989 6.78547 21.5193 6.71617 21.4738 6.6252C21.4283 6.53424 21.4206 6.42898 21.4524 6.33238L22.1038 4.37446C22.1422 4.2861 22.2123 4.21532 22.3003 4.17607C22.3882 4.13682 22.4877 4.13195 22.5791 4.16242C22.6705 4.19288 22.7472 4.25648 22.7941 4.34067C22.8409 4.42486 22.8545 4.52355 22.8322 4.61727L22.1809 6.57519C22.1557 6.65246 22.1067 6.71979 22.0409 6.76755C21.9752 6.81532 21.896 6.84107 21.8147 6.84113Z" fill="black" stroke="black" stroke-width="0.3"></path><path d="M18.5002 6.2669C18.3979 6.2669 18.2999 6.22629 18.2276 6.15401C18.1554 6.08173 18.1147 5.9837 18.1147 5.88148V3.8195C18.1147 3.71728 18.1554 3.61925 18.2276 3.54697C18.2999 3.47469 18.3979 3.43408 18.5002 3.43408C18.6024 3.43408 18.7004 3.47469 18.7727 3.54697C18.845 3.61925 18.8856 3.71728 18.8856 3.8195V5.88148C18.8856 5.93209 18.8756 5.98221 18.8562 6.02897C18.8369 6.07573 18.8085 6.11822 18.7727 6.15401C18.7369 6.1898 18.6944 6.21819 18.6477 6.23756C18.6009 6.25693 18.5508 6.2669 18.5002 6.2669Z" fill="black" stroke="black" stroke-width="0.3"></path></svg>