<svg xmlns="http://www.w3.org/2000/svg" width="32" height="32" viewBox="0 0 32 32" fill="none"><path d="M25.8345 9.69385H6.16517C5.87077 9.69385 5.63184 9.93278 5.63184 10.2272C5.63184 10.5216 5.87077 10.7605 6.16517 10.7605H25.8345C26.1289 10.7605 26.3678 10.5216 26.3678 10.2272C26.3678 9.93278 26.1289 9.69385 25.8345 9.69385Z" fill="black"></path><path d="M25.8345 12.6805H6.16517C5.87077 12.6805 5.63184 12.9195 5.63184 13.2139C5.63184 13.5083 5.87077 13.7472 6.16517 13.7472H25.8345C26.1289 13.7472 26.3678 13.5083 26.3678 13.2139C26.3678 12.9195 26.1289 12.6805 25.8345 12.6805Z" fill="black"></path><path d="M25.8345 15.6672H6.16517C5.87077 15.6672 5.63184 15.9061 5.63184 16.2005C5.63184 16.4949 5.87077 16.7338 6.16517 16.7338H25.8345C26.1289 16.7338 26.3678 16.4949 26.3678 16.2005C26.3678 15.9061 26.1289 15.6672 25.8345 15.6672Z" fill="black"></path><path d="M18.0052 18.8672H6.16517C5.87077 18.8672 5.63184 19.1061 5.63184 19.4005C5.63184 19.6949 5.87077 19.9339 6.16517 19.9339H18.0052C18.2996 19.9339 18.5385 19.6949 18.5385 19.4005C18.5385 19.1061 18.2996 18.8672 18.0052 18.8672Z" fill="black"></path><path d="M30.1398 10.2059C29.3548 8.82346 28.2369 7.5904 26.8118 6.528C23.919 4.37333 20.079 3.18719 16.0001 3.18719C11.9212 3.18719 8.08118 4.37333 5.18838 6.528C3.76758 7.58613 2.64545 8.82346 1.86038 10.2059C1.04118 11.648 0.623047 13.184 0.623047 14.7712C0.623047 16.3584 1.03691 17.8901 1.86038 19.3365C2.64545 20.7189 3.76331 21.952 5.18838 23.0144C8.08118 25.1691 11.9212 26.3552 16.0001 26.3552C18.1036 26.3552 20.1388 26.0437 22.0588 25.4251C22.255 25.3611 22.4641 25.4123 22.6049 25.5531L25.5404 28.4885C25.758 28.7061 26.0438 28.8213 26.3382 28.8213C26.4833 28.8213 26.6284 28.7915 26.7692 28.736C27.1916 28.5611 27.4646 28.1515 27.4646 27.6949V22.7371C27.4646 22.5835 27.5329 22.4384 27.6481 22.336C30.0545 20.2368 31.3772 17.5488 31.3772 14.7669C31.3772 13.184 30.959 11.648 30.1398 10.2059ZM26.9441 21.5339C26.5942 21.8368 26.398 22.2763 26.398 22.7413V27.6864C26.398 27.6992 26.398 27.7248 26.3596 27.7419C26.3212 27.7589 26.3041 27.7376 26.2956 27.7291L23.3601 24.7936C23.0529 24.4864 22.6476 24.3243 22.2294 24.3243C22.063 24.3243 21.8966 24.3499 21.7302 24.4011C19.9212 24.9856 17.9926 25.28 16.0001 25.28C8.11105 25.2843 1.68971 20.5653 1.68971 14.7669C1.68971 8.96853 8.11105 4.25386 16.0001 4.25386C23.8892 4.25386 30.3105 8.9728 30.3105 14.7669C30.3105 16.0213 30.0118 17.2459 29.423 18.4107C28.847 19.5499 28.015 20.5995 26.9441 21.5339Z" fill="black"></path></svg>