<svg xmlns="http://www.w3.org/2000/svg" width="37" height="37" viewBox="0 0 37 37" fill="none"><path d="M16.1875 8.09375H4.625V35.8438H16.1875V8.09375Z" stroke="white" stroke-width="2" stroke-linecap="round" stroke-linejoin="round"></path><path d="M6.9375 1.15625H13.875C15.1016 1.15625 16.278 1.64353 17.1454 2.51088C18.0127 3.37824 18.5 4.55462 18.5 5.78125V8.09375H2.3125V5.78125C2.3125 4.55462 2.79978 3.37824 3.66713 2.51088C4.53449 1.64353 5.71087 1.15625 6.9375 1.15625V1.15625Z" stroke="white" stroke-width="2" stroke-linecap="round" stroke-linejoin="round"></path><path d="M4.625 21.9688H16.1875" stroke="white" stroke-width="2" stroke-linecap="round" stroke-linejoin="round"></path><path d="M12.7188 11.5625H8.09375V18.5H12.7188V11.5625Z" stroke="white" stroke-width="2" stroke-linecap="round" stroke-linejoin="round"></path><path d="M4.625 31.2188H16.1875" stroke="white" stroke-width="2" stroke-linecap="round" stroke-linejoin="round"></path><path d="M4.625 26.5938H16.1875" stroke="white" stroke-width="2" stroke-linecap="round" stroke-linejoin="round"></path><path d="M13.875 21.9688H20.8125L32.375 35.8438H35.8438" stroke="white" stroke-width="2" stroke-linecap="round" stroke-linejoin="round"></path><path d="M20.8125 23.125V35.8438" stroke="white" stroke-width="2" stroke-linecap="round" stroke-linejoin="round"></path><path d="M26.5938 28.9062V35.8438" stroke="white" stroke-width="2" stroke-linecap="round" stroke-linejoin="round"></path></svg>