<svg xmlns="http://www.w3.org/2000/svg" width="38" height="38" viewBox="0 0 38 38" fill="none"><path d="M34.8278 27.2271C34.8296 27.1368 34.8436 27.054 34.8436 26.964C34.8436 23.0738 33.3904 19.7158 30.2233 18.6794L28.0816 21.7408L25.7013 18.7198C22.7132 19.6725 21.3877 22.5124 21.3877 26.3139C21.3877 26.62 21.3966 26.9248 21.4138 27.2274L34.8278 27.2271Z" stroke="black" stroke-width="1.4" stroke-miterlimit="10"></path><path d="M24.0742 12.6097L24.1567 11.9236L24.2936 11.2569L24.3888 10.9775L24.5162 10.7148L24.7421 10.3416L24.8968 10.086L25.0999 9.87254L25.3326 9.64038L25.6639 9.4109L26.0766 9.18052L26.5507 8.98844L26.936 8.88216L27.1465 8.82397H27.4241H27.6951H28.2162H28.6282L29.2312 8.96113L29.8623 9.31797L30.164 9.67423L30.6853 10.2502L31.0148 10.9086L31.1517 11.2379L31.3155 12.0884L31.3713 12.5821V12.7739L31.5361 12.8837L31.6178 13.3228L31.5901 13.8168L31.3993 14.4474L31.206 14.7493L30.9869 14.8315L30.8221 15.4351L30.4659 16.2853L30.2183 16.6419L29.8899 17.1359L29.3413 17.5747L28.7375 18.0411L28.2714 18.1779L27.5856 18.2604L26.7894 18.1779L26.0217 17.7664L25.6102 17.3553L25.2533 16.7517L24.7593 15.9015L24.5411 15.4072L24.2659 14.9135L24.1291 14.6941L23.9097 14.4474L23.7725 14.1458L23.7446 13.5422L23.7725 13.0209V12.8291L23.9646 12.7472L24.0742 12.6097Z" stroke="black" stroke-width="1.4" stroke-miterlimit="10"></path><path d="M20.9946 32.722C20.9969 32.6044 21.0141 32.4967 21.0141 32.38C21.0141 27.3236 19.1263 22.9578 15.0087 21.6108L12.2243 25.5907L9.13024 21.6616C5.24593 22.9014 3.52197 26.5924 3.52197 31.5345C3.52197 31.9323 3.53414 32.3277 3.55611 32.722H20.9946Z" stroke="black" stroke-width="1.4" stroke-miterlimit="10"></path><path d="M7.87528 15.016L7.97236 14.2138L8.13267 13.4334L8.2443 13.1062L8.39333 12.7992L8.65755 12.3622L8.83805 12.0636L9.07525 11.8139L9.34719 11.5417L9.73669 11.2739L10.2188 11.0043L10.7722 10.7793L11.2246 10.6549L11.4707 10.5869H11.7946H12.1126H12.7218H13.2039L13.9096 10.7472L14.6479 11.1646L15.0009 11.582L15.611 12.2559L15.996 13.026L16.1557 13.4111L16.3487 14.4059L16.4131 14.9836V15.2087L16.6058 15.3372L16.7017 15.8505L16.6696 16.4282L16.4455 17.1663L16.2201 17.5192L15.9636 17.6154L15.771 18.3217L15.3539 19.3165L15.0644 19.7342L14.68 20.3116L14.0381 20.8252L13.3315 21.3703L12.7862 21.5309L11.9837 21.628L11.0527 21.5309L10.1544 21.0497L9.67256 20.5681L9.25605 19.8622L8.67773 18.8676L8.42153 18.2893L8.10002 17.7119L7.94 17.4551L7.68291 17.1663L7.52289 16.8133L7.49023 16.107L7.52289 15.4975V15.2728L7.74733 15.1766L7.87528 15.016Z" stroke="black" stroke-width="1.4" stroke-miterlimit="10"></path><path d="M24.4858 7.93433C24.9777 7.93433 25.3765 7.53558 25.3765 7.0437C25.3765 6.55182 24.9777 6.15308 24.4858 6.15308C23.994 6.15308 23.5952 6.55182 23.5952 7.0437C23.5952 7.53558 23.994 7.93433 24.4858 7.93433Z" stroke="black" stroke-width="1.4" stroke-miterlimit="10"></path><path d="M20.7449 7.99375C21.4336 7.99375 21.9918 7.43551 21.9918 6.74688C21.9918 6.05825 21.4336 5.5 20.7449 5.5C20.0563 5.5 19.498 6.05825 19.498 6.74688C19.498 7.43551 20.0563 7.99375 20.7449 7.99375Z" stroke="black" stroke-width="1.4" stroke-miterlimit="10"></path><path d="M16.529 9.47768C17.316 9.47768 17.954 8.83969 17.954 8.05268C17.954 7.26568 17.316 6.62769 16.529 6.62769C15.742 6.62769 15.104 7.26568 15.104 8.05268C15.104 8.83969 15.742 9.47768 16.529 9.47768Z" stroke="black" stroke-width="1.4" stroke-miterlimit="10"></path></svg>