<svg xmlns="http://www.w3.org/2000/svg" width="94" height="74" viewBox="0 0 94 74" fill="none"><circle cx="35.5" cy="37.9442" r="35.5" fill="#B9E2F9"></circle><ellipse cx="57.9211" cy="65.2232" rx="5.60526" ry="5.97895" fill="#FFF7AC"></ellipse><path d="M83.9462 41.7949C82.6961 39.7885 79.449 38.9344 77.6246 38.6037C74.2949 38.0003 70.014 38.0989 67.9568 39.6795C67.2797 40.2001 66.9517 41.2635 66.8939 43.1275C66.8863 43.3732 66.8844 43.613 66.8858 43.8401C63.3439 42.5193 60.0654 40.5255 57.2575 37.9844L56.0234 36.7856C53.4071 34.0571 51.3283 30.8489 49.9187 27.3644C50.1476 27.3606 50.3892 27.3531 50.6365 27.3399C52.5054 27.2392 53.5648 26.8891 54.0714 26.2049C55.6061 24.1324 55.6132 19.8899 54.9395 16.6048C54.566 14.7831 53.6318 11.5475 51.5733 10.3444C49.5254 9.14752 46.3856 9.47851 45.1306 9.67658C42.5416 10.0848 40.3946 11.0262 39.3873 12.1946C38.5096 13.2129 38.2306 16.093 38.1514 17.2839C38.1493 17.3152 38.1488 17.3474 38.1497 17.3788C38.4154 27.0684 42.251 36.2794 48.9497 43.3117C48.9587 43.3209 48.9679 43.3341 48.9771 43.3431L50.8534 45.1737C50.8627 45.1827 50.8722 45.2074 50.882 45.2158C58.1065 51.71 67.4509 55.2413 77.1966 55.3783C77.2017 55.3782 77.207 55.3782 77.2121 55.3781C77.2379 55.3778 77.2633 55.3452 77.2891 55.3431C78.483 55.2367 81.3679 54.8615 82.3694 53.967C83.5216 52.9379 84.4187 50.7797 84.7694 48.1937C84.9393 46.9399 85.1993 43.8065 83.9462 41.7949ZM82.7852 47.9246C82.5096 49.9567 81.8065 51.7849 81.0364 52.4728C80.691 52.7643 78.8857 53.1545 77.157 53.3131C67.9279 53.2649 59.0794 49.8551 52.2346 43.7081L50.3865 41.9125C44.0487 35.2526 40.4159 26.5392 40.1529 17.369C40.2712 15.6512 40.6205 13.8512 40.9044 13.5014C41.5797 12.7181 43.4036 11.9758 45.4429 11.6542C47.582 11.3169 49.5442 11.4773 50.5634 12.073C51.5468 12.6478 52.4722 14.5384 52.9785 17.0071C53.643 20.2471 53.4291 23.663 52.4834 24.9851C52.0986 25.2621 50.3409 25.4286 48.6894 25.3491C48.5097 25.306 48.3162 25.3112 48.1286 25.3762C47.9648 25.4331 47.8252 25.5283 47.7162 25.6482C47.5591 25.8134 47.457 26.0326 47.4421 26.2781C47.4293 26.4896 47.4835 26.6895 47.586 26.8578C49.017 30.8876 51.2746 34.6089 54.1914 37.7607C54.2261 37.8147 54.2665 37.8662 54.3126 37.9142C54.613 38.2269 54.9198 38.5338 55.2323 38.8337C55.5418 39.1381 55.8576 39.4365 56.18 39.7283C56.2295 39.7731 56.2821 39.812 56.3371 39.845C59.5726 42.67 63.3653 44.8276 67.448 46.1559C67.6186 46.2541 67.8194 46.3034 68.0306 46.2851C68.2773 46.2643 68.4952 46.1553 68.6567 45.9922C68.6733 45.9762 68.6881 45.9588 68.7037 45.9417C68.7079 45.9368 68.7122 45.9318 68.7165 45.9268C68.8036 45.8266 68.8742 45.7097 68.9169 45.5751C68.9769 45.3863 68.9772 45.1934 68.9296 45.0152C68.8121 43.3797 68.9376 41.6344 69.2056 41.246C70.5236 40.2669 73.9755 39.9775 77.268 40.5741C79.7424 41.0225 81.6505 41.896 82.2471 42.8538C82.8679 43.8505 83.0741 45.7936 82.7852 47.9246Z" fill="black" stroke="black" stroke-width="0.7"></path></svg>