<svg xmlns="http://www.w3.org/2000/svg" width="57" height="57" viewBox="0 0 57 57" fill="none"><path d="M2 55H55" stroke="white" stroke-width="2.5" stroke-miterlimit="10" stroke-linecap="round"></path><path d="M11.2172 44.6304C11.2172 44.3249 11.0959 44.0318 10.8798 43.8157C10.6637 43.5997 10.3706 43.4783 10.0651 43.4783H5.45637C5.1508 43.4783 4.85774 43.5997 4.64166 43.8157C4.42559 44.0318 4.3042 44.3249 4.3042 44.6304V55H11.2172V44.6304Z" stroke="white" stroke-width="2.5" stroke-miterlimit="10" stroke-linecap="round"></path><path d="M25.0439 33.1087C25.0439 32.8031 24.9225 32.5101 24.7064 32.294C24.4904 32.0779 24.1973 31.9565 23.8917 31.9565H19.283C18.9775 31.9565 18.6844 32.0779 18.4683 32.294C18.2522 32.5101 18.1309 32.8031 18.1309 33.1087V55H25.0439V33.1087Z" stroke="white" stroke-width="2.5" stroke-miterlimit="10" stroke-linecap="round"></path><path d="M38.8696 37.7176C38.8696 37.412 38.7482 37.119 38.5321 36.9029C38.316 36.6868 38.023 36.5654 37.7174 36.5654H33.1087C32.8031 36.5654 32.5101 36.6868 32.294 36.9029C32.0779 37.119 31.9565 37.412 31.9565 37.7176V55.0002H38.8696V37.7176Z" stroke="white" stroke-width="2.5" stroke-miterlimit="10" stroke-linecap="round"></path><path d="M52.6958 21.5867C52.6958 21.2812 52.5744 20.9881 52.3583 20.772C52.1422 20.556 51.8492 20.4346 51.5436 20.4346H46.9349C46.6293 20.4346 46.3363 20.556 46.1202 20.772C45.9041 20.9881 45.7827 21.2812 45.7827 21.5867V54.9998H52.6958V21.5867Z" stroke="white" stroke-width="2.5" stroke-miterlimit="10" stroke-linecap="round"></path><path d="M7.76072 30.8044C9.66971 30.8044 11.2172 29.2569 11.2172 27.3479C11.2172 25.4389 9.66971 23.8914 7.76072 23.8914C5.85174 23.8914 4.3042 25.4389 4.3042 27.3479C4.3042 29.2569 5.85174 30.8044 7.76072 30.8044Z" stroke="white" stroke-width="2.5" stroke-miterlimit="10" stroke-linecap="round"></path><path d="M21.5874 19.2827C23.4964 19.2827 25.0439 17.7351 25.0439 15.8262C25.0439 13.9172 23.4964 12.3696 21.5874 12.3696C19.6784 12.3696 18.1309 13.9172 18.1309 15.8262C18.1309 17.7351 19.6784 19.2827 21.5874 19.2827Z" stroke="white" stroke-width="2.5" stroke-miterlimit="10" stroke-linecap="round"></path><path d="M35.4131 23.8913C37.322 23.8913 38.8696 22.3438 38.8696 20.4348C38.8696 18.5258 37.322 16.9783 35.4131 16.9783C33.5041 16.9783 31.9565 18.5258 31.9565 20.4348C31.9565 22.3438 33.5041 23.8913 35.4131 23.8913Z" stroke="white" stroke-width="2.5" stroke-miterlimit="10" stroke-linecap="round"></path><path d="M49.2392 8.91304C51.1482 8.91304 52.6958 7.36551 52.6958 5.45652C52.6958 3.54754 51.1482 2 49.2392 2C47.3303 2 45.7827 3.54754 45.7827 5.45652C45.7827 7.36551 47.3303 8.91304 49.2392 8.91304Z" stroke="white" stroke-width="2.5" stroke-miterlimit="10" stroke-linecap="round"></path><path d="M10.6675 24.9281L18.9332 18.0381" stroke="white" stroke-width="2.5" stroke-miterlimit="10" stroke-linecap="round"></path><path d="M24.8677 16.9183L32.1333 19.3402" stroke="white" stroke-width="2.5" stroke-miterlimit="10" stroke-linecap="round"></path><path d="M46.4741 7.53064L37.812 17.6352" stroke="white" stroke-width="2.5" stroke-miterlimit="10" stroke-linecap="round"></path></svg>