<svg xmlns="http://www.w3.org/2000/svg" width="40" height="40" viewBox="0 0 40 40" fill="none"><path d="M29.6971 0H20.3527C19.5141 0 18.9151 0.999992 19.2745 1.74999L28.0199 20L19.2745 38.25C18.9151 39.125 19.5141 40 20.3527 40H29.6971C30.1763 40 30.5358 39.75 30.7754 39.25L40 20L30.7754 0.750008C30.5358 0.250008 30.1763 0 29.6971 0Z" fill="white"></path><path d="M10.529 0H1.18462C0.346015 0 -0.252999 0.999992 0.106403 1.74999L8.85185 20L0.106403 38.25C-0.252999 39.125 0.346015 40 1.18462 40H10.529C11.0083 40 11.3677 39.75 11.6073 39.25L20.8319 20L11.6073 0.750008C11.3677 0.250008 11.0083 0 10.529 0Z" fill="white"></path></svg>