<svg xmlns="http://www.w3.org/2000/svg" width="64" height="64" viewBox="0 0 64 64" fill="none"><path d="M60.0001 9.32C60.0016 8.61319 59.8556 7.91384 59.5715 7.26667C59.2873 6.6195 58.8712 6.03876 58.3498 5.56158C57.8283 5.08439 57.2131 4.72127 56.5433 4.49543C55.8736 4.26958 55.164 4.18599 54.4601 4.25C41.0508 5.62313 28.5819 11.7709 19.328 21.5719C10.074 31.3729 4.6517 44.174 4.05012 57.64C4.038 57.9456 4.08775 58.2505 4.19639 58.5364C4.30502 58.8222 4.47031 59.0832 4.68232 59.3036C4.89432 59.524 5.14869 59.6993 5.43013 59.819C5.71157 59.9387 6.0143 60.0002 6.32012 60H38.3201C38.8868 60.0002 39.4333 59.7893 39.853 59.4084C40.2726 59.0276 40.5354 58.5041 40.5901 57.94C41.0813 53.5034 43.0661 49.3656 46.2188 46.2056C49.3714 43.0457 53.5047 41.0514 57.9401 40.55C58.4917 40.4861 59.0004 40.2214 59.3693 39.8065C59.7382 39.3915 59.9414 38.8552 59.9401 38.3C60.0001 32.7 60.0001 17.47 60.0001 9.32Z" fill="#FF5174"></path><path d="M60.0002 10.56C60.0002 18.93 60.0002 33 60.0002 38.3C60 38.8177 59.8222 39.3196 59.4964 39.7219C59.1705 40.1242 58.7165 40.4024 58.2102 40.51C53.6544 40.9304 49.3897 42.9329 46.1564 46.1699C42.9231 49.4068 40.9254 53.6738 40.5102 58.23C40.3957 58.722 40.1218 59.1623 39.7312 59.4824C39.3405 59.8025 38.855 59.9845 38.3502 60H10.2702L10.1602 59.67C10.2463 46.583 15.4765 34.0551 24.7213 24.7916C33.966 15.5282 46.4834 10.2727 59.5702 10.16L60.0002 10.56Z" fill="#00BEFF"></path><path d="M60.0002 16.1801C60.0002 24.2301 60.0002 34.0501 60.0002 38.3001C60.0019 38.8182 59.8247 39.3211 59.4986 39.7237C59.1725 40.1264 58.7174 40.4041 58.2102 40.5101C53.6544 40.9305 49.3897 42.9329 46.1564 46.1699C42.9231 49.4068 40.9254 53.6738 40.5102 58.2301C40.3977 58.7212 40.1258 59.1612 39.7368 59.4814C39.3478 59.8017 38.8638 59.984 38.3602 60.0001H16.1802C16.1801 48.4025 20.7776 37.2779 28.9652 29.064C37.1528 20.8502 48.2627 16.2171 59.8602 16.1801H60.0002Z" fill="#00FFA7"></path><path d="M60.0001 22.85C60.0001 29.07 60.0001 35.18 60.0001 38.3C60.0018 38.8181 59.8247 39.321 59.4986 39.7237C59.1724 40.1263 58.7173 40.4041 58.2101 40.51C53.6543 40.9304 49.3896 42.9329 46.1563 46.1698C42.9231 49.4068 40.9254 53.6737 40.5101 58.23C40.3972 58.7227 40.1238 59.164 39.7328 59.4844C39.3418 59.8048 38.8554 59.9862 38.3501 60H22.6101L22.3701 59.64C22.4357 49.7687 26.3889 40.321 33.3729 33.3445C40.3568 26.3681 49.8088 22.425 59.6801 22.37L60.0001 22.85Z" fill="#FFEF3F"></path><path d="M60 28.48C60 32.55 60 36.14 60 38.3C60.0022 38.8167 59.8265 39.3185 59.5023 39.721C59.1782 40.1234 58.7253 40.402 58.22 40.51C53.6624 40.9282 49.3953 42.9297 46.16 46.1668C42.9247 49.404 40.9256 53.6722 40.51 58.23C40.3947 58.7252 40.1178 59.1679 39.7231 59.4883C39.3284 59.8088 38.8383 59.9888 38.33 60H28.63L28.48 59.71C28.5325 51.44 31.8424 43.524 37.6921 37.678C43.5418 31.832 51.46 28.5272 59.73 28.48H60Z" fill="#FF914D"></path><path d="M60 34.25V34.69L59.9 38.93C59.788 39.3235 59.5703 39.6788 59.2706 39.9573C58.9709 40.2359 58.6006 40.427 58.2 40.51C53.646 40.9326 49.3836 42.9361 46.1524 46.1728C42.9211 49.4095 40.9249 53.6753 40.51 58.23C40.3971 58.7227 40.1237 59.164 39.7327 59.4844C39.3417 59.8048 38.8553 59.9862 38.35 60H34.25C34.2997 53.186 37.0286 46.6653 41.847 41.847C46.6653 37.0286 53.186 34.2997 60 34.25V34.25Z" fill="#FF5174"></path></svg>