<svg xmlns="http://www.w3.org/2000/svg" width="50" height="50" viewBox="0 0 50 50" fill="none"><path d="M25.25 49.1702C25.0132 49.1702 24.7763 49.0518 24.6184 48.8544L3.46053 20.3939C3.38158 20.3544 3.34211 20.236 3.30263 20.1965C1.96053 18.1834 1.25 15.8544 1.25 13.4465C1.25 6.77549 6.69737 1.32812 13.3684 1.32812C18.6579 1.32812 23.2763 4.68339 24.8947 9.69655C24.8947 9.73602 24.9737 9.77549 25.0132 9.77549C25.1711 9.73602 25.3289 9.73602 25.4868 9.77549C25.5658 9.77549 25.6053 9.73602 25.6447 9.69655C27.2237 4.68339 31.8816 1.32812 37.1316 1.32812C43.8026 1.32812 49.25 6.77549 49.25 13.4465C49.25 15.8544 48.5395 18.1834 47.1974 20.1965C47.1974 20.236 47.1579 20.236 47.1579 20.2755C47.1184 20.315 47.0789 20.3544 47.0395 20.3939L25.8421 48.8544C25.7237 49.0518 25.4868 49.1702 25.25 49.1702ZM4.60526 19.3281C4.64474 19.3676 4.68421 19.4071 4.72368 19.4465L25.25 47.0387L45.7763 19.4465C45.8158 19.4071 45.8553 19.3676 45.8553 19.3281C47.0395 17.5913 47.6711 15.5387 47.6711 13.4465C47.6711 7.64391 42.9342 2.90707 37.1316 2.90707C32.5526 2.90707 28.5263 5.82813 27.1053 10.1702C26.8684 10.8808 26.2368 11.3544 25.4868 11.3544C25.4079 11.3544 25.3289 11.3544 25.25 11.3544C24.4211 11.4729 23.6316 10.9992 23.3947 10.2097C21.9737 5.8676 17.9474 2.94655 13.3684 2.94655C7.56579 2.94655 2.82895 7.68339 2.82895 13.486C2.82895 15.5387 3.42105 17.5913 4.60526 19.3281Z" fill="white" stroke="white" stroke-width="0.8"></path><path d="M32.592 35.9071C32.4736 35.9071 32.3552 35.8676 32.2368 35.8282L25.2499 32.1571L18.3026 35.8282C18.0262 35.9861 17.7104 35.9466 17.4736 35.7492C17.2368 35.5913 17.1183 35.2755 17.1578 34.9597L18.4604 27.2229L12.8552 21.7361C12.6578 21.5387 12.5789 21.2229 12.6578 20.9071C12.7368 20.5913 13.0131 20.394 13.2894 20.3545L21.0657 19.2097L24.5394 12.2229C24.6578 11.9466 24.9341 11.7887 25.2499 11.7887C25.5657 11.7887 25.842 11.9466 25.9605 12.2229L29.4341 19.2887L37.2105 20.4334C37.5262 20.4729 37.7631 20.6703 37.842 20.9861C37.921 21.3019 37.842 21.5782 37.6447 21.815L32.0394 27.2229L33.3815 34.9597C33.421 35.2755 33.3026 35.5519 33.0657 35.7492C32.9078 35.8282 32.7499 35.9071 32.592 35.9071ZM25.2499 30.4597C25.3683 30.4597 25.4868 30.4992 25.6052 30.5387L31.5262 33.6571L30.3815 27.1045C30.342 26.8676 30.421 26.5913 30.6183 26.394L35.3947 21.7361L28.8026 20.7492C28.5262 20.7097 28.3289 20.5519 28.2104 20.315L25.2499 14.3545L22.2894 20.3545C22.171 20.5913 21.9341 20.7492 21.6973 20.7887L15.1052 21.7361L19.8815 26.394C20.0789 26.5913 20.1578 26.8282 20.1183 27.1045L18.9736 33.6966L24.8947 30.5782C25.0131 30.4992 25.1315 30.4597 25.2499 30.4597Z" fill="white" stroke="white" stroke-width="0.8"></path></svg>