<svg xmlns="http://www.w3.org/2000/svg" width="50" height="50" viewBox="0 0 50 50" fill="none"><path d="M43.2539 15.4297H41.4795V13.6562C41.4795 13.4941 41.4151 13.3386 41.3004 13.224C41.1858 13.1093 41.0303 13.0449 40.8682 13.0449H38.6797V11.4414C38.6795 11.286 38.6203 11.1366 38.5141 11.0232C38.4078 10.9099 38.2624 10.8412 38.1074 10.831C30.1904 10.3301 26.3203 14.414 25 16.2304C23.6836 14.4131 19.8242 10.3271 11.8916 10.831C11.7366 10.8412 11.5912 10.9099 11.485 11.0232C11.3787 11.1366 11.3195 11.286 11.3193 11.4414V13.0449H9.13184C8.9697 13.0449 8.81421 13.1093 8.69956 13.224C8.58492 13.3386 8.52051 13.4941 8.52051 13.6562V15.4297H6.74609C6.58396 15.4297 6.42847 15.4941 6.31382 15.6087C6.19917 15.7234 6.13477 15.8789 6.13477 16.041V38.5996C6.13502 38.7617 6.19948 38.9172 6.31404 39.0319C6.42861 39.1467 6.58395 39.2114 6.74609 39.2119C6.79006 39.2117 6.8339 39.2072 6.87695 39.1982C7.00293 39.1689 19.5996 36.4638 24.7529 38.7441H24.7666C24.7822 38.75 24.7988 38.7529 24.8144 38.7578C24.8268 38.7641 24.8395 38.7697 24.8525 38.7744C24.8886 38.7818 24.9252 38.7863 24.9619 38.7881C24.9746 38.7881 24.9863 38.7881 24.998 38.7881H25.0049H25.0283C25.0684 38.787 25.1083 38.7821 25.1475 38.7734C25.1592 38.7734 25.1689 38.7627 25.1797 38.7597C25.1992 38.7549 25.2184 38.749 25.2373 38.7422C25.2373 38.7422 25.2441 38.7422 25.2471 38.7422C30.3955 36.4668 42.9971 39.1679 43.123 39.1963C43.1661 39.2052 43.2099 39.2098 43.2539 39.2099C43.416 39.2094 43.5714 39.1447 43.6859 39.03C43.8005 38.9152 43.865 38.7598 43.8652 38.5976V16.039C43.8647 15.8772 43.8001 15.7223 43.6855 15.608C43.5709 15.4938 43.4157 15.4297 43.2539 15.4297ZM40.2568 14.2676V34.79C38.3848 34.3574 33.4785 33.7158 27.1035 36.4834C28.874 34.7256 32.2793 32.5068 38.0283 32.8838C38.1118 32.8895 38.1957 32.8779 38.2745 32.8497C38.3533 32.8214 38.4254 32.7772 38.4863 32.7197C38.5477 32.6626 38.5967 32.5936 38.6303 32.5168C38.6639 32.4401 38.6814 32.3572 38.6816 32.2734V14.2685L40.2568 14.2676ZM37.456 12.0215V31.6308C30.9531 31.4082 27.291 34.3564 25.6113 36.291V17.5127C26.1279 16.6357 29.3594 11.7412 37.456 12.0234V12.0215ZM12.5439 12.0215C20.6367 11.7236 23.8721 16.6338 24.3887 17.5107V36.29C22.7686 34.4258 19.3193 31.6201 13.2295 31.6201C13.0049 31.6201 12.7754 31.6201 12.5459 31.6308L12.5439 12.0215ZM9.74316 14.2676H11.3203V32.2734C11.3206 32.3572 11.3381 32.4401 11.3717 32.5168C11.4053 32.5936 11.4543 32.6626 11.5156 32.7197C11.5764 32.7774 11.6485 32.8218 11.7273 32.85C11.8062 32.8783 11.8901 32.8898 11.9736 32.8838C17.7061 32.5088 21.1172 34.7256 22.8916 36.4795C16.5195 33.7129 11.6143 34.3584 9.74512 34.79L9.74316 14.2676ZM7.3584 37.8496V16.6582H8.52051V35.5927C8.52052 35.6906 8.54401 35.787 8.589 35.8738C8.63399 35.9607 8.69917 36.0355 8.77906 36.0919C8.85895 36.1484 8.95122 36.1848 9.04812 36.1982C9.14503 36.2116 9.24373 36.2016 9.33594 36.1689C9.38769 36.1504 13.5928 34.7324 19.7852 36.6328C14.9502 36.4668 9.3584 37.456 7.3584 37.8496ZM42.6416 37.8496C40.6445 37.459 35.0664 36.4697 30.2393 36.6318C36.4014 34.7519 40.6133 36.1513 40.6641 36.1689C40.7562 36.2014 40.8548 36.2113 40.9516 36.1978C41.0483 36.1843 41.1405 36.1478 41.2202 36.0914C41.3 36.035 41.3651 35.9602 41.41 35.8735C41.455 35.7867 41.4784 35.6905 41.4785 35.5927V16.6533H42.6406L42.6416 37.8496Z" fill="white"></path></svg>