<svg xmlns="http://www.w3.org/2000/svg" width="52" height="53" viewBox="0 0 52 53" fill="none"><path d="M50.3236 23.6869C50.2923 23.5396 50.2127 23.4069 50.0974 23.31C49.9822 23.2131 49.8378 23.1575 49.6873 23.152C43.3356 22.965 38.3129 24.6329 34.8409 28.159C32.9872 30.0431 31.8092 32.2132 31.049 34.2662V31.0915C31.0986 30.328 31.7945 17.1382 23.3031 8.52964C18.2353 3.39313 10.9726 1.03153 1.69625 1.52142C1.54662 1.52978 1.40402 1.58764 1.29088 1.68591C1.17773 1.78417 1.10046 1.91726 1.07122 2.06424C0.978874 2.54963 -1.10343 14.0412 6.04894 22.679C10.9287 28.5734 18.8987 31.6028 29.7066 31.7278V41.4287C29.7066 41.6134 29.7066 41.7666 29.7066 41.8792V51.3279C29.6956 51.4225 29.7048 51.5185 29.7335 51.6093C29.7622 51.7002 29.8098 51.784 29.8732 51.8552C29.9366 51.9263 30.0143 51.9833 30.1013 52.0223C30.1883 52.0613 30.2825 52.0815 30.3778 52.0815C30.4731 52.0815 30.5673 52.0613 30.6543 52.0223C30.7413 51.9833 30.819 51.9263 30.8824 51.8552C30.9458 51.784 30.9934 51.7002 31.0221 51.6093C31.0508 51.5185 31.06 51.4225 31.049 51.3279V42.8016C32.7026 43.0822 34.3756 43.2328 36.0526 43.252C40.7173 43.252 44.3323 41.9603 46.8358 39.3881C52.3394 33.7403 50.4081 24.0946 50.3236 23.6869ZM7.09065 21.8343C1.1692 14.691 2.0037 5.14885 2.31114 2.83568C10.9422 2.46741 17.652 4.71865 22.3414 9.46662C28.1761 15.3768 29.4363 23.8288 29.6762 28.1905C22.1308 14.0626 11.3442 9.5128 10.8622 9.31459C10.7043 9.27431 10.537 9.2925 10.3914 9.36581C10.2458 9.43912 10.1316 9.56261 10.0699 9.7135C10.0081 9.86439 10.003 10.0325 10.0555 10.1869C10.108 10.3412 10.2145 10.4714 10.3554 10.5534C10.4681 10.6029 21.9551 15.4804 29.2753 30.3809C19.1149 30.1906 11.6427 27.3267 7.09065 21.8343ZM45.8786 38.4534C42.9077 41.5042 38.082 42.5234 31.5513 41.5301C32.8678 39.7474 36.5718 35.3158 44.0789 30.1827C44.2063 30.0746 44.289 29.9231 44.3112 29.7575C44.3335 29.5919 44.2935 29.424 44.1992 29.2861C44.1048 29.1482 43.9628 29.0501 43.8004 29.0109C43.638 28.9716 43.4668 28.9939 43.3199 29.0734C36.6439 33.6333 32.9387 37.6087 31.1583 39.8251C31.4342 37.1493 32.4106 32.5376 35.806 29.0926C38.9041 25.9516 43.3413 24.3468 49.0949 24.4831C49.4091 26.5159 50.1986 34.0162 45.8786 38.4534Z" fill="white" stroke="white"></path></svg>