<svg xmlns="http://www.w3.org/2000/svg" width="39" height="39" viewBox="0 0 39 39" fill="none"><path d="M9.48434 23.8521C8.49516 24.2129 7.68964 24.9516 7.24471 25.9059C6.79979 26.8601 6.75185 27.952 7.11144 28.9416C7.14203 29.0247 7.19731 29.0965 7.26985 29.1472C7.3424 29.198 7.42874 29.2253 7.51728 29.2256C7.56753 29.2254 7.61738 29.2168 7.66475 29.2C7.77224 29.1607 7.85979 29.0804 7.90821 28.9767C7.95664 28.873 7.962 28.7543 7.92312 28.6467C7.6423 27.8723 7.68 27.0182 8.02794 26.2716C8.37589 25.525 9.0057 24.9468 9.77928 24.6638C9.83258 24.6445 9.88154 24.6148 9.92337 24.5765C9.96519 24.5382 9.99907 24.4921 10.0231 24.4407C10.0471 24.3893 10.0607 24.3337 10.0632 24.277C10.0657 24.2204 10.057 24.1638 10.0377 24.1105C10.0183 24.0572 9.98862 24.0083 9.95033 23.9664C9.91204 23.9246 9.86589 23.8907 9.81451 23.8667C9.76313 23.8427 9.70753 23.8291 9.65088 23.8266C9.59423 23.8241 9.53764 23.8328 9.48434 23.8521Z" fill="white" stroke="white"></path><path d="M36.5624 35.0584H31.7886L32.8062 27.2584C33.2599 27.3906 33.7282 27.4655 34.2005 27.4815C34.5515 27.488 34.9006 27.4276 35.2291 27.3035C35.6196 27.1662 35.9715 26.9372 36.255 26.6356C36.5386 26.334 36.7456 25.9687 36.8586 25.5705C37.652 22.8697 34.6648 18.3799 34.0749 17.5267L34.5563 13.8424C34.5563 13.8254 34.5563 13.8095 34.5563 13.7925C34.5563 13.7754 34.5563 13.7657 34.5563 13.7498C34.5516 13.6605 34.5182 13.5751 34.4613 13.5061C34.4613 13.4988 34.4454 13.4963 34.4393 13.4902L34.4333 13.4768L23.5864 3.19301C23.5057 3.11717 23.3991 3.07495 23.2884 3.07495C23.1777 3.07495 23.0711 3.11717 22.9904 3.19301L12.1435 13.4768V13.4902C12.1362 13.4902 12.1277 13.4988 12.1216 13.5061C12.0638 13.5747 12.03 13.6603 12.0253 13.7498C12.0253 13.7657 12.0253 13.7779 12.0253 13.7925C12.0241 13.8091 12.0241 13.8258 12.0253 13.8424L12.9857 21.2C12.5059 21.0561 12.011 20.9686 11.511 20.9392L6.84928 8.20817C6.65478 7.67833 6.25842 7.24705 5.74685 7.00862C5.23527 6.7702 4.65011 6.74401 4.11928 6.93579L3.41241 7.19051C2.88195 7.38423 2.44997 7.78043 2.21121 8.29221C1.97246 8.80399 1.94643 9.38956 2.13882 9.92051L6.77007 22.6686C5.82524 23.5412 5.15925 24.6735 4.85569 25.9233C4.55213 27.1731 4.62454 28.4847 5.06382 29.6935L7.01991 35.0645H2.43741C2.32679 35.0704 2.22264 35.1185 2.14642 35.1989C2.0702 35.2793 2.02771 35.3858 2.02771 35.4966C2.02771 35.6074 2.0702 35.7139 2.14642 35.7943C2.22264 35.8747 2.32679 35.9228 2.43741 35.9286H36.5624C36.673 35.9228 36.7772 35.8747 36.8534 35.7943C36.9296 35.7139 36.9721 35.6074 36.9721 35.4966C36.9721 35.3858 36.9296 35.2793 36.8534 35.1989C36.7772 35.1185 36.673 35.0704 36.5624 35.0645V35.0584ZM36.0298 25.3304C35.9524 25.602 35.8103 25.8508 35.6156 26.0554C35.421 26.26 35.1796 26.4144 34.9122 26.5053C34.2538 26.6849 33.5557 26.6538 32.9159 26.4163L33.9043 18.8442C35.0061 20.6102 36.5368 23.6059 36.0298 25.3304ZM23.278 4.10342L33.0427 13.3659H13.5122L23.278 4.10342ZM2.94563 9.62801C2.83208 9.31264 2.84794 8.96516 2.98975 8.66145C3.13155 8.35774 3.38778 8.12249 3.70247 8.00707L4.41422 7.74748C4.72991 7.63351 5.07787 7.64914 5.38206 7.79096C5.68625 7.93278 5.92194 8.18925 6.0376 8.50432L10.5823 20.9929C10.0282 21.0361 9.48211 21.1512 8.95772 21.3353C8.43871 21.5324 7.94719 21.7954 7.49522 22.1178L2.94563 9.62801ZM15.255 35.056H7.93641L5.87307 29.3925C5.37115 27.9861 5.44599 26.4383 6.08124 25.0869C6.71649 23.7355 7.86056 22.6903 9.26371 22.1795C10.6669 21.6686 12.2151 21.7336 13.5705 22.3603C14.9259 22.9869 15.9784 24.1243 16.4981 25.5242L19.9679 35.0584L15.255 35.056ZM30.9135 35.056H20.8832L17.3062 25.228C17.0154 24.4226 16.5679 23.6829 15.9895 23.0515C15.4111 22.4202 14.7132 21.9098 13.9363 21.5498C13.9144 21.5401 13.8912 21.5364 13.8693 21.5267L12.9187 14.2239H33.6374L32.0835 26.1323C27.9239 24.4968 21.5206 19.1464 18.854 16.6821C18.7687 16.6111 18.6595 16.5755 18.5488 16.5828C18.4381 16.59 18.3344 16.6395 18.2591 16.721C18.1838 16.8025 18.1428 16.9099 18.1444 17.0208C18.146 17.1317 18.1902 17.2378 18.2678 17.3171C19.3025 18.2738 26.8453 25.1354 31.9689 27.0049L30.9135 35.056Z" fill="white" stroke="white"></path></svg>