<svg xmlns="http://www.w3.org/2000/svg" width="45" height="45" viewBox="0 0 45 45" fill="none"><mask id="path-1-inside-1_2158_676" fill="white"><path fill-rule="evenodd" clip-rule="evenodd" d="M23.6204 37.3846H20.9168V38.7882H23.6204V37.3846ZM19.4493 34.673H19.4573H25.0772H25.0878H25.8827V33.2693H25.181H24.1602H24.1522H22.2036H22.1956H22.1878H20.3825H20.3747H19.3538H18.6519V34.673H19.4493ZM23.8252 18.1056V18.0392L22.2674 13.8893L20.7095 18.0392V18.1056H23.8252V18.1056ZM22.5224 32.6153H23.8252V18.7596H22.5224V32.6153ZM20.7095 32.6153H21.8685V18.7596H20.7095V32.6153ZM20.5899 36.7305H23.9475H23.9554H24.7528V35.3269H19.7844V36.7305H20.5819H20.5899ZM35.5249 40.4711C35.7057 40.4711 35.8519 40.6172 35.8519 40.798C35.8519 40.9761 35.7057 41.125 35.5249 41.125H31.3485C31.1677 41.125 31.0215 40.9762 31.0215 40.798C31.0215 40.6172 31.1677 40.4711 31.3485 40.4711H35.5249ZM31.1333 42.0608C31.314 42.0608 31.4602 42.207 31.4602 42.3878C31.4602 42.5686 31.314 42.7148 31.1333 42.7148H21.6666C21.4858 42.7148 21.3396 42.5686 21.3396 42.3878C21.3396 42.207 21.4859 42.0608 21.6666 42.0608H31.1333ZM9.69287 42.7147C9.51489 42.7147 9.36592 42.5685 9.36592 42.3877C9.36592 42.2069 9.51489 42.0607 9.69287 42.0607H13.8719C14.0529 42.0607 14.199 42.2069 14.199 42.3877C14.199 42.5685 14.0528 42.7147 13.8719 42.7147H9.69287ZM17.5565 42.7147C17.3757 42.7147 17.2296 42.5685 17.2296 42.3877C17.2296 42.2069 17.3757 42.0607 17.5565 42.0607H19.4626C19.6408 42.0607 19.7897 42.2069 19.7897 42.3877C19.7897 42.5685 19.6408 42.7147 19.4626 42.7147H17.5565ZM29.6392 4.72841C29.7296 4.57152 29.9289 4.51835 30.0831 4.60879C30.24 4.69651 30.2933 4.89593 30.2055 5.05273L28.6874 7.67925C28.5997 7.83341 28.4002 7.88658 28.2434 7.79887C28.0892 7.70843 28.0362 7.50909 28.1237 7.35485L29.6392 4.72841ZM35.3627 10.2127C35.5196 10.1223 35.719 10.1755 35.8068 10.3322C35.8971 10.4865 35.8439 10.6858 35.6871 10.7763L33.0606 12.2916C32.9065 12.3818 32.707 12.3288 32.6166 12.172C32.5288 12.0178 32.582 11.8185 32.7363 11.728L35.3627 10.2127ZM37.5772 17.8212C37.7554 17.8212 37.9043 17.9674 37.9043 18.1482C37.9043 18.329 37.7555 18.4752 37.5772 18.4752H34.5439C34.3631 18.4752 34.2169 18.329 34.2169 18.1482C34.2169 17.9674 34.3631 17.8212 34.5439 17.8212H37.5772ZM14.7945 5.05264C14.7041 4.89584 14.7571 4.69642 14.914 4.6087C15.0683 4.51835 15.2677 4.57144 15.358 4.72832L16.8733 7.35485C16.9636 7.50909 16.9106 7.70834 16.7537 7.79887C16.5995 7.88658 16.4001 7.83341 16.3097 7.67925L14.7945 5.05264ZM9.31011 10.7763C9.15586 10.6859 9.10022 10.4865 9.19058 10.3322C9.2782 10.1755 9.47763 10.1223 9.63442 10.2127L12.261 11.728C12.4151 11.8184 12.4709 12.0178 12.3806 12.172C12.2902 12.3288 12.0908 12.3819 11.9367 12.2916L9.31011 10.7763ZM7.42002 18.4751C7.24195 18.4751 7.0957 18.329 7.0957 18.1481C7.0957 17.9673 7.24195 17.8211 7.42002 17.8211H10.4532C10.634 17.8211 10.7802 17.9673 10.7802 18.1481C10.7802 18.329 10.6339 18.4751 10.4532 18.4751H7.42002ZM21.9589 2.60699C21.9615 2.42611 22.1105 2.28268 22.2887 2.28531C22.4694 2.28795 22.613 2.43411 22.6102 2.6149L22.5757 5.19889C22.5731 5.37695 22.4269 5.52057 22.2461 5.52057C22.068 5.51784 21.9218 5.36896 21.9243 5.19089L21.9589 2.60699ZM36.3438 26.0889H34.9267V27.341H27.741C28.1557 25.5227 28.9507 24.5682 29.7296 23.6325C30.7211 22.4442 31.6861 21.2851 31.6861 18.1269C31.6861 15.5269 30.6307 13.1715 28.9267 11.4674C27.2227 9.76331 24.8673 8.71065 22.2674 8.71065C19.6675 8.71065 17.3119 9.7634 15.6079 11.4674C13.9038 13.1715 12.8511 15.5269 12.8511 18.1269C12.8511 21.2877 13.8161 22.4442 14.8051 23.6325C15.5839 24.5682 16.3789 25.5227 16.7962 27.341H9.61052V26.0889H8.19363V29.2497H9.61052V27.9951H16.9213C17.0276 28.665 17.0887 29.4386 17.0887 30.3504C17.0887 30.9725 17.3439 31.5387 17.7534 31.9508C18.1574 32.3549 18.713 32.6074 19.3245 32.6154H19.3537H20.0554V18.4486V18.4326V18.4166V17.9832C20.0554 17.9327 20.0687 17.8849 20.09 17.8396L21.9615 12.8498C22.0254 12.6823 22.2116 12.5973 22.3816 12.6583C22.4746 12.693 22.5411 12.7673 22.5731 12.8524L24.4552 17.8715C24.4684 17.9088 24.4764 17.9459 24.4764 17.9832V18.4006L24.4791 18.4325L24.4764 18.4643L24.4791 32.6151H25.1809H25.21C25.8216 32.6071 26.3771 32.3546 26.7814 31.9505C27.1933 31.5385 27.446 30.9722 27.446 30.3501C27.446 29.4383 27.507 28.6647 27.6134 27.9948H34.9266V29.2495H36.3437V26.0889H36.3438ZM14.0874 41.1249C13.9064 41.1249 13.7603 40.9761 13.7603 40.7979C13.7603 40.6171 13.9064 40.471 14.0874 40.471H28.7779C28.9587 40.471 29.1048 40.6171 29.1048 40.7979C29.1048 40.976 28.9587 41.1249 28.7779 41.1249H14.0874Z"></path></mask><path fill-rule="evenodd" clip-rule="evenodd" d="M23.6204 37.3846H20.9168V38.7882H23.6204V37.3846ZM19.4493 34.673H19.4573H25.0772H25.0878H25.8827V33.2693H25.181H24.1602H24.1522H22.2036H22.1956H22.1878H20.3825H20.3747H19.3538H18.6519V34.673H19.4493ZM23.8252 18.1056V18.0392L22.2674 13.8893L20.7095 18.0392V18.1056H23.8252V18.1056ZM22.5224 32.6153H23.8252V18.7596H22.5224V32.6153ZM20.7095 32.6153H21.8685V18.7596H20.7095V32.6153ZM20.5899 36.7305H23.9475H23.9554H24.7528V35.3269H19.7844V36.7305H20.5819H20.5899ZM35.5249 40.4711C35.7057 40.4711 35.8519 40.6172 35.8519 40.798C35.8519 40.9761 35.7057 41.125 35.5249 41.125H31.3485C31.1677 41.125 31.0215 40.9762 31.0215 40.798C31.0215 40.6172 31.1677 40.4711 31.3485 40.4711H35.5249ZM31.1333 42.0608C31.314 42.0608 31.4602 42.207 31.4602 42.3878C31.4602 42.5686 31.314 42.7148 31.1333 42.7148H21.6666C21.4858 42.7148 21.3396 42.5686 21.3396 42.3878C21.3396 42.207 21.4859 42.0608 21.6666 42.0608H31.1333ZM9.69287 42.7147C9.51489 42.7147 9.36592 42.5685 9.36592 42.3877C9.36592 42.2069 9.51489 42.0607 9.69287 42.0607H13.8719C14.0529 42.0607 14.199 42.2069 14.199 42.3877C14.199 42.5685 14.0528 42.7147 13.8719 42.7147H9.69287ZM17.5565 42.7147C17.3757 42.7147 17.2296 42.5685 17.2296 42.3877C17.2296 42.2069 17.3757 42.0607 17.5565 42.0607H19.4626C19.6408 42.0607 19.7897 42.2069 19.7897 42.3877C19.7897 42.5685 19.6408 42.7147 19.4626 42.7147H17.5565ZM29.6392 4.72841C29.7296 4.57152 29.9289 4.51835 30.0831 4.60879C30.24 4.69651 30.2933 4.89593 30.2055 5.05273L28.6874 7.67925C28.5997 7.83341 28.4002 7.88658 28.2434 7.79887C28.0892 7.70843 28.0362 7.50909 28.1237 7.35485L29.6392 4.72841ZM35.3627 10.2127C35.5196 10.1223 35.719 10.1755 35.8068 10.3322C35.8971 10.4865 35.8439 10.6858 35.6871 10.7763L33.0606 12.2916C32.9065 12.3818 32.707 12.3288 32.6166 12.172C32.5288 12.0178 32.582 11.8185 32.7363 11.728L35.3627 10.2127ZM37.5772 17.8212C37.7554 17.8212 37.9043 17.9674 37.9043 18.1482C37.9043 18.329 37.7555 18.4752 37.5772 18.4752H34.5439C34.3631 18.4752 34.2169 18.329 34.2169 18.1482C34.2169 17.9674 34.3631 17.8212 34.5439 17.8212H37.5772ZM14.7945 5.05264C14.7041 4.89584 14.7571 4.69642 14.914 4.6087C15.0683 4.51835 15.2677 4.57144 15.358 4.72832L16.8733 7.35485C16.9636 7.50909 16.9106 7.70834 16.7537 7.79887C16.5995 7.88658 16.4001 7.83341 16.3097 7.67925L14.7945 5.05264ZM9.31011 10.7763C9.15586 10.6859 9.10022 10.4865 9.19058 10.3322C9.2782 10.1755 9.47763 10.1223 9.63442 10.2127L12.261 11.728C12.4151 11.8184 12.4709 12.0178 12.3806 12.172C12.2902 12.3288 12.0908 12.3819 11.9367 12.2916L9.31011 10.7763ZM7.42002 18.4751C7.24195 18.4751 7.0957 18.329 7.0957 18.1481C7.0957 17.9673 7.24195 17.8211 7.42002 17.8211H10.4532C10.634 17.8211 10.7802 17.9673 10.7802 18.1481C10.7802 18.329 10.6339 18.4751 10.4532 18.4751H7.42002ZM21.9589 2.60699C21.9615 2.42611 22.1105 2.28268 22.2887 2.28531C22.4694 2.28795 22.613 2.43411 22.6102 2.6149L22.5757 5.19889C22.5731 5.37695 22.4269 5.52057 22.2461 5.52057C22.068 5.51784 21.9218 5.36896 21.9243 5.19089L21.9589 2.60699ZM36.3438 26.0889H34.9267V27.341H27.741C28.1557 25.5227 28.9507 24.5682 29.7296 23.6325C30.7211 22.4442 31.6861 21.2851 31.6861 18.1269C31.6861 15.5269 30.6307 13.1715 28.9267 11.4674C27.2227 9.76331 24.8673 8.71065 22.2674 8.71065C19.6675 8.71065 17.3119 9.7634 15.6079 11.4674C13.9038 13.1715 12.8511 15.5269 12.8511 18.1269C12.8511 21.2877 13.8161 22.4442 14.8051 23.6325C15.5839 24.5682 16.3789 25.5227 16.7962 27.341H9.61052V26.0889H8.19363V29.2497H9.61052V27.9951H16.9213C17.0276 28.665 17.0887 29.4386 17.0887 30.3504C17.0887 30.9725 17.3439 31.5387 17.7534 31.9508C18.1574 32.3549 18.713 32.6074 19.3245 32.6154H19.3537H20.0554V18.4486V18.4326V18.4166V17.9832C20.0554 17.9327 20.0687 17.8849 20.09 17.8396L21.9615 12.8498C22.0254 12.6823 22.2116 12.5973 22.3816 12.6583C22.4746 12.693 22.5411 12.7673 22.5731 12.8524L24.4552 17.8715C24.4684 17.9088 24.4764 17.9459 24.4764 17.9832V18.4006L24.4791 18.4325L24.4764 18.4643L24.4791 32.6151H25.1809H25.21C25.8216 32.6071 26.3771 32.3546 26.7814 31.9505C27.1933 31.5385 27.446 30.9722 27.446 30.3501C27.446 29.4383 27.507 28.6647 27.6134 27.9948H34.9266V29.2495H36.3437V26.0889H36.3438ZM14.0874 41.1249C13.9064 41.1249 13.7603 40.9761 13.7603 40.7979C13.7603 40.6171 13.9064 40.471 14.0874 40.471H28.7779C28.9587 40.471 29.1048 40.6171 29.1048 40.7979C29.1048 40.976 28.9587 41.1249 28.7779 41.1249H14.0874Z" stroke="black" stroke-width="2" mask="url(#path-1-inside-1_2158_676)"></path></svg>