<svg xmlns="http://www.w3.org/2000/svg" width="70" height="70" viewBox="0 0 70 70" fill="none"><path d="M35 65.3603C51.7675 65.3603 65.3603 51.7675 65.3603 35C65.3603 18.2324 51.7675 4.63965 35 4.63965C18.2324 4.63965 4.63965 18.2324 4.63965 35C4.63965 51.7675 18.2324 65.3603 35 65.3603Z" fill="#F9BF44"></path><path d="M34.9997 49.3992C32.4085 49.4102 29.8667 48.6894 27.6671 47.3197C25.4674 45.9499 23.6992 43.9869 22.566 41.6565C22.502 41.5275 22.4642 41.3872 22.4546 41.2435C22.445 41.0999 22.4638 40.9558 22.5101 40.8194C22.5563 40.6831 22.629 40.5572 22.724 40.4491C22.8189 40.3409 22.9343 40.2525 23.0636 40.189C23.1928 40.1255 23.3332 40.0882 23.4769 40.0791C23.6206 40.07 23.7646 40.0894 23.9008 40.1361C24.037 40.1828 24.1626 40.2559 24.2704 40.3513C24.3783 40.4467 24.4662 40.5624 24.5293 40.6918C25.491 42.6484 26.9817 44.2963 28.8324 45.4488C30.683 46.6012 32.8196 47.2121 34.9997 47.2121C37.1799 47.2121 39.3164 46.6012 41.1671 45.4488C43.0177 44.2963 44.5085 42.6484 45.4702 40.6918C45.5332 40.5624 45.6212 40.4467 45.729 40.3513C45.8369 40.2559 45.9625 40.1828 46.0987 40.1361C46.2348 40.0894 46.3789 40.07 46.5226 40.0791C46.6662 40.0882 46.8067 40.1255 46.9359 40.189C47.0651 40.2525 47.1805 40.3409 47.2755 40.4491C47.3705 40.5572 47.4432 40.6831 47.4894 40.8194C47.5356 40.9558 47.5545 41.0999 47.5449 41.2435C47.5353 41.3872 47.4974 41.5275 47.4335 41.6565C46.3003 43.9869 44.5321 45.9499 42.3324 47.3197C40.1327 48.6894 37.591 49.4102 34.9997 49.3992V49.3992Z" fill="#382A12"></path><path d="M22.9717 35.6727C24.4818 35.6727 25.7061 34.2673 25.7061 32.5336C25.7061 30.7999 24.4818 29.3945 22.9717 29.3945C21.4615 29.3945 20.2373 30.7999 20.2373 32.5336C20.2373 34.2673 21.4615 35.6727 22.9717 35.6727Z" fill="#382A12"></path><path d="M47.0273 35.6727C48.5375 35.6727 49.7617 34.2673 49.7617 32.5336C49.7617 30.7999 48.5375 29.3945 47.0273 29.3945C45.5172 29.3945 44.293 30.7999 44.293 32.5336C44.293 34.2673 45.5172 35.6727 47.0273 35.6727Z" fill="#382A12"></path></svg>