<svg xmlns="http://www.w3.org/2000/svg" width="38" height="38" viewBox="0 0 38 38" fill="none"><path d="M34.1872 3.16675H18.9999H3.81253C3.4642 3.16675 3.1792 3.45175 3.1792 3.80008V19.9627V23.2814V34.1874C3.1792 34.5294 3.45153 34.8081 3.79353 34.8208C4.10387 34.8271 4.40787 34.8334 4.70553 34.8334C10.0699 34.8334 12.4005 33.2121 12.5019 33.1361C12.6475 33.0284 12.7425 32.8638 12.7615 32.6864C12.7805 32.5091 12.7172 32.3254 12.5969 32.1924C10.1269 29.5008 9.2592 26.9484 8.96787 25.2764C8.90453 24.9344 8.58153 24.7001 8.2332 24.7634C7.8912 24.8267 7.65687 25.1497 7.7202 25.4981C8.01787 27.2081 8.8602 29.7478 11.1275 32.4394C10.1459 32.8828 8.01787 33.5921 4.44587 33.5667V23.9147H6.74487C8.01153 23.9147 9.03753 22.8888 9.03753 21.6221C9.03753 21.2294 8.92987 20.8621 8.75253 20.5391C15.3455 17.9171 17.9739 11.4824 18.9999 7.41008C20.0259 11.4824 22.6542 17.9234 29.2409 20.5391C29.0635 20.8621 28.9559 21.2294 28.9559 21.6221C28.9559 22.8888 29.9882 23.9147 31.2485 23.9147H33.5475V33.5667C29.9819 33.5984 27.8475 32.8828 26.8659 32.4394C28.6519 30.3178 29.8172 27.9744 30.2542 25.6057C30.3175 25.2638 30.0895 24.9344 29.7475 24.8647C29.4055 24.8014 29.0762 25.0294 29.0065 25.3714C28.5632 27.7654 27.3472 30.0581 25.3965 32.1861C25.2762 32.3191 25.2129 32.4964 25.2319 32.6801C25.2509 32.8574 25.3459 33.0221 25.4915 33.1298C25.5992 33.2121 27.9299 34.8334 33.2942 34.8334C33.5855 34.8334 33.8959 34.8271 34.2062 34.8208C34.5482 34.8081 34.8205 34.5294 34.8205 34.1874V23.2814V19.9627V3.80008C34.8205 3.45175 34.5355 3.16675 34.1872 3.16675ZM33.5539 19.3294H32.8509C30.1149 15.2317 29.7855 6.78942 29.7475 4.43341H33.5539V19.3294ZM31.3055 19.3294C25.4029 15.2507 24.7569 6.77675 24.6935 4.43341H28.4745C28.4999 6.75775 28.7912 14.7187 31.3625 19.3294H31.3055ZM6.6942 19.3294H6.6372C9.20853 14.7187 9.49353 6.75775 9.5252 4.43341H13.3062C13.2429 6.77675 12.5969 15.2507 6.6942 19.3294ZM8.2522 4.43341C8.2142 6.78942 7.88487 15.2254 5.14887 19.3294H4.44587V4.43341H8.2522ZM6.74487 22.6481H4.44587V20.5961H6.74487C7.30853 20.5961 7.77087 21.0584 7.77087 21.6221C7.77087 22.1857 7.31487 22.6481 6.74487 22.6481ZM9.0692 19.0254C14.0092 14.2944 14.5349 6.71342 14.5729 4.43975H18.2905C17.9675 6.92242 16.3082 15.6054 9.0692 19.0254ZM19.7092 4.43341H23.4269C23.4712 6.71341 23.9969 14.2944 28.9369 19.0191C21.6915 15.6054 20.0385 6.92242 19.7092 4.43341ZM31.2549 22.6481C30.6912 22.6481 30.2289 22.1857 30.2289 21.6221C30.2289 21.0584 30.6912 20.5961 31.2549 20.5961H33.5539V22.6481H31.2549Z" fill="white"></path></svg>