<svg xmlns="http://www.w3.org/2000/svg" width="34" height="34" viewBox="0 0 34 34" fill="none"><path d="M32.5833 0L17 2.83333L1.41667 0C0.566667 0 0 0.566667 0 1.41667V29.75C0 30.6 0.566667 31.1667 1.41667 31.1667L17 34L32.5833 31.1667C33.4333 31.1667 34 30.6 34 29.75V1.41667C34 0.566667 33.4333 0 32.5833 0ZM15.5833 30.8833L2.83333 28.3333V25.5L15.5833 28.3333V30.8833ZM15.5833 26.9167L2.83333 24.0833V2.83333L15.5833 5.38333V26.9167ZM31.1667 28.3333L18.4167 30.8833V28.3333L31.1667 25.5V28.3333ZM31.1667 24.0833L18.4167 26.9167V5.38333L31.1667 2.83333V24.0833Z" fill="white"></path><path d="M28.3333 19.8333L21.25 21.2499V22.6666L28.3333 21.2499V19.8333Z" fill="white"></path><path d="M28.3333 15.5833L21.25 16.9999V18.4166L28.3333 16.9999V15.5833Z" fill="white"></path><path d="M28.3333 11.3333L21.25 12.7499V14.1666L28.3333 12.7499V11.3333Z" fill="white"></path><path d="M28.3333 7.08325L21.25 8.49992V9.91659L28.3333 8.49992V7.08325Z" fill="white"></path><path d="M12.7498 21.2499L5.6665 19.8333V21.2499L12.7498 22.6666V21.2499Z" fill="white"></path><path d="M12.7498 16.9999L5.6665 15.5833V16.9999L12.7498 18.4166V16.9999Z" fill="white"></path><path d="M12.7498 12.7499L5.6665 11.3333V12.7499L12.7498 14.1666V12.7499Z" fill="white"></path><path d="M12.7498 8.49992L5.6665 7.08325V8.49992L12.7498 9.91659V8.49992Z" fill="white"></path></svg>