<svg xmlns="http://www.w3.org/2000/svg" width="34" height="34" viewBox="0 0 34 34" fill="none"><path d="M8.5 5.48781C7.32594 5.37625 6.0775 5.3125 4.78125 5.3125V27.625C11.5281 27.625 17 29.2878 17 31.3438" stroke="#0A1C28" stroke-width="1.2" stroke-linejoin="round"></path><path d="M4.78125 8.5H1.59375V31.3438H17V9.03125C17 5.50906 13.1963 2.65625 8.5 2.65625V24.9688C13.1963 24.9688 17 27.8216 17 31.3438" stroke="#0A1C28" stroke-width="1.2" stroke-linejoin="round"></path><path d="M32.4062 8.5H17V31.3438H32.4062V8.5Z" stroke="#0A1C28" stroke-width="1.2" stroke-linejoin="round"></path><path d="M26.5625 31.3438L32.4062 25.5H27.0938C26.812 25.5 26.5417 25.6119 26.3424 25.8112C26.1432 26.0105 26.0312 26.2807 26.0312 26.5625V30.2812C26.0312 30.563 25.9193 30.8333 25.7201 31.0326C25.5208 31.2318 25.2505 31.3438 24.9688 31.3438" stroke="#0A1C28" stroke-width="1.2" stroke-linejoin="round"></path></svg>