<svg xmlns="http://www.w3.org/2000/svg" width="55" height="55" viewBox="0 0 55 55" fill="none"><g clip-path="url(#clip0_2508_699)"><path fill-rule="evenodd" clip-rule="evenodd" d="M29.1661 1.08516L36.2248 16.0715C36.4842 16.6376 37.0089 17.037 37.6236 17.1364L53.4073 19.5396C54.1208 19.6779 54.7005 20.1975 54.9157 20.8917C55.131 21.5859 54.947 22.3423 54.437 22.8601L43.0158 34.5253C42.5748 34.9826 42.3766 35.6218 42.4815 36.2483L45.1776 52.7199C45.3247 53.428 45.052 54.1576 44.4766 54.5957C43.9012 55.0337 43.1253 55.1023 42.4819 54.7721L28.3646 46.9953C27.8268 46.6971 27.1733 46.6971 26.6355 46.9953L12.5181 54.7721C11.8748 55.1023 11.0989 55.0337 10.5235 54.5957C9.94804 54.1576 9.67537 53.428 9.82246 52.7199L12.5186 36.2483C12.6235 35.6218 12.4253 34.9826 11.9843 34.5253L0.563131 22.8601C0.0530822 22.3423 -0.130873 21.586 0.0843968 20.8917C0.299666 20.1975 0.879274 19.678 1.5928 19.5396L17.3765 17.1364C17.9912 17.037 18.5159 16.6376 18.7753 16.0715L25.834 1.08516C26.1256 0.425517 26.7788 0 27.5 0C28.2212 0 28.8745 0.425517 29.1661 1.08516Z" fill="#5CA4DA"></path><path fill-rule="evenodd" clip-rule="evenodd" d="M34.5079 12.4319C29.9553 14.8661 25.7514 17.9026 22.0096 21.4595C18.0216 25.2773 14.6385 29.6804 11.9768 34.5172L0.55969 22.8629C0.0496642 22.3448 -0.133796 21.588 0.0823496 20.8939C0.298495 20.1997 0.879156 19.6809 1.59316 19.5439L17.3726 17.1353C17.9865 17.0334 18.5111 16.6363 18.7761 16.0733L25.8312 1.08102C26.1259 0.423296 26.7794 0 27.5001 0C28.2209 0 28.8744 0.423296 29.1691 1.08102L34.5079 12.4319Z" fill="#6DAFE0"></path></g><defs><clipPath id="clip0_2508_699"><rect width="55" height="55" fill="white"></rect></clipPath></defs></svg>