<svg xmlns="http://www.w3.org/2000/svg" width="39" height="39" viewBox="0 0 39 39" fill="none"><path d="M36.0135 5.87439H2.98688C2.87031 5.87439 2.75852 5.9207 2.67609 6.00312C2.59367 6.08554 2.54736 6.19734 2.54736 6.3139V32.6861C2.54736 32.8027 2.59367 32.9145 2.67609 32.9969C2.75852 33.0793 2.87031 33.1256 2.98688 33.1256H17.2204C17.3369 33.1256 17.4487 33.0793 17.5311 32.9969C17.6136 32.9145 17.6599 32.8027 17.6599 32.6861C17.6599 32.5696 17.6136 32.4578 17.5311 32.3753C17.4487 32.2929 17.3369 32.2466 17.2204 32.2466H3.42791V6.75341H35.5724V32.6861C35.57 32.7453 35.5795 32.8044 35.6005 32.8598C35.6214 32.9153 35.6534 32.9659 35.6944 33.0087C35.7354 33.0514 35.7847 33.0855 35.8392 33.1087C35.8937 33.1319 35.9523 33.1439 36.0116 33.1439C36.0708 33.1439 36.1295 33.1319 36.184 33.1087C36.2385 33.0855 36.2877 33.0514 36.3288 33.0087C36.3698 32.9659 36.4017 32.9153 36.4227 32.8598C36.4436 32.8044 36.4532 32.7453 36.4507 32.6861V6.3139C36.4507 6.19773 36.4047 6.08628 36.3228 6.00392C36.2409 5.92157 36.1296 5.87499 36.0135 5.87439V5.87439Z" fill="black"></path><path d="M33.2964 8.79559H5.70389C5.64621 8.79559 5.58909 8.80697 5.53581 8.82906C5.48253 8.85116 5.43413 8.88355 5.39337 8.92437C5.35262 8.96519 5.32032 9.01365 5.29832 9.06697C5.27631 9.12029 5.26504 9.17742 5.26514 9.2351V29.7657C5.26514 29.8821 5.31134 29.9938 5.3936 30.0762C5.47586 30.1586 5.58745 30.205 5.70389 30.2052H17.282C17.3986 30.2052 17.5104 30.1589 17.5928 30.0765C17.6752 29.9941 17.7215 29.8823 17.7215 29.7657C17.7215 29.6491 17.6752 29.5374 17.5928 29.4549C17.5104 29.3725 17.3986 29.3262 17.282 29.3262H6.1434V9.67385H32.8569V29.7657C32.8544 29.8249 32.8639 29.884 32.8849 29.9394C32.9059 29.9949 32.9378 30.0455 32.9788 30.0882C33.0198 30.131 33.0691 30.165 33.1236 30.1883C33.1781 30.2115 33.2367 30.2235 33.296 30.2235C33.3553 30.2235 33.4139 30.2115 33.4684 30.1883C33.5229 30.165 33.5722 30.131 33.6132 30.0882C33.6542 30.0455 33.6862 29.9949 33.7071 29.9394C33.7281 29.884 33.7376 29.8249 33.7351 29.7657V9.2351C33.7352 9.17742 33.724 9.12029 33.702 9.06697C33.68 9.01365 33.6477 8.96519 33.6069 8.92437C33.5661 8.88355 33.5177 8.85116 33.4645 8.82906C33.4112 8.80697 33.3541 8.79559 33.2964 8.79559V8.79559Z" fill="black"></path><path d="M29.2003 25.996C29.5847 25.7058 29.8968 25.3307 30.1122 24.8999C30.3275 24.4691 30.4404 23.9944 30.4419 23.5128V22.5126C30.4408 21.6815 30.1103 20.8848 29.5227 20.2971C28.9351 19.7093 28.1385 19.3786 27.3074 19.3774H27.0911C26.2598 19.3784 25.4628 19.709 24.875 20.2967C24.2871 20.8845 23.9563 21.6813 23.9551 22.5126V23.5128C23.9556 23.9351 24.0419 24.3529 24.2085 24.741C24.3752 25.1291 24.6188 25.4793 24.9247 25.7705H24.7808C23.8696 25.7669 22.997 25.4028 22.3534 24.7578C21.7099 24.1129 21.3478 23.2394 21.3462 22.3283C21.3462 21.7459 21.1148 21.1873 20.703 20.7754C20.2911 20.3636 19.7326 20.1322 19.1501 20.1322C18.5677 20.1322 18.0091 20.3636 17.5973 20.7754C17.1855 21.1873 16.9541 21.7459 16.9541 22.3283C16.9548 24.008 17.4958 25.6429 18.4971 26.9915C19.4984 28.3401 20.907 29.3309 22.5146 29.8175V32.6861C22.5122 32.7453 22.5217 32.8044 22.5427 32.8599C22.5636 32.9153 22.5956 32.9659 22.6366 33.0087C22.6776 33.0514 22.7269 33.0855 22.7814 33.1087C22.8359 33.132 22.8945 33.1439 22.9538 33.1439C23.013 33.1439 23.0717 33.132 23.1262 33.1087C23.1807 33.0855 23.2299 33.0514 23.271 33.0087C23.312 32.9659 23.3439 32.9153 23.3649 32.8599C23.3858 32.8044 23.3954 32.7453 23.3929 32.6861V29.4869C23.3931 29.3895 23.3609 29.2947 23.3013 29.2176C23.2417 29.1405 23.1582 29.0855 23.0638 29.0611C21.5685 28.6792 20.2429 27.8104 19.2959 26.5917C18.349 25.3731 17.8346 23.8739 17.8339 22.3306C17.8297 22.1549 17.8606 21.9802 17.9249 21.8166C17.9892 21.6531 18.0856 21.5041 18.2083 21.3783C18.3311 21.2526 18.4777 21.1527 18.6397 21.0845C18.8016 21.0163 18.9756 20.9811 19.1513 20.9811C19.327 20.9811 19.5009 21.0163 19.6629 21.0845C19.8248 21.1527 19.9715 21.2526 20.0942 21.3783C20.217 21.5041 20.3133 21.6531 20.3776 21.8166C20.4419 21.9802 20.4729 22.1549 20.4687 22.3306C20.4707 23.4744 20.9254 24.5709 21.7334 25.3804C22.5414 26.19 23.637 26.6468 24.7808 26.651H27.9419C28.7533 26.6532 29.5307 26.9767 30.1041 27.5508C30.6776 28.1248 31.0003 28.9025 31.0017 29.7139V32.6846C30.9992 32.7438 31.0088 32.8029 31.0297 32.8583C31.0507 32.9138 31.0826 32.9644 31.1237 33.0071C31.1647 33.0499 31.2139 33.0839 31.2684 33.1072C31.3229 33.1304 31.3816 33.1424 31.4408 33.1424C31.5001 33.1424 31.5587 33.1304 31.6133 33.1072C31.6678 33.0839 31.717 33.0499 31.758 33.0071C31.799 32.9644 31.831 32.9138 31.852 32.8583C31.8729 32.8029 31.8824 32.7438 31.88 32.6846V29.7139C31.8776 28.8919 31.6178 28.0914 31.1372 27.4246C30.6566 26.7577 29.9793 26.2582 29.2003 25.996V25.996ZM27.0911 25.7674C26.4928 25.767 25.919 25.5295 25.4956 25.1069C25.0721 24.6843 24.8334 24.111 24.8318 23.5128V22.5126C24.8328 21.9142 25.071 21.3406 25.4942 20.9175C25.9174 20.4945 26.4911 20.2564 27.0895 20.2556H27.3059C27.9041 20.2564 28.4776 20.4945 28.9006 20.9176C29.3236 21.3407 29.5615 21.9143 29.5621 22.5126V23.5128C29.5619 24.1112 29.3241 24.6851 28.9011 25.1084C28.4781 25.5318 27.9043 25.7699 27.3059 25.7705L27.0911 25.7674Z" fill="black"></path><path d="M9.90896 18.2934C9.96665 18.2935 10.0238 18.2822 10.0771 18.2602C10.1304 18.2382 10.1789 18.2059 10.2197 18.1652C10.2605 18.1244 10.2929 18.076 10.315 18.0227C10.3371 17.9695 10.3485 17.9123 10.3485 17.8547V11.3549C10.3485 11.2679 10.3226 11.1828 10.2743 11.1105C10.2259 11.0382 10.1571 10.9819 10.0767 10.9487C9.99622 10.9155 9.90774 10.9069 9.82243 10.924C9.73711 10.9411 9.6588 10.9832 9.59742 11.0449L8.58967 12.0527C8.54882 12.0935 8.51643 12.142 8.49434 12.1954C8.47225 12.2487 8.4609 12.3059 8.46094 12.3637C8.46097 12.4215 8.47239 12.4787 8.49455 12.532C8.5167 12.5853 8.54915 12.6338 8.59005 12.6746C8.63094 12.7154 8.67948 12.7477 8.73288 12.7697C8.78628 12.7918 8.84349 12.8031 8.90126 12.8029C8.95902 12.8028 9.01619 12.7913 9.06951 12.7691C9.12283 12.7469 9.17125 12.7144 9.21199 12.6735L9.46945 12.416V17.8547C9.46945 17.9123 9.48083 17.9695 9.50292 18.0227C9.52502 18.076 9.55741 18.1244 9.59823 18.1652C9.63905 18.2059 9.68751 18.2382 9.74083 18.2602C9.79415 18.2822 9.85128 18.2935 9.90896 18.2934V18.2934Z" fill="black"></path><path d="M18.6109 17.5195C18.5569 17.5835 18.5223 17.6616 18.5112 17.7445C18.5001 17.8275 18.5129 17.9119 18.5481 17.9878C18.5833 18.0637 18.6394 18.128 18.7099 18.1731C18.7804 18.2182 18.8623 18.2423 18.946 18.2424H22.4431C22.5023 18.2449 22.5614 18.2353 22.6168 18.2144C22.6722 18.1934 22.7228 18.1615 22.7656 18.1205C22.8084 18.0794 22.8424 18.0302 22.8656 17.9757C22.8889 17.9212 22.9009 17.8625 22.9009 17.8033C22.9009 17.744 22.8889 17.6854 22.8656 17.6309C22.8424 17.5764 22.8084 17.5271 22.7656 17.4861C22.7228 17.4451 22.6722 17.4131 22.6168 17.3922C22.5614 17.3712 22.5023 17.3617 22.4431 17.3642H19.8936L21.9731 14.9129C22.5602 14.2205 22.8825 13.3422 22.8826 12.4343C22.8826 11.4852 22.229 10.9193 21.136 10.9193H20.4359C20.0063 10.9205 19.5947 11.0916 19.2908 11.3953C18.987 11.699 18.8156 12.1106 18.8142 12.5402V12.9378C18.819 13.0511 18.8673 13.1582 18.9491 13.2367C19.031 13.3152 19.14 13.359 19.2534 13.359C19.3668 13.359 19.4758 13.3152 19.5576 13.2367C19.6395 13.1582 19.6878 13.0511 19.6925 12.9378V12.5402C19.6925 12.3423 19.771 12.1526 19.9109 12.0126C20.0507 11.8726 20.2404 11.7939 20.4382 11.7937H21.1382C22.0066 11.7937 22.0066 12.2241 22.0066 12.4305C22.0062 13.1303 21.7576 13.8072 21.3051 14.3409L18.6109 17.5195Z" fill="black"></path><path d="M14.705 17.2354C14.8216 17.2352 14.9332 17.1888 15.0156 17.1065C15.098 17.0241 15.1444 16.9124 15.1446 16.7959V15.0165H16.9224C17.039 15.0165 17.1508 14.9702 17.2332 14.8878C17.3156 14.8054 17.3619 14.6936 17.3619 14.577C17.3619 14.4604 17.3156 14.3487 17.2332 14.2662C17.1508 14.1838 17.039 14.1375 16.9224 14.1375H15.1446V12.3589C15.1446 12.2423 15.0983 12.1305 15.0158 12.0481C14.9334 11.9657 14.8216 11.9194 14.705 11.9194C14.5885 11.9194 14.4767 11.9657 14.3943 12.0481C14.3118 12.1305 14.2655 12.2423 14.2655 12.3589V14.1383H12.4862C12.3729 14.143 12.2658 14.1913 12.1873 14.2731C12.1088 14.355 12.0649 14.464 12.0649 14.5774C12.0649 14.6908 12.1088 14.7998 12.1873 14.8816C12.2658 14.9635 12.3729 15.0118 12.4862 15.0165H14.2655V16.7959C14.2657 16.9124 14.3121 17.0241 14.3945 17.1065C14.4769 17.1888 14.5885 17.2352 14.705 17.2354V17.2354Z" fill="black"></path></svg>