<svg xmlns="http://www.w3.org/2000/svg" width="42" height="42" viewBox="0 0 42 42" fill="none"><path d="M21.6802 20.1725C21.574 20.156 21.4796 20.0958 21.4198 20.0066L21.6802 20.1725ZM21.6802 20.1725L21.6418 20.4195C21.4666 20.3923 21.3108 20.2929 21.2122 20.1459L21.2121 20.1457L18.6254 16.2836M21.6802 20.1725L21.6411 20.4194C21.6742 20.4246 21.7071 20.4271 21.7392 20.4271C21.8818 20.4271 22.0213 20.379 22.1345 20.2888L22.1343 20.2889L21.9787 20.0934L22.1345 20.2888L18.6254 16.2836M18.6254 16.2836L16.2031 18.078L16.203 18.078C16.0948 18.1581 15.9638 18.2019 15.8289 18.2025L15.829 18.2025L18.6254 16.2836ZM15.0184 18.2072L15.8288 18.2025L15.028 17.9729C15.0235 18.0512 15.0201 18.1293 15.0184 18.2072ZM15.0184 18.2072C15.0175 18.2451 15.0171 18.283 15.0171 18.3208L15.0184 18.2072ZM25.6571 17.4841H26.9232C26.9622 17.7581 26.9832 18.0373 26.9832 18.321C26.9832 21.6224 24.2987 24.3084 20.9999 24.3084C17.7015 24.3084 15.0173 21.6225 15.0171 18.3209L25.6571 17.4841Z" stroke="black" stroke-width="0.5"></path><path d="M25.3952 29.3256H16.6045V30.3024H25.3952V29.3256Z" fill="black"></path><path d="M18.8905 14.7529L18.8904 14.7529L18.5534 15.0691L18.4046 14.8682L18.4046 14.8682L15.6143 16.9351L15.18 16.9376C15.8056 14.3008 18.1774 12.3334 20.9996 12.3334C23.5579 12.3334 25.7475 13.9491 26.6011 16.2154H25.4352C25.2916 16.2154 25.1524 16.2641 25.0401 16.3536C25.0401 16.3536 25.0401 16.3536 25.04 16.3537L21.8828 18.8675L19.3093 15.025C19.3093 15.025 19.3092 15.025 19.3092 15.025C19.2127 14.8808 19.0613 14.7826 18.8905 14.7529Z" stroke="black" stroke-width="0.5"></path><path d="M16.8786 26.9661L16.8785 26.9661C13.5411 25.3882 11.3847 21.9933 11.3847 18.321C11.3847 13.0479 15.6966 8.75456 20.9998 8.75448C26.3032 8.75448 30.6154 13.0479 30.6154 18.321C30.6154 21.9933 28.459 25.3881 25.1215 26.9661L25.2711 27.2825L25.1215 26.9661C24.8648 27.0875 24.7009 27.3459 24.7009 27.63V28.6232H17.299V27.63C17.299 27.346 17.1352 27.0875 16.8786 26.9661ZM28.3517 18.3212C28.3517 18.0725 28.3392 17.8266 28.3149 17.5842H29.1315C29.5372 17.5842 29.8659 17.2554 29.8659 16.8498C29.8659 16.4443 29.5372 16.1154 29.1315 16.1154H28.0137C27.0753 13.134 24.2872 10.9648 20.9997 10.9648C17.4502 10.9648 14.4822 13.4942 13.7973 16.8457L12.8641 16.8509L12.8641 16.8509C12.4586 16.8533 12.1316 17.1838 12.1339 17.5895C12.1363 17.9936 12.4644 18.3196 12.8682 18.3196L12.8704 18.3197L12.8724 18.3196L13.6482 18.3152C13.6482 18.3172 13.6482 18.3192 13.6482 18.3212C13.6482 22.3775 16.9455 25.6773 20.9997 25.6773C25.0541 25.6773 28.3517 22.3775 28.3517 18.3212Z" stroke="black" stroke-width="0.7"></path><path d="M25.3952 32.2559V31.2791H16.6045V32.2559H17.7913H24.2086H25.3952Z" fill="black"></path><path d="M23.4418 33.2326H18.5581V34.2093H23.4418V33.2326Z" fill="black"></path><path d="M19.555 38.2142C11.4553 37.5498 5.01363 31.4758 3.83557 23.5815L5.22584 25.2098C5.30188 25.2989 5.40975 25.3447 5.51836 25.3447C5.60663 25.3447 5.6953 25.3144 5.76774 25.2526C5.92918 25.1147 5.94829 24.8721 5.81048 24.7107L3.61212 22.1358C3.47423 21.9745 3.23174 21.9555 3.0703 22.0931C2.96916 22.1795 2.92396 22.3069 2.93807 22.4298C2.93561 22.4532 2.93471 22.4772 2.93676 22.5016C3.28761 26.7421 5.15119 30.7398 8.18405 33.7583C11.2165 36.7764 15.2324 38.6309 19.4921 38.9805C19.5028 38.9814 19.5135 38.9817 19.524 38.9817C19.722 38.9817 19.8902 38.8296 19.9066 38.6288C19.924 38.4171 19.7665 38.2315 19.555 38.2142Z" fill="black" stroke="black" stroke-width="0.3"></path><path d="M38.712 22.0867C38.501 22.0716 38.3147 22.2266 38.2972 22.438C37.5979 30.8832 30.9312 37.518 22.4453 38.2141C22.2336 38.2314 22.0762 38.4171 22.0936 38.6286C22.1101 38.8295 22.2782 38.9815 22.4762 38.9815C22.4868 38.9815 22.4974 38.9812 22.5081 38.9803C26.7677 38.6308 30.7835 36.7762 33.8159 33.7581C36.8486 30.7397 38.7121 26.7421 39.0634 22.5015C39.0808 22.29 38.9235 22.1043 38.712 22.0867Z" fill="black" stroke="black" stroke-width="0.3"></path><path d="M3.28822 19.9136C3.29897 19.9145 3.30972 19.915 3.3203 19.915C3.51824 19.915 3.68632 19.763 3.70297 19.5623C4.40172 11.1172 11.0686 4.48249 19.5551 3.78629C19.7667 3.76899 19.9242 3.58343 19.9068 3.37179C19.8895 3.16023 19.704 3.00265 19.4923 3.02012C15.2325 3.36958 11.2165 5.22414 8.18418 8.24199C5.15124 11.2606 3.28773 15.2583 2.93688 19.499C2.91933 19.7105 3.07658 19.8961 3.28822 19.9136Z" fill="black" stroke="black" stroke-width="0.3"></path><path d="M22.4453 3.7861C30.5239 4.44883 36.9534 10.4939 38.1554 18.359L36.7744 16.7415C36.6365 16.5799 36.3939 16.561 36.2326 16.6987C36.0711 16.8365 36.0519 17.0792 36.1898 17.2405L38.388 19.8153C38.4641 19.9044 38.5719 19.9502 38.6805 19.9502C38.7687 19.9502 38.8575 19.9199 38.9299 19.8582C39.0249 19.7769 39.0692 19.6594 39.0626 19.5434C39.0631 19.5286 39.0646 19.514 39.0634 19.4989C38.7122 15.2582 36.8486 11.2605 33.8159 8.24204C30.7836 5.22411 26.7677 3.36963 22.5081 3.02009C22.2957 3.00196 22.1109 3.16028 22.0936 3.37176C22.0762 3.58324 22.2336 3.76879 22.4453 3.7861Z" fill="black" stroke="black" stroke-width="0.3"></path></svg>