<svg xmlns="http://www.w3.org/2000/svg" width="76" height="76" viewBox="0 0 76 76" fill="none">
  <path opacity="0.5" d="M11.428 64.2517C16.0045 68.8281 23.3702 68.8281 38.1016 68.8281C52.833 68.8281 60.1987 68.8281 64.7751 64.2517C69.3516 59.6752 69.3516 52.3095 69.3516 37.5781C69.3516 22.8467 69.3516 15.481 64.7751 10.9046C60.1987 6.32812 52.833 6.32812 38.1016 6.32812C23.3702 6.32812 16.0045 6.32812 11.428 10.9046C6.85156 15.481 6.85156 22.8467 6.85156 37.5781C6.85156 52.3095 6.85156 59.6752 11.428 64.2517Z" fill="#EE7F82"/>
  <path fill-rule="evenodd" clip-rule="evenodd" d="M25.6016 18.0469C26.896 18.0469 27.9453 19.0962 27.9453 20.3906L27.9453 24.2969H31.8516C33.146 24.2969 34.1953 25.3463 34.1953 26.6407C34.1953 27.9351 33.146 28.9844 31.8516 28.9844H27.9453V32.8906C27.9453 34.185 26.896 35.2344 25.6016 35.2344C24.3071 35.2344 23.2578 34.185 23.2578 32.8906L23.2578 28.9844L19.3516 28.9844C18.0571 28.9844 17.0078 27.9351 17.0078 26.6407C17.0078 25.3463 18.0571 24.2969 19.3516 24.2969H23.2578V20.3906C23.2578 19.0962 24.3071 18.0469 25.6016 18.0469ZM42.0078 26.6406C42.0078 25.3462 43.0571 24.2969 44.3516 24.2969H56.8516C58.146 24.2969 59.1953 25.3462 59.1953 26.6406C59.1953 27.935 58.146 28.9844 56.8516 28.9844H44.3516C43.0571 28.9844 42.0078 27.935 42.0078 26.6406ZM42.0078 45.3906C42.0078 44.0962 43.0571 43.0469 44.3516 43.0469H56.8516C58.146 43.0469 59.1953 44.0962 59.1953 45.3906C59.1953 46.685 58.146 47.7344 56.8516 47.7344H44.3516C43.0571 47.7344 42.0078 46.685 42.0078 45.3906ZM19.2568 43.7334C20.1721 42.8181 21.6561 42.8181 22.5713 43.7334L25.6016 46.7637L28.6318 43.7335C29.5471 42.8182 31.0311 42.8182 31.9463 43.7335C32.8616 44.6487 32.8616 46.1327 31.9463 47.048L28.9161 50.0782L31.9463 53.1084C32.8616 54.0237 32.8616 55.5077 31.9463 56.4229C31.031 57.3382 29.547 57.3382 28.6317 56.4229L25.6016 53.3928L22.5714 56.423C21.6561 57.3383 20.1721 57.3383 19.2568 56.423C18.3415 55.5077 18.3415 54.0237 19.2568 53.1084L22.287 50.0782L19.2568 47.048C18.3415 46.1327 18.3415 44.6487 19.2568 43.7334ZM42.0078 54.7656C42.0078 53.4712 43.0571 52.4219 44.3516 52.4219H56.8516C58.146 52.4219 59.1953 53.4712 59.1953 54.7656C59.1953 56.06 58.146 57.1094 56.8516 57.1094H44.3516C43.0571 57.1094 42.0078 56.06 42.0078 54.7656Z" fill="#EE7F82"/>
</svg>