<svg xmlns="http://www.w3.org/2000/svg" width="76" height="76" viewBox="0 0 76 76" fill="none">
  <path fill-rule="evenodd" clip-rule="evenodd" d="M33.1129 70.7311L33.9724 69.2789C35.35 66.9515 36.0388 65.7877 37.1361 65.1387C38.2333 64.4897 39.6645 64.4439 42.527 64.3523C45.211 64.2665 47.0149 64.0323 48.5573 63.3934C51.8047 62.0483 54.3847 59.4683 55.7298 56.2209C56.7386 53.7854 56.7386 50.6978 56.7386 44.5226V41.872C56.7386 33.1954 56.7386 28.8571 54.7857 25.6702C53.6929 23.8869 52.1936 22.3876 50.4103 21.2948C47.2233 19.3418 42.8851 19.3418 34.2085 19.3418H26.2567C17.5801 19.3418 13.2418 19.3418 10.0549 21.2948C8.27163 22.3876 6.77231 23.8869 5.67952 25.6702C3.72656 28.8571 3.72656 33.1954 3.72656 41.872V44.5226C3.72656 50.6978 3.72656 53.7854 4.73539 56.2209C6.08049 59.4683 8.66051 62.0483 11.9079 63.3934C13.4503 64.0323 15.2541 64.2665 17.9381 64.3523C20.8006 64.4439 22.2318 64.4897 23.329 65.1387C24.4262 65.7877 25.115 66.9515 26.4926 69.2789L27.3522 70.7311C28.6329 72.8948 31.8322 72.8948 33.1129 70.7311ZM41.829 45.8478C43.6588 45.8478 45.1422 44.3644 45.1422 42.5346C45.1422 40.7047 43.6588 39.2213 41.829 39.2213C39.9991 39.2213 38.5157 40.7047 38.5157 42.5346C38.5157 44.3644 39.9991 45.8478 41.829 45.8478ZM33.5458 42.5346C33.5458 44.3644 32.0624 45.8478 30.2326 45.8478C28.4027 45.8478 26.9193 44.3644 26.9193 42.5346C26.9193 40.7047 28.4027 39.2213 30.2326 39.2213C32.0624 39.2213 33.5458 40.7047 33.5458 42.5346ZM18.6362 45.8478C20.4661 45.8478 21.9495 44.3644 21.9495 42.5346C21.9495 40.7047 20.4661 39.2213 18.6362 39.2213C16.8063 39.2213 15.3229 40.7047 15.3229 42.5346C15.3229 44.3644 16.8063 45.8478 18.6362 45.8478Z" fill="#B892F9"/>
  <path opacity="0.5" d="M48.9956 3.60352C52.9546 3.60349 56.1028 3.60347 58.6277 3.84354C61.2166 4.0897 63.4056 4.60568 65.3555 5.80061C67.3617 7.03 69.0484 8.71674 70.2778 10.7229C71.4727 12.6729 71.9887 14.8618 72.2349 17.4508C72.4749 19.9756 72.4749 23.1241 72.4749 27.083V29.7869C72.4749 32.6044 72.4749 34.8456 72.3509 36.6629C72.224 38.5221 71.9592 40.1186 71.34 41.6135C69.8267 45.2668 66.9242 48.1694 63.2709 49.6826C63.1796 49.7205 63.0877 49.757 62.9955 49.7923C62.5546 49.9608 62.1766 50.1053 61.845 50.2129H56.6883C56.7389 48.6534 56.7389 46.7962 56.7389 44.5192V41.8686C56.7389 33.192 56.7389 28.8537 54.7859 25.6667C53.6931 23.8835 52.1938 22.3841 50.4105 21.2914C47.2236 19.3384 42.8853 19.3384 34.2087 19.3384H26.2569C23.1775 19.3384 20.6446 19.3384 18.5156 19.4257V14.2682C18.6178 13.914 18.7579 13.5079 18.9223 13.0313C19.2019 12.2207 19.5552 11.4541 20.0033 10.7229C21.2327 8.71674 22.9194 7.03 24.9256 5.80061C26.8755 4.60568 29.0645 4.0897 31.6534 3.84354C34.1783 3.60347 37.3266 3.60349 41.2856 3.60352H48.9956Z" fill="#B892F9"/>
</svg>