<svg xmlns="http://www.w3.org/2000/svg" width="76" height="76" viewBox="0 0 76 76" fill="none">
  <path opacity="0.5" d="M50.4023 68.8281C44.5098 68.8281 41.5635 68.8281 39.7329 66.9975C38.1631 65.4277 37.9395 63.0373 37.9076 58.6719L37.9023 53.9844V49.2969V44.6094V39.9219V35.2344V30.5469V25.8594V21.1719L37.9076 16.4844C37.9395 12.119 38.1631 9.72857 39.7329 8.15871C41.5635 6.32812 44.5098 6.32812 50.4023 6.32812H56.6523C62.5449 6.32812 65.4912 6.32812 67.3218 8.15871C69.1523 9.98929 69.1523 12.9356 69.1523 18.8281V56.3282C69.1523 62.2207 69.1523 65.167 67.3218 66.9975C65.4912 68.8281 62.5449 68.8281 56.6523 68.8281H50.4023Z" fill="#EE7F82"/>
  <path d="M47.2773 25.8594H37.9023V30.5469H47.2773C48.5718 30.5469 49.6211 29.4975 49.6211 28.2031C49.6211 26.9087 48.5718 25.8594 47.2773 25.8594Z" fill="#EE7F82"/>
  <path d="M44.1523 16.4844L37.9076 16.4844L37.9023 21.1719H44.1523C45.4468 21.1719 46.4961 20.1225 46.4961 18.8281C46.4961 17.5337 45.4468 16.4844 44.1523 16.4844Z" fill="#EE7F82"/>
  <path d="M44.1523 35.2344H37.9023V39.9219H44.1523C45.4468 39.9219 46.4961 38.8725 46.4961 37.5781C46.4961 36.2837 45.4468 35.2344 44.1523 35.2344Z" fill="#EE7F82"/>
  <path d="M47.2773 44.6094L37.9023 44.6094V49.2969L47.2773 49.2969C48.5718 49.2969 49.6211 48.2475 49.6211 46.9531C49.6211 45.6587 48.5718 44.6094 47.2773 44.6094Z" fill="#EE7F82"/>
  <path d="M44.1523 53.9844H37.9023L37.9076 58.6719H44.1523C45.4468 58.6719 46.4961 57.6225 46.4961 56.3281C46.4961 55.0337 45.4468 53.9844 44.1523 53.9844Z" fill="#EE7F82"/>
  <path d="M25.4023 46.889L25.4023 21.9536C22.9992 22.9442 19.8294 23.7939 16.0279 23.7939C12.2258 23.7939 9.05558 22.9439 6.65234 21.9531L6.65234 46.8889C6.65235 48.8347 6.65235 49.8079 6.77037 50.7626C6.90958 51.8889 7.17109 52.9966 7.55026 54.0663C7.87168 54.973 8.3068 55.8432 9.17704 57.5837L13.7661 66.7618C14.1943 67.6183 15.0697 68.1593 16.0273 68.1593C16.9849 68.1593 17.8604 67.6183 18.2886 66.7618L22.8776 57.5837C23.7479 55.8433 24.183 54.973 24.5044 54.0663C24.8836 52.9966 25.1451 51.8889 25.2843 50.7626C25.4023 49.8078 25.4023 48.8348 25.4023 46.889Z" fill="#EE7F82"/>
  <path opacity="0.5" d="M16.0273 6.32812C21.205 6.32812 25.4023 10.5255 25.4023 15.7031L25.4023 21.9536C22.9992 22.9442 19.8294 23.7939 16.0279 23.7939C12.2258 23.7939 9.05558 22.9439 6.65234 21.9531V15.7031C6.65234 10.5255 10.8497 6.32812 16.0273 6.32812Z" fill="#EE7F82"/>
</svg>