<svg xmlns="http://www.w3.org/2000/svg" width="76" height="76" viewBox="0 0 76 76" fill="none">
  <path d="M66.1252 14.541C66.1252 18.8557 62.6274 22.3535 58.3127 22.3535C53.998 22.3535 50.5002 18.8557 50.5002 14.541C50.5002 10.2263 53.998 6.72852 58.3127 6.72852C62.6274 6.72852 66.1252 10.2263 66.1252 14.541Z" fill="#78ADF9"/>
  <path fill-rule="evenodd" clip-rule="evenodd" d="M28.5387 18.6351C31.3591 17.3908 34.5589 17.3204 37.4313 18.4396C45.4553 21.5658 47.3948 32.0372 41.0229 37.8299L37.7727 40.7846C37.648 40.898 37.6116 40.9313 37.5876 40.954C35.8582 42.5908 35.9831 45.3808 37.8518 46.8566C37.8777 46.877 37.9174 46.9072 38.0514 47.0087L38.062 47.0168C38.2452 47.1556 38.3515 47.2361 38.453 47.3147C44.3056 51.8466 47.7644 58.8061 47.8426 66.2078C47.8439 66.3359 47.8439 66.469 47.8439 66.698V69.2285C47.8439 70.5229 46.7946 71.5723 45.5002 71.5723C44.2058 71.5723 43.1564 70.5229 43.1564 69.2285V66.7127C43.1564 66.4646 43.1564 66.3576 43.1553 66.2573C43.0923 60.2882 40.3029 54.6757 35.5831 51.021C35.5038 50.9596 35.4185 50.8949 35.2208 50.7451L35.2007 50.7299C35.0961 50.6507 35.0148 50.5891 34.9467 50.5353C30.8356 47.2887 30.5608 41.1507 34.3653 37.5496C34.4286 37.4897 34.5037 37.4214 34.6016 37.3325L37.8697 34.3615C41.6666 30.9097 40.5109 24.6701 35.7296 22.8073C34.018 22.1404 32.1114 22.1824 30.4307 22.9238L28.8004 23.6431C27.0965 24.3948 26.3096 24.7425 25.5446 25.1223C24.2546 25.7626 23.0017 26.4752 21.792 27.2567C21.0746 27.7202 20.3735 28.2188 18.8565 29.299L14.3597 32.5013C13.3053 33.2521 11.8419 33.0061 11.091 31.9517C10.3402 30.8973 10.5863 29.4339 11.6406 28.683L16.1906 25.4429C17.6412 24.4099 18.4316 23.847 19.2485 23.3193C20.6063 22.4421 22.0125 21.6423 23.4605 20.9236C24.3315 20.4912 25.2193 20.0995 26.8487 19.3807L28.5387 18.6351Z" fill="#78ADF9"/>
  <g opacity="0.5">
    <path d="M48.2262 37.4106C48.5402 36.1549 49.8127 35.3914 51.0684 35.7053C54.7987 36.6379 58.7013 36.6379 62.4316 35.7053C63.6873 35.3914 64.9598 36.1549 65.2738 37.4106C65.5877 38.6664 64.8242 39.9389 63.5684 40.2528C59.0917 41.372 54.4083 41.372 49.9316 40.2528C48.6758 39.9389 47.9123 38.6664 48.2262 37.4106Z" fill="#78ADF9"/>
    <path d="M30.1254 51.8036C31.1198 52.6322 31.2542 54.1101 30.4255 55.1045L29.615 56.0771C24.733 61.9355 17.501 65.3228 9.875 65.3228C8.58058 65.3228 7.53125 64.2735 7.53125 62.9791C7.53125 61.6847 8.58058 60.6353 9.875 60.6353C16.1098 60.6353 22.0226 57.866 26.014 53.0762L26.8245 52.1036C27.6531 51.1092 29.131 50.9749 30.1254 51.8036Z" fill="#78ADF9"/>
  </g>
</svg>