<svg xmlns="http://www.w3.org/2000/svg" width="76" height="76" viewBox="0 0 76 76" fill="none">
  <circle cx="34.7773" cy="19.2285" r="12.5" fill="#F6BD60"/>
  <path fill-rule="evenodd" clip-rule="evenodd" d="M45.7541 67.6268C47.3559 69.2285 49.9339 69.2285 55.0898 69.2285C60.2458 69.2285 62.8238 69.2285 64.4256 67.6268C66.0273 66.025 66.0273 63.447 66.0273 58.291C66.0273 53.135 66.0273 50.557 64.4256 48.9553C62.8238 47.3535 60.2458 47.3535 55.0898 47.3535C49.9339 47.3535 47.3559 47.3535 45.7541 48.9553C44.1523 50.557 44.1523 53.135 44.1523 58.291C44.1523 63.447 44.1523 66.025 45.7541 67.6268ZM52.0479 62.905C49.8541 61.334 47.2773 59.4889 47.2773 56.2903C47.2773 52.7593 51.5743 50.2552 55.0898 53.6499C58.6053 50.2552 62.9023 52.7593 62.9023 56.2903C62.9023 59.4889 60.3256 61.334 58.1318 62.905C57.9038 63.0683 57.6799 63.2286 57.4635 63.3871C56.6523 63.9815 55.8711 64.541 55.0898 64.541C54.3086 64.541 53.5273 63.9815 52.7162 63.3871C52.4998 63.2286 52.2759 63.0683 52.0479 62.905Z" fill="#F6BD60"/>
  <path opacity="0.5" d="M46.0092 67.8614C45.9215 67.7873 45.8365 67.7091 45.7541 67.6268C44.1523 66.025 44.1523 63.447 44.1523 58.291C44.1523 53.135 44.1523 50.557 45.7541 48.9553C47.3559 47.3535 49.9339 47.3535 55.0898 47.3535C55.5588 47.3535 56.0065 47.3535 56.434 47.3547C52.1117 43.1508 44.0318 40.3223 34.7773 40.3223C20.9702 40.3223 9.77734 46.6183 9.77734 54.3848C9.77734 62.1513 9.77734 68.4473 34.7773 68.4473C39.2853 68.4473 42.9804 68.2425 46.0092 67.8614Z" fill="#F6BD60"/>
</svg>