<svg xmlns="http://www.w3.org/2000/svg" width="76" height="76" viewBox="0 0 76 76" fill="none">
  <circle opacity="0.5" cx="38" cy="37.5781" r="31.25" fill="#A5D27C"/>
  <path d="M27.2955 29.6012C26.7104 23.088 21.6875 17.0189 19.2493 14.7985L17.9023 13.6465C23.3354 9.07927 30.3461 6.32812 37.9993 6.32812C44.9161 6.32812 51.3081 8.57532 56.4849 12.3795C57.2164 14.5998 55.8232 19.2393 54.3603 21.4597C53.8304 22.264 52.6287 23.2624 51.3113 24.2089C48.3411 26.343 44.5926 27.3986 42.6868 31.3281C42.142 32.4514 42.1652 33.5495 42.4273 34.5039C42.6157 35.1901 42.7361 35.936 42.738 36.6655C42.7441 39.0247 40.3583 40.7289 37.9993 40.7031C31.8609 40.6361 27.8425 35.6892 27.2955 29.6012Z" fill="#A5D27C"/>
  <path d="M42.489 57.1909C45.5768 51.3719 55.8695 51.3719 55.8695 51.3719C66.5944 51.2601 68.0432 44.7483 69.0117 41.457C67.2783 55.4612 56.2794 66.5936 42.3391 68.53C41.3309 66.4083 40.1367 61.6237 42.489 57.1909Z" fill="#A5D27C"/>
</svg>