<svg color='currentColor' width="25" height="25" viewBox="0 0 25 25" fill="none" xmlns="http://www.w3.org/2000/svg">
<path fill-rule="evenodd" clip-rule="evenodd" d="M2.54688 12.5C2.54688 18.0228 7.02403 22.5 12.5469 22.5C18.0697 22.5 22.5469 18.0228 22.5469 12.5C22.5469 6.97715 18.0697 2.5 12.5469 2.5C7.02403 2.5 2.54688 6.97715 2.54688 12.5ZM16.0772 12.9697C16.3701 13.2626 16.3701 13.7374 16.0772 14.0303L13.0772 17.0303C12.7843 17.3232 12.3094 17.3232 12.0165 17.0303L9.01654 14.0303C8.72365 13.7374 8.72365 13.2626 9.01654 12.9697C9.30944 12.6768 9.78431 12.6768 10.0772 12.9697L11.7969 14.6893V8.5C11.7969 8.08579 12.1327 7.75 12.5469 7.75C12.9611 7.75 13.2969 8.08579 13.2969 8.5V14.6893L15.0165 12.9697C15.3094 12.6768 15.7843 12.6768 16.0772 12.9697Z" fill="currentColor"/>
</svg>
