<svg xmlns="http://www.w3.org/2000/svg" width="608" height="11" viewBox="0 0 608 11" fill="none">
  <path d="M0.999983 4.99998C11.629 9.00687 22.2606 9.01373 32.8947 5.02056C43.5289 1.0274 54.1604 1.03426 64.7894 5.04115C75.4184 9.04804 86.05 9.05491 96.6842 5.06174C107.318 1.06857 117.95 1.07543 128.579 5.08233C139.208 9.08922 149.839 9.09608 160.474 5.10291C171.108 1.10974 181.739 1.11661 192.368 5.1235C202.997 9.13039 213.629 9.13726 224.263 5.14409C234.897 1.15092 245.529 1.15778 256.158 5.16467C266.787 9.17157 277.418 9.17843 288.053 5.18526C298.687 1.19209 309.318 1.19896 319.947 5.20585C330.576 9.21274 341.208 9.2196 351.842 5.22644C362.476 1.23327 373.108 1.24013 383.737 5.24702C394.366 9.25392 404.997 9.26078 415.631 5.26761C426.266 1.27444 436.897 1.2813 447.526 5.2882C458.155 9.29509 468.787 9.30195 479.421 5.30878C490.055 1.31562 500.687 1.32248 511.316 5.32937C521.945 9.33627 532.576 9.34313 543.21 5.34996C553.845 1.35679 564.476 1.36365 575.105 5.37055C585.734 9.37744 596.366 9.3843 607 5.39113" stroke="#EE7F82" stroke-width="4"/>
</svg>