<svg xmlns="http://www.w3.org/2000/svg" width="198" height="195" viewBox="0 0 198 195" fill="none">
<path d="M15.028 9.57629C-5.07018 28.0394 -3.21444 169.6 17.9607 184.353C39.1359 199.107 165.33 196.21 183.637 181.693C201.942 167.18 204.157 14.1593 180.704 6.91951C157.25 -0.320267 28.2945 -2.60867 15.028 9.57629Z" fill="url(#paint0_linear_702_1407)"/>
<path opacity="0.6" d="M92.5389 182.855C63.4501 182.855 35.9178 180.147 27.4379 174.24C8.71709 161.199 7.07706 36.0504 24.8445 19.7259C30.7648 14.2874 62.7425 12.1102 95.6357 12.1102C127.899 12.1102 161.045 14.207 171.312 17.3747C192.047 23.7769 190.088 159.058 173.905 171.889C165.052 178.907 127.662 182.855 92.5389 182.855Z" fill="#CD8D27"/>
<defs>
<linearGradient id="paint0_linear_702_1407" x1="99.3979" y1="0.962982" x2="99.3979" y2="194.098" gradientUnits="userSpaceOnUse">
<stop stop-color="#FFD08A"/>
<stop offset="1" stop-color="#FBE7C8"/>
</linearGradient>
</defs>
</svg>