<svg width="350" height="13" viewBox="0 0 350 13" fill="none" xmlns="http://www.w3.org/2000/svg">
<path d="M1.41819 6.49836C7.50201 12.5006 13.5897 12.5045 19.6813 6.51015C25.7728 0.515803 31.8605 0.519732 37.9444 6.52194C44.0282 12.5241 50.1159 12.5281 56.2074 6.53373C62.299 0.539379 68.3867 0.543309 74.4705 6.54552C80.5543 12.5477 86.642 12.5517 92.7336 6.5573C98.8252 0.562956 104.913 0.566886 110.997 6.56909C117.081 12.5713 123.168 12.5752 129.26 6.58088C135.351 0.586533 141.439 0.590462 147.523 6.59267C153.607 12.5949 159.694 12.5988 165.786 6.60446C171.878 0.610109 177.965 0.614039 184.049 6.61625C190.133 12.6185 196.221 12.6224 202.312 6.62803C208.404 0.633686 214.491 0.637616 220.575 6.63982C226.659 12.642 232.747 12.646 238.838 6.65161C244.93 0.657263 251.018 0.661192 257.101 6.6634C263.185 12.6656 269.273 12.6695 275.364 6.67519C281.456 0.680839 287.544 0.684769 293.628 6.68698C299.711 12.6892 305.799 12.6931 311.891 6.69876C317.982 0.704416 324.07 0.708346 330.154 6.71055C336.238 12.7128 342.325 12.7167 348.417 6.72234" stroke="#FAC4AD" stroke-width="2.4365"/>
</svg>
