<svg width="1440" height="154" viewBox="0 0 1440 154" fill="none" xmlns="http://www.w3.org/2000/svg">
<path d="M1458.72 18.6953H-10.3633V20.3315H1458.72V18.6953Z" fill="#88A03A"/>
<path d="M1458.72 57.3984H-10.3633V59.0323H1458.72V57.3984Z" fill="#88A03A"/>
<path d="M1458.72 96.1016H-10.3633V97.7354H1458.72V96.1016Z" fill="#88A03A"/>
<path d="M1458.72 134.812H-10.3633V136.446H1458.72V134.812Z" fill="#88A03A"/>
<path d="M492.985 -73.6406H491.352V172.126H492.985V-73.6406Z" fill="#88A03A"/>
<path d="M453.466 -73.6406H451.832V172.126H453.466V-73.6406Z" fill="#88A03A"/>
<path d="M413.944 -73.6406H412.311V172.126H413.944V-73.6406Z" fill="#88A03A"/>
<path d="M374.423 -73.6406H372.789V172.126H374.423V-73.6406Z" fill="#88A03A"/>
<path d="M334.901 -73.6406H333.268V172.126H334.901V-73.6406Z" fill="#88A03A"/>
<path d="M690.591 -73.6406H688.957V172.126H690.591V-73.6406Z" fill="#88A03A"/>
<path d="M651.071 -73.6406H649.438V172.126H651.071V-73.6406Z" fill="#88A03A"/>
<path d="M611.55 -73.6406H609.916V172.126H611.55V-73.6406Z" fill="#88A03A"/>
<path d="M809.153 -73.6406H807.52V172.126H809.153V-73.6406Z" fill="#88A03A"/>
<path d="M769.634 -73.6406H768V172.126H769.634V-73.6406Z" fill="#88A03A"/>
<path d="M730.112 -73.6406H728.479V172.126H730.112V-73.6406Z" fill="#88A03A"/>
<path d="M572.03 -73.6406H570.396V172.126H572.03V-73.6406Z" fill="#88A03A"/>
<path d="M532.507 -73.6406H530.873V172.126H532.507V-73.6406Z" fill="#88A03A"/>
<path d="M967.239 -73.6406H965.605V172.126H967.239V-73.6406Z" fill="#88A03A"/>
<path d="M927.718 -73.6406H926.084V172.126H927.718V-73.6406Z" fill="#88A03A"/>
<path d="M888.196 -73.6406H886.562V172.126H888.196V-73.6406Z" fill="#88A03A"/>
<path d="M848.677 -73.6406H847.043V172.126H848.677V-73.6406Z" fill="#88A03A"/>
<path d="M1164.84 -73.6406H1163.21V172.126H1164.84V-73.6406Z" fill="#88A03A"/>
<path d="M1125.32 -73.6406H1123.69V172.126H1125.32V-73.6406Z" fill="#88A03A"/>
<path d="M1085.8 -73.6406H1084.17V172.126H1085.8V-73.6406Z" fill="#88A03A"/>
<path d="M1283.41 -73.6406H1281.77V172.126H1283.41V-73.6406Z" fill="#88A03A"/>
<path d="M1243.89 -73.6406H1242.25V172.126H1243.89V-73.6406Z" fill="#88A03A"/>
<path d="M1204.36 -73.6406H1202.73V172.126H1204.36V-73.6406Z" fill="#88A03A"/>
<path d="M1401.97 -73.6406H1400.34V172.126H1401.97V-73.6406Z" fill="#88A03A"/>
<path d="M1362.45 -73.6406H1360.82V172.126H1362.45V-73.6406Z" fill="#88A03A"/>
<path d="M1322.93 -73.6406H1321.29V172.126H1322.93V-73.6406Z" fill="#88A03A"/>
<path d="M1046.28 -73.6406H1044.65V172.126H1046.28V-73.6406Z" fill="#88A03A"/>
<path d="M1006.76 -73.6406H1005.12V172.126H1006.76V-73.6406Z" fill="#88A03A"/>
<path d="M176.817 -73.6406H175.184V172.126H176.817V-73.6406Z" fill="#88A03A"/>
<path d="M137.298 -73.6406H135.664V172.126H137.298V-73.6406Z" fill="#88A03A"/>
<path d="M97.7745 -73.6406H96.1406V172.126H97.7745V-73.6406Z" fill="#88A03A"/>
<path d="M58.255 -73.6406H56.6211V172.126H58.255V-73.6406Z" fill="#88A03A"/>
<path d="M18.7335 -73.6406H17.0996V172.126H18.7335V-73.6406Z" fill="#88A03A"/>
<path d="M295.38 -73.6406H293.746V172.126H295.38V-73.6406Z" fill="#88A03A"/>
<path d="M255.86 -73.6406H254.227V172.126H255.86V-73.6406Z" fill="#88A03A"/>
<path d="M216.339 -73.6406H214.705V172.126H216.339V-73.6406Z" fill="#88A03A"/>
</svg>
