<svg xmlns="http://www.w3.org/2000/svg" width="46" height="45" viewBox="0 0 46 45" fill="none">
  <g clip-path="url(#clip0_702_1585)">
    <path fill-rule="evenodd" clip-rule="evenodd" d="M23.0812 10.229C24.4014 10.229 25.6675 9.70455 26.601 8.77104C27.5345 7.83752 28.059 6.5714 28.059 5.25121C28.059 3.93103 27.5345 2.66491 26.601 1.73139C25.6675 0.79788 24.4014 0.273438 23.0812 0.273438C21.761 0.273438 20.4949 0.79788 19.5614 1.73139C18.6279 2.66491 18.1034 3.93103 18.1034 5.25121C18.1034 6.5714 18.6279 7.83752 19.5614 8.77104C20.4949 9.70455 21.761 10.229 23.0812 10.229ZM38.4791 12.9281C38.6434 13.4913 38.5772 14.0968 38.2951 14.6113C38.013 15.1258 37.538 15.5071 36.9747 15.6714C34.3465 16.4368 31.9726 17.0143 29.7182 17.3981V42.308C29.7189 42.8778 29.4996 43.426 29.1062 43.8382C28.7127 44.2504 28.1754 44.4948 27.6061 44.5206C27.0368 44.5464 26.4796 44.3516 26.0504 43.9767C25.6213 43.6018 25.3533 43.0758 25.3024 42.5082L24.1962 30.3403C24.1902 30.2737 24.1873 30.2069 24.1874 30.1401H21.975C21.9751 30.2069 21.9721 30.2737 21.9662 30.3403L20.86 42.5082C20.8091 43.0758 20.5411 43.6018 20.112 43.9767C19.6828 44.3516 19.1256 44.5464 18.5563 44.5206C17.987 44.4948 17.4497 44.2504 17.0562 43.8382C16.6627 43.426 16.4435 42.8778 16.4442 42.308V17.3572C14.1953 16.97 11.8303 16.4048 9.21532 15.6791C8.93267 15.6038 8.66776 15.4733 8.4359 15.295C8.20404 15.1166 8.00985 14.8941 7.86455 14.6403C7.71925 14.3864 7.62573 14.1063 7.5894 13.816C7.55307 13.5258 7.57465 13.2313 7.6529 12.9494C7.73114 12.6676 7.8645 12.4041 8.04525 12.1741C8.22601 11.9441 8.45056 11.7523 8.70594 11.6097C8.96131 11.4671 9.24243 11.3765 9.53302 11.3433C9.82362 11.31 10.1179 11.3347 10.3989 11.4159C15.4962 12.8296 19.3257 13.5309 23.0912 13.5475C26.8477 13.5641 30.6684 12.9004 35.7358 11.4237C36.2991 11.2594 36.9046 11.3256 37.419 11.6077C37.9335 11.8898 38.3148 12.3648 38.4791 12.9281Z" fill="white"/>
  </g>
  <defs>
    <clipPath id="clip0_702_1585">
      <rect width="44.8" height="44.8" fill="white" transform="translate(0.679688)"/>
    </clipPath>
  </defs>
</svg>