<svg xmlns="http://www.w3.org/2000/svg" width="64" height="64" viewBox="0 0 64 64" fill="none">
  <path d="M24.6035 40.5078C24.6035 40.5078 0.871433 45.4408 0.0944328 48.4198C-0.682567 51.3988 3.47545 53.7308 7.41945 53.0828C11.3634 52.4348 27.0784 42.8138 27.0784 42.8138C27.0784 42.8138 17.9694 55.2848 20.4304 57.0978C22.8914 58.9108 25.1354 57.4868 25.8914 55.8028C26.6484 54.1188 29.3565 44.9348 29.3565 44.9348C29.3565 44.9348 27.8695 40.7558 24.6035 40.5078Z" fill="#FFC5C6"/>
  <path d="M25.8906 38.6952C25.8906 38.6952 33.9007 22.9042 43.7457 12.2822C53.5897 1.66024 61.4917 -1.83676 63.5637 0.883236C65.6367 3.60324 54.8846 18.3702 46.3356 26.0122C37.7866 33.6542 28.6707 41.5562 28.6707 41.5562C28.6707 41.5562 54.4956 21.8672 57.2166 21.8672C59.9366 21.8672 60.4547 25.8832 56.5687 29.5092C52.6827 33.1362 30.4036 44.4052 30.4036 44.4052C30.4036 44.4052 26.4686 39.3142 25.8906 38.6952Z" fill="#FFC5C6"/>
  <path d="M51.9058 58.9093C48.2838 55.9653 37.0098 48.2963 33.5128 45.8353C30.7178 43.8683 26.4658 39.3403 24.8698 37.5993C25.5058 36.5073 25.5768 35.0643 24.9308 33.7773C24.1418 32.2063 22.5308 31.3503 20.9968 31.5453C19.9988 29.9143 19.6938 26.2753 19.6938 26.2753C19.6938 26.2753 21.1428 24.3323 19.7178 24.2673C18.2928 24.2023 18.6818 26.0163 18.6818 26.0163C18.6818 26.0163 18.7468 26.4053 19.2648 28.4123C19.5728 29.6053 20.0388 30.8623 20.3678 31.6893C20.2128 31.7403 20.0598 31.7993 19.9098 31.8743C19.2818 32.1893 18.7958 32.6803 18.4678 33.2663C16.6768 32.7593 13.9858 29.7683 13.9858 29.7683C13.9858 29.7683 13.9678 27.3443 12.7928 28.1533C11.6178 28.9623 13.0228 30.1733 13.0228 30.1733C13.0228 30.1733 13.3088 30.4443 14.9348 31.7313C16.0838 32.6413 17.4698 33.4903 18.1838 33.9113C17.8628 34.8813 17.9188 36.0083 18.4358 37.0373C19.3288 38.8143 21.2728 39.6743 22.9678 39.1333C25.6088 42.0353 33.8148 50.9703 39.0818 55.8073C45.4288 61.6363 47.5008 63.9763 49.9618 63.9673C52.4248 63.9613 53.8368 60.4783 51.9058 58.9093Z" fill="#EE7F82"/>
</svg>