<svg xmlns="http://www.w3.org/2000/svg" width="46" height="45" viewBox="0 0 46 45" fill="none">
  <path d="M41.0652 3.25977H5.73717C4.88757 3.25977 4.20117 3.94617 4.20117 4.79577V40.1238C4.20117 40.9734 4.88757 41.6598 5.73717 41.6598H41.0652C41.9148 41.6598 42.6012 40.9734 42.6012 40.1238V4.79577C42.6012 3.94617 41.9148 3.25977 41.0652 3.25977ZM19.9548 34.6038H17.5164C17.4108 34.6038 17.3004 34.551 17.2332 34.4646L15.5292 32.3766L13.8252 34.4646C13.7919 34.5081 13.7491 34.5433 13.6999 34.5674C13.6508 34.5916 13.5967 34.604 13.542 34.6038H11.1036C10.7868 34.6038 10.614 34.2246 10.8252 33.975L13.8348 30.2886L10.8972 26.6934C10.6908 26.4438 10.8636 26.0646 11.1804 26.0646H13.6236C13.7292 26.0646 13.8396 26.1174 13.9068 26.2038L15.5388 28.2006L17.1708 26.2038C17.2428 26.1126 17.3436 26.0646 17.454 26.0646H19.8924C20.2092 26.0646 20.382 26.4438 20.1756 26.6934L17.2332 30.2838L20.2428 33.9702C20.4444 34.2246 20.2716 34.6038 19.9548 34.6038ZM20.3292 16.2678C20.3292 16.3734 20.262 16.4598 20.1756 16.4598H16.8732V19.7574C16.8732 19.8486 16.7868 19.9158 16.6812 19.9158H14.3772C14.2716 19.9158 14.1852 19.8486 14.1852 19.7622V16.4598H10.8828C10.7964 16.4598 10.7292 16.3734 10.7292 16.2678V13.9638C10.7292 13.8582 10.7964 13.7718 10.8828 13.7718H14.1852V10.4694C14.1852 10.383 14.2716 10.3158 14.3772 10.3158H16.6812C16.7868 10.3158 16.8732 10.383 16.8732 10.4694V13.7718H20.1708C20.262 13.7718 20.3292 13.8582 20.3292 13.9638V16.2678ZM36.0732 33.9798C36.0732 34.0854 36.006 34.1718 35.9196 34.1718H26.6268C26.5404 34.1718 26.4732 34.0854 26.4732 33.9798V31.6758C26.4732 31.5702 26.5404 31.4838 26.6268 31.4838H35.9148C36.006 31.4838 36.0732 31.5702 36.0732 31.6758V33.9798ZM36.0732 28.9878C36.0732 29.0934 36.006 29.1798 35.9196 29.1798H26.6268C26.5404 29.1798 26.4732 29.0934 26.4732 28.9878V26.6838C26.4732 26.5782 26.5404 26.4918 26.6268 26.4918H35.9148C36.006 26.4918 36.0732 26.5782 36.0732 26.6838V28.9878ZM36.0732 16.2678C36.0732 16.3734 36.006 16.4598 35.9196 16.4598H26.6268C26.5404 16.4598 26.4732 16.3734 26.4732 16.2678V13.9638C26.4732 13.8582 26.5404 13.7718 26.6268 13.7718H35.9148C36.006 13.7718 36.0732 13.8582 36.0732 13.9638V16.2678Z" fill="white"/>
</svg>