<svg width="46" height="45" viewBox="0 0 46 45" fill="none" xmlns="http://www.w3.org/2000/svg">
<path fill-rule="evenodd" clip-rule="evenodd" d="M42.6245 7.06523C42.6615 6.59948 42.6801 6.13245 42.6805 5.66523V2.86523H37.7805C34.1453 2.86599 30.6084 4.04522 27.7 6.22607C24.7917 8.40693 22.6688 11.4719 21.6497 14.9612C20.0806 12.9373 18.0689 11.2995 15.7689 10.1735C13.4688 9.04747 10.9414 8.46312 8.38047 8.46523H3.48047V11.2652C3.48047 15.7209 5.25046 19.994 8.40107 23.1446C11.5517 26.2952 15.8248 28.0652 20.2805 28.0652H20.9805V39.9652C20.9805 40.5222 21.2017 41.0563 21.5955 41.4502C21.9894 41.844 22.5235 42.0652 23.0805 42.0652C23.6374 42.0652 24.1716 41.844 24.5654 41.4502C24.9592 41.0563 25.1805 40.5222 25.1805 39.9652V22.4652H25.8805C30.0942 22.4658 34.1543 20.883 37.2557 18.0305C40.3571 15.1781 42.2733 11.2643 42.6245 7.06523ZM25.2561 18.2652C25.6005 15.1847 27.0683 12.3392 29.379 10.2729C31.6896 8.20668 34.6807 7.06464 37.7805 7.06523H38.4049C38.0605 10.1458 36.5926 12.9913 34.282 15.0575C31.9714 17.1238 28.9802 18.2658 25.8805 18.2652H25.2561ZM8.38047 12.6652C11.4802 12.6646 14.4714 13.8067 16.782 15.8729C19.0926 17.9392 20.5605 20.7847 20.9049 23.8652H20.2805C17.1807 23.8658 14.1896 22.7238 11.879 20.6575C9.56835 18.5913 8.10048 15.7458 7.75607 12.6652H8.38047Z" fill="white"/>
</svg>
