<svg xmlns="http://www.w3.org/2000/svg" width="35" height="32" viewBox="0 0 35 32" fill="none">
  <path d="M27.9287 19.7259C27.9287 19.7259 24.2157 11.9539 18.7107 6.96686C13.2057 1.97986 6.53469 -1.19314 3.36169 0.425862C0.188692 2.04486 2.58472 8.90986 5.11072 11.7599C7.63672 14.6099 11.3927 16.4229 11.3927 16.4229C11.3927 16.4229 2.5847 14.7259 0.965696 18.9099C-0.653304 23.0939 0.0576963 25.9079 0.965696 26.7209C2.1957 27.8219 5.24069 28.7859 13.4007 28.7289C20.4747 28.6799 22.1437 28.1559 22.1437 28.1559L27.9287 19.7259Z" fill="#FFABD6"/>
  <path d="M25.9557 27.0979C25.9687 26.2449 25.6967 26.8799 15.9377 26.32C13.4657 26.204 4.94373 26.349 4.62473 22.715C4.62473 22.715 4.55773 23.094 4.59573 20.229C4.64473 19.682 4.76575 19.1089 5.29575 18.8359C7.60875 17.8159 10.2887 18.159 12.7337 18.374C14.3187 18.537 15.8357 19.061 17.3317 19.58C17.8017 19.802 18.4377 19.61 18.1707 18.991C17.9427 18.683 17.6097 18.469 17.3407 18.206C14.2357 15.703 11.1677 13.161 8.46375 10.217C7.20575 8.74095 3.73974 5.55495 5.85974 3.70295C7.89674 2.97795 10.8297 5.13595 12.5197 6.19595C16.2057 8.57695 21.6387 14.247 24.1597 17.889C25.0677 19.301 25.8137 20.8099 26.6737 22.2509C26.9287 22.9079 27.5887 22.4949 27.2817 21.903C26.7137 20.636 26.0837 19.42 25.4027 18.215C23.1297 14.328 17.0657 8.15096 13.8197 6.02096C11.7317 4.67696 8.62473 2.33996 6.06073 2.81196C5.39173 2.89796 3.97872 3.65695 4.52972 6.18395C5.75972 9.63695 12.9457 15.9129 15.8577 18.1559C13.1647 17.261 6.32474 16.439 4.21274 18.589C3.47574 19.619 3.72172 20.9059 3.63672 22.0869C3.71672 26.8229 9.81273 26.992 14.3407 27.289C24.9877 27.574 25.8687 28.014 25.9557 27.0979Z" fill="#FFCC00"/>
  <path d="M22.3901 23.3613C23.6471 23.1353 24.1641 21.5013 23.5641 20.4643C23.1031 19.6983 21.9341 19.1883 21.1051 19.6363C19.3031 20.6103 20.8921 23.8423 22.3901 23.3613Z" fill="#FFCC00"/>
  <path d="M16.0852 23.4434C16.6922 23.2204 16.5532 22.3274 16.0202 22.1034C15.5532 21.8734 15.0412 22.2974 15.0352 22.7824C15.0502 23.2664 15.6472 23.6204 16.0852 23.4434Z" fill="#FFCC00"/>
  <path d="M11.9375 23.2651C11.9625 23.2221 11.9805 23.176 11.9905 23.129C12.4025 22.732 11.8965 22.087 11.3945 22.312C10.6355 22.633 11.3145 24.0341 11.9375 23.2651Z" fill="#FFCC00"/>
  <path d="M7.83038 23.1206C8.08638 23.0676 8.11437 22.8136 8.17337 22.6096C8.64037 21.9896 7.60538 21.4856 7.39038 22.1766C7.25638 22.5596 7.26138 23.2286 7.83038 23.1206Z" fill="#FFCC00"/>
  <path d="M18.8526 14.7556C18.6536 14.3746 18.0426 14.4656 17.9856 14.8996C17.8486 15.6596 19.3286 15.9296 18.8526 14.7556Z" fill="#FFCC00"/>
  <path d="M15.4985 12.2985C15.9275 11.8355 15.4455 11.1465 14.9155 11.5695C14.5375 11.9095 15.0885 12.6625 15.4985 12.2985Z" fill="#FFCC00"/>
  <path d="M11.3502 8.59775C11.3322 8.32975 11.3592 7.99075 11.0602 7.86275C10.8042 7.75175 10.4742 7.91876 10.4432 8.20476C10.3492 8.74976 11.1492 9.29175 11.3502 8.59775Z" fill="#FFCC00"/>
  <path d="M24.3051 23.8497C26.7561 20.9437 28.1031 18.9087 28.6971 17.9387C28.0691 17.1797 27.7791 16.0647 28.0061 14.9117C28.2651 13.5967 29.1271 12.5857 30.1671 12.2067C30.2371 11.2587 30.4281 8.5437 30.4051 7.1677C30.3771 5.4837 29.2351 3.1847 29.2351 3.1847C29.2351 3.1847 28.2961 3.0227 28.1341 1.9217C27.9971 0.990695 28.6201 0.270695 29.5451 1.14469C30.5851 2.12769 29.7861 3.0557 29.7861 3.0557C29.7861 3.0557 30.5631 4.0267 30.8871 7.0707C31.1261 9.3137 30.8721 11.2197 30.7221 12.0687C30.9951 12.0317 31.2751 12.0357 31.5551 12.0907C31.6231 12.1037 31.6881 12.1237 31.7541 12.1427C32.1421 11.0527 32.8971 8.88969 33.2061 7.70169C33.6301 6.07169 33.1441 3.55069 33.1441 3.55069C33.1441 3.55069 32.2821 3.14369 32.4211 2.03869C32.5381 1.10469 33.3311 0.577698 33.9881 1.6667C34.7271 2.8927 33.7091 3.5717 33.7091 3.5717C33.7091 3.5717 34.1981 4.7157 33.6961 7.7357C33.3491 9.8227 32.6641 11.5087 32.2731 12.3527C33.4291 12.9807 34.0781 14.4767 33.7681 16.0457C33.4131 17.8467 31.9291 19.0797 30.4001 18.8917C30.4411 20.1127 30.3081 23.4787 27.9291 26.5317C24.4971 30.9357 18.9701 32.4897 17.6751 31.7127C16.3791 30.9357 20.7841 28.0227 24.3051 23.8497Z" fill="#FF8400"/>
</svg>