<svg xmlns="http://www.w3.org/2000/svg" width="46" height="45" viewBox="0 0 46 45" fill="none">
  <path d="M23.1055 1.80273C19.518 1.80273 16.6218 4.66399 16.6218 8.21386C16.6218 10.2246 17.3218 11.1696 18.0918 12.3946C18.608 13.2084 19.1418 14.1534 19.448 15.5096H26.7105C27.0168 14.1184 27.5505 13.1646 28.0668 12.3421C28.8455 11.1084 29.5368 10.1809 29.5368 8.21386C29.5368 4.66399 26.6668 1.80273 23.1055 1.80273ZM10.6718 2.47648L7.7668 3.15461L14.8718 6.67648L10.6718 2.47648ZM35.4868 2.47648L31.2868 6.67648L38.3918 3.15461L35.4868 2.47648ZM19.098 6.98711L23.0793 8.97336L27.0605 6.98711L25.2405 14.2496L23.718 13.8646L24.698 9.92711L23.0793 10.7409L21.4605 9.92711L22.4405 13.8646L20.918 14.2496L19.098 6.98711ZM6.2793 8.45973V11.2659L14.6793 9.85711L6.2793 8.45973ZM39.8793 8.45973L31.4793 9.85711L39.8793 11.2571V8.45973ZM29.9218 12.6834L33.413 18.2221L35.5218 16.8834L29.9218 12.6834ZM16.2368 12.6921L10.6368 16.8921L12.7455 18.2309L16.2368 12.6921ZM19.5793 16.7696V18.1696H26.5793V16.7696H19.5793ZM22.5893 19.2459C21.3905 19.2459 20.2355 19.2896 19.4655 19.3334C13.498 20.2696 12.2118 28.5559 13.6293 36.0984H15.6943L15.6068 26.8759L17.2343 26.8584C17.1118 32.4321 17.3743 37.9359 17.7155 43.4571H22.213V34.2084H23.8493V43.4571H28.2593C28.653 37.7696 28.7755 31.9509 28.828 26.8584L30.4643 26.8759L30.368 36.0984H32.5205C34.1218 28.3546 32.1005 20.4446 26.6493 19.4209C25.8268 19.2984 24.4705 19.2459 23.0968 19.2459H22.5893Z" fill="white"/>
</svg>