<svg xmlns="http://www.w3.org/2000/svg" width="178" height="201" viewBox="0 0 178 201" fill="none">
  <path d="M85.4217 127.873C87.2594 131.539 93.0536 138.138 97.2593 139.078C100.526 139.814 99.0001 137.287 98.2103 135.28C97.0865 132.431 95.89 129.613 94.3684 126.948C93.1445 124.809 90.4738 119.634 87.3317 119.849C83.5437 120.109 84.3004 125.646 85.4217 127.873Z" fill="#A5D27C"/>
  <path d="M90.6481 127.827C93.1424 132.245 97.486 140.632 103.227 141.319C103.538 141.357 103.666 140.987 103.451 140.79C101.183 138.711 98.7081 137.313 96.5983 134.952C94.5412 132.654 92.8088 130.053 91.0343 127.537C90.8489 127.274 90.499 127.565 90.6481 127.827Z" fill="#61341E"/>
  <path d="M106.417 170.054C110.24 171.551 118.954 172.594 122.718 170.491C125.637 168.849 122.815 167.983 120.888 167.026C118.147 165.653 115.374 164.355 112.461 163.391C110.121 162.612 104.678 160.546 102.488 162.807C99.8406 165.53 104.098 169.144 106.417 170.054Z" fill="#A5D27C"/>
  <path d="M110.242 166.505C113.351 167.559 116.461 168.445 119.705 168.987C122.257 169.411 126.552 169.948 128.673 168.156C128.857 167.997 128.813 167.643 128.538 167.622C127.47 167.533 126.5 167.829 125.441 167.984C123.596 168.254 121.705 168.091 119.863 167.895C116.657 167.555 113.504 166.765 110.368 166.044C110.102 165.984 109.982 166.418 110.242 166.505Z" fill="#61341E"/>
  <path d="M78.429 -16.9816C94.5688 -26.1396 123.658 -10.0417 122.875 8.84324C122.058 28.5111 89.6976 39.1705 77.1857 50.3126C67.4944 58.9396 63.0673 71.3576 69.9026 82.9155C78.0792 96.746 99.9552 88.284 112.203 89.0076C122.755 89.6328 129.187 97.5304 122.853 107.182C120.365 110.977 115.825 114.172 112.4 117.183C107.904 121.137 103.941 125.304 101.78 130.964C98.4287 139.747 104.132 149.385 109.35 156.136C125.245 176.703 156.928 174.297 177.811 163.517C178.762 163.026 178.538 161.28 177.32 161.548C159.932 165.393 143.161 171.717 125.698 164.436C114.577 159.803 103.757 146.447 104.501 134.102C105.424 118.745 127.48 114.606 128.487 98.9024C129.266 86.794 110.711 86.0905 102.975 86.6218C91.5788 87.4044 80.6213 91.8874 71.6734 81.5888C59.4222 67.4839 78.6683 50.8333 88.9775 43.8207C100.807 35.7768 121.271 27.4437 124.233 11.3131C128.27 -10.686 95.7113 -27.15 77.8038 -18.1039C76.96 -17.6786 77.6109 -16.5144 78.429 -16.9816Z" fill="#61341E"/>
  <path d="M148.002 92.6123C144.139 91.2323 135.394 90.4597 131.697 92.6761C128.832 94.4055 131.676 95.1797 133.633 96.0849C136.41 97.3692 139.224 98.5854 142.165 99.4617C144.528 100.162 150.035 102.069 152.151 99.7412C154.718 96.9381 150.346 93.458 148.002 92.6123Z" fill="#A5D27C"/>
  <path d="M144.299 96.2815C141.015 95.2809 137.728 94.4483 134.314 94.0403C131.794 93.7373 127.855 93.4256 125.823 95.1895C125.65 95.3429 125.675 95.7113 125.96 95.7221C127.072 95.7633 128.076 95.436 129.174 95.2487C131.105 94.9209 133.095 95.0614 135.034 95.2195C138.105 95.465 141.152 96.1451 144.171 96.7445C144.438 96.7978 144.564 96.3628 144.299 96.2815Z" fill="#61341E"/>
  <path d="M136.866 20.7871C133.003 19.4071 124.254 18.6289 120.563 20.8527C117.693 22.5747 120.541 23.3512 122.495 24.2559C125.273 25.5421 128.086 26.7565 131.025 27.6309C133.392 28.3368 138.895 30.2385 141.014 27.9141C143.583 25.1129 139.209 21.6276 136.866 20.7871Z" fill="#A5D27C"/>
  <path d="M133.159 24.4306C129.878 23.4337 126.591 22.601 123.178 22.1898C120.661 21.8873 116.719 21.5718 114.686 23.3372C114.512 23.4905 114.539 23.8608 114.822 23.8698C115.935 23.9128 116.939 23.5837 118.04 23.3968C119.97 23.069 121.96 23.2127 123.9 23.3676C126.969 23.6145 130.016 24.2979 133.033 24.8921C133.3 24.9454 133.426 24.5104 133.159 24.4306Z" fill="#61341E"/>
  <path d="M70.7516 29.0236C70.1382 33.0812 71.0714 41.8124 73.9609 45.0082C76.2063 47.492 76.4172 44.546 76.9317 42.4562C77.6561 39.4838 78.3025 36.4853 78.5918 33.4339C78.8296 30.9747 79.6318 25.2054 76.9425 23.5756C73.7007 21.6051 71.1246 26.5621 70.7516 29.0236Z" fill="#A5D27C"/>
  <path d="M75.0531 31.9733C74.718 35.2747 74.5568 38.536 74.7542 41.8521C74.9146 44.555 75.4167 48.441 77.5668 50.3116C77.7533 50.4749 78.0956 50.2941 78.0449 50.0437C77.4709 47.2166 76.2174 44.6684 75.8548 41.7267C75.4577 38.502 75.5285 35.221 75.5334 31.9806C75.5317 31.7022 75.0803 31.7024 75.0531 31.9733Z" fill="#61341E"/>
  <path d="M81.651 67.3074C79.1927 70.5941 75.8772 78.7213 76.9126 82.907C77.7111 86.1543 79.2955 83.665 80.733 82.0607C82.7781 79.7857 84.7695 77.4547 86.471 74.9039C87.8431 72.8505 91.2772 68.1481 89.6833 65.4412C87.7582 62.1639 83.1424 65.3161 81.651 67.3074Z" fill="#A5D27C"/>
  <path d="M84.0521 71.9317C82.1248 74.7799 80.3648 77.6804 78.9628 80.8254C77.945 83.1145 76.4924 86.8219 77.5711 89.265C77.6722 89.4894 78.0308 89.5324 78.1246 89.2727C78.494 88.2181 78.4703 87.1521 78.6187 86.0475C78.8758 84.104 79.6014 82.2494 80.3205 80.4405C81.4598 77.5826 83.0051 74.8778 84.4652 72.1758C84.5949 71.9329 84.2029 71.7052 84.0521 71.9317Z" fill="#61341E"/>
  <path d="M154.072 145.777C152.19 149.425 150.268 157.988 151.979 161.944C153.312 165.018 154.462 162.298 155.611 160.476C157.254 157.887 158.83 155.262 160.084 152.463C161.095 150.212 163.705 145.008 161.677 142.597C159.239 139.692 155.211 143.56 154.072 145.777Z" fill="#A5D27C"/>
  <path d="M157.195 149.95C155.772 153.064 154.532 156.207 153.673 159.525C153.059 161.894 152.189 165.959 153.711 168.126C153.867 168.35 154.195 168.232 154.243 167.989C154.444 166.974 154.244 166.008 154.192 164.974C154.102 163.204 154.429 161.409 154.78 159.684C155.442 156.431 156.574 153.279 157.64 150.141C157.739 149.848 157.325 149.666 157.195 149.95Z" fill="#61341E"/>
</svg>